<svg viewBox="0 0 14 15" fill="none" xmlns="http://www.w3.org/2000/svg"><path d="M4.09231 11.9093C3.32224 11.9093 2.69231 12.5923 2.69231 13.4272C2.69231 14.2621 3.32224 14.9451 4.09231 14.9451C4.86238 14.9451 5.49234 14.2621 5.49234 13.4272C5.49231 12.5922 4.86234 11.9093 4.09231 11.9093ZM0 0V1.51786H1.4L3.9201 7.05226L2.86647 8.91141C2.76153 9.10115 2.69147 9.36684 2.69147 9.63258C2.69147 10.6487 3.33173 11.1504 4.2 11.1504H12.3846V9.69096H4.3714C4.26647 9.69096 4.1964 9.61499 4.1964 9.50122C4.1964 9.46342 4.27067 9.31149 4.27067 9.31149L4.97007 8.11472H10.1849C10.7099 8.11472 11.1651 7.81126 11.4099 7.31799L13.9299 2.61848C13.9716 2.52869 14 2.39059 14 2.23905C14 1.82143 13.6849 1.51789 13.3 1.51789H2.94013L2.275 0H0ZM10.9846 11.9093C10.2145 11.9093 9.58458 12.5923 9.58458 13.4272C9.58458 14.2621 10.2145 14.9451 10.9846 14.9451C11.7546 14.9451 12.3846 14.2621 12.3846 13.4272C12.3846 12.5922 11.7546 11.9093 10.9846 11.9093Z" fill="black"/></svg>