<svg width="96" height="96" viewBox="0 0 96 96" fill="none" xmlns="http://www.w3.org/2000/svg">
<path d="M81.879 91.5H14.121C12.7845 91.5 12.1155 89.8845 13.0605 88.9395L20.742 81.258C21.867 80.133 23.394 79.5 24.984 79.5H71.013C72.6045 79.5 74.13 80.1315 75.255 81.258L82.9365 88.9395C83.8845 89.8845 83.2155 91.5 81.879 91.5Z" fill="#66798F"/>
<path d="M88.5 73.5H7.5C5.8425 73.5 4.5 72.1575 4.5 70.5V10.5C4.5 8.8425 5.8425 7.5 7.5 7.5H88.5C90.1575 7.5 91.5 8.8425 91.5 10.5V70.5C91.5 72.1575 90.1575 73.5 88.5 73.5Z" fill="#66798F"/>
<path d="M13.5 16.5H82.5V64.5H13.5V16.5Z" fill="#C5E4FA"/>
<path d="M57 85.5H39C38.172 85.5 37.5 84.828 37.5 84V73.5H58.5V84C58.5 84.828 57.828 85.5 57 85.5Z" fill="#72CAAF"/>
<path d="M37.5 73.5H58.5V79.5H37.5V73.5Z" fill="#B0C1D4"/>
<path d="M56.8935 64.5L84 37.3935V16.5H80.7855L32.7855 64.5H56.8935ZM16.7145 64.5H26.3565L74.3565 16.5H64.7145L16.7145 64.5ZM58.29 16.5L15 59.79V51.75L50.25 16.5H58.29Z" fill="#E3F2FF"/>
<path d="M88.5 6H7.5C5.019 6 3 8.019 3 10.5V70.5C3 72.981 5.019 75 7.5 75H36V78H24.99C22.98 78 21.105 78.78 19.68 80.19L12 87.885C11.145 88.74 10.89 90.03 11.355 91.155C11.82 92.28 12.9 93 14.115 93H81.885C83.1 93 84.18 92.28 84.645 91.155C85.11 90.03 84.855 88.74 84 87.885L76.32 80.19C74.895 78.78 73.02 78 71.01 78H60V75H88.5C90.981 75 93 72.981 93 70.5V10.5C93 8.019 90.981 6 88.5 6ZM71.01 81C72.195 81 73.365 81.48 74.19 82.32L81.885 90H14.115L21.81 82.32C22.635 81.48 23.805 81 24.99 81H36V84C36 85.65 37.35 87 39 87H57C58.65 87 60 85.65 60 84V81H71.01ZM57 78V81V84H39V81V78V75H57V78ZM90 70.5C90 71.328 89.3265 72 88.5 72H58.5H37.5H7.5C6.6735 72 6 71.328 6 70.5V10.5C6 9.672 6.6735 9 7.5 9H88.5C89.3265 9 90 9.672 90 10.5V70.5Z" fill="#8D6C9F"/>
<path d="M82.5 15H13.5C12.672 15 12 15.6705 12 16.5V64.5C12 65.3295 12.672 66 13.5 66H82.5C83.328 66 84 65.3295 84 64.5V16.5C84 15.6705 83.328 15 82.5 15ZM81 63H15V18H81V63Z" fill="#8D6C9F"/>
<path d="M25.5 53.9999C24.672 53.9999 24 54.6704 24 55.4999V58.4999C24 59.3294 24.672 59.9999 25.5 59.9999C26.328 59.9999 27 59.3294 27 58.4999V55.4999C27 54.6704 26.328 53.9999 25.5 53.9999ZM18 59.9999C18.828 59.9999 19.5 59.3294 19.5 58.4999V55.4999C19.5 54.6704 18.828 53.9999 18 53.9999C17.172 53.9999 16.5 54.6704 16.5 55.4999V58.4999C16.5 59.3294 17.172 59.9999 18 59.9999ZM33 53.9999C32.172 53.9999 31.5 54.6704 31.5 55.4999V58.4999C31.5 59.3294 32.172 59.9999 33 59.9999C33.828 59.9999 34.5 59.3294 34.5 58.4999V55.4999C34.5 54.6704 33.828 53.9999 33 53.9999ZM40.5 59.9999C41.328 59.9999 42 59.3294 42 58.4999V55.4999C42 54.6704 41.328 53.9999 40.5 53.9999C39.672 53.9999 39 54.6704 39 55.4999V58.4999C39 59.3294 39.672 59.9999 40.5 59.9999ZM48 59.9999C48.828 59.9999 49.5 59.3294 49.5 58.4999V55.4999C49.5 54.6704 48.828 53.9999 48 53.9999C47.172 53.9999 46.5 54.6704 46.5 55.4999V58.4999C46.5 59.3294 47.172 59.9999 48 59.9999ZM63 53.9999C62.172 53.9999 61.5 54.6704 61.5 55.4999V58.4999C61.5 59.3294 62.172 59.9999 63 59.9999C63.828 59.9999 64.5 59.3294 64.5 58.4999V55.4999C64.5 54.6704 63.828 53.9999 63 53.9999ZM55.5 59.9999C56.328 59.9999 57 59.3294 57 58.4999V55.4999C57 54.6704 56.328 53.9999 55.5 53.9999C54.672 53.9999 54 54.6704 54 55.4999V58.4999C54 59.3294 54.672 59.9999 55.5 59.9999ZM70.5 53.9999C69.672 53.9999 69 54.6704 69 55.4999V58.4999C69 59.3294 69.672 59.9999 70.5 59.9999C71.328 59.9999 72 59.3294 72 58.4999V55.4999C72 54.6704 71.328 53.9999 70.5 53.9999ZM78 59.9999C78.828 59.9999 79.5 59.3294 79.5 58.4999V55.4999C79.5 54.6704 78.828 53.9999 78 53.9999C77.172 53.9999 76.5 54.6704 76.5 55.4999V58.4999C76.5 59.3294 77.172 59.9999 78 59.9999ZM58.9395 50.5604C59.232 50.8529 59.616 50.9999 60 50.9999C60.384 50.9999 60.768 50.8529 61.0605 50.5604L73.0605 38.5604C73.647 37.9739 73.647 37.0259 73.0605 36.4394L61.0605 24.4394C60.474 23.8529 59.526 23.8529 58.9395 24.4394C58.353 25.0259 58.353 25.9739 58.9395 26.5604L69.879 37.4999L58.9395 48.4394C58.353 49.0259 58.353 49.9739 58.9395 50.5604ZM34.9395 50.5604C35.232 50.8529 35.616 50.9999 36 50.9999C36.384 50.9999 36.768 50.8529 37.0605 50.5604C37.647 49.9739 37.647 49.0259 37.0605 48.4394L26.121 37.4999L37.0605 26.5604C37.647 25.9739 37.647 25.0259 37.0605 24.4394C36.474 23.8529 35.526 23.8529 34.9395 24.4394L22.9395 36.4394C22.353 37.0259 22.353 37.9739 22.9395 38.5604L34.9395 50.5604Z" fill="#8D6C9F"/>
<path d="M39.753 28.4942L41.61 31.8902L45.006 33.7472L41.61 35.6042L39.753 39.0002L37.896 35.6042L34.5 33.7472L37.896 31.8902L39.753 28.4942ZM72.6285 22.7432L73.911 25.0892L76.257 26.3717L73.911 27.6542L72.6285 30.0002L71.346 27.6542L69 26.3717L71.346 25.0892L72.6285 22.7432ZM51.972 49.0562L52.8465 50.6537L54.444 51.5282L52.8465 52.4027L51.972 54.0002L51.0975 52.4027L49.5 51.5282L51.0975 50.6537L51.972 49.0562Z" fill="#FFF8F8"/>
</svg>
