<svg width="132" height="86" viewBox="0 0 132 86" fill="none" xmlns="http://www.w3.org/2000/svg">
<path d="M56.507 8.77105C52.4067 11.2026 50 14.6763 50 14.6763C50 14.6763 50.624 7.38158 56.507 3.12632C58.8245 1.38947 62.0334 0 66.312 0C67.9164 0 71.3036 0.260526 74.3343 2.08421C77.3649 3.90789 78.6128 5.38421 80.039 7.55526C80.663 8.51053 81.1086 9.72632 81.376 10.8553C81.9109 13.0263 82 15.7184 82 15.7184V19.1053H59.805C59.805 19.1053 59.7159 26.1395 69.7883 26.1395C73.2646 26.1395 74.5125 25.6184 75.6713 25.2711C77.454 24.75 79.415 23.4474 79.415 23.4474V30.3947C79.415 30.3947 75.0474 33 68.8078 33C67.0251 33 65.2423 32.8263 63.4596 32.3053C61.9443 31.7842 58.6462 30.5684 56.507 27.5289C55.7047 26.4868 54.9025 25.0105 54.4568 23.6211C54.0111 22.1447 54.0111 20.6684 54.0111 19.8868C54.0111 16.8474 55.0808 13.9816 56.9526 11.8974C59.4485 9.20526 62.4791 7.81579 62.4791 7.81579C62.4791 7.81579 59.805 10.2474 59.805 13.0263H72.2841C72.2841 13.0263 72.3733 6.07895 65.4206 6.07895C62.5682 6.07895 59.0028 7.29474 56.507 8.77105Z" fill="#1976D2"/>
<path d="M132 17.5C132 27.1635 124.164 35 114.5 35C104.837 35 97 27.1635 97 17.5C97 7.8365 104.837 0 114.5 0C124.164 0 132 7.8365 132 17.5Z" fill="#4CAF50"/>
<path d="M114.5 0V17.5L121.5 21L113.762 35C114.04 35 114.223 35 114.5 35C124.171 35 132 27.1714 132 17.5C132 7.82862 124.171 0 114.5 0Z" fill="#FFC107"/>
<path d="M132 17.5C132 27.1635 124.164 35 114.5 35C104.837 35 97 27.1635 97 17.5C97 7.8365 104.837 0 114.5 0C124.164 0 132 7.8365 132 17.5Z" fill="#4CAF50"/>
<path d="M114.5 0V17.5L121.5 21L113.762 35C114.04 35 114.223 35 114.5 35C124.171 35 132 27.1714 132 17.5C132 7.82862 124.171 0 114.5 0Z" fill="#FFC107"/>
<path d="M130.11 9.625H114.5V21L111.875 20.125L99.765 8.1025H99.7475C102.845 3.22875 108.296 0 114.5 0C121.325 0 127.231 3.92 130.11 9.625Z" fill="#F44336"/>
<path d="M99.7633 8.10596L107.501 21.1102L111.875 20.125L99.7633 8.10596Z" fill="#DD2C00"/>
<path d="M113.762 35L121.58 20.9484L118 18.375L113.762 35Z" fill="#558B2F"/>
<path d="M130.132 9.625H114.5L113.118 13.6325L130.132 9.625Z" fill="#F9A825"/>
<path d="M122.375 17.5C122.375 21.8479 118.848 25.375 114.5 25.375C110.152 25.375 106.625 21.8479 106.625 17.5C106.625 13.1521 110.152 9.625 114.5 9.625C118.848 9.625 122.375 13.1521 122.375 17.5Z" fill="white"/>
<path d="M120.625 17.5C120.625 20.8836 117.884 23.625 114.5 23.625C111.116 23.625 108.375 20.8836 108.375 17.5C108.375 14.1164 111.116 11.375 114.5 11.375C117.884 11.375 120.625 14.1164 120.625 17.5Z" fill="#2196F3"/>
<path d="M17.4129 1C13.0256 1 8.81805 2.73839 5.71577 5.83274C2.61349 8.92709 0.870644 13.1239 0.870644 17.5C0.870644 21.8761 2.61349 26.0729 5.71577 29.1673C8.81805 32.2616 13.0256 34 17.4129 34C21.8002 34 26.0078 32.2616 29.1101 29.1673C32.2124 26.0729 33.9552 21.8761 33.9552 17.5C33.9552 13.1239 32.2124 8.92709 29.1101 5.83274C26.0078 2.73839 21.8002 1 17.4129 1Z" fill="#01579B"/>
<path d="M26.1194 14.7211C26.1194 14.2 26.1194 12.2026 24.8134 10.6395C24.7264 10.5526 24.6393 10.3789 24.6393 10.2921C24.5522 10.2053 24.5522 10.1184 24.4652 9.94474L24.291 9.68421L24.1169 9.42368C23.9428 9.16316 23.8557 8.98947 23.8557 8.98947C23.5075 8.46842 23.4204 7.77368 23.7687 7.16579C23.8557 6.99211 24.0299 6.81842 24.1169 6.64474C24.0299 6.55789 23.9428 6.47105 23.8557 6.47105C23.8557 6.47105 23.8557 6.47105 23.7687 6.47105C23.5075 6.29737 23.2463 6.12368 23.0721 5.95L22.4627 5.51579C22.0274 5.25526 21.7662 5.16842 21.7662 5.08158C21.1567 4.73421 20.8085 4.12632 20.8955 3.43158C20.9826 2.73684 21.4179 2.12895 22.1144 1.95526C22.2015 1.95526 22.3756 1.86842 22.5497 1.86842C22.5497 1.86842 22.5497 1.86842 22.4627 1.78158C20.8955 1.26053 19.1542 1 17.4129 1C10.9701 1 5.31094 4.73421 2.61194 10.1184C2.61194 10.2921 2.61194 10.3789 2.61194 10.5526C2.61194 16.8053 8.09701 21.8421 14.801 21.8421C19.9378 21.8421 24.291 18.8895 26.1194 14.7211Z" fill="#0277BD"/>
<path d="M22.6368 3.6054C22.6368 3.6054 22.898 3.51855 23.4204 3.51855C23.6816 3.51855 23.9428 3.51855 24.291 3.51855C24.6393 3.51855 24.9876 3.6054 25.4229 3.69224C25.8582 3.77908 26.2935 3.95277 26.7289 4.12645C27.1642 4.30013 27.6866 4.56066 28.1219 4.90803C28.5572 5.16855 28.9925 5.60277 29.4279 5.95013C29.8632 6.2975 30.2114 6.81855 30.5597 7.25277C30.8209 7.77382 31.1691 8.20803 31.4303 8.72908C31.6915 9.25013 31.8657 9.77119 32.0398 10.2922C32.2139 10.8133 32.301 11.3343 32.3881 11.7686C32.4751 12.2896 32.4751 12.7238 32.4751 13.0712C32.4751 13.2449 32.4751 13.5054 32.4751 13.6791C32.4751 13.8528 32.4751 14.0265 32.3881 14.2001C32.3881 14.5475 32.301 14.808 32.301 15.0686C32.301 15.5028 32.2139 15.7633 32.2139 15.7633C32.2139 15.7633 32.0398 15.5028 31.8657 15.0686C31.7786 14.8949 31.6045 14.6343 31.5174 14.287C31.4303 14.0264 31.2562 13.6791 31.0821 13.3317C30.908 12.9843 30.7338 12.637 30.5597 12.2028C30.3856 11.8554 30.1244 11.4212 29.9502 10.987C29.7761 10.5528 29.5149 10.2054 29.2537 9.77119C28.9925 9.33698 28.7313 8.98961 28.4701 8.64224C28.209 8.29487 27.9478 7.86066 27.5995 7.60013C27.2512 7.25277 26.99 6.9054 26.6418 6.64487C26.3806 6.2975 26.0323 6.03698 25.6841 5.77645C25.3358 5.51592 25.0746 5.2554 24.7264 5.08171C24.4652 4.82119 24.1169 4.6475 23.8557 4.47382C23.5945 4.30013 23.3333 4.12645 23.1592 4.03961C22.898 3.77908 22.6368 3.6054 22.6368 3.6054Z" fill="#FFF176"/>
<path d="M34.0423 11.9418C33.7811 10.0313 32.9975 8.29443 32.1269 7.07864C31.6915 6.47074 31.2562 6.03653 30.995 5.77601C30.6468 5.51548 30.4726 5.3418 30.4726 5.3418C30.4726 5.3418 30.4726 5.60232 30.5597 6.03653C30.6468 6.47074 30.6468 6.9918 30.7338 7.68653C30.8209 8.0339 30.8209 8.38127 30.908 8.72864C30.5597 8.20759 30.1244 7.68653 29.6891 7.33917C29.2537 6.90496 28.7313 6.64443 28.4702 6.47074C28.0348 6.29706 27.8607 6.21022 27.8607 6.21022C27.8607 6.21022 27.9478 6.3839 28.0348 6.73127C28.1219 7.07864 28.296 7.51285 28.4702 8.12074C28.6443 8.72864 28.9055 9.51022 29.1667 10.2918C28.6443 9.6839 28.1219 9.16285 27.5995 8.81548C26.9901 8.46811 26.4677 8.20759 26.0323 8.12074C25.51 7.94706 25.2488 7.94706 25.2488 7.94706C25.2488 7.94706 25.4229 8.12074 25.597 8.46811C25.6841 8.6418 25.8582 8.81548 25.9453 9.07601C26.1194 9.33653 26.2065 9.59706 26.3806 9.85759C26.6418 10.3786 26.99 10.9865 27.2512 11.6813C27.4254 12.0286 27.5124 12.376 27.6866 12.7234C27.7736 13.0707 28.0348 13.4181 28.1219 13.8523C28.296 14.1997 28.3831 14.5471 28.5572 14.9813C28.6443 15.3286 28.8184 15.676 28.9055 16.1102C28.9925 16.4576 29.1667 16.805 29.2537 17.1523C29.3408 17.4997 29.4279 17.8471 29.602 18.1076C29.8632 18.7155 30.0373 19.2365 30.2114 19.5839C30.3856 19.9313 30.4726 20.105 30.4726 20.105C30.4726 20.105 30.5597 19.9313 30.7338 19.4971C30.8209 19.3234 30.908 19.0628 30.908 18.8023C30.995 18.5418 31.0821 18.1944 31.0821 17.8471C31.0821 17.5865 31.1692 17.326 31.1692 17.0655C31.2562 17.326 31.3433 17.4997 31.3433 17.4997C31.3433 17.4997 31.4303 17.326 31.6045 16.9786C31.6915 16.805 31.7786 16.6313 31.8657 16.3707V16.2839C31.8657 16.4576 31.8657 16.7181 31.9527 16.8918C31.9527 17.2392 32.0398 17.4997 32.0398 17.7602C32.0398 18.0207 32.0398 18.2813 32.0398 18.5418C32.0398 18.976 32.1269 19.2365 32.1269 19.2365C32.1269 19.2365 32.301 19.0628 32.5622 18.7155C32.6493 18.5418 32.8234 18.3681 32.9975 18.1076C33.1716 17.8471 33.2587 17.5865 33.4328 17.2392C33.607 16.8918 33.694 16.5444 33.7811 16.1102C33.8682 15.676 33.9552 15.2418 34.0423 14.8076C34.1294 14.3734 34.1294 13.8523 34.1294 13.4181C34.2164 12.8971 34.1294 12.376 34.0423 11.9418Z" fill="#FDD835"/>
<path d="M34.9129 13.8527C34.9129 13.4185 34.8259 13.158 34.8259 13.158C34.8259 13.158 34.6517 13.4185 34.3905 13.7659C34.1294 14.2001 33.8682 14.7212 33.5199 15.4159C33.2587 16.0238 32.9104 16.7185 32.5622 17.4133C32.5622 16.7185 32.5622 16.1106 32.4751 15.5027C32.3881 14.9817 32.301 14.5475 32.2139 14.1133C32.0398 13.6791 31.9527 13.2448 31.7786 12.8975C31.5174 12.1159 31.1692 11.5948 30.908 11.1606C30.6468 10.7264 30.4726 10.5527 30.4726 10.5527C30.4726 10.5527 30.3856 11.5948 30.3856 13.158C30.3856 13.9396 30.2985 14.7212 30.2114 15.6764C30.2114 16.1106 30.1244 16.5448 30.1244 17.0659C30.1244 17.5001 30.0373 18.0212 29.9502 18.4554C29.9502 18.5422 29.9502 18.7159 29.9502 18.8027C29.8632 18.0212 29.602 17.2396 29.2537 16.7185C28.9925 16.1106 28.6443 15.6764 28.3831 15.4159C28.0348 14.9817 27.8607 14.8948 27.8607 14.8948C27.8607 14.8948 27.8607 15.1554 27.8607 15.5027C27.8607 15.8501 27.8607 16.3712 27.7736 16.979C27.6866 18.108 27.5124 19.5843 27.3383 20.9738C27.2512 21.3212 27.1642 21.6685 27.1642 22.0159C27.0771 22.3633 26.99 22.7106 26.99 23.058C26.903 23.4054 26.8159 23.7527 26.7289 24.0133C26.6418 24.3606 26.5547 24.6212 26.5547 24.8817C26.4677 25.1422 26.4677 25.4896 26.3806 25.6633C26.2935 25.9238 26.2935 26.0975 26.2065 26.358C26.1194 26.7922 26.1194 27.0527 26.1194 27.0527C26.1194 27.0527 26.2935 26.9659 26.6418 26.7054C26.99 26.4448 27.4254 26.1843 27.8607 25.6633C28.0348 25.4027 28.296 25.1422 28.5572 24.7948C28.7313 24.4475 28.9925 24.1869 29.1667 23.8396C29.1667 24.1001 29.0796 24.3606 29.0796 24.6212C28.9925 24.8817 28.9925 25.229 28.9055 25.4027C28.7313 25.9238 28.7313 26.1843 28.7313 26.1843C28.8184 26.0975 29.0796 26.1843 29.3408 26.2712C29.3408 26.358 29.2537 26.4448 29.2537 26.4448C29.1667 26.7054 29.0796 26.9659 28.9925 27.2264C28.8184 27.6606 28.7313 27.9212 28.7313 27.9212C28.7313 27.9212 28.9925 27.8343 29.3408 27.5738C29.5149 27.4001 29.7761 27.3133 30.0373 27.0527C30.2985 26.879 30.5597 26.6185 30.8209 26.2712C31.0821 26.0106 31.3433 25.6633 31.6915 25.3159C31.9527 24.9685 32.2139 24.5343 32.4751 24.1001C32.9975 23.2317 33.4328 22.2764 33.7811 21.3212C34.1294 20.3659 34.4776 19.3238 34.6517 18.3685C34.8259 17.4133 34.9129 16.5448 35 15.7633C35 14.9817 35 14.3738 34.9129 13.8527Z" fill="#FFB300"/>
<path d="M32.5622 23.0577C32.2139 23.2314 31.8657 23.5788 31.3433 23.9261C30.6468 24.4472 29.8632 25.1419 29.0796 25.9235C29.1667 25.663 29.3408 25.4024 29.4279 25.1419C29.6891 24.3603 29.7761 23.6656 29.8632 23.0577C29.8632 22.4498 29.8632 21.9288 29.7761 21.5814C29.6891 21.1472 29.602 20.9735 29.602 20.9735C29.602 20.9735 29.4279 21.1472 29.2537 21.4077C29.0796 21.6682 28.7313 22.1024 28.3831 22.5367C28.0348 22.9709 27.6866 23.5788 27.3383 24.0998C27.2512 24.1867 27.2512 24.2735 27.1642 24.3603C27.3383 23.8393 27.3383 23.2314 27.3383 22.7103C27.3383 22.0156 27.1642 21.3209 26.99 20.7998C26.8159 20.2788 26.5547 19.8446 26.3806 19.584C26.2935 19.4103 26.1194 19.2367 26.1194 19.2367C26.1194 19.2367 26.0323 19.4103 25.9453 19.7577C25.8582 20.0182 25.6841 20.4524 25.5099 20.9735C25.3358 21.4077 25.2488 21.9288 25.0746 22.5367C24.9876 22.7972 24.9005 23.0577 24.8134 23.4051C24.7264 23.6656 24.6393 23.9261 24.5522 24.0998C22.898 25.7498 20.8955 26.184 18.9801 26.2709C17.9353 26.2709 16.9776 26.0972 16.107 25.8367C14.801 25.4024 13.5821 24.6209 12.4502 23.5788C14.1045 23.7524 15.6716 23.4051 16.9776 22.7972L19.1542 21.4077C19.4154 21.3209 19.6766 21.3209 19.9378 21.4077C20.4602 21.3209 20.6343 21.0603 20.4602 20.5393C20.199 20.1919 19.7637 19.8446 19.3284 19.584C18.1965 18.9761 17.0647 19.063 15.8458 19.8446C14.7139 20.4525 13.6692 20.3656 12.5373 19.7577C9.83831 18.3682 10.8831 14.8077 13.7562 16.6314C13.9303 15.763 13.6692 14.8077 13.1468 13.8525C10.6219 9.24982 13.495 5.51561 14.4527 4.90771C12.7114 5.0814 11.1443 5.86298 9.75124 7.16561C0.783582 6.1235 0 14.8077 0 14.8946L1.04478 13.9393C0.696517 14.8946 0.435323 15.8498 0.348259 16.8919C7.78419e-08 20.2788 0.957711 23.5788 3.22139 26.8788C6.70398 31.3077 12.1891 33.9998 17.4129 33.9998C23.3333 33.9998 27.1642 31.8288 29.6891 29.0498C29.8632 28.8761 30.0373 28.7024 30.2114 28.5288C30.7338 27.9209 31.2562 27.313 31.6915 26.6182C32.1269 26.0103 32.3881 25.3156 32.6493 24.7077C32.8234 24.0998 32.9975 23.5788 33.0846 23.2314C33.0846 22.9709 33.0846 22.7103 33.0846 22.7103C33.0846 22.7103 32.9104 22.7972 32.5622 23.0577Z" fill="#FF9800"/>
<path d="M6.96518 20.9734C6.79105 14.8945 10.709 15.4155 12.7114 16.1102C11.3184 15.8497 10.709 17.1523 11.3184 18.3681C11.0572 18.3681 8.35821 18.1076 6.96518 20.9734ZM12.4502 23.4918C14.1045 23.6655 15.6716 23.3181 16.9776 22.7102L19.1542 21.3208C19.3284 21.2339 19.5896 21.2339 19.7637 21.3208C17.2388 19.8445 14.5398 22.9708 8.6194 22.0155C10.0995 23.1445 12.4502 23.4918 12.4502 23.4918ZM12.2761 9.24972C12.102 10.5523 12.3632 12.1155 13.2338 13.7655C14.4527 13.0708 15.6716 12.2892 15.6716 12.2892C15.6716 12.2892 17.4129 10.5523 15.6716 10.5523C14.0174 10.5523 12.8856 9.85761 12.2761 9.24972ZM5.48508 7.42603C4.70149 6.7313 3.48259 5.34182 3.48259 3.60498C3.48259 3.60498 1.39304 6.99182 2.17662 9.68393C2.9602 8.72866 4.09204 7.94709 5.48508 7.42603Z" fill="#EF6C00"/>
<path d="M13.2338 13.7656C14.4527 13.0709 15.6716 12.2893 15.6716 12.2893C15.6716 12.2893 15.8458 12.1156 16.0199 11.942L15.6716 11.4209H12.3632C12.5373 12.2025 12.7985 12.9841 13.2338 13.7656Z" fill="#FFCC80"/>
<path d="M15.6716 10.5527C15.4104 10.5527 15.1493 10.5527 14.8881 10.4658L14.801 10.5527C14.801 10.5527 15.4975 11.6816 15.6716 12.2895C15.6716 12.2895 17.4129 10.5527 15.6716 10.5527Z" fill="#5D4037"/>
<path d="M112.5 68C112.5 77.6635 104.663 85.5 95 85.5C85.3365 85.5 77.5 77.6635 77.5 68C77.5 58.3365 85.3365 50.5 95 50.5C104.663 50.5 112.5 58.3365 112.5 68Z" fill="#CFD8DC"/>
<path d="M109.875 68C109.875 76.2171 103.217 82.875 95 82.875C86.7829 82.875 80.125 76.2171 80.125 68C80.125 59.7829 86.7829 53.125 95 53.125C103.217 53.125 109.875 59.7829 109.875 68Z" fill="#448AFF"/>
<path d="M93.1608 66.1605L96.8384 69.8381L104.887 58.1113L93.1608 66.1605Z" fill="#FF3D00"/>
<path d="M95 67.9997L104.888 58.1113L96.8392 69.8381L95 67.9997Z" fill="#BF360C"/>
<path d="M93.1607 66.1606L85.1116 77.8874L96.8384 69.8383L93.1607 66.1606Z" fill="white"/>
<path d="M95 68L85.1116 77.8884L96.8384 69.8392L95 68Z" fill="#BDBDBD"/>
<path d="M88.9642 56.3616C89.4875 56.0983 90.0134 55.8384 90.5366 55.6607L91.5892 58.0259L90.0134 58.7232L88.9642 56.3616ZM105.5 68.875H108.036C108.036 68.6116 108.125 68.2634 108.125 68C108.125 67.7366 108.125 67.3884 108.036 67.125H105.5V68.875ZM85.1116 59.3393L86.9509 61.175L88.1741 59.9517L86.3384 58.1125C85.9017 58.5491 85.5491 58.9018 85.1116 59.3393ZM95.875 54.9643C95.6116 54.875 95.2634 54.875 95 54.875C94.7366 54.875 94.3884 54.875 94.125 54.9643V57.5H95.875V54.9643ZM100.598 56.1875C100.075 55.9241 99.5491 55.75 98.9375 55.5759L97.9733 58.0268L99.6375 58.6384L100.598 56.1875ZM84.9375 64.9375L85.5491 63.2767L83.1875 62.3125C82.9241 62.8393 82.75 63.3616 82.5759 63.9733L84.9375 64.9375ZM84.5 67.125H81.9643C81.875 67.3884 81.875 67.7366 81.875 68C81.875 68.2634 81.875 68.6116 81.9643 68.875H84.5V67.125ZM105.062 71.0625L104.451 72.7233L106.812 73.6875C107.076 73.1607 107.25 72.6384 107.424 72.0267L105.062 71.0625ZM107.339 63.5358C107.162 63.0125 106.902 62.4866 106.638 61.9634L104.277 63.0125L104.974 64.5884L107.339 63.5358ZM104.888 76.6607L103.049 74.825L101.826 76.0483L103.662 77.8875C104.098 77.4509 104.451 77.0982 104.888 76.6607ZM85.7232 72.9866L85.0259 71.4108L82.6607 72.4634C82.8384 72.9866 83.0983 73.5125 83.3616 74.0358L85.7232 72.9866ZM99.9866 77.2768L98.4108 77.9741L99.4634 80.3393C99.9866 80.1616 100.513 79.9017 101.036 79.6384L99.9866 77.2768ZM91.9375 78.0625L90.2767 77.4509L89.3125 79.8125C89.8393 80.0759 90.3616 80.25 90.9733 80.4241L91.9375 78.0625ZM95.875 81.0357V78.5H94.125V81.0357C94.3884 81.0357 94.7366 81.125 95 81.125C95.2634 81.125 95.6116 81.125 95.875 81.0357Z" fill="#BBDEFB"/>
<path d="M41.5 50C31.8286 50 24 57.8286 24 67.5C24 77.1714 31.8286 85 41.5 85C51.1714 85 59 77.1714 59 67.5C59 57.8286 51.1714 50 41.5 50ZM41.5 80.625C36.8949 80.625 32.75 74.591 32.75 67.5C32.75 60.409 36.8949 54.375 41.5 54.375C46.1051 54.375 50.25 60.409 50.25 67.5C50.25 74.591 46.1051 80.625 41.5 80.625Z" fill="#FF1744"/>
<path d="M52.4935 53.8894C50.6114 52.6005 48.4038 51.75 46.1051 51.75C42.6506 51.75 39.5216 53.4825 37.2099 56.1941C38.5014 55.0488 39.9731 54.375 41.5 54.375C46.1051 54.375 50.25 60.409 50.25 67.5C50.25 74.591 46.1051 80.625 41.5 80.625C39.9731 80.625 38.5014 79.9513 37.2099 78.8059C39.5216 81.5175 42.6506 83.25 46.1051 83.25C48.4029 83.25 50.6114 82.3995 52.4926 81.1115C56.4599 77.9046 59 73.0037 59 67.5C59 61.9971 56.4599 57.0962 52.4935 53.8894Z" fill="#D50000"/>
</svg>
