<svg width="125" height="125" viewBox="0 0 125 125" fill="none" xmlns="http://www.w3.org/2000/svg">
<g filter="url(#filter0_d)">
<path d="M110.431 71.1551C110.806 70.3851 111.139 69.5751 111.426 68.7264C114.717 59.0139 109.74 47.3789 99.26 44.5701C98.1275 30.3401 88.1275 20.5789 76.8337 18.9126C63.9075 17.0064 52.0662 25.2176 48.1262 38.2689C43.3775 36.5864 38.75 36.7914 34.3887 39.3401C32.41 40.2551 30.6 41.6051 28.9762 43.3814C26.5925 45.9889 25.0425 49.2801 24.4112 52.7501C23.4762 52.8976 22.5575 53.0451 21.6912 53.3551C16.6412 55.1664 13.455 58.8939 12.5812 64.5089C12.0375 68.0051 13.135 71.4926 13.7475 72.9014C16.1662 78.4701 21.775 81.6264 27.4737 80.7914C27.7575 80.7501 28.17 80.8776 28.4137 81.0826C28.715 89.9826 33.0362 97.8539 39.5187 102.35C49.92 109.565 63.3025 107.343 71.745 97.4489C75.3625 101.149 79.6675 102.946 84.725 102.294C89.7537 101.645 93.6587 98.8701 96.5075 94.3576C97.8237 94.7114 99.0712 95.2214 100.361 95.3626C105.414 95.9151 109.516 93.9064 112.526 89.3626C113.679 87.6239 114.767 85.3701 114.767 81.4201C114.769 77.3514 113.152 73.6426 110.431 71.1551Z" fill="#C7EDE6"/>
<path d="M22.5137 61.1999H9.97498C9.62998 61.1999 9.34998 60.9199 9.34998 60.5749C9.34998 60.2299 9.62998 59.9499 9.97498 59.9499H22.5137C22.8587 59.9499 23.1387 60.2299 23.1387 60.5749C23.1387 60.9199 22.8587 61.1999 22.5137 61.1999ZM26.1137 61.1999H24.3062C23.9612 61.1999 23.6812 60.9199 23.6812 60.5749C23.6812 60.2299 23.9612 59.9499 24.3062 59.9499H26.1137C26.4587 59.9499 26.7387 60.2299 26.7387 60.5749C26.7387 60.9199 26.46 61.1999 26.1137 61.1999ZM31.1825 61.1999H28C27.655 61.1999 27.375 60.9199 27.375 60.5749C27.375 60.2299 27.655 59.9499 28 59.9499H31.1825C31.5275 59.9499 31.8075 60.2299 31.8075 60.5749C31.8075 60.9199 31.5287 61.1999 31.1825 61.1999ZM31.1825 63.5311H19.1625C18.8175 63.5311 18.5375 63.2511 18.5375 62.9061C18.5375 62.5611 18.8175 62.2811 19.1625 62.2811H31.1825C31.5275 62.2811 31.8075 62.5611 31.8075 62.9061C31.8075 63.2511 31.5287 63.5311 31.1825 63.5311ZM16.9975 63.5311H16.2725C15.9275 63.5311 15.6475 63.2511 15.6475 62.9061C15.6475 62.5611 15.9275 62.2811 16.2725 62.2811H16.9975C17.3425 62.2811 17.6225 62.5611 17.6225 62.9061C17.6225 63.2511 17.3437 63.5311 16.9975 63.5311ZM14.0275 63.5311H12.2062C11.8612 63.5311 11.5812 63.2511 11.5812 62.9061C11.5812 62.5611 11.8612 62.2811 12.2062 62.2811H14.0275C14.3725 62.2811 14.6525 62.5611 14.6525 62.9061C14.6525 63.2511 14.3725 63.5311 14.0275 63.5311ZM25.4462 58.8686H19.1625C18.8175 58.8686 18.5375 58.5886 18.5375 58.2436C18.5375 57.8986 18.8175 57.6186 19.1625 57.6186H25.4462C25.7912 57.6186 26.0712 57.8986 26.0712 58.2436C26.0712 58.5886 25.7925 58.8686 25.4462 58.8686ZM25.4462 56.5374H23.875C23.53 56.5374 23.25 56.2574 23.25 55.9124C23.25 55.5674 23.53 55.2874 23.875 55.2874H25.4462C25.7912 55.2874 26.0712 55.5674 26.0712 55.9124C26.0712 56.2574 25.7925 56.5374 25.4462 56.5374ZM21.3612 65.8624H19.1625C18.8175 65.8624 18.5375 65.5824 18.5375 65.2374C18.5375 64.8924 18.8175 64.6124 19.1625 64.6124H21.3612C21.7062 64.6124 21.9862 64.8924 21.9862 65.2374C21.9862 65.5824 21.7062 65.8624 21.3612 65.8624ZM88.985 28.3536H76.4475C76.1025 28.3536 75.8225 28.0736 75.8225 27.7286C75.8225 27.3836 76.1025 27.1036 76.4475 27.1036H88.985C89.33 27.1036 89.61 27.3836 89.61 27.7286C89.61 28.0736 89.3312 28.3536 88.985 28.3536ZM92.5875 28.3536H90.78C90.435 28.3536 90.155 28.0736 90.155 27.7286C90.155 27.3836 90.435 27.1036 90.78 27.1036H92.5875C92.9325 27.1036 93.2125 27.3836 93.2125 27.7286C93.2125 28.0736 92.9325 28.3536 92.5875 28.3536ZM97.655 28.3536H94.4725C94.1275 28.3536 93.8475 28.0736 93.8475 27.7286C93.8475 27.3836 94.1275 27.1036 94.4725 27.1036H97.655C98 27.1036 98.28 27.3836 98.28 27.7286C98.28 28.0736 98 28.3536 97.655 28.3536ZM95.1225 23.6924H83.1025C82.7575 23.6924 82.4775 23.4124 82.4775 23.0674C82.4775 22.7224 82.7575 22.4424 83.1025 22.4424H95.1225C95.4675 22.4424 95.7475 22.7224 95.7475 23.0674C95.7475 23.4124 95.4675 23.6924 95.1225 23.6924ZM80.9375 23.6924H80.2125C79.8675 23.6924 79.5875 23.4124 79.5875 23.0674C79.5875 22.7224 79.8675 22.4424 80.2125 22.4424H80.9375C81.2825 22.4424 81.5625 22.7224 81.5625 23.0674C81.5625 23.4124 81.2837 23.6924 80.9375 23.6924ZM77.9662 23.6924H76.1462C75.8012 23.6924 75.5212 23.4124 75.5212 23.0674C75.5212 22.7224 75.8012 22.4424 76.1462 22.4424H77.9662C78.3112 22.4424 78.5912 22.7224 78.5912 23.0674C78.5912 23.4124 78.3125 23.6924 77.9662 23.6924ZM91.9187 26.0224H85.635C85.29 26.0224 85.01 25.7424 85.01 25.3974C85.01 25.0524 85.29 24.7724 85.635 24.7724H91.9187C92.2637 24.7724 92.5437 25.0524 92.5437 25.3974C92.5437 25.7424 92.2637 26.0224 91.9187 26.0224Z" fill="white"/>
<path d="M91.9188 23.6924H90.3475C90.0025 23.6924 89.7225 23.4124 89.7225 23.0674C89.7225 22.7224 90.0025 22.4424 90.3475 22.4424H91.9188C92.2638 22.4424 92.5438 22.7224 92.5438 23.0674C92.5438 23.4124 92.2638 23.6924 91.9188 23.6924ZM83.8162 26.0224H81.6175C81.2725 26.0224 80.9925 25.7424 80.9925 25.3974C80.9925 25.0524 81.2725 24.7724 81.6175 24.7724H83.8162C84.1612 24.7724 84.4412 25.0524 84.4412 25.3974C84.4412 25.7424 84.1612 26.0224 83.8162 26.0224Z" fill="white"/>
<path d="M74.3075 91.9714C73.9625 91.9714 73.6825 91.6914 73.6825 91.3464V84.7764C73.6825 84.4314 73.9625 84.1514 74.3075 84.1514C74.6525 84.1514 74.9325 84.4314 74.9325 84.7764V91.3464C74.9325 91.6914 74.6525 91.9714 74.3075 91.9714Z" fill="#472B29"/>
<path d="M90.4062 91.9713H59.8612C59.5162 91.9713 59.2362 91.6913 59.2362 91.3463C59.2362 91.0013 59.5162 90.7213 59.8612 90.7213H90.4062C92.2462 90.7213 93.7425 89.2251 93.7425 87.3851V71.6113C93.7425 71.2663 94.0225 70.9863 94.3675 70.9863C94.7125 70.9863 94.9925 71.2663 94.9925 71.6113V87.3851C94.9925 89.9138 92.935 91.9713 90.4062 91.9713Z" fill="#472B29"/>
<path d="M74.3075 88.7188C73.727 88.7188 73.1703 88.9493 72.7598 89.3598C72.3493 89.7703 72.1187 90.327 72.1187 90.9075C72.1187 91.488 72.3493 92.0447 72.7598 92.4552C73.1703 92.8656 73.727 93.0962 74.3075 93.0962C74.888 93.0962 75.4447 92.8656 75.8552 92.4552C76.2656 92.0447 76.4962 91.488 76.4962 90.9075C76.4962 90.327 76.2656 89.7703 75.8552 89.3598C75.4447 88.9493 74.888 88.7188 74.3075 88.7188Z" fill="#616493"/>
<path d="M74.3075 93.565C72.8425 93.565 71.65 92.3725 71.65 90.9075C71.65 89.4425 72.8425 88.25 74.3075 88.25C75.7725 88.25 76.965 89.4425 76.965 90.9075C76.965 92.3725 75.7725 93.565 74.3075 93.565ZM74.3075 89.1875C73.3587 89.1875 72.5875 89.9587 72.5875 90.9075C72.5875 91.8562 73.3587 92.6275 74.3075 92.6275C75.2562 92.6275 76.0275 91.8562 76.0275 90.9075C76.0275 89.9587 75.255 89.1875 74.3075 89.1875Z" fill="#472B29"/>
<path d="M72.8025 81.0552V83.2989C72.8025 84.1114 73.4675 84.7764 74.28 84.7764C75.0925 84.7764 75.7575 84.1114 75.7575 83.2989V81.0552H72.8025Z" fill="#F1BC19"/>
<path d="M74.2813 85.4014C73.1213 85.4014 72.1788 84.4589 72.1788 83.2989V81.0552C72.1788 80.7102 72.4588 80.4302 72.8038 80.4302H75.7588C76.1038 80.4302 76.3838 80.7102 76.3838 81.0552V83.2989C76.3825 84.4589 75.44 85.4014 74.2813 85.4014ZM73.4288 81.6802V83.2989C73.4288 83.7689 73.8113 84.1514 74.2813 84.1514C74.7513 84.1514 75.1338 83.7689 75.1338 83.2989V81.6802H73.4288ZM67.37 81.1114C67.34 81.1114 67.31 81.1039 67.2813 81.0877C67.19 81.0389 67.155 80.9252 67.2038 80.8352L68.4088 78.5839C68.4588 78.4927 68.5738 78.4552 68.6625 78.5064C68.7538 78.5552 68.7888 78.6689 68.74 78.7589L67.535 81.0102C67.5013 81.0752 67.4363 81.1114 67.37 81.1114ZM66.3938 81.2439C66.3638 81.2439 66.3338 81.2364 66.305 81.2202C66.2138 81.1714 66.1788 81.0577 66.2275 80.9677L67.7913 78.0427C67.84 77.9514 67.955 77.9152 68.045 77.9652C68.1363 78.0139 68.1713 78.1277 68.1225 78.2177L66.5588 81.1427C66.525 81.2064 66.46 81.2439 66.3938 81.2439ZM65.4163 81.1439C65.3863 81.1439 65.3563 81.1364 65.3275 81.1202C65.2363 81.0714 65.2013 80.9577 65.25 80.8677L66.815 77.9427C66.8638 77.8514 66.9788 77.8164 67.0688 77.8652C67.16 77.9139 67.195 78.0277 67.1463 78.1177L65.5813 81.0427C65.5475 81.1077 65.4825 81.1439 65.4163 81.1439ZM64.44 81.1777C64.41 81.1777 64.38 81.1702 64.3513 81.1539C64.26 81.1052 64.225 80.9914 64.2738 80.9014L65.8388 77.9764C65.8888 77.8852 66.0038 77.8477 66.0925 77.8989C66.1838 77.9477 66.2188 78.0614 66.17 78.1514L64.605 81.0764C64.5713 81.1414 64.5063 81.1777 64.44 81.1777ZM63.4625 81.2102C63.4325 81.2102 63.4025 81.2027 63.3738 81.1864C63.2825 81.1377 63.2475 81.0239 63.2963 80.9339L64.86 78.0089C64.9088 77.9177 65.0238 77.8814 65.1138 77.9314C65.205 77.9802 65.24 78.0939 65.1913 78.1839L63.6275 81.1089C63.595 81.1739 63.53 81.2102 63.4625 81.2102ZM62.4863 81.0452C62.4563 81.0452 62.4263 81.0377 62.3975 81.0214C62.3063 80.9727 62.2713 80.8589 62.32 80.7689L63.8838 77.8452C63.9325 77.7539 64.0475 77.7177 64.1375 77.7677C64.2288 77.8164 64.2638 77.9302 64.215 78.0202L62.6513 80.9439C62.6188 81.0089 62.5525 81.0452 62.4863 81.0452Z" fill="#472B29"/>
<path d="M86.2513 80.7011H62.31C57.5913 80.7011 53.7313 76.8398 53.7313 72.1223V48.1798C53.7313 43.4611 57.5925 39.6011 62.31 39.6011H86.2513C90.97 39.6011 94.83 43.4623 94.83 48.1798V72.1211C94.83 76.8398 90.97 80.7011 86.2513 80.7011Z" fill="#78A0CF"/>
<path d="M86.2512 81.5761H62.31C57.0975 81.5761 52.8562 77.3348 52.8562 72.1223V48.1798C52.8562 42.9673 57.0975 38.7261 62.31 38.7261H86.2512C91.465 38.7261 95.7062 42.9686 95.7062 48.1798V72.1211C95.7062 77.3361 91.465 81.5761 86.2512 81.5761ZM62.31 40.4761C58.0625 40.4761 54.6062 43.9323 54.6062 48.1798V72.1211C54.6062 76.3686 58.0625 79.8248 62.31 79.8248H86.2512C90.5 79.8248 93.9562 76.3686 93.9562 72.1211V48.1798C93.9562 43.9323 90.5 40.4761 86.2512 40.4761H62.31Z" fill="#472B29"/>
<path opacity="0.47" d="M84.925 77.6375H63.6362C59.8125 77.6375 56.685 74.5088 56.685 70.6863V49.3975C56.685 45.5738 59.8137 42.4463 63.6362 42.4463H84.925C88.7487 42.4463 91.8762 45.575 91.8762 49.3975V70.6863C91.8762 74.51 88.7475 77.6375 84.925 77.6375Z" fill="#C5D8EF"/>
<path d="M85.2287 78.2923H63.3325C59.365 78.2923 56.1375 75.066 56.1375 71.0985V49.2035C56.1375 45.236 59.365 42.0098 63.3325 42.0098H85.6625C85.9037 42.0098 86.1 42.2048 86.1 42.4473C86.1 42.6898 85.9037 42.8848 85.6625 42.8848H63.3325C59.8475 42.8848 57.0125 45.721 57.0125 49.2048V71.101C57.0125 74.5848 59.8475 77.421 63.3325 77.421H85.2287C88.7137 77.421 91.5475 74.5848 91.5475 71.101V58.8873C91.5475 58.646 91.7437 58.4498 91.985 58.4498C92.2262 58.4498 92.4225 58.6448 92.4225 58.8873V71.101C92.4225 75.066 89.195 78.2923 85.2287 78.2923Z" fill="#472B29"/>
<path d="M91.985 57.4263C91.7437 57.4263 91.5475 57.2313 91.5475 56.9888V54.4601C91.5475 54.2188 91.7437 54.0226 91.985 54.0226C92.2262 54.0226 92.4225 54.2176 92.4225 54.4601V56.9888C92.4225 57.2313 92.2275 57.4263 91.985 57.4263ZM91.985 53.6326C91.7437 53.6326 91.5475 53.4376 91.5475 53.1951V51.9301C91.5475 51.6888 91.7437 51.4926 91.985 51.4926C92.2262 51.4926 92.4225 51.6876 92.4225 51.9301V53.1951C92.4225 53.4363 92.2275 53.6326 91.985 53.6326ZM74.2812 68.84C74.0225 68.84 73.8125 68.63 73.8125 68.3713V46.8726C73.8125 46.6138 74.0225 46.4038 74.2812 46.4038C74.54 46.4038 74.75 46.6138 74.75 46.8726V68.37C74.75 68.63 74.54 68.84 74.2812 68.84ZM74.2812 74.53C74.0225 74.53 73.8125 74.32 73.8125 74.0613V69.635C73.8125 69.3763 74.0225 69.1663 74.2812 69.1663C74.54 69.1663 74.75 69.3763 74.75 69.635V74.0613C74.75 74.32 74.54 74.53 74.2812 74.53ZM62.8987 53.0313C62.64 53.0313 62.43 52.8213 62.43 52.5626V46.8726C62.43 46.6138 62.64 46.4038 62.8987 46.4038C63.1575 46.4038 63.3675 46.6138 63.3675 46.8726V52.5626C63.3675 52.8213 63.1575 53.0313 62.8987 53.0313ZM62.8987 74.53C62.64 74.53 62.43 74.32 62.43 74.0613V53.8276C62.43 53.5688 62.64 53.3588 62.8987 53.3588C63.1575 53.3588 63.3675 53.5688 63.3675 53.8276V74.0625C63.3675 74.32 63.1575 74.53 62.8987 74.53ZM68.59 60.62C68.3312 60.62 68.1212 60.41 68.1212 60.1513V46.8726C68.1212 46.6138 68.3312 46.4038 68.59 46.4038C68.8487 46.4038 69.0587 46.6138 69.0587 46.8726V60.1501C69.0587 60.4101 68.8487 60.62 68.59 60.62ZM68.59 74.53C68.3312 74.53 68.1212 74.32 68.1212 74.0613V61.4151C68.1212 61.1563 68.3312 60.9463 68.59 60.9463C68.8487 60.9463 69.0587 61.1563 69.0587 61.4151V74.0613C69.0587 74.32 68.8487 74.53 68.59 74.53Z" fill="#472B29"/>
<path d="M62.8988 48.7686C62.3955 48.7686 61.9129 48.9685 61.557 49.3243C61.2012 49.6802 61.0013 50.1628 61.0013 50.6661C61.0013 51.1693 61.2012 51.6519 61.557 52.0078C61.9129 52.3636 62.3955 52.5636 62.8988 52.5636C63.402 52.5636 63.8846 52.3636 64.2405 52.0078C64.5963 51.6519 64.7963 51.1693 64.7963 50.6661C64.7963 50.1628 64.5963 49.6802 64.2405 49.3243C63.8846 48.9685 63.402 48.7686 62.8988 48.7686Z" fill="#FDFCEF"/>
<path d="M62.8988 53.0311C61.595 53.0311 60.5325 51.9698 60.5325 50.6661C60.5325 49.3611 61.5938 48.2998 62.8988 48.2998C64.2038 48.2998 65.265 49.3611 65.265 50.6661C65.265 51.9711 64.2038 53.0311 62.8988 53.0311ZM62.8988 49.2386C62.1113 49.2386 61.47 49.8798 61.47 50.6673C61.47 51.4548 62.1113 52.0948 62.8988 52.0948C63.6863 52.0948 64.3275 51.4548 64.3275 50.6673C64.3275 49.8798 63.6863 49.2386 62.8988 49.2386Z" fill="#472B29"/>
<path d="M68.59 56.3564C68.0868 56.3564 67.6041 56.5564 67.2483 56.9122C66.8924 57.2681 66.6925 57.7507 66.6925 58.2539C66.6925 58.7572 66.8924 59.2398 67.2483 59.5957C67.6041 59.9515 68.0868 60.1514 68.59 60.1514C69.0933 60.1514 69.5759 59.9515 69.9317 59.5957C70.2876 59.2398 70.4875 58.7572 70.4875 58.2539C70.4875 57.7507 70.2876 57.2681 69.9317 56.9122C69.5759 56.5564 69.0933 56.3564 68.59 56.3564Z" fill="#FDFCEF"/>
<path d="M68.59 60.6202C67.2863 60.6202 66.2238 59.559 66.2238 58.254C66.2238 56.949 67.285 55.8877 68.59 55.8877C69.895 55.8877 70.9563 56.949 70.9563 58.254C70.9563 59.559 69.8938 60.6202 68.59 60.6202ZM68.59 56.8252C67.8025 56.8252 67.1613 57.4665 67.1613 58.254C67.1613 59.0415 67.8025 59.6827 68.59 59.6827C69.3775 59.6827 70.0188 59.0415 70.0188 58.254C70.0188 57.4665 69.3775 56.8252 68.59 56.8252Z" fill="#472B29"/>
<path d="M74.28 64.5762C73.7768 64.5762 73.2941 64.7761 72.9383 65.1319C72.5824 65.4878 72.3825 65.9704 72.3825 66.4737C72.3825 66.9769 72.5824 67.4596 72.9383 67.8154C73.2941 68.1713 73.7768 68.3712 74.28 68.3712C74.7833 68.3712 75.2659 68.1713 75.6218 67.8154C75.9776 67.4596 76.1775 66.9769 76.1775 66.4737C76.1775 65.9704 75.9776 65.4878 75.6218 65.1319C75.2659 64.7761 74.7833 64.5762 74.28 64.5762Z" fill="#FDFCEF"/>
<path d="M74.2812 68.8399C72.9775 68.8399 71.915 67.7787 71.915 66.4737C71.915 65.1687 72.9762 64.1074 74.2812 64.1074C75.5862 64.1074 76.6462 65.1687 76.6462 66.4737C76.6462 67.7787 75.585 68.8399 74.2812 68.8399ZM74.2812 65.0462C73.4937 65.0462 72.8525 65.6874 72.8525 66.4749C72.8525 67.2624 73.4937 67.9037 74.2812 67.9037C75.0687 67.9037 75.7087 67.2624 75.7087 66.4749C75.7087 65.6874 75.0687 65.0462 74.2812 65.0462Z" fill="#472B29"/>
<path d="M85.03 53.0313C84.7712 53.0313 84.5612 52.8213 84.5612 52.5626V46.8726C84.5612 46.6138 84.7712 46.4038 85.03 46.4038C85.2887 46.4038 85.4987 46.6138 85.4987 46.8726V52.5626C85.4987 52.8213 85.2887 53.0313 85.03 53.0313ZM85.03 74.53C84.7712 74.53 84.5612 74.32 84.5612 74.0613V53.8276C84.5612 53.5688 84.7712 53.3588 85.03 53.3588C85.2887 53.3588 85.4987 53.5688 85.4987 53.8276V74.0625C85.4987 74.32 85.2887 74.53 85.03 74.53Z" fill="#472B29"/>
<path d="M79.3387 60.62C79.08 60.62 78.87 60.41 78.87 60.1513V46.8726C78.87 46.6138 79.08 46.4038 79.3387 46.4038C79.5975 46.4038 79.8075 46.6138 79.8075 46.8726V60.1501C79.8075 60.4101 79.5975 60.62 79.3387 60.62ZM79.3387 74.53C79.08 74.53 78.87 74.32 78.87 74.0613V61.4151C78.87 61.1563 79.08 60.9463 79.3387 60.9463C79.5975 60.9463 79.8075 61.1563 79.8075 61.4151V74.0613C79.8075 74.32 79.5975 74.53 79.3387 74.53Z" fill="#472B29"/>
<path d="M85.03 48.7686C84.5268 48.7686 84.0441 48.9685 83.6883 49.3243C83.3324 49.6802 83.1325 50.1628 83.1325 50.6661C83.1325 51.1693 83.3324 51.6519 83.6883 52.0078C84.0441 52.3636 84.5268 52.5636 85.03 52.5636C85.5333 52.5636 86.0159 52.3636 86.3718 52.0078C86.7276 51.6519 86.9275 51.1693 86.9275 50.6661C86.9275 50.1628 86.7276 49.6802 86.3718 49.3243C86.0159 48.9685 85.5333 48.7686 85.03 48.7686Z" fill="#FDFCEF"/>
<path d="M85.03 53.0311C83.7263 53.0311 82.6638 51.9698 82.6638 50.6661C82.6638 49.3611 83.725 48.2998 85.03 48.2998C86.335 48.2998 87.3963 49.3611 87.3963 50.6661C87.395 51.9711 86.3338 53.0311 85.03 53.0311ZM85.03 49.2386C84.2425 49.2386 83.6013 49.8798 83.6013 50.6673C83.6013 51.4548 84.2425 52.0948 85.03 52.0948C85.8175 52.0948 86.4588 51.4548 86.4588 50.6673C86.4588 49.8798 85.8175 49.2386 85.03 49.2386Z" fill="#472B29"/>
<path d="M79.3387 56.3564C78.8355 56.3564 78.3528 56.5564 77.997 56.9122C77.6411 57.2681 77.4412 57.7507 77.4412 58.2539C77.4412 58.7572 77.6411 59.2398 77.997 59.5957C78.3528 59.9515 78.8355 60.1514 79.3387 60.1514C79.842 60.1514 80.3246 59.9515 80.6805 59.5957C81.0363 59.2398 81.2362 58.7572 81.2362 58.2539C81.2362 57.7507 81.0363 57.2681 80.6805 56.9122C80.3246 56.5564 79.842 56.3564 79.3387 56.3564Z" fill="#FDFCEF"/>
<path d="M79.3387 60.6202C78.035 60.6202 76.9725 59.5589 76.9725 58.2539C76.9725 56.9489 78.0337 55.8877 79.3387 55.8877C80.6425 55.8877 81.705 56.9489 81.705 58.2539C81.705 59.5589 80.6437 60.6202 79.3387 60.6202ZM79.3387 56.8252C78.5512 56.8252 77.91 57.4664 77.91 58.2539C77.91 59.0414 78.5512 59.6827 79.3387 59.6827C80.1262 59.6827 80.7675 59.0414 80.7675 58.2539C80.7675 57.4664 80.1262 56.8252 79.3387 56.8252ZM44.2237 80.4677C43.8787 80.4677 43.5987 80.1877 43.5987 79.8427V58.8327C43.5987 55.7677 41.105 53.2739 38.04 53.2739H34.8912C34.5462 53.2739 34.2662 52.9939 34.2662 52.6489C34.2662 52.3039 34.5462 52.0239 34.8912 52.0239H38.04C41.7937 52.0239 44.8487 55.0777 44.8487 58.8327V79.8439C44.8487 80.1889 44.5687 80.4677 44.2237 80.4677Z" fill="#472B29"/>
<path d="M32.25 56.0664C30.67 56.0664 29.385 54.7814 29.385 53.2014C29.385 51.6214 30.67 50.3364 32.25 50.3364C33.83 50.3364 35.115 51.6214 35.115 53.2014C35.115 54.7814 33.83 56.0664 32.25 56.0664ZM32.25 51.5864C31.36 51.5864 30.635 52.3102 30.635 53.2014C30.635 54.0927 31.36 54.8164 32.25 54.8164C33.14 54.8164 33.865 54.0927 33.865 53.2014C33.865 52.3102 33.14 51.5864 32.25 51.5864Z" fill="#472B29"/>
<path d="M46.6812 96.3427C46.6812 96.3427 61.295 96.3427 61.3837 96.3427C64.7587 96.3427 67.4937 93.6065 67.4937 90.2315C67.4937 87.2877 65.4112 84.8302 62.6387 84.2515C62.6712 83.994 62.6925 83.7327 62.6925 83.4665C62.6925 79.9715 59.8587 77.1377 56.3637 77.1377C54.3 77.1377 52.4725 78.1302 51.3175 79.659C51.0225 75.7677 47.5462 72.7665 43.48 73.264C40.5062 73.6277 38.0475 75.9265 37.5 78.8715C37.325 79.8165 37.3425 80.7327 37.5175 81.5927C36.72 80.734 35.585 80.194 34.3212 80.194C32.0087 80.194 30.12 81.9952 29.9712 84.2702C28.9212 84.0377 27.7787 84.0527 26.575 84.5052C24.275 85.369 22.6375 87.534 22.5412 89.989C22.405 93.4752 25.1912 96.3452 28.6475 96.3452C28.91 96.3452 29.8325 96.3452 30.045 96.3452H42.7337" fill="#FDFCEF"/>
<path d="M61.3837 96.9685H46.6812C46.3362 96.9685 46.0562 96.6885 46.0562 96.3435C46.0562 95.9985 46.3362 95.7185 46.6812 95.7185H61.3837C64.4087 95.7185 66.87 93.2573 66.87 90.2323C66.87 87.6498 65.0375 85.391 62.5125 84.8635C62.195 84.7973 61.98 84.4985 62.02 84.176C62.0487 83.941 62.0687 83.7073 62.0687 83.466C62.0687 80.321 59.51 77.7635 56.365 77.7635C54.5675 77.7635 52.9087 78.5923 51.8175 80.036C51.6612 80.2435 51.3937 80.3335 51.1425 80.2585C50.8937 80.1848 50.715 79.966 50.6962 79.7073C50.5662 77.9848 49.7225 76.3673 48.3825 75.2698C47.0287 74.1598 45.315 73.671 43.5587 73.8848C40.8512 74.2173 38.6137 76.3135 38.1162 78.986C37.9612 79.8198 37.9662 80.6548 38.1325 81.4685C38.1875 81.7435 38.055 82.021 37.805 82.1498C37.5562 82.2773 37.2525 82.2235 37.0612 82.0185C36.345 81.246 35.3725 80.8198 34.3237 80.8198C32.3625 80.8198 30.7262 82.3548 30.5975 84.3123C30.585 84.4948 30.495 84.661 30.3487 84.7698C30.2025 84.881 30.015 84.9173 29.8387 84.881C28.7862 84.6498 27.7925 84.716 26.7975 85.0898C24.7112 85.8735 23.2537 87.851 23.1687 90.0123C23.11 91.521 23.6525 92.951 24.6962 94.036C25.74 95.121 27.1437 95.7198 28.65 95.7198H42.7362C43.0812 95.7198 43.3612 95.9998 43.3612 96.3448C43.3612 96.6898 43.0812 96.9698 42.7362 96.9698H28.6487C26.8 96.9698 25.0762 96.236 23.7937 94.9035C22.5125 93.571 21.8462 91.816 21.9187 89.9648C22.0225 87.3073 23.8062 84.8785 26.3562 83.921C27.3575 83.5448 28.39 83.4223 29.4412 83.5473C29.9125 81.2698 31.9387 79.5698 34.3225 79.5698C35.1787 79.5698 36.015 79.7948 36.7525 80.206C36.7525 79.7248 36.7962 79.241 36.885 78.7585C37.4812 75.556 40.1612 73.0423 43.4037 72.6448C45.505 72.3835 47.5525 72.9773 49.1725 74.3035C50.4275 75.3323 51.3187 76.7423 51.7212 78.296C52.9862 77.151 54.62 76.5135 56.3637 76.5135C60.1975 76.5135 63.3175 79.6323 63.3175 83.466C63.3175 83.571 63.315 83.6748 63.3087 83.7773C66.1262 84.6185 68.1187 87.2473 68.1187 90.2323C68.1187 93.9473 65.0975 96.9685 61.3837 96.9685Z" fill="#472B29"/>
<path d="M43.14 82.8814C40.88 82.7326 38.9338 84.2939 38.795 86.3676C38.7775 86.6251 38.7888 86.8789 38.8263 87.1251C38.39 86.6326 37.745 86.2989 37.0038 86.2501C35.6475 86.1614 34.4763 87.0564 34.3063 88.2751C34.06 88.2076 33.8025 88.1626 33.5363 88.1451C31.5588 88.0151 29.8563 89.3814 29.7338 91.1964" fill="#FDFCEF"/>
<path d="M29.7337 91.5074C29.7262 91.5074 29.7187 91.5074 29.7125 91.5062C29.54 91.4949 29.41 91.3462 29.4212 91.1737C29.555 89.1899 31.4075 87.6799 33.5562 87.8324C33.725 87.8424 33.895 87.8649 34.0675 87.8987C34.4087 86.6874 35.64 85.8374 37.0237 85.9387C37.555 85.9724 38.0537 86.1387 38.4787 86.4162C38.48 86.3924 38.4812 86.3712 38.4825 86.3474C38.6337 84.1049 40.7362 82.4149 43.16 82.5699C43.3325 82.5812 43.4625 82.7299 43.4512 82.9024C43.44 83.0749 43.2875 83.2349 43.1187 83.1924C41.0262 83.0724 39.2325 84.4912 39.105 86.3899C39.09 86.6199 39.1 86.8512 39.1337 87.0799C39.155 87.2162 39.0825 87.3512 38.9575 87.4099C38.8325 87.4687 38.6837 87.4374 38.5912 87.3337C38.1937 86.8849 37.6075 86.6037 36.9812 86.5624C35.8175 86.5174 34.7625 87.2562 34.615 88.3187C34.6025 88.4074 34.5525 88.4874 34.4775 88.5374C34.4025 88.5874 34.3087 88.6012 34.2237 88.5774C33.9837 88.5124 33.7462 88.4724 33.515 88.4562C31.7225 88.3437 30.155 89.5762 30.045 91.2162C30.035 91.3812 29.8975 91.5074 29.7337 91.5074Z" fill="#472B29"/>
<path d="M63.8575 84.9675C61.7337 83.9663 59.2775 84.675 58.3712 86.5513C58.2587 86.7838 58.175 87.0251 58.12 87.2688" fill="#FDFCEF"/>
<path d="M58.12 87.5812C58.0975 87.5812 58.0737 87.5787 58.05 87.5737C57.8825 87.535 57.7762 87.3675 57.815 87.1987C57.8762 86.9275 57.97 86.6637 58.09 86.4137C59.0687 84.3887 61.715 83.6125 63.99 84.6837C64.1463 84.7587 64.2138 84.9437 64.14 85.1C64.0663 85.2562 63.88 85.3212 63.7238 85.25C61.7562 84.32 59.4825 84.9675 58.6525 86.685C58.5525 86.8925 58.475 87.1112 58.4237 87.3362C58.3925 87.4837 58.2637 87.5812 58.12 87.5812Z" fill="#472B29"/>
<path d="M106.872 85.4337C109.226 85.4337 111.269 85.4337 111.297 85.4337C113.935 85.4337 116.074 83.3412 116.074 80.76C116.074 78.5075 114.446 76.6287 112.28 76.185C112.305 75.9875 112.322 75.7887 112.322 75.585C112.322 72.9112 110.107 70.7437 107.376 70.7437C105.764 70.7437 104.335 71.5025 103.432 72.6725C103.201 69.6962 100.485 67.4 97.3075 67.7812C94.9837 68.06 93.0612 69.8175 92.6337 72.07C92.4962 72.7925 92.5112 73.4937 92.6475 74.1512C92.025 73.495 91.1375 73.0812 90.15 73.0812C88.3425 73.0812 86.8662 74.4587 86.75 76.1987C85.9287 76.0212 85.0362 76.0325 84.0962 76.3775C82.2987 77.0375 81.0187 78.6937 80.9437 80.5725C80.8375 83.2387 83.015 85.4337 85.7162 85.4337C85.9212 85.4337 86.6425 85.4337 86.8087 85.4337H96.7262H106.872ZM98.775 85.4337H99.225H98.775Z" fill="#FDFCEF"/>
<path d="M111.297 86.0584H106.872C106.527 86.0584 106.247 85.7784 106.247 85.4334C106.247 85.0884 106.527 84.8084 106.872 84.8084H111.297C113.586 84.8084 115.449 82.9922 115.449 80.7597C115.449 78.8547 114.064 77.1872 112.154 76.7972C111.834 76.7309 111.617 76.4297 111.659 76.1047C111.681 75.9347 111.696 75.7609 111.696 75.5847C111.696 73.2597 109.757 71.3684 107.375 71.3684C106.01 71.3684 104.752 71.9822 103.925 73.0534C103.767 73.2584 103.499 73.3409 103.251 73.2709C103.004 73.1959 102.827 72.9784 102.807 72.7209C102.709 71.4459 102.101 70.2909 101.096 69.4659C100.06 68.6172 98.7412 68.2422 97.38 68.3997C95.3225 68.6459 93.6225 70.2022 93.2462 72.1834C93.1287 72.8022 93.1325 73.4209 93.2575 74.0234C93.3137 74.2972 93.1825 74.5747 92.935 74.7047C92.6875 74.8334 92.3837 74.7834 92.1925 74.5797C91.6575 74.0159 90.9312 73.7047 90.1487 73.7047C88.6875 73.7047 87.4675 74.8184 87.3725 76.2384C87.36 76.4209 87.27 76.5859 87.125 76.6959C86.98 76.8047 86.7975 76.8484 86.6175 76.8072C85.8175 76.6347 85.0637 76.6834 84.31 76.9634C82.7325 77.5422 81.63 79.0022 81.5662 80.5947C81.5225 81.6897 81.92 82.7309 82.6862 83.5272C83.48 84.3534 84.555 84.8072 85.7137 84.8072H96.7237C97.0687 84.8072 97.3487 85.0872 97.3487 85.4322C97.3487 85.7772 97.0687 86.0572 96.7237 86.0572H85.7137C84.2325 86.0572 82.8 85.4509 81.7837 84.3934C80.78 83.3497 80.26 81.9822 80.3175 80.5459C80.4012 78.4522 81.8325 76.5409 83.8787 75.7884C84.6412 75.5072 85.4287 75.4084 86.2287 75.4834C86.6587 73.7384 88.265 72.4534 90.1475 72.4534C90.7637 72.4534 91.3687 72.5947 91.915 72.8572C91.9262 72.5547 91.9612 72.2522 92.0187 71.9484C92.495 69.4372 94.6387 67.4672 97.2312 67.1572C98.9375 66.9497 100.587 67.4297 101.889 68.4959C102.824 69.2622 103.486 70.2572 103.821 71.3734C104.81 70.5647 106.052 70.1159 107.374 70.1159C110.446 70.1159 112.945 72.5684 112.945 75.5822C112.945 75.6247 112.945 75.6659 112.944 75.7097C115.149 76.4034 116.697 78.4447 116.697 80.7572C116.699 83.6822 114.275 86.0584 111.297 86.0584ZM99.225 86.0584H98.775C98.43 86.0584 98.15 85.7784 98.15 85.4334C98.15 85.0884 98.43 84.8084 98.775 84.8084H99.225C99.57 84.8084 99.85 85.0884 99.85 85.4334C99.85 85.7784 99.5712 86.0584 99.225 86.0584Z" fill="#472B29"/>
<path d="M113.591 76.8501C111.931 76.0838 110.033 76.5813 109.35 77.9626C109.265 78.1338 109.204 78.3113 109.163 78.4913" fill="#FDFCEF"/>
<path d="M109.163 78.805C109.14 78.805 109.118 78.8025 109.095 78.7975C108.926 78.76 108.82 78.5925 108.858 78.4238C108.904 78.22 108.974 78.0188 109.069 77.825C109.825 76.295 111.914 75.7263 113.722 76.5675C113.879 76.64 113.948 76.825 113.875 76.9813C113.801 77.1388 113.617 77.2063 113.46 77.1338C111.956 76.4388 110.239 76.8713 109.63 78.1013C109.558 78.2488 109.502 78.4025 109.469 78.56C109.436 78.7063 109.306 78.805 109.163 78.805ZM103.04 86.0588H101.656C101.311 86.0588 101.031 85.7788 101.031 85.4338C101.031 85.0888 101.311 84.8088 101.656 84.8088H103.04C103.385 84.8088 103.665 85.0888 103.665 85.4338C103.665 85.7788 103.385 86.0588 103.04 86.0588Z" fill="#472B29"/>
</g>
<defs>
<filter id="filter0_d" x="-4" y="0" width="133" height="133" filterUnits="userSpaceOnUse" color-interpolation-filters="sRGB">
<feFlood flood-opacity="0" result="BackgroundImageFix"/>
<feColorMatrix in="SourceAlpha" type="matrix" values="0 0 0 0 0 0 0 0 0 0 0 0 0 0 0 0 0 0 127 0"/>
<feOffset dy="4"/>
<feGaussianBlur stdDeviation="2"/>
<feColorMatrix type="matrix" values="0 0 0 0 0 0 0 0 0 0 0 0 0 0 0 0 0 0 0.25 0"/>
<feBlend mode="normal" in2="BackgroundImageFix" result="effect1_dropShadow"/>
<feBlend mode="normal" in="SourceGraphic" in2="effect1_dropShadow" result="shape"/>
</filter>
</defs>
</svg>
