<svg width="125" height="125" viewBox="0 0 125 125" fill="none" xmlns="http://www.w3.org/2000/svg">
<g filter="url(#filter0_d)">
<path d="M109.019 70.8875C110.437 68.1937 111.25 65.1312 111.25 61.875C111.25 53.5988 106.051 46.5537 98.7487 43.7775C98.7487 43.7687 98.75 43.76 98.75 43.75C98.75 29.2525 86.9975 17.5 72.5 17.5C60.27 17.5 50.0238 25.8763 47.1087 37.1963C45.2638 36.59 43.2975 36.25 41.25 36.25C31.635 36.25 23.7213 43.4912 22.6375 52.815C16.1325 54.1912 11.25 59.9613 11.25 66.875C11.25 74.8138 17.6863 81.25 25.625 81.25C25.8462 81.25 26.065 81.235 26.2825 81.2225C26.2775 81.4412 26.25 81.655 26.25 81.875C26.25 96.0275 37.7225 107.5 51.875 107.5C59.9212 107.5 67.0937 103.785 71.7925 97.9825C74.515 100.764 78.3 102.5 82.5 102.5C88.3125 102.5 93.3425 99.1875 95.8325 94.3525C97.1475 94.7713 98.5462 95 100 95C107.594 95 113.75 88.8438 113.75 81.25C113.75 77.1112 111.912 73.4087 109.019 70.8875Z" fill="#C7EDE6"/>
<path d="M98.125 89.375V90H101.875V89.375C101.875 89.375 107.178 89.375 108.75 89.375C111.856 89.375 114.375 86.8563 114.375 83.75C114.375 80.8337 112.147 78.4637 109.306 78.1812C109.334 77.955 109.375 77.7338 109.375 77.5C109.375 74.3938 106.856 71.875 103.75 71.875C101.952 71.875 100.371 72.7325 99.3412 74.045C99.1663 70.75 96.4638 68.125 93.125 68.125C89.6737 68.125 86.875 70.9238 86.875 74.375C86.875 74.9325 86.9712 75.4625 87.1087 75.9775C86.3062 75.0063 85.1075 74.375 83.75 74.375C81.5238 74.375 79.7075 76.0438 79.4312 78.1938C79.205 78.1663 78.9837 78.125 78.75 78.125C75.6438 78.125 73.125 80.6438 73.125 83.75C73.125 86.8563 75.6438 89.375 78.75 89.375C81.8562 89.375 90.625 89.375 90.625 89.375H98.125Z" fill="#FDFCEF"/>
<path d="M93.125 67.5C89.3337 67.5 86.25 70.5838 86.25 74.375C86.25 74.395 86.25 74.4138 86.25 74.4338C85.4975 73.99 84.6375 73.75 83.75 73.75C81.4613 73.75 79.4862 75.3263 78.9275 77.5063C78.8687 77.5025 78.81 77.5 78.75 77.5C75.3038 77.5 72.5 80.3038 72.5 83.75C72.5 87.1963 75.3038 90 78.75 90H98.125C98.47 90 98.75 89.72 98.75 89.375C98.75 89.03 98.47 88.75 98.125 88.75H78.75C75.9925 88.75 73.75 86.5075 73.75 83.75C73.75 80.9925 75.9925 78.75 78.75 78.75C78.8962 78.75 79.0375 78.7713 79.1787 78.79L79.355 78.8137C79.3813 78.8175 79.4063 78.8188 79.4325 78.8188C79.74 78.8188 80.01 78.5875 80.0513 78.2725C80.29 76.4062 81.88 75 83.75 75C84.8562 75 85.9038 75.5012 86.6263 76.375C86.7488 76.5225 86.9275 76.6025 87.1087 76.6025C87.2062 76.6025 87.3038 76.58 87.3938 76.5325C87.655 76.3988 87.7862 76.1 87.7112 75.8162C87.5675 75.2725 87.5 74.815 87.5 74.375C87.5 71.2738 90.0238 68.75 93.125 68.75C96.1012 68.75 98.5587 71.09 98.7175 74.0788C98.7312 74.3388 98.905 74.5625 99.1537 74.6413C99.2162 74.6613 99.28 74.6712 99.3437 74.6712C99.5312 74.6712 99.7137 74.585 99.8337 74.4312C100.797 73.2037 102.224 72.5 103.75 72.5C106.507 72.5 108.75 74.7425 108.75 77.5C108.75 77.6462 108.729 77.7875 108.71 77.9287L108.686 78.105C108.666 78.2725 108.714 78.44 108.819 78.5712C108.924 78.7025 109.077 78.7863 109.244 78.8025C111.814 79.0588 113.75 81.1862 113.75 83.75C113.75 86.5075 111.507 88.75 108.75 88.75H101.875C101.53 88.75 101.25 89.03 101.25 89.375C101.25 89.72 101.53 90 101.875 90H108.75C112.196 90 115 87.1963 115 83.75C115 80.7537 112.889 78.2338 109.996 77.6538C109.999 77.6025 110 77.5513 110 77.5C110 74.0538 107.196 71.25 103.75 71.25C102.28 71.25 100.884 71.77 99.7713 72.705C99.0238 69.7 96.3188 67.5 93.125 67.5Z" fill="#472B29"/>
<path d="M91.25 76.25C89.4963 76.25 87.9887 77.4987 87.6087 79.1762C87.15 78.8987 86.6263 78.75 86.0938 78.75C84.5913 78.75 83.3463 79.8713 83.1525 81.335C82.8988 81.2775 82.6575 81.25 82.4225 81.25C80.5113 81.25 78.9088 82.75 78.775 84.665C78.7625 84.8375 78.8925 84.9875 79.0637 85C79.0712 85 79.0788 85 79.0863 85C79.2488 85 79.3863 84.8737 79.3975 84.71C79.5088 83.1212 80.8362 81.875 82.4212 81.875C82.7075 81.875 83.0088 81.9262 83.3438 82.0337C83.3713 82.0425 83.4 82.0463 83.4275 82.0463C83.4962 82.0463 83.565 82.0213 83.6225 81.9788C83.7025 81.9213 83.75 81.8187 83.75 81.7188C83.75 80.4262 84.8013 79.375 86.0938 79.375C86.6525 79.375 87.2 79.585 87.6325 79.9662C87.6913 80.0175 87.765 80.045 87.8388 80.045C87.8788 80.045 87.9175 80.0375 87.955 80.0212C88.065 79.9775 88.14 79.875 88.1487 79.7563C88.2787 78.14 89.64 76.875 91.25 76.875C91.51 76.875 91.7813 76.9175 92.1025 77.0087C92.1313 77.0175 92.1613 77.0213 92.19 77.0213C92.3263 77.0213 92.4487 76.93 92.4887 76.7938C92.5362 76.6275 92.44 76.455 92.2738 76.4075C91.8963 76.3 91.57 76.25 91.25 76.25ZM108.604 78.125C106.946 78.125 105.469 79.2462 105.011 80.8525C104.964 81.0187 105.06 81.1912 105.226 81.2387C105.256 81.2462 105.285 81.25 105.313 81.25C105.449 81.25 105.574 81.16 105.613 81.0225C105.994 79.685 107.224 78.75 108.604 78.75C108.75 78.75 108.891 78.7675 109.031 78.7862C109.046 78.7887 109.06 78.79 109.075 78.79C109.226 78.79 109.361 78.675 109.382 78.5187C109.406 78.3475 109.286 78.19 109.115 78.1675C108.948 78.145 108.778 78.125 108.604 78.125Z" fill="#472B29"/>
<path d="M39.375 95H26.875C26.53 95 26.25 94.72 26.25 94.375C26.25 94.03 26.53 93.75 26.875 93.75H39.375C39.72 93.75 40 94.03 40 94.375C40 94.72 39.7212 95 39.375 95ZM43.125 95H41.875C41.53 95 41.25 94.72 41.25 94.375C41.25 94.03 41.53 93.75 41.875 93.75H43.125C43.47 93.75 43.75 94.03 43.75 94.375C43.75 94.72 43.4713 95 43.125 95ZM49.3638 97.5H38.125C37.78 97.5 37.5 97.22 37.5 96.875C37.5 96.53 37.78 96.25 38.125 96.25H49.3638C49.7088 96.25 49.9888 96.53 49.9888 96.875C49.9888 97.22 49.7088 97.5 49.3638 97.5ZM35.625 97.5H34.375C34.03 97.5 33.75 97.22 33.75 96.875C33.75 96.53 34.03 96.25 34.375 96.25H35.625C35.97 96.25 36.25 96.53 36.25 96.875C36.25 97.22 35.9712 97.5 35.625 97.5ZM31.875 97.5H29.375C29.03 97.5 28.75 97.22 28.75 96.875C28.75 96.53 29.03 96.25 29.375 96.25H31.875C32.22 96.25 32.5 96.53 32.5 96.875C32.5 97.22 32.2213 97.5 31.875 97.5ZM39.375 100H36.875C36.53 100 36.25 99.72 36.25 99.375C36.25 99.03 36.53 98.75 36.875 98.75H39.375C39.72 98.75 40 99.03 40 99.375C40 99.72 39.72 100 39.375 100ZM43.125 88.75C42.9037 88.75 42.0962 88.75 41.875 88.75C41.53 88.75 41.25 89.03 41.25 89.375C41.25 89.72 41.53 90 41.875 90C42.0962 90 42.9037 90 43.125 90C43.47 90 43.75 89.72 43.75 89.375C43.75 89.03 43.47 88.75 43.125 88.75ZM43.125 91.25C42.9037 91.25 37.0962 91.25 36.875 91.25C36.53 91.25 36.25 91.53 36.25 91.875C36.25 92.22 36.53 92.5 36.875 92.5C37.0962 92.5 42.9037 92.5 43.125 92.5C43.47 92.5 43.75 92.22 43.75 91.875C43.75 91.53 43.47 91.25 43.125 91.25ZM49.375 93.75C49.1537 93.75 45.8463 93.75 45.625 93.75C45.28 93.75 45 94.03 45 94.375C45 94.72 45.28 95 45.625 95C45.8463 95 49.1537 95 49.375 95C49.72 95 50 94.72 50 94.375C50 94.03 49.72 93.75 49.375 93.75Z" fill="white"/>
<path d="M90.625 30H78.125C77.78 30 77.5 29.72 77.5 29.375C77.5 29.03 77.78 28.75 78.125 28.75H90.625C90.97 28.75 91.25 29.03 91.25 29.375C91.25 29.72 90.97 30 90.625 30ZM95.625 30H93.125C92.78 30 92.5 29.72 92.5 29.375C92.5 29.03 92.78 28.75 93.125 28.75H95.625C95.97 28.75 96.25 29.03 96.25 29.375C96.25 29.72 95.97 30 95.625 30ZM101.875 32.5H89.375C89.03 32.5 88.75 32.22 88.75 31.875C88.75 31.53 89.03 31.25 89.375 31.25H101.875C102.22 31.25 102.5 31.53 102.5 31.875C102.5 32.22 102.221 32.5 101.875 32.5ZM86.875 32.5H85.625C85.28 32.5 85 32.22 85 31.875C85 31.53 85.28 31.25 85.625 31.25H86.875C87.22 31.25 87.5 31.53 87.5 31.875C87.5 32.22 87.22 32.5 86.875 32.5ZM83.0875 32.5H80.625C80.28 32.5 80 32.22 80 31.875C80 31.53 80.28 31.25 80.625 31.25H83.0875C83.4325 31.25 83.7125 31.53 83.7125 31.875C83.7125 32.22 83.4325 32.5 83.0875 32.5ZM94.375 27.5H88.125C87.78 27.5 87.5 27.22 87.5 26.875C87.5 26.53 87.78 26.25 88.125 26.25H94.375C94.72 26.25 95 26.53 95 26.875C95 27.22 94.7213 27.5 94.375 27.5ZM90.625 35H88.125C87.78 35 87.5 34.72 87.5 34.375C87.5 34.03 87.78 33.75 88.125 33.75H90.625C90.97 33.75 91.25 34.03 91.25 34.375C91.25 34.72 90.97 35 90.625 35Z" fill="white"/>
<path d="M47.2625 59.4814C48.7175 51.0164 56.0738 44.5701 64.9538 44.5701C68.9875 44.5701 72.6988 45.9151 75.6975 48.1601L83.3563 39.9126C78.345 35.8051 71.9388 33.3389 64.9538 33.3389C50.6463 33.3389 38.7638 43.6839 36.355 57.3001L47.2625 59.4814Z" fill="#EA5167"/>
<path d="M75.6213 76.999C72.6375 79.2053 68.9488 80.5115 64.9538 80.5115C55.5588 80.5115 47.86 73.3003 47.0625 64.1128L36.3888 67.6703C38.8725 81.1941 50.7125 91.4441 64.9538 91.4441C72.455 91.4441 79.2913 88.6003 84.4463 83.9328L75.6213 76.999Z" fill="#00A698"/>
<path d="M87.1162 57.1499H82.0975H65.5525V67.9324H82.0987C80.8137 72.0224 78.1062 75.4812 74.5562 77.7311L83.2362 84.9649C89.805 79.6386 94.0062 71.5074 94.0062 62.3924C94.0062 60.6024 93.8362 58.8524 93.525 57.1512H87.1162V57.1499Z" fill="#48BED8"/>
<path d="M46.9825 62.5402C46.9825 59.9252 47.5538 57.4464 48.5588 55.2052L39.1925 48.9614C37.0938 52.9789 35.9 57.5439 35.9 62.3914C35.9 66.9252 36.94 71.2152 38.7913 75.0377L48.18 68.5302C47.7413 66.9752 46.9825 64.2364 46.9825 62.5402Z" fill="#FDE751"/>
<path d="M64.9525 92.2812C48.4713 92.2812 35.0613 78.8725 35.0613 62.39C35.0613 45.9075 48.4713 32.5 64.9525 32.5C71.8413 32.5 78.565 34.9025 83.885 39.2637L84.575 39.8288L75.7975 49.2825L75.1938 48.8312C72.2013 46.5925 68.66 45.4087 64.9525 45.4087C55.5063 45.4087 47.8213 53.0938 47.8213 62.54C47.8213 71.9862 55.5063 79.6712 64.9525 79.6712C72.0875 79.6712 78.365 75.3362 80.915 68.77H64.7138V56.31H94.2238L94.3488 56.9975C94.6775 58.7975 94.8438 60.6125 94.8438 62.39C94.8438 78.8725 81.435 92.2812 64.9525 92.2812ZM64.9525 34.1775C49.3963 34.1775 36.74 46.8337 36.74 62.39C36.74 77.9462 49.3963 90.6025 64.9525 90.6025C80.5088 90.6025 93.165 77.9462 93.165 62.39C93.165 60.9387 93.0475 59.4612 92.815 57.9875H66.39V67.0925H83.24L82.8975 68.1825C80.4225 76.0575 73.21 81.3487 64.9513 81.3487C54.58 81.3487 46.1425 72.9112 46.1425 62.54C46.1425 52.1688 54.58 43.7312 64.9513 43.7312C68.7738 43.7312 72.4325 44.875 75.5838 47.0463L82.1225 40.005C77.2188 36.2413 71.1563 34.1775 64.9525 34.1775Z" fill="#472B29"/>
<path d="M45.625 45.625C45.625 45.625 47.5837 45.625 50 45.625C52.4163 45.625 54.375 43.6663 54.375 41.25C54.375 39.0238 52.7062 37.2075 50.5562 36.9313C50.5912 36.7075 50.625 36.4837 50.625 36.25C50.625 33.8338 48.6663 31.875 46.25 31.875C44.96 31.875 43.8125 32.4438 43.0125 33.3313C42.5325 31.0713 40.5287 29.375 38.125 29.375C35.3637 29.375 33.125 31.6137 33.125 34.375C33.125 34.6137 33.1625 34.8425 33.195 35.0725C32.66 34.6425 31.99 34.375 31.25 34.375C29.715 34.375 28.4437 35.4838 28.1813 36.9438C27.9575 36.9088 27.7337 36.875 27.5 36.875C25.0838 36.875 23.125 38.8337 23.125 41.25C23.125 43.6663 25.0838 45.625 27.5 45.625C29.9162 45.625 36.875 45.625 36.875 45.625V46.25H45.625V45.625Z" fill="#FDFCEF"/>
<path d="M47.8125 40C47.64 40 47.5 39.86 47.5 39.6875C47.5 38.1588 48.7437 36.915 50.2725 36.915C50.315 36.9263 51.1937 36.9138 51.8275 37.085C51.9937 37.13 52.0925 37.3013 52.0475 37.4675C52.0025 37.635 51.8312 37.7338 51.665 37.6875C51.11 37.5375 50.29 37.5375 50.2738 37.54C49.0887 37.54 48.125 38.5038 48.125 39.6875C48.125 39.86 47.985 40 47.8125 40ZM39.375 45C39.2092 45 39.0503 45.0659 38.9331 45.1831C38.8158 45.3003 38.75 45.4593 38.75 45.625C38.75 45.7908 38.8158 45.9498 38.9331 46.067C39.0503 46.1842 39.2092 46.25 39.375 46.25C39.5408 46.25 39.6997 46.1842 39.8169 46.067C39.9342 45.9498 40 45.7908 40 45.625C40 45.4593 39.9342 45.3003 39.8169 45.1831C39.6997 45.0659 39.5408 45 39.375 45Z" fill="#472B29"/>
<path d="M50 46.25H45.625C45.28 46.25 45 45.97 45 45.625C45 45.28 45.28 45 45.625 45H50C52.0675 45 53.75 43.3175 53.75 41.25C53.75 39.38 52.3438 37.79 50.4775 37.5513C50.31 37.5288 50.1588 37.4412 50.0575 37.3062C49.9563 37.1712 49.9137 37.0013 49.94 36.835C49.9688 36.6425 50 36.45 50 36.25C50 34.1825 48.3175 32.5 46.25 32.5C45.1875 32.5 44.2025 32.9437 43.4762 33.75C43.32 33.9237 43.075 33.9975 42.8512 33.935C42.6237 33.8738 42.45 33.6912 42.4013 33.4612C41.975 31.4562 40.1763 30 38.125 30C35.7125 30 33.75 31.9625 33.75 34.375C33.75 34.5538 33.7763 34.725 33.8013 34.8975C33.8375 35.1512 33.7225 35.445 33.4987 35.5725C33.275 35.7 33.0037 35.72 32.8038 35.56C32.3475 35.1937 31.8112 35 31.25 35C30.0425 35 29.01 35.8637 28.7963 37.055C28.7363 37.3887 28.4263 37.6125 28.085 37.5612C27.8925 37.5312 27.7 37.5 27.5 37.5C25.4325 37.5 23.75 39.1825 23.75 41.25C23.75 43.3175 25.4325 45 27.5 45H36.875C37.22 45 37.5 45.28 37.5 45.625C37.5 45.97 37.22 46.25 36.875 46.25H27.5C24.7425 46.25 22.5 44.0075 22.5 41.25C22.5 38.4925 24.7425 36.25 27.5 36.25C27.5738 36.25 27.645 36.2525 27.7175 36.2575C28.235 34.775 29.6388 33.75 31.25 33.75C31.6862 33.75 32.1112 33.8263 32.5138 33.975C32.72 31.0588 35.1575 28.75 38.125 28.75C40.4137 28.75 42.4575 30.1588 43.3162 32.2175C44.1663 31.595 45.1938 31.25 46.25 31.25C49.0075 31.25 51.25 33.4925 51.25 36.25C51.25 36.31 51.2487 36.3688 51.245 36.4275C53.4237 36.9875 55 38.9613 55 41.25C55 44.0075 52.7575 46.25 50 46.25Z" fill="#472B29"/>
<path d="M43.125 45C42.9262 45 42.0738 45 41.875 45C41.53 45 41.25 45.28 41.25 45.625C41.25 45.97 41.53 46.25 41.875 46.25C42.0738 46.25 42.9262 46.25 43.125 46.25C43.47 46.25 43.75 45.97 43.75 45.625C43.75 45.28 43.47 45 43.125 45Z" fill="#472B29"/>
</g>
<defs>
<filter id="filter0_d" x="-4" y="0" width="133" height="133" filterUnits="userSpaceOnUse" color-interpolation-filters="sRGB">
<feFlood flood-opacity="0" result="BackgroundImageFix"/>
<feColorMatrix in="SourceAlpha" type="matrix" values="0 0 0 0 0 0 0 0 0 0 0 0 0 0 0 0 0 0 127 0"/>
<feOffset dy="4"/>
<feGaussianBlur stdDeviation="2"/>
<feColorMatrix type="matrix" values="0 0 0 0 0 0 0 0 0 0 0 0 0 0 0 0 0 0 0.25 0"/>
<feBlend mode="normal" in2="BackgroundImageFix" result="effect1_dropShadow"/>
<feBlend mode="normal" in="SourceGraphic" in2="effect1_dropShadow" result="shape"/>
</filter>
</defs>
</svg>
