<svg width="125" height="125" viewBox="0 0 125 125" fill="none" xmlns="http://www.w3.org/2000/svg">
<g filter="url(#filter0_d)">
<path d="M16.25 33.75C15.587 33.75 14.9511 34.0134 14.4822 34.4822C14.0134 34.9511 13.75 35.587 13.75 36.25C13.75 36.913 14.0134 37.5489 14.4822 38.0178C14.9511 38.4866 15.587 38.75 16.25 38.75C16.913 38.75 17.5489 38.4866 18.0178 38.0178C18.4866 37.5489 18.75 36.913 18.75 36.25C18.75 35.587 18.4866 34.9511 18.0178 34.4822C17.5489 34.0134 16.913 33.75 16.25 33.75Z" fill="#78A0CF"/>
<path d="M96.25 15C95.9185 15 95.6005 15.1317 95.3661 15.3661C95.1317 15.6005 95 15.9185 95 16.25C95 16.5815 95.1317 16.8995 95.3661 17.1339C95.6005 17.3683 95.9185 17.5 96.25 17.5C96.5815 17.5 96.8995 17.3683 97.1339 17.1339C97.3683 16.8995 97.5 16.5815 97.5 16.25C97.5 15.9185 97.3683 15.6005 97.1339 15.3661C96.8995 15.1317 96.5815 15 96.25 15Z" fill="#F1BC19"/>
<path d="M62.5 16.25C50.2337 16.25 38.4699 21.1228 29.7963 29.7963C21.1228 38.4699 16.25 50.2337 16.25 62.5C16.25 74.7663 21.1228 86.5301 29.7963 95.2037C38.4699 103.877 50.2337 108.75 62.5 108.75C74.7663 108.75 86.5301 103.877 95.2037 95.2037C103.877 86.5301 108.75 74.7663 108.75 62.5C108.75 50.2337 103.877 38.4699 95.2037 29.7963C86.5301 21.1228 74.7663 16.25 62.5 16.25Z" fill="#CEE1F4"/>
<path d="M103.75 13.75C102.424 13.75 101.152 14.2768 100.214 15.2145C99.2768 16.1521 98.75 17.4239 98.75 18.75C98.75 20.0761 99.2768 21.3479 100.214 22.2855C101.152 23.2232 102.424 23.75 103.75 23.75C105.076 23.75 106.348 23.2232 107.286 22.2855C108.223 21.3479 108.75 20.0761 108.75 18.75C108.75 17.4239 108.223 16.1521 107.286 15.2145C106.348 14.2768 105.076 13.75 103.75 13.75Z" fill="#F1BC19"/>
<path d="M108.75 27.5C108.087 27.5 107.451 27.7634 106.982 28.2322C106.513 28.7011 106.25 29.337 106.25 30C106.25 30.663 106.513 31.2989 106.982 31.7678C107.451 32.2366 108.087 32.5 108.75 32.5C109.413 32.5 110.049 32.2366 110.518 31.7678C110.987 31.2989 111.25 30.663 111.25 30C111.25 29.337 110.987 28.7011 110.518 28.2322C110.049 27.7634 109.413 27.5 108.75 27.5Z" fill="#78A0CF"/>
<path d="M101.25 92.5C100.587 92.5 99.9511 92.7634 99.4822 93.2322C99.0134 93.7011 98.75 94.337 98.75 95C98.75 95.663 99.0134 96.2989 99.4822 96.7678C99.9511 97.2366 100.587 97.5 101.25 97.5C101.913 97.5 102.549 97.2366 103.018 96.7678C103.487 96.2989 103.75 95.663 103.75 95C103.75 94.337 103.487 93.7011 103.018 93.2322C102.549 92.7634 101.913 92.5 101.25 92.5ZM18.75 73.75C17.4239 73.75 16.1521 74.2768 15.2145 75.2145C14.2768 76.1521 13.75 77.4239 13.75 78.75C13.75 80.0761 14.2768 81.3479 15.2145 82.2855C16.1521 83.2232 17.4239 83.75 18.75 83.75C20.0761 83.75 21.3479 83.2232 22.2855 82.2855C23.2232 81.3479 23.75 80.0761 23.75 78.75C23.75 77.4239 23.2232 76.1521 22.2855 75.2145C21.3479 74.2768 20.0761 73.75 18.75 73.75Z" fill="#FBCD59"/>
<path d="M31.25 106.25C30.587 106.25 29.9511 106.513 29.4822 106.982C29.0134 107.451 28.75 108.087 28.75 108.75C28.75 109.413 29.0134 110.049 29.4822 110.518C29.9511 110.987 30.587 111.25 31.25 111.25C31.913 111.25 32.5489 110.987 33.0178 110.518C33.4866 110.049 33.75 109.413 33.75 108.75C33.75 108.087 33.4866 107.451 33.0178 106.982C32.5489 106.513 31.913 106.25 31.25 106.25Z" fill="#78A0CF"/>
<path d="M23.125 63.75C22.2962 63.75 21.5013 64.0792 20.9153 64.6653C20.3292 65.2513 20 66.0462 20 66.875C20 67.7038 20.3292 68.4987 20.9153 69.0847C21.5013 69.6708 22.2962 70 23.125 70C23.9538 70 24.7487 69.6708 25.3347 69.0847C25.9208 68.4987 26.25 67.7038 26.25 66.875C26.25 66.0462 25.9208 65.2513 25.3347 64.6653C24.7487 64.0792 23.9538 63.75 23.125 63.75Z" fill="white"/>
<path d="M26.25 82.5C25.9185 82.5 25.6005 82.6317 25.3661 82.8661C25.1317 83.1005 25 83.4185 25 83.75C25 84.0815 25.1317 84.3995 25.3661 84.6339C25.6005 84.8683 25.9185 85 26.25 85C26.5815 85 26.8995 84.8683 27.1339 84.6339C27.3683 84.3995 27.5 84.0815 27.5 83.75C27.5 83.4185 27.3683 83.1005 27.1339 82.8661C26.8995 82.6317 26.5815 82.5 26.25 82.5Z" fill="#F1BC19"/>
<path d="M100 41.25C99.6685 41.25 99.3505 41.3817 99.1161 41.6161C98.8817 41.8505 98.75 42.1685 98.75 42.5C98.75 42.8315 98.8817 43.1495 99.1161 43.3839C99.3505 43.6183 99.6685 43.75 100 43.75C100.332 43.75 100.649 43.6183 100.884 43.3839C101.118 43.1495 101.25 42.8315 101.25 42.5C101.25 42.1685 101.118 41.8505 100.884 41.6161C100.649 41.3817 100.332 41.25 100 41.25Z" fill="white"/>
<path d="M43.75 90.375C38.75 90.375 34.625 86.25 34.625 81.25V43.75C34.625 38.75 38.75 34.625 43.75 34.625H81.25C86.25 34.625 90.375 38.75 90.375 43.75V81.25C90.375 86.25 86.25 90.375 81.25 90.375H43.75Z" fill="#BABCE2"/>
<path d="M81.25 35.5C85.75 35.5 89.5 39.25 89.5 43.75V81.25C89.5 85.75 85.75 89.5 81.25 89.5H43.75C39.25 89.5 35.5 85.75 35.5 81.25V43.75C35.5 39.25 39.25 35.5 43.75 35.5H81.25ZM81.25 33.75H43.75C38.25 33.75 33.75 38.25 33.75 43.75V81.25C33.75 86.75 38.25 91.25 43.75 91.25H81.25C86.75 91.25 91.25 86.75 91.25 81.25V43.75C91.25 38.25 86.75 33.75 81.25 33.75Z" fill="#472B29"/>
<path d="M85.625 59.875V62.125V80C85.625 83.125 83.125 85.625 80 85.625H45C41.875 85.625 39.375 83.125 39.375 80V45C39.375 41.875 41.875 39.375 45 39.375H76.75H80C83.125 39.375 85.625 41.875 85.625 45V49.25V51.75V53V54.375V58V59.875Z" fill="#FDFCEE"/>
<path d="M85.625 59.25C85.25 59.25 85 59 85 58.625V53.75C85 53.375 85.25 53.125 85.625 53.125C86 53.125 86.25 53.375 86.25 53.75V58.625C86.25 59 86 59.25 85.625 59.25ZM85.625 50.625C85.25 50.625 85 50.375 85 50V47.5C85 47.125 85.25 46.875 85.625 46.875C86 46.875 86.25 47.125 86.25 47.5V50C86.25 50.375 86 50.625 85.625 50.625Z" fill="#472B29"/>
<path d="M80 86.25H45C41.5 86.25 38.75 83.5 38.75 80V45C38.75 41.5 41.5 38.75 45 38.75H76.75C77.125 38.75 77.375 39 77.375 39.375C77.375 39.75 77.125 40 76.75 40H45C42.25 40 40 42.25 40 45V80C40 82.75 42.25 85 45 85H80C82.75 85 85 82.75 85 80V62C85 61.625 85.25 61.375 85.625 61.375C86 61.375 86.25 61.625 86.25 62V80C86.25 83.5 83.5 86.25 80 86.25Z" fill="#472B29"/>
<path d="M75.125 62.25C75.125 60.375 76.125 59.25 77.75 58.5C77.625 57.5 76.5 54.625 75.875 53.875C74.25 54.625 72.75 54.5 71.375 53.25C70 52 70 50.375 70.75 48.75C69.375 47.875 67.75 47.25 66.125 46.875C65.625 48.5 64.5 49.5 62.875 49.625C60.875 49.75 59.625 48.75 58.875 46.875C57.25 47.25 55.75 47.875 54.25 48.75C55 50.375 54.875 51.875 53.625 53.25C52.375 54.625 50.75 54.75 49.125 53.875C48.25 55.25 47.625 56.875 47.25 58.5C48.875 59.125 49.875 60.25 50 62C50 63.875 49 65 47.375 65.75C47.75 67.375 48.375 68.875 49.25 70.25C50.875 69.5 52.375 69.625 53.625 70.875C54.875 72.125 55.125 73.625 54.375 75.25C55.75 76.125 57.375 76.75 59 77.125V77C59.625 75.5 60.875 74.5 62.5 74.5C64.125 74.5 65.5 75.375 66.125 77C66.25 77.125 66.25 77.125 66.375 77.125C67.875 76.75 69.25 76.125 70.5 75.375C70.625 75.375 70.625 75.25 70.75 75.25C70.125 74 70.125 72.5 71.25 71.25C72.5 69.75 74.125 69.5 75.875 70.25C76.75 68.875 77.375 67.375 77.75 65.75C76.125 65.125 75.125 64 75.125 62.25ZM62.5 64.875C61 64.875 59.875 63.625 59.875 62.25C59.875 60.75 61.125 59.625 62.625 59.625C64.125 59.625 65.25 60.875 65.25 62.375C65.125 63.625 64 64.875 62.5 64.875Z" fill="#BCBCE2"/>
<path d="M59 77.8752C59 77.8752 58.875 77.7502 59 77.8752C57.25 77.5002 55.625 76.8752 54.25 76.0002C54 75.8752 54 75.6252 54.125 75.3752C54.75 73.8752 54.625 72.5002 53.5 71.5002C52.375 70.5002 51.125 70.2502 49.625 71.0002C49.375 71.1252 49.125 71.0002 49 70.8752C48.125 69.3752 47.375 67.8752 47 66.2502C47 66.0002 47.125 65.7502 47.25 65.7502C48.875 65.1252 49.625 64.0002 49.625 62.5002C49.625 61.0002 48.75 60.0002 47.25 59.3752C47 59.2502 46.875 59.1252 47 58.8752C47.375 57.2502 48 55.6252 48.875 54.1252C49 53.8752 49.25 53.8752 49.5 54.0002C51.125 54.7502 52.375 54.5002 53.5 53.3752C54.625 52.2502 54.75 51.0002 54 49.3752C53.875 49.1252 54 48.8752 54.125 48.7502C55.5 47.8752 57.125 47.2502 58.875 46.7502C59.125 46.7502 59.375 46.8752 59.375 47.0002C60 48.7502 61.125 49.5002 62.875 49.3752C64.25 49.2502 65.25 48.5002 65.75 47.0002C65.875 46.7502 66 46.6252 66.25 46.7502C67.875 47.1252 69.5 47.7502 71 48.7502C71.25 48.8752 71.25 49.1252 71.125 49.3752C70.375 51.0002 70.625 52.2502 71.625 53.3752C72.75 54.5002 74 54.6252 75.625 53.8752C75.75 53.7502 76 53.8752 76.125 54.0002C76.75 54.7502 78 57.7502 78.125 58.8752C78.125 59.1252 78 59.2502 77.875 59.3752C76.25 60.0002 75.5 61.1252 75.5 62.6252C75.5 64.1252 76.25 65.1252 77.875 65.7502C78.125 65.8752 78.25 66.0002 78.125 66.2502C77.75 67.8752 77.125 69.5002 76.125 70.8752C76 71.1252 75.75 71.1252 75.5 71.0002C73.875 70.2502 72.5 70.5002 71.375 71.8752C70.5 72.8752 70.375 74.1252 71 75.5002C71.125 75.7502 71 76.0002 70.875 76.1252L70.625 76.2502C69.25 77.0002 67.875 77.6252 66.375 78.0002C65.875 78.1252 65.625 77.8752 65.5 77.6252C65 76.2502 63.75 75.5002 62.375 75.5002C61 75.5002 59.875 76.3752 59.375 77.7502V77.8752C59.375 77.6252 59.125 77.8752 59 77.8752ZM55 75.2502C56.125 75.8752 57.375 76.3752 58.75 76.7502C59.5 75.1252 60.875 74.2502 62.5 74.2502C64.25 74.2502 65.625 75.2502 66.375 76.7502C67.75 76.3752 69 75.8752 70.125 75.2502C69.5 73.6252 69.75 72.2502 70.75 71.0002C72 69.5002 73.625 69.1252 75.5 69.7502C76.125 68.6252 76.75 67.3752 77 66.0002C75.375 65.2502 74.5 64.0002 74.375 62.2502C74.375 60.3752 75.25 59.0002 77 58.2502C76.75 57.2502 76 55.3752 75.5 54.5002C73.75 55.2502 72.125 54.8752 70.875 53.6252C69.625 52.3752 69.25 50.7502 70 49.0002C68.875 48.3752 67.625 47.7502 66.25 47.5002C65.625 49.1252 64.375 50.0002 62.75 50.1252C60.75 50.2502 59.25 49.3752 58.5 47.5002C57.125 47.8752 55.875 48.3752 54.75 49.0002C55.5 50.7502 55.125 52.3752 53.875 53.6252C52.625 54.8752 51 55.2502 49.25 54.5002C48.625 55.6252 48.125 56.8752 47.75 58.2502C49.375 59.0002 50.375 60.2502 50.375 62.0002C50.375 63.8752 49.5 65.1252 47.75 66.0002C48.125 67.2502 48.625 68.5002 49.375 69.7502C51.125 69.1252 52.625 69.3752 53.875 70.6252C55.25 72.0002 55.625 73.5002 55 75.2502ZM62.5 65.2502C61.625 65.2502 60.875 64.8752 60.25 64.3752C59.625 63.7502 59.375 63.0002 59.375 62.1252C59.375 61.2502 59.75 60.5002 60.25 59.8752C60.875 59.2502 61.625 59.0002 62.5 59.0002C63.375 59.0002 64.125 59.3752 64.75 60.0002C65.375 60.6252 65.625 61.3752 65.625 62.2502C65.625 64.0002 64.25 65.2502 62.5 65.2502ZM62.5 60.0002C61.875 60.0002 61.375 60.2502 60.875 60.6252C60.5 61.0002 60.25 61.6252 60.25 62.1252C60.25 62.6252 60.5 63.2502 60.875 63.7502C61.25 64.1252 61.875 64.3752 62.5 64.3752C63.75 64.3752 64.625 63.3752 64.75 62.2502C64.75 61.6252 64.5 61.1252 64.125 60.6252C63.75 60.2502 63.125 60.0002 62.5 60.0002C62.625 60.0002 62.625 60.0002 62.5 60.0002Z" fill="#472B29"/>
<path d="M72.25 59.8749C70.875 54.6249 65.5 51.4999 60.25 52.7499C55 54.1249 51.75 59.3749 53.125 64.6249C54.5 69.8749 59.875 72.9999 65.125 71.7499C70.375 70.3749 73.625 65.1249 72.25 59.8749ZM64.625 69.8749C60.375 70.9999 56.125 68.3749 55 64.2499C53.875 59.9999 56.5 55.7499 60.75 54.7499C65 53.7499 69.125 56.3749 70.25 60.4999C71.25 64.6249 68.75 68.7499 64.625 69.8749Z" fill="#7878AA"/>
<path d="M62.625 70.5C59 70.5 55.75 68 54.75 64.375C54.25 62.25 54.5 60.125 55.625 58.25C56.75 56.375 58.5 55.125 60.625 54.5C62.75 54 64.875 54.25 66.75 55.375C68.625 56.5 69.875 58.25 70.5 60.375C71.625 64.75 69 69.125 64.625 70.25C63.875 70.375 63.25 70.5 62.625 70.5ZM62.625 54.875C62 54.875 61.375 55 60.75 55.125C58.875 55.625 57.25 56.875 56.125 58.5C55 60.125 54.875 62.25 55.25 64.125C56.25 68.125 60.375 70.5 64.25 69.5C68.25 68.5 70.625 64.375 69.625 60.5C69.125 58.625 67.875 57 66.25 55.875C65.25 55.25 63.875 54.875 62.625 54.875ZM53.25 59.25C53.25 59.25 53.125 59.125 53.25 59.25C53 59.125 52.875 59 53 58.75C54.125 55.5 56.875 53.125 60.125 52.25C60.25 52.25 60.5 52.25 60.5 52.5C60.5 52.75 60.5 52.875 60.25 52.875C57.125 53.625 54.625 55.875 53.625 58.875C53.5 59.125 53.375 59.25 53.25 59.25Z" fill="#472B29"/>
<path d="M62.75 72.25C61.75 72.25 60.625 72.125 59.625 71.75C56.125 70.75 53.5 68 52.625 64.625C52.625 64.5 52.625 64.25 52.875 64.25C53 64.25 53.25 64.25 53.25 64.5C54 67.625 56.5 70.125 59.875 71.125C63.25 72.125 66.625 71.375 69.125 69.125C69.25 69 69.5 69 69.625 69.125C69.75 69.25 69.75 69.5 69.625 69.625C67.75 71.375 65.25 72.25 62.75 72.25Z" fill="#472B29"/>
<path d="M71.25 67C71 67.375 70.875 67.75 70.625 68.125L71.25 67Z" fill="#A2A2CC"/>
<path d="M70.625 68.375C70.5 68.375 70.5 68.375 70.375 68.375C70.25 68.25 70.25 68.125 70.25 67.875C70.5 67.5 70.75 67.25 70.875 66.875C71 66.75 71.125 66.625 71.375 66.75C71.5 66.875 71.625 67 71.5 67.25C71.25 67.625 71 68 70.75 68.375H70.625Z" fill="#472B29"/>
<path d="M72.25 64.375C72.125 65 71.875 65.5 71.625 66.125L72.25 64.375Z" fill="#A2A2CC"/>
<path d="M71.625 66.5H71.5C71.375 66.375 71.25 66.25 71.375 66.125C71.625 65.625 71.75 65 71.875 64.5C71.875 64.375 72.125 64.25 72.25 64.25C72.375 64.25 72.5 64.5 72.5 64.625C72.375 65.25 72.125 65.875 71.875 66.375C71.875 66.375 71.75 66.5 71.625 66.5ZM72.125 60.125C72 60.125 71.875 60 71.75 59.875C71 56.75 68.625 54.25 65.625 53.125C65.5 53.125 65.375 52.875 65.375 52.75C65.375 52.625 65.625 52.5 65.75 52.5C69 53.625 71.5 56.25 72.25 59.625C72.5 59.875 72.375 60 72.125 60.125C72.25 60.125 72.25 60.125 72.125 60.125Z" fill="#472B29"/>
<path d="M66.125 55.375C66 55.375 66 55.375 66 55.25C66 55.125 66 55.125 66.125 55L68.75 54.375C68.875 54.375 68.875 54.375 69 54.5C69 54.625 69 54.625 68.875 54.75L66.125 55.375Z" fill="#472B29"/>
<path d="M68.375 56.875C68.25 56.875 68.25 56.875 68.25 56.75C68.25 56.625 68.25 56.625 68.375 56.5L70.375 56.125C70.5 56.125 70.5 56.125 70.625 56.25C70.75 56.375 70.625 56.375 70.5 56.5L68.375 56.875Z" fill="#472B29"/>
<path d="M69.625 58.875C69.5 58.875 69.5 58.875 69.5 58.75C69.5 58.625 69.5 58.625 69.625 58.625L71.625 58.375C71.75 58.375 71.75 58.375 71.75 58.5C71.75 58.625 71.75 58.625 71.625 58.625L69.625 58.875Z" fill="#472B29"/>
<path d="M59 55.125C58.875 55.125 58.875 55.125 58.875 55L58.625 53.125C58.625 53 58.625 53 58.75 53C58.875 53 58.875 53 58.875 53.125L59.125 55C59.125 55.125 59.125 55.125 59 55.125Z" fill="#472B29"/>
<path d="M57.5 56.375C57.375 56.375 57.375 56.375 57.375 56.25L56.75 54.25C56.75 54.125 56.75 54.125 56.875 54C57 54 57 54 57.125 54.125L57.75 56.125C57.625 56.25 57.625 56.375 57.5 56.375Z" fill="#472B29"/>
<path d="M56.125 57.875C56.125 57.875 56 57.875 56 57.75L54.75 56C54.75 55.875 54.75 55.875 54.75 55.75C54.875 55.75 54.875 55.75 55 55.75L56.25 57.5C56.25 57.75 56.25 57.875 56.125 57.875Z" fill="#472B29"/>
<path d="M53.5 66.125C53.375 66.125 53.375 66 53.375 66C53.375 65.875 53.5 65.875 53.5 65.875L55.5 65.75C55.625 65.75 55.625 65.875 55.625 65.875C55.625 66 55.5 66 55.5 66L53.5 66.125Z" fill="#472B29"/>
<path d="M54.625 68.25C54.5 68.25 54.5 68.25 54.5 68.125C54.5 68 54.5 68 54.625 67.875L56.625 67.25C56.75 67.25 56.75 67.25 56.875 67.375C56.875 67.5 56.875 67.5 56.75 67.625L54.625 68.25C54.75 68.25 54.75 68.25 54.625 68.25Z" fill="#472B29"/>
<path d="M56.75 70.125C56.75 70.125 56.625 70.125 56.625 70C56.625 69.875 56.625 69.875 56.75 69.75L58.375 68.875C58.5 68.875 58.5 68.875 58.625 69C58.625 69.125 58.625 69.125 58.5 69.25L56.75 70.125C56.875 70.125 56.875 70.125 56.75 70.125Z" fill="#472B29"/>
<path d="M59.5 71.375C59.375 71.25 59.375 71.125 59.375 71.125L60.625 70C60.75 70 60.75 70 60.875 70C60.875 70.125 60.875 70.125 60.875 70.25L59.5 71.375C59.625 71.375 59.625 71.375 59.5 71.375Z" fill="#472B29"/>
<path d="M62.5 72.125C62.5 72.125 62.375 72.125 62.5 72.125C62.375 72 62.375 72 62.375 71.875L63.375 70.125C63.375 70 63.5 70 63.625 70C63.75 70 63.75 70.125 63.75 70.25L62.75 72C62.625 72.125 62.5 72.125 62.5 72.125Z" fill="#472B29"/>
<path d="M65.625 71.625C65.5 71.625 65.5 71.5 65.5 71.5L65.625 69.625C65.625 69.5 65.75 69.5 65.75 69.5C65.875 69.5 65.875 69.625 65.875 69.625L65.75 71.5C65.75 71.5 65.75 71.625 65.625 71.625Z" fill="#472B29"/>
<path d="M61.125 52.375C61.75 52.25 62.375 52.25 63 52.25L61.125 52.375Z" fill="#A2A2CC"/>
<path d="M61.125 52.75C61 52.75 60.875 52.625 60.75 52.5C60.75 52.375 60.875 52.125 61 52.125C61.625 52 62.25 52 62.875 52C63 52 63.25 52.125 63.125 52.375C63.125 52.5 63 52.625 62.75 52.625C62.375 52.625 61.75 52.625 61.125 52.75Z" fill="#472B29"/>
</g>
<defs>
<filter id="filter0_d" x="-4" y="0" width="133" height="133" filterUnits="userSpaceOnUse" color-interpolation-filters="sRGB">
<feFlood flood-opacity="0" result="BackgroundImageFix"/>
<feColorMatrix in="SourceAlpha" type="matrix" values="0 0 0 0 0 0 0 0 0 0 0 0 0 0 0 0 0 0 127 0"/>
<feOffset dy="4"/>
<feGaussianBlur stdDeviation="2"/>
<feColorMatrix type="matrix" values="0 0 0 0 0 0 0 0 0 0 0 0 0 0 0 0 0 0 0.25 0"/>
<feBlend mode="normal" in2="BackgroundImageFix" result="effect1_dropShadow"/>
<feBlend mode="normal" in="SourceGraphic" in2="effect1_dropShadow" result="shape"/>
</filter>
</defs>
</svg>
