<svg width="110" height="44" viewBox="0 0 232 78" fill="none" xmlns="http://www.w3.org/2000/svg">
<path d="M80.2 60.168C80.2 57.096 80.728 54.12 81.784 51.24C82.888 48.36 84.424 45.816 86.392 43.608C88.36 41.352 90.736 39.552 93.52 38.208C96.352 36.816 99.472 36.12 102.88 36.12C104.56 36.12 106.12 36.36 107.56 36.84C109 37.32 110.248 38.016 111.304 38.928C112.408 39.84 113.248 40.968 113.824 42.312C114.448 43.608 114.76 45.096 114.76 46.776C114.76 49.464 114.16 51.744 112.96 53.616C111.76 55.488 110.08 57.024 107.92 58.224C105.808 59.376 103.288 60.216 100.36 60.744C97.432 61.272 94.24 61.536 90.784 61.536C91.12 63.552 91.84 64.992 92.944 65.856C94.096 66.672 95.896 67.08 98.344 67.08C99.88 67.08 101.44 66.96 103.024 66.72C104.608 66.432 106.096 66.024 107.488 65.496L108.28 73.92C106.936 74.448 105.208 74.928 103.096 75.36C101.032 75.792 98.776 76.008 96.328 76.008C93.352 76.008 90.832 75.6 88.768 74.784C86.752 73.92 85.096 72.768 83.8 71.328C82.552 69.888 81.64 68.208 81.064 66.288C80.488 64.368 80.2 62.328 80.2 60.168ZM101.152 44.616C98.704 44.616 96.544 45.504 94.672 47.28C92.848 49.008 91.648 51.312 91.072 54.192C94.048 54.096 96.448 53.856 98.272 53.472C100.096 53.04 101.512 52.536 102.52 51.96C103.528 51.384 104.2 50.76 104.536 50.088C104.872 49.416 105.04 48.744 105.04 48.072C105.04 45.768 103.744 44.616 101.152 44.616ZM133.356 76.008C130.812 76.008 128.604 75.624 126.732 74.856C124.86 74.088 123.3 73.008 122.052 71.616C120.852 70.224 119.94 68.592 119.316 66.72C118.692 64.8 118.38 62.688 118.38 60.384C118.38 57.504 118.836 54.624 119.748 51.744C120.708 48.864 122.1 46.272 123.924 43.968C125.748 41.664 127.98 39.792 130.62 38.352C133.26 36.864 136.284 36.12 139.692 36.12C142.188 36.12 144.372 36.504 146.244 37.272C148.164 38.04 149.724 39.12 150.924 40.512C152.172 41.904 153.108 43.56 153.732 45.48C154.356 47.352 154.668 49.44 154.668 51.744C154.668 54.624 154.212 57.504 153.3 60.384C152.388 63.264 151.044 65.856 149.268 68.16C147.492 70.464 145.26 72.36 142.572 73.848C139.932 75.288 136.86 76.008 133.356 76.008ZM138.684 45.192C137.1 45.192 135.708 45.648 134.508 46.56C133.308 47.472 132.3 48.624 131.484 50.016C130.668 51.408 130.044 52.944 129.612 54.624C129.228 56.256 129.036 57.816 129.036 59.304C129.036 61.752 129.42 63.648 130.188 64.992C130.956 66.288 132.348 66.936 134.364 66.936C135.948 66.936 137.34 66.48 138.54 65.568C139.74 64.656 140.748 63.504 141.564 62.112C142.38 60.72 142.98 59.208 143.364 57.576C143.796 55.896 144.012 54.312 144.012 52.824C144.012 50.376 143.628 48.504 142.86 47.208C142.092 45.864 140.7 45.192 138.684 45.192ZM173.259 75.72C169.851 75.72 167.163 75.288 165.195 74.424C163.275 73.512 161.883 72.288 161.019 70.752C160.203 69.216 159.795 67.464 159.795 65.496C159.843 63.48 160.131 61.344 160.659 59.088L169.803 20.856L180.963 19.128L170.955 60.6C170.763 61.464 170.643 62.256 170.595 62.976C170.595 63.696 170.739 64.344 171.027 64.92C171.315 65.448 171.795 65.88 172.467 66.216C173.187 66.552 174.171 66.768 175.419 66.864L173.259 75.72ZM190.93 75H180.274L189.274 37.128H200.002L190.93 75ZM196.114 32.52C194.626 32.52 193.282 32.088 192.082 31.224C190.882 30.312 190.282 28.944 190.282 27.12C190.282 26.112 190.474 25.176 190.858 24.312C191.29 23.4 191.842 22.632 192.514 22.008C193.186 21.336 193.954 20.808 194.818 20.424C195.73 20.04 196.69 19.848 197.698 19.848C199.186 19.848 200.53 20.304 201.73 21.216C202.93 22.08 203.53 23.424 203.53 25.248C203.53 26.256 203.314 27.216 202.882 28.128C202.498 28.992 201.97 29.76 201.298 30.432C200.626 31.056 199.834 31.56 198.922 31.944C198.058 32.328 197.122 32.52 196.114 32.52ZM210.961 27.696L222.121 25.968L219.385 37.128H231.337L229.177 45.912H217.297L214.129 59.16C213.841 60.264 213.649 61.296 213.553 62.256C213.505 63.216 213.625 64.056 213.913 64.776C214.249 65.448 214.801 65.976 215.569 66.36C216.337 66.744 217.393 66.936 218.737 66.936C219.889 66.936 220.993 66.84 222.049 66.648C223.153 66.408 224.257 66.096 225.361 65.712L226.153 73.92C224.713 74.448 223.153 74.904 221.473 75.288C219.793 75.672 217.801 75.864 215.497 75.864C212.185 75.864 209.617 75.384 207.793 74.424C205.969 73.416 204.673 72.072 203.905 70.392C203.137 68.664 202.801 66.696 202.897 64.488C202.993 62.28 203.329 59.952 203.905 57.504L210.961 27.696Z" fill="white"/>
<path d="M58.1063 74.2692L47.0073 60.2902L58.1063 51.2902L80.0268 74.8564L58.1063 74.2692Z" fill="white"/>
<path d="M37.598 24.9587L15.9622 24.3791L38.2235 52.754L50.7887 41.8142L37.598 24.9587Z" fill="white"/>
<path d="M23.8666 75.6105L5.87484e-06 74.9711L108.809 2.85721L23.8666 75.6105Z" fill="white"/>
</svg>
