<?xml version="1.0" encoding="UTF-8"?>
<svg width="512px" height="512px" viewBox="0 0 512 512" version="1.1" xmlns="http://www.w3.org/2000/svg" xmlns:xlink="http://www.w3.org/1999/xlink">
    <!-- Generator: Sketch 55.2 (78181) - https://sketchapp.com -->
    <title>saas</title>
    <desc>Created with Sketch.</desc>
    <g id="saas" stroke="none" stroke-width="1" fill="none" fill-rule="evenodd">
        <g id="saas-logo" transform="translate(18.000000, 16.000000)" fill-rule="nonzero">
            <path d="M120.793659,40.6307136 L3.59365896,370.530714 C-12.106341,414.730714 25.993659,459.430714 72.093659,450.930714 L416.393659,387.430714 C462.593659,378.930714 482.193659,323.630714 451.793659,287.830714 L224.693659,21.4307136 C194.193659,-14.2692864 136.493659,-3.66928642 120.793659,40.6307136 Z" id="Path" fill="#8BC34A"></path>
            <path d="M79.393659,63.4307136 L29.593659,410.030714 C22.893659,456.530714 69.093659,492.730714 112.693659,475.330714 L437.693659,345.130714 C481.293659,327.630714 489.593659,269.530714 452.693659,240.530714 L177.393659,24.2307136 C140.493659,-4.86928642 85.993659,17.0307136 79.393659,63.4307136 Z" id="Path" fill="#9C27B0"></path>
            <path d="M118,108 L118,342.155957 C118,368.579492 139.41892,390 165.840497,390 C171.63403,390 177.379386,388.947588 182.796808,386.89401 L337.514836,328.245149 C361.891732,319.004615 374.162733,291.750839 364.922884,267.372137 C361.681161,258.819076 356.024586,251.39209 348.640875,245.994137 L269.593766,188.205775 L243.243245,224.255271 L322.290354,282.043632 C322.689473,282.335413 322.995234,282.736872 323.170462,283.1992 C323.669914,284.516967 323.006616,285.990144 321.688946,286.489633 L166.970918,345.138494 C166.609756,345.275399 166.226733,345.34556 165.840497,345.34556 C164.079059,345.34556 162.651131,343.917526 162.651131,342.155957 L162.651131,108 L118,108 Z" id="Path-4" fill="#FFFFFF"></path>
        </g>
    </g>
</svg>