<?xml version="1.0" encoding="UTF-8"?>
<svg width="512px" height="512px" viewBox="0 0 512 512" version="1.1" xmlns="http://www.w3.org/2000/svg" xmlns:xlink="http://www.w3.org/1999/xlink">
    <!-- Generator: Sketch 55.2 (78181) - https://sketchapp.com -->
    <title>Cloud</title>
    <desc>Created with Sketch.</desc>
    <g id="Cloud" stroke="none" stroke-width="1" fill="none" fill-rule="evenodd">
        <g id="hosting-logo" transform="translate(7.000000, 70.000000)" fill-rule="nonzero">
            <circle id="Oval" fill="#FF9800" cx="107.5" cy="264.5" r="107.5"></circle>
            <path d="M419.5,372 L217.5,372 C174.3,372 139,336.7 139,293.5 L139,293.5 C139,250.3 174.3,215 217.5,215 L419.5,215 C462.7,215 498,250.3 498,293.5 L498,293.5 C498,336.7 462.7,372 419.5,372 Z" id="Path" fill="#FF9800"></path>
            <circle id="Oval" fill="#03A9F4" cx="268" cy="185.5" r="185.5"></circle>
            <path d="M169,60 L169,269.245749 C169,292.85827 188.191352,312 211.865085,312 C217.056091,312 222.203929,311.059547 227.05794,309.224434 L365.685293,256.814814 C387.526992,248.557315 398.521808,224.202878 390.242904,202.417654 C387.33832,194.774493 382.270029,188.137612 375.654224,183.313909 L304.828014,131.673246 L281.217947,163.887689 L352.044157,215.528352 C352.401768,215.789093 352.67573,216.147843 352.832734,216.560987 C353.280243,217.738567 352.685928,219.055023 351.505296,219.501374 L212.877942,271.910995 C212.554342,272.033335 212.211152,272.096032 211.865085,272.096032 C210.286837,272.096032 209.007413,270.819917 209.007413,269.245749 L209.007413,60 L169,60 Z" id="Path" fill="#FFFFFF"></path>
        </g>
    </g>
</svg>