<svg width="353" height="316" viewBox="0 0 353 316" fill="none" xmlns="http://www.w3.org/2000/svg" xmlns:xlink="http://www.w3.org/1999/xlink">
<path d="M323.104 60.228C317.003 60.228 311.624 55.899 310.312 49.932C309.558 46.511 310.182 43.002 312.069 40.051C313.955 37.101 316.879 35.062 320.299 34.31C321.231 34.105 322.183 34 323.129 34C329.229 34 334.608 38.331 335.921 44.297C336.675 47.717 336.051 51.226 334.164 54.177C332.278 57.129 329.355 59.168 325.935 59.919C325.003 60.123 324.05 60.228 323.104 60.228ZM323.129 35.371C322.281 35.371 321.429 35.465 320.593 35.647C317.53 36.321 314.913 38.147 313.224 40.79C311.535 43.432 310.976 46.573 311.651 49.637C312.826 54.98 317.642 58.857 323.104 58.857C323.952 58.857 324.804 58.765 325.641 58.581C328.704 57.907 331.32 56.083 333.009 53.439C334.698 50.796 335.257 47.655 334.582 44.591C333.406 39.248 328.59 35.371 323.129 35.371Z" fill="#FFC107"/>
<path d="M322.958 49.455C325.1 49.455 326.836 47.7187 326.836 45.577C326.836 43.4352 325.1 41.699 322.958 41.699C320.816 41.699 319.08 43.4352 319.08 45.577C319.08 47.7187 320.816 49.455 322.958 49.455Z" fill="#ACB0B5"/>
<path d="M340.264 287.528C347.037 287.528 352.528 282.037 352.528 275.264C352.528 268.491 347.037 263 340.264 263C333.491 263 328 268.491 328 275.264C328 282.037 333.491 287.528 340.264 287.528Z" fill="#FFC107"/>
<path d="M31.718 121.854C49.2354 121.854 63.436 107.653 63.436 90.1359C63.436 72.6186 49.2354 58.418 31.718 58.418C14.2006 58.418 0 72.6186 0 90.1359C0 107.653 14.2006 121.854 31.718 121.854Z" fill="#DFE5EC"/>
<path d="M53.429 84.608C63.8142 84.608 72.233 76.1892 72.233 65.804C72.233 55.4189 63.8142 47 53.429 47C43.0439 47 34.625 55.4189 34.625 65.804C34.625 76.1892 43.0439 84.608 53.429 84.608Z" fill="#FFC107"/>
<path d="M56.8802 249.307C56.6808 249.586 56.3703 249.781 56.0249 249.834C55.6881 249.889 55.3341 249.806 55.0516 249.603C54.7703 249.399 54.5783 249.092 54.5215 248.754C54.4061 248.072 54.9235 247.352 55.6008 247.241C55.9447 247.189 56.3018 247.276 56.5795 247.476C56.8563 247.674 57.0538 247.986 57.1083 248.324C57.171 248.666 57.0835 249.025 56.8802 249.307Z" fill="#ACB0B5"/>
<path d="M94.0279 195.321C93.4358 194.895 93.3063 194.075 93.727 193.488C94.1522 192.897 94.9677 192.763 95.5595 193.187C96.1458 193.608 96.284 194.428 95.8608 195.02C95.4399 195.606 94.6149 195.742 94.0279 195.321ZM90.1317 200.748C89.5392 200.323 89.4089 199.503 89.8311 198.916C90.2542 198.324 91.0702 198.19 91.6621 198.616C92.2483 199.037 92.3877 199.856 91.9627 200.448C91.5424 201.034 90.7173 201.169 90.1317 200.748ZM86.2337 206.176C85.6419 205.751 85.508 204.936 85.9332 204.344C86.3534 203.757 87.1722 203.618 87.7642 204.043C88.3508 204.465 88.487 205.288 88.065 205.875C87.6403 206.468 86.8195 206.597 86.2337 206.176ZM82.3362 211.603C81.7442 211.178 81.6104 210.363 82.035 209.772C82.4558 209.186 83.2752 209.046 83.8677 209.471C84.454 209.892 84.5894 210.717 84.1686 211.303C83.7425 211.895 82.9224 212.025 82.3362 211.603ZM78.4403 217.031C77.8485 216.606 77.7145 215.791 78.1348 215.205C78.5598 214.613 79.3787 214.474 79.9705 214.899C80.5564 215.32 80.6935 216.144 80.2684 216.736C79.8461 217.323 79.0259 217.452 78.4403 217.031ZM74.5394 222.464C73.9475 222.039 73.8166 221.219 74.2386 220.632C74.6624 220.041 75.4777 219.907 76.0696 220.332C76.6554 220.753 76.7954 221.572 76.3704 222.164C75.9498 222.749 75.125 222.885 74.5394 222.464ZM70.6414 227.892C70.0495 227.467 69.9189 226.646 70.3412 226.059C70.7657 225.468 71.5803 225.334 72.1722 225.759C72.7597 226.179 72.8976 227 72.4724 227.592C72.0521 228.178 71.2276 228.313 70.6414 227.892ZM66.7451 233.32C66.1515 232.895 66.0226 232.075 66.4449 231.487C66.8653 230.9 67.6841 230.761 68.2759 231.186C68.8614 231.608 68.9971 232.433 68.5762 233.019C68.1542 233.606 67.3312 233.741 66.7451 233.32ZM62.8459 238.748C62.254 238.323 62.1202 237.508 62.5455 236.915C62.967 236.33 63.786 236.189 64.378 236.614C64.9639 237.036 65.0991 237.861 64.6787 238.447C64.254 239.039 63.4335 239.168 62.8459 238.748ZM58.9497 244.175C58.3579 243.75 58.224 242.935 58.6493 242.344C59.0709 241.757 59.8886 241.617 60.4803 242.044C61.0665 242.464 61.2029 243.288 60.7809 243.875C60.3571 244.467 59.536 244.596 58.9497 244.175Z" fill="#ACB0B5"/>
<path d="M99.7568 189.592C99.5573 189.87 99.2465 190.067 98.9025 190.118C98.5631 190.174 98.2018 190.092 97.9252 189.893C97.6465 189.693 97.4551 189.377 97.3986 189.039C97.2827 188.357 97.8002 187.637 98.4775 187.526C98.8214 187.474 99.1831 187.556 99.4605 187.756C99.7376 187.954 99.9305 188.271 99.9861 188.609C100.047 188.952 99.96 189.31 99.7568 189.592Z" fill="#ACB0B5"/>
<path d="M62.7511 253.524C62.552 253.798 62.2351 253.992 61.8958 254.047C61.5576 254.103 61.1995 254.017 60.9232 253.819C60.6397 253.615 60.4428 253.303 60.3874 252.964C60.281 252.282 60.7904 251.573 61.4704 251.456C61.8153 251.405 62.1682 251.488 62.4503 251.69C62.7265 251.889 62.924 252.2 62.9796 252.539C63.0314 252.883 62.9532 253.241 62.7511 253.524Z" fill="#ACB0B5"/>
<path d="M99.8975 199.535C99.3057 199.111 99.1758 198.29 99.5963 197.703C100.021 197.112 100.837 196.977 101.429 197.402C102.015 197.824 102.155 198.643 101.73 199.234C101.309 199.821 100.484 199.956 99.8975 199.535ZM96.001 204.963C95.4088 204.538 95.28 203.718 95.7001 203.131C96.1207 202.545 96.9408 202.405 97.5327 202.83C98.1188 203.251 98.2541 204.076 97.834 204.663C97.4114 205.249 96.5866 205.384 96.001 204.963ZM92.1029 210.391C91.5111 209.966 91.3773 209.151 91.8024 208.559C92.2246 207.972 93.0424 207.834 93.6351 208.258C94.2209 208.68 94.3562 209.504 93.936 210.09C93.5094 210.682 92.6891 210.812 92.1029 210.391ZM88.2068 215.819C87.6148 215.394 87.4812 214.579 87.9062 213.987C88.327 213.401 89.1456 213.261 89.7374 213.686C90.3245 214.106 90.4606 214.932 90.0379 215.518C89.6132 216.109 88.7928 216.239 88.2068 215.819ZM84.3095 221.247C83.7163 220.822 83.5835 220.006 84.0039 219.42C84.4288 218.827 85.245 218.693 85.8369 219.119C86.4225 219.54 86.5625 220.36 86.1375 220.951C85.7152 221.537 84.8951 221.667 84.3095 221.247ZM80.4085 226.68C79.8165 226.255 79.6856 225.433 80.1079 224.848C80.5329 224.257 81.3469 224.122 81.9388 224.547C82.5262 224.967 82.6646 225.787 82.2397 226.379C81.8189 226.965 80.9941 227.1 80.4085 226.68ZM76.511 232.107C75.9192 231.682 75.7897 230.862 76.2098 230.275C76.6353 229.683 77.4509 229.549 78.0428 229.974C78.6284 230.395 78.7667 231.215 78.3439 231.806C77.9217 232.393 77.0976 232.528 76.511 232.107ZM72.6146 237.534C72.0227 237.109 71.8872 236.294 72.3138 235.703C72.7347 235.117 73.5529 234.977 74.1448 235.402C74.7309 235.823 74.8662 236.647 74.4459 237.234C74.0208 237.826 73.2002 237.955 72.6146 237.534ZM68.7165 242.963C68.1245 242.538 67.9909 241.722 68.4157 241.131C68.836 240.544 69.6562 240.404 70.248 240.829C70.8346 241.25 70.9697 242.076 70.5483 242.662C70.123 243.254 69.3021 243.384 68.7165 242.963ZM64.8194 248.39C64.2275 247.965 64.0936 247.15 64.5183 246.559C64.9386 245.972 65.758 245.833 66.3512 246.258C66.9373 246.679 67.0726 247.503 66.6524 248.089C66.2267 248.682 65.4055 248.811 64.8194 248.39Z" fill="#ACB0B5"/>
<path d="M105.629 193.808C105.429 194.085 105.112 194.278 104.773 194.334C104.435 194.39 104.073 194.308 103.796 194.108C103.513 193.906 103.326 193.592 103.265 193.25C103.158 192.567 103.666 191.858 104.348 191.741C104.692 191.689 105.049 191.768 105.331 191.971C105.608 192.17 105.802 192.486 105.858 192.825C105.913 193.163 105.83 193.525 105.629 193.808Z" fill="#ACB0B5"/>
<path d="M68.4384 257.598C68.2355 257.881 67.927 258.071 67.5848 258.132C67.2464 258.188 66.8841 258.105 66.6019 257.904C66.3247 257.705 66.131 257.387 66.0763 257.049C65.968 256.367 66.4782 255.657 67.1593 255.54C67.4992 255.484 67.8554 255.571 68.1338 255.772C68.4152 255.973 68.6127 256.285 68.6679 256.624C68.7209 256.967 68.6384 257.319 68.4384 257.598Z" fill="#ACB0B5"/>
<path d="M105.582 203.616C104.995 203.195 104.86 202.37 105.281 201.784C105.705 201.193 106.527 201.062 107.112 201.484C107.704 201.908 107.838 202.725 107.413 203.316C106.993 203.902 106.172 204.041 105.582 203.616ZM101.684 209.044C101.098 208.623 100.963 207.798 101.383 207.212C101.804 206.625 102.629 206.49 103.216 206.911C103.807 207.336 103.937 208.157 103.517 208.743C103.095 209.33 102.276 209.469 101.684 209.044ZM97.7876 214.472C97.2005 214.051 97.0617 213.232 97.4869 212.64C97.9077 212.054 98.7313 211.918 99.3185 212.34C99.9101 212.764 100.041 213.584 99.6191 214.171C99.194 214.764 98.3779 214.897 97.7876 214.472ZM93.8905 219.9C93.3027 219.478 93.1647 218.659 93.5893 218.068C94.0099 217.481 94.835 217.346 95.4208 217.767C96.0123 218.191 96.1436 219.012 95.7217 219.599C95.2967 220.191 94.4817 220.324 93.8905 219.9ZM89.9896 225.333C89.4021 224.911 89.2666 224.087 89.6885 223.501C90.1139 222.908 90.9323 222.779 91.5202 223.201C92.1118 223.625 92.2458 224.44 91.8208 225.032C91.4003 225.618 90.5796 225.758 89.9896 225.333ZM86.0916 230.76C85.5041 230.339 85.3705 229.515 85.7912 228.929C86.216 228.337 87.0363 228.206 87.6235 228.628C88.2138 229.053 88.3484 229.868 87.9243 230.459C87.5027 231.046 86.6834 231.185 86.0916 230.76ZM82.1939 236.189C81.6081 235.766 81.4732 234.943 81.8933 234.356C82.318 233.765 83.1399 233.634 83.7265 234.055C84.3177 234.48 84.4519 235.295 84.0264 235.888C83.6058 236.474 82.786 236.612 82.1939 236.189ZM78.2978 241.616C77.7117 241.194 77.5766 240.369 77.9973 239.784C78.4177 239.197 79.2424 239.062 79.8298 239.482C80.4198 239.908 80.5508 240.729 80.1299 241.315C79.7083 241.902 78.8896 242.04 78.2978 241.616ZM74.3996 247.044C73.8145 246.622 73.6744 245.803 74.0992 245.211C74.5216 244.624 75.345 244.489 75.9322 244.911C76.5226 245.334 76.6529 246.157 76.2323 246.743C75.8077 247.334 74.9914 247.469 74.3996 247.044ZM70.5029 252.472C69.917 252.05 69.7777 251.231 70.2017 250.641C70.6233 250.054 71.4475 249.918 72.0348 250.34C72.6262 250.763 72.7557 251.585 72.335 252.171C71.9094 252.762 71.0941 252.895 70.5029 252.472Z" fill="#ACB0B5"/>
<path d="M111.311 197.888C111.112 198.166 110.801 198.363 110.462 198.418C110.118 198.47 109.76 198.391 109.479 198.189C109.201 197.99 109.008 197.673 108.953 197.335C108.844 196.651 109.354 195.942 110.037 195.826C110.375 195.77 110.733 195.858 111.01 196.057C111.292 196.259 111.489 196.57 111.545 196.908C111.598 197.253 111.514 197.606 111.311 197.888Z" fill="#ACB0B5"/>
<path d="M74.3089 261.813C74.1055 262.093 73.7981 262.287 73.4542 262.348C73.1116 262.399 72.7546 262.32 72.4721 262.117C72.1899 261.916 72.0026 261.603 71.9412 261.26C71.8332 260.578 72.3434 259.868 73.0243 259.751C73.3689 259.7 73.7207 259.782 74.0031 259.985C74.2869 260.188 74.478 260.496 74.5328 260.834C74.5907 261.183 74.5081 261.536 74.3089 261.813Z" fill="#ACB0B5"/>
<path d="M111.452 207.831C110.86 207.405 110.73 206.585 111.151 205.999C111.576 205.407 112.39 205.274 112.983 205.698C113.57 206.119 113.71 206.938 113.285 207.53C112.862 208.116 112.037 208.252 111.452 207.831ZM107.555 213.258C106.962 212.833 106.828 212.019 107.255 211.427C107.675 210.84 108.494 210.701 109.086 211.126C109.673 211.547 109.809 212.371 109.386 212.958C108.961 213.55 108.141 213.679 107.555 213.258ZM103.658 218.686C103.066 218.261 102.932 217.447 103.357 216.855C103.779 216.268 104.596 216.129 105.188 216.554C105.775 216.975 105.911 217.799 105.489 218.386C105.064 218.978 104.243 219.108 103.658 218.686ZM99.7601 224.115C99.1681 223.689 99.0343 222.873 99.4588 222.282C99.8816 221.696 100.7 221.557 101.292 221.982C101.878 222.402 102.013 223.227 101.593 223.814C101.168 224.405 100.347 224.535 99.7601 224.115ZM95.8594 229.547C95.2675 229.122 95.1382 228.302 95.5585 227.715C95.9834 227.124 96.8025 226.984 97.3944 227.409C97.98 227.831 98.1155 228.655 97.6903 229.247C97.27 229.832 96.4449 229.968 95.8594 229.547ZM91.9614 234.975C91.3694 234.55 91.2403 233.729 91.6607 233.143C92.0855 232.551 92.9017 232.417 93.4935 232.842C94.0791 233.264 94.2193 234.083 93.7941 234.674C93.3735 235.26 92.5487 235.395 91.9614 234.975ZM88.0653 240.402C87.4735 239.977 87.3424 239.158 87.7645 238.571C88.1895 237.978 89.0057 237.844 89.5972 238.27C90.1833 238.691 90.3213 239.511 89.8981 240.101C89.4765 240.689 88.6513 240.823 88.0653 240.402ZM84.1673 245.83C83.5753 245.405 83.4419 244.591 83.8668 243.998C84.289 243.411 85.108 243.272 85.6998 243.697C86.2851 244.119 86.4208 244.943 85.9999 245.529C85.5751 246.122 84.7544 246.25 84.1673 245.83ZM80.2712 251.257C79.6795 250.831 79.5451 250.018 79.9704 249.427C80.3907 248.84 81.2098 248.7 81.8016 249.126C82.3878 249.545 82.5243 250.37 82.1021 250.957C81.678 251.547 80.8569 251.68 80.2712 251.257ZM76.3734 256.684C75.7818 256.261 75.6484 255.446 76.0729 254.853C76.4934 254.266 77.3124 254.129 77.9038 254.552C78.4916 254.974 78.6273 255.799 78.2052 256.384C77.78 256.977 76.9592 257.106 76.3734 256.684Z" fill="#ACB0B5"/>
<path d="M117.181 202.103C116.981 202.38 116.671 202.577 116.331 202.633C115.989 202.684 115.625 202.602 115.349 202.404C115.067 202.201 114.879 201.888 114.823 201.549C114.71 200.862 115.22 200.153 115.902 200.037C116.246 199.985 116.606 200.066 116.884 200.266C117.162 200.465 117.355 200.781 117.41 201.12C117.467 201.467 117.384 201.821 117.181 202.103Z" fill="#ACB0B5"/>
<path d="M79.6311 265.642C79.4319 265.92 79.1209 266.116 78.7815 266.171C78.4369 266.223 78.0847 266.141 77.8029 265.937C77.5256 265.738 77.3293 265.426 77.2726 265.088C77.1615 264.412 77.6693 263.692 78.3556 263.579C78.6956 263.523 79.0524 263.61 79.3296 263.809C79.6128 264.013 79.8051 264.32 79.8645 264.663C79.9179 265.006 79.8348 265.358 79.6311 265.642Z" fill="#ACB0B5"/>
<path d="M116.778 211.655C116.191 211.234 116.057 210.41 116.477 209.823C116.903 209.232 117.723 209.101 118.309 209.523C118.901 209.948 119.034 210.764 118.609 211.355C118.189 211.941 117.37 212.08 116.778 211.655ZM112.88 217.083C112.294 216.662 112.155 215.844 112.579 215.251C113.005 214.66 113.825 214.529 114.413 214.95C115.003 215.376 115.136 216.191 114.713 216.782C114.288 217.374 113.472 217.508 112.88 217.083ZM108.983 222.511C108.397 222.09 108.257 221.271 108.682 220.679C109.104 220.093 109.929 219.957 110.515 220.379C111.107 220.804 111.238 221.624 110.815 222.211C110.39 222.803 109.576 222.935 108.983 222.511ZM105.087 227.939C104.499 227.518 104.361 226.698 104.785 226.107C105.208 225.52 106.031 225.385 106.618 225.806C107.209 226.231 107.34 227.051 106.919 227.638C106.494 228.23 105.678 228.363 105.087 227.939ZM101.186 233.372C100.599 232.951 100.464 232.126 100.888 231.534C101.31 230.949 102.13 230.818 102.716 231.24C103.308 231.664 103.442 232.48 103.022 233.066C102.596 233.657 101.776 233.797 101.186 233.372ZM97.2881 238.8C96.702 238.379 96.5671 237.554 96.9871 236.967C97.4122 236.376 98.2326 236.246 98.8201 236.666C99.4106 237.092 99.5443 237.907 99.1208 238.499C98.7003 239.085 97.8797 239.224 97.2881 238.8ZM93.3918 244.227C92.8049 243.806 92.6694 242.982 93.091 242.394C93.5143 241.804 94.3357 241.673 94.9222 242.094C95.5147 242.519 95.6483 243.334 95.2233 243.927C94.8006 244.514 93.9828 244.651 93.3918 244.227ZM89.494 249.654C88.9079 249.233 88.7684 248.413 89.1934 247.824C89.6138 247.236 90.4386 247.101 91.0255 247.523C91.6179 247.946 91.7472 248.766 91.3269 249.353C90.9006 249.946 90.0852 250.078 89.494 249.654ZM85.5962 255.081C85.0101 254.662 84.8719 253.843 85.2955 253.25C85.7177 252.662 86.5406 252.528 87.1279 252.949C87.7201 253.372 87.8516 254.195 87.4286 254.781C87.0038 255.373 86.1877 255.508 85.5962 255.081ZM81.7001 260.51C81.1127 260.089 80.9739 259.27 81.395 258.683C81.8202 258.092 82.6433 257.957 83.2305 258.376C83.821 258.803 83.9528 259.623 83.5275 260.215C83.1059 260.801 82.2905 260.934 81.7001 260.51Z" fill="#ACB0B5"/>
<path d="M122.51 205.922C122.308 206.205 121.997 206.402 121.658 206.457C121.314 206.509 120.958 206.431 120.676 206.228C120.397 206.029 120.205 205.713 120.149 205.374C120.042 204.691 120.546 203.977 121.232 203.865C121.572 203.81 121.929 203.897 122.206 204.096C122.488 204.298 122.681 204.606 122.741 204.949C122.794 205.292 122.711 205.645 122.51 205.922Z" fill="#ACB0B5"/>
<path d="M85.5007 269.858C85.3025 270.133 84.9908 270.331 84.6466 270.383C84.308 270.438 83.9463 270.356 83.6695 270.159C83.3861 269.955 83.1989 269.642 83.144 269.304C83.0264 268.621 83.5394 267.907 84.2204 267.791C84.5651 267.739 84.9211 267.818 85.2039 268.019C85.4806 268.217 85.6741 268.536 85.7295 268.874C85.7872 269.222 85.7042 269.575 85.5007 269.858Z" fill="#ACB0B5"/>
<path d="M122.648 215.87C122.056 215.445 121.926 214.625 122.347 214.038C122.772 213.446 123.588 213.312 124.18 213.737C124.766 214.158 124.904 214.978 124.481 215.57C124.06 216.156 123.235 216.291 122.648 215.87ZM118.752 221.298C118.16 220.873 118.026 220.058 118.451 219.466C118.871 218.879 119.69 218.74 120.282 219.165C120.868 219.586 121.004 220.411 120.583 220.997C120.158 221.589 119.338 221.719 118.752 221.298ZM114.854 226.726C114.262 226.301 114.128 225.486 114.553 224.894C114.974 224.307 115.794 224.169 116.385 224.594C116.972 225.014 117.107 225.839 116.685 226.425C116.262 227.018 115.44 227.147 114.854 226.726ZM110.956 232.154C110.365 231.728 110.231 230.914 110.656 230.322C111.078 229.736 111.896 229.596 112.488 230.021C113.075 230.442 113.209 231.266 112.789 231.853C112.364 232.445 111.543 232.574 110.956 232.154ZM107.056 237.587C106.463 237.161 106.335 236.341 106.755 235.755C107.18 235.163 107.998 235.023 108.591 235.449C109.177 235.87 109.313 236.694 108.889 237.287C108.466 237.872 107.642 238.008 107.056 237.587ZM103.159 243.014C102.567 242.59 102.438 241.769 102.859 241.182C103.282 240.591 104.098 240.456 104.69 240.881C105.276 241.303 105.416 242.123 104.99 242.713C104.57 243.301 103.745 243.436 103.159 243.014ZM99.2617 248.44C98.6693 248.016 98.5407 247.197 98.9611 246.609C99.3861 246.019 100.2 245.885 100.794 246.308C101.38 246.731 101.518 247.549 101.094 248.139C100.672 248.727 99.8477 248.862 99.2617 248.44ZM95.3655 253.869C94.7723 253.444 94.6382 252.63 95.0644 252.036C95.4851 251.451 96.3038 251.311 96.8955 251.736C97.4828 252.157 97.6184 252.982 97.1968 253.569C96.7716 254.16 95.9508 254.29 95.3655 253.869ZM91.4674 259.297C90.8743 258.873 90.7402 258.056 91.1667 257.466C91.588 256.878 92.4062 256.739 92.9986 257.164C93.5856 257.584 93.7209 258.409 93.2987 258.997C92.8741 259.589 92.0532 259.719 91.4674 259.297ZM87.57 264.727C86.9777 264.3 86.8446 263.485 87.2697 262.892C87.6913 262.305 88.5083 262.168 89.1006 262.592C89.6866 263.014 89.8236 263.838 89.4012 264.426C88.9772 265.017 88.156 265.146 87.57 264.727Z" fill="#ACB0B5"/>
<path d="M128.378 210.143C128.18 210.42 127.868 210.617 127.524 210.669C127.186 210.724 126.833 210.642 126.55 210.439C126.268 210.236 126.077 209.928 126.021 209.59C125.909 208.902 126.417 208.193 127.105 208.081C127.443 208.025 127.795 208.109 128.077 208.311C128.355 208.51 128.552 208.821 128.608 209.16C128.669 209.502 128.582 209.861 128.378 210.143Z" fill="#ACB0B5"/>
<path d="M91.1942 273.937C90.9913 274.217 90.6744 274.412 90.3357 274.467C89.9969 274.523 89.6357 274.441 89.3584 274.242C89.0748 274.038 88.8825 273.723 88.8272 273.384C88.7188 272.703 89.229 271.992 89.9102 271.876C90.2495 271.819 90.6069 271.906 90.8894 272.109C91.1667 272.308 91.3632 272.62 91.4187 272.959C91.4715 273.302 91.3933 273.658 91.1942 273.937Z" fill="#ACB0B5"/>
<path d="M128.337 219.955C127.745 219.529 127.616 218.71 128.037 218.123C128.462 217.532 129.277 217.397 129.87 217.823C130.454 218.243 130.593 219.063 130.17 219.654C129.749 220.24 128.924 220.376 128.337 219.955ZM124.441 225.383C123.849 224.958 123.718 224.138 124.14 223.55C124.561 222.964 125.379 222.824 125.971 223.249C126.557 223.671 126.692 224.495 126.272 225.082C125.851 225.668 125.026 225.803 124.441 225.383ZM120.543 230.81C119.951 230.386 119.817 229.571 120.242 228.979C120.662 228.392 121.481 228.253 122.073 228.678C122.661 229.099 122.796 229.923 122.374 230.51C121.949 231.102 121.128 231.232 120.543 230.81ZM116.645 236.238C116.053 235.812 115.92 234.999 116.345 234.407C116.765 233.82 117.585 233.681 118.178 234.106C118.763 234.526 118.899 235.351 118.478 235.937C118.053 236.529 117.231 236.659 116.645 236.238ZM112.745 241.673C112.152 241.246 112.023 240.426 112.444 239.84C112.869 239.248 113.683 239.114 114.275 239.539C114.863 239.96 115.002 240.779 114.576 241.372C114.156 241.958 113.33 242.092 112.745 241.673ZM108.848 247.098C108.256 246.675 108.126 245.852 108.547 245.267C108.971 244.675 109.787 244.54 110.379 244.968C110.965 245.386 111.104 246.207 110.679 246.797C110.259 247.385 109.434 247.52 108.848 247.098ZM104.951 252.525C104.359 252.102 104.228 251.281 104.65 250.693C105.075 250.103 105.889 249.966 106.482 250.393C107.069 250.815 107.207 251.633 106.782 252.225C106.361 252.812 105.536 252.947 104.951 252.525ZM101.052 257.953C100.461 257.528 100.327 256.714 100.753 256.121C101.174 255.536 101.993 255.396 102.585 255.821C103.171 256.241 103.306 257.067 102.885 257.652C102.46 258.244 101.639 258.374 101.052 257.953ZM97.1552 263.383C96.5629 262.955 96.4299 262.141 96.8546 261.55C97.2765 260.962 98.0949 260.823 98.6873 261.249C99.2723 261.669 99.4094 262.493 98.9872 263.081C98.5628 263.674 97.7425 263.804 97.1552 263.383ZM93.2595 268.808C92.6673 268.385 92.5332 267.568 92.9581 266.977C93.3788 266.391 94.1979 266.253 94.7899 266.677C95.3752 267.099 95.5123 267.923 95.0907 268.508C94.666 269.101 93.8446 269.23 93.2595 268.808Z" fill="#ACB0B5"/>
<path d="M134.067 214.228C133.869 214.504 133.555 214.693 133.212 214.753C132.873 214.809 132.513 214.728 132.234 214.529C131.952 214.325 131.766 214.013 131.704 213.67C131.595 212.987 132.106 212.278 132.787 212.161C133.131 212.109 133.484 212.192 133.766 212.396C134.045 212.595 134.24 212.905 134.296 213.244C134.349 213.589 134.27 213.945 134.067 214.228Z" fill="#ACB0B5"/>
<path d="M97.055 278.151C96.8558 278.428 96.5455 278.627 96.2058 278.684C95.868 278.739 95.5094 278.65 95.2274 278.449C94.9456 278.245 94.7526 277.938 94.6965 277.6C94.5836 276.914 95.0938 276.203 95.7804 276.09C96.12 276.036 96.477 276.121 96.7543 276.32C97.0381 276.524 97.2291 276.832 97.2898 277.174C97.3462 277.512 97.2578 277.868 97.055 278.151Z" fill="#ACB0B5"/>
<path d="M134.202 224.165C133.617 223.745 133.48 222.921 133.901 222.334C134.326 221.742 135.147 221.613 135.734 222.034C136.326 222.458 136.458 223.274 136.034 223.865C135.614 224.452 134.794 224.591 134.202 224.165ZM130.304 229.593C129.718 229.173 129.583 228.348 130.004 227.762C130.425 227.175 131.251 227.04 131.836 227.46C132.428 227.886 132.558 228.707 132.137 229.293C131.715 229.88 130.897 230.019 130.304 229.593ZM126.409 235.022C125.822 234.601 125.683 233.783 126.108 233.191C126.528 232.603 127.352 232.468 127.939 232.89C128.531 233.315 128.661 234.134 128.239 234.721C127.814 235.313 127 235.446 126.409 235.022ZM122.51 240.449C121.925 240.029 121.785 239.209 122.209 238.618C122.631 238.031 123.455 237.895 124.041 238.317C124.635 238.742 124.763 239.562 124.342 240.149C123.917 240.741 123.103 240.874 122.51 240.449ZM118.61 245.883C118.023 245.461 117.887 244.637 118.309 244.05C118.734 243.459 119.555 243.33 120.141 243.749C120.734 244.175 120.867 244.989 120.441 245.582C120.02 246.166 119.202 246.307 118.61 245.883ZM114.712 251.31C114.126 250.888 113.99 250.063 114.411 249.478C114.836 248.885 115.658 248.755 116.244 249.178C116.837 249.601 116.969 250.418 116.545 251.009C116.124 251.596 115.304 251.734 114.712 251.31ZM110.816 256.736C110.228 256.317 110.093 255.492 110.515 254.905C110.941 254.314 111.761 254.182 112.346 254.604C112.938 255.031 113.072 255.845 112.647 256.435C112.226 257.023 111.407 257.162 110.816 256.736ZM106.917 262.164C106.332 261.744 106.197 260.919 106.618 260.331C107.04 259.748 107.864 259.611 108.449 260.031C109.042 260.457 109.171 261.278 108.75 261.863C108.329 262.45 107.511 262.59 106.917 262.164ZM103.02 267.593C102.435 267.171 102.295 266.352 102.72 265.761C103.142 265.174 103.966 265.039 104.553 265.461C105.144 265.885 105.274 266.704 104.853 267.292C104.429 267.886 103.612 268.019 103.02 267.593ZM99.1242 273.019C98.5365 272.601 98.398 271.779 98.8235 271.188C99.2436 270.602 100.069 270.469 100.655 270.888C101.246 271.314 101.377 272.131 100.955 272.719C100.532 273.313 99.7158 273.446 99.1242 273.019Z" fill="#ACB0B5"/>
<path d="M139.931 218.438C139.732 218.715 139.421 218.913 139.083 218.968C138.738 219.021 138.382 218.942 138.099 218.739C137.823 218.54 137.631 218.223 137.573 217.884C137.46 217.198 137.975 216.493 138.658 216.375C138.996 216.32 139.356 216.402 139.635 216.601C139.917 216.804 140.105 217.117 140.166 217.459C140.222 217.797 140.134 218.156 139.931 218.438Z" fill="#ACB0B5"/>
<path d="M103.281 282.622C103.082 282.899 102.77 283.097 102.425 283.149C102.088 283.205 101.734 283.12 101.452 282.917C101.17 282.716 100.979 282.408 100.923 282.071C100.806 281.387 101.322 280.669 102.001 280.557C102.345 280.505 102.703 280.592 102.981 280.791C103.258 280.99 103.454 281.301 103.509 281.639C103.571 281.982 103.484 282.339 103.281 282.622Z" fill="#ACB0B5"/>
<path d="M140.428 228.637C139.836 228.211 139.705 227.391 140.128 226.804C140.552 226.213 141.366 226.079 141.959 226.504C142.546 226.925 142.684 227.744 142.259 228.337C141.839 228.923 141.013 229.057 140.428 228.637ZM136.531 234.064C135.938 233.639 135.809 232.819 136.231 232.232C136.655 231.641 137.471 231.506 138.062 231.931C138.648 232.351 138.787 233.172 138.363 233.763C137.941 234.35 137.118 234.485 136.531 234.064ZM132.632 239.491C132.041 239.068 131.907 238.252 132.332 237.66C132.754 237.074 133.573 236.935 134.164 237.36C134.75 237.78 134.885 238.603 134.465 239.191C134.04 239.784 133.22 239.914 132.632 239.491ZM128.736 244.917C128.144 244.494 128.011 243.679 128.435 243.086C128.855 242.499 129.676 242.362 130.268 242.786C130.853 243.208 130.99 244.032 130.568 244.617C130.144 245.211 129.321 245.339 128.736 244.917ZM124.839 250.347C124.246 249.921 124.113 249.106 124.533 248.519C124.958 247.929 125.778 247.789 126.37 248.215C126.955 248.634 127.092 249.459 126.667 250.053C126.246 250.637 125.424 250.769 124.839 250.347ZM120.938 255.78C120.345 255.353 120.216 254.534 120.637 253.949C121.062 253.355 121.878 253.221 122.469 253.648C123.055 254.066 123.194 254.886 122.771 255.479C122.349 256.066 121.523 256.201 120.938 255.78ZM117.042 261.207C116.449 260.783 116.32 259.963 116.741 259.376C117.165 258.785 117.979 258.648 118.572 259.075C119.158 259.494 119.298 260.315 118.873 260.906C118.452 261.494 117.627 261.628 117.042 261.207ZM113.143 266.634C112.552 266.21 112.423 265.39 112.843 264.802C113.264 264.218 114.082 264.078 114.676 264.502C115.261 264.923 115.397 265.749 114.976 266.333C114.555 266.92 113.729 267.055 113.143 266.634ZM109.246 272.064C108.653 271.637 108.52 270.823 108.946 270.232C109.368 269.644 110.186 269.505 110.778 269.93C111.363 270.35 111.501 271.175 111.079 271.763C110.654 272.353 109.832 272.483 109.246 272.064ZM105.35 277.49C104.756 277.067 104.622 276.25 105.05 275.659C105.469 275.072 106.288 274.931 106.881 275.358C107.466 275.78 107.603 276.604 107.181 277.189C106.757 277.783 105.935 277.912 105.35 277.49Z" fill="#ACB0B5"/>
<path d="M146.158 222.908C145.958 223.186 145.647 223.382 145.301 223.433C144.964 223.49 144.602 223.408 144.325 223.209C144.048 223.01 143.855 222.693 143.799 222.355C143.682 221.673 144.199 220.954 144.877 220.842C145.221 220.79 145.583 220.872 145.86 221.071C146.137 221.27 146.33 221.586 146.385 221.925C146.447 222.267 146.361 222.626 146.158 222.908Z" fill="#ACB0B5"/>
<path d="M109.15 286.837C108.953 287.114 108.636 287.309 108.297 287.365C107.959 287.42 107.599 287.331 107.322 287.132C107.039 286.929 106.843 286.619 106.787 286.281C106.681 285.596 107.188 284.887 107.87 284.771C108.214 284.718 108.567 284.802 108.849 285.006C109.127 285.205 109.323 285.514 109.38 285.856C109.432 286.199 109.354 286.553 109.15 286.837Z" fill="#ACB0B5"/>
<path d="M146.297 232.851C145.706 232.426 145.577 231.606 145.998 231.019C146.423 230.428 147.238 230.293 147.829 230.718C148.415 231.139 148.553 231.958 148.13 232.55C147.709 233.137 146.885 233.272 146.297 232.851ZM142.401 238.277C141.809 237.854 141.679 237.034 142.101 236.447C142.522 235.86 143.34 235.721 143.932 236.145C144.518 236.567 144.654 237.392 144.232 237.977C143.812 238.564 142.987 238.699 142.401 238.277ZM138.503 243.706C137.911 243.28 137.778 242.465 138.203 241.875C138.625 241.288 139.442 241.148 140.034 241.574C140.62 241.994 140.756 242.818 140.334 243.405C139.91 243.996 139.089 244.126 138.503 243.706ZM134.605 249.133C134.015 248.71 133.881 247.895 134.305 247.302C134.727 246.715 135.546 246.575 136.137 247.001C136.725 247.423 136.859 248.248 136.438 248.832C136.014 249.425 135.192 249.555 134.605 249.133ZM130.709 254.559C130.118 254.137 129.984 253.322 130.405 252.734C130.83 252.142 131.645 252.007 132.237 252.434C132.824 252.856 132.963 253.674 132.537 254.265C132.116 254.852 131.296 254.982 130.709 254.559ZM126.808 259.992C126.217 259.569 126.086 258.749 126.508 258.161C126.932 257.571 127.748 257.437 128.339 257.86C128.925 258.283 129.065 259.101 128.64 259.692C128.219 260.279 127.395 260.415 126.808 259.992ZM122.911 265.422C122.319 264.996 122.19 264.176 122.611 263.591C123.035 262.998 123.85 262.864 124.444 263.29C125.029 263.709 125.167 264.529 124.744 265.121C124.322 265.708 123.498 265.845 122.911 265.422ZM119.014 270.849C118.422 270.426 118.289 269.611 118.715 269.017C119.135 268.43 119.953 268.291 120.546 268.716C121.131 269.137 121.267 269.961 120.846 270.548C120.42 271.141 119.601 271.271 119.014 270.849ZM115.117 276.279C114.524 275.853 114.39 275.038 114.816 274.445C115.237 273.86 116.057 273.72 116.647 274.144C117.235 274.566 117.371 275.39 116.949 275.977C116.523 276.568 115.703 276.698 115.117 276.279ZM111.219 281.705C110.628 281.279 110.493 280.465 110.919 279.874C111.341 279.287 112.158 279.147 112.75 279.574C113.336 279.993 113.472 280.818 113.05 281.405C112.626 281.995 111.806 282.128 111.219 281.705Z" fill="#ACB0B5"/>
<path d="M152.028 227.124C151.829 227.401 151.513 227.594 151.174 227.65C150.836 227.705 150.472 227.623 150.195 227.424C149.913 227.221 149.726 226.908 149.664 226.566C149.556 225.883 150.066 225.174 150.748 225.057C151.093 225.006 151.448 225.083 151.73 225.286C152.008 225.485 152.201 225.801 152.256 226.14C152.312 226.479 152.23 226.841 152.028 227.124Z" fill="#ACB0B5"/>
<path d="M151.982 236.931C151.394 236.509 151.259 235.687 151.681 235.1C152.105 234.509 152.926 234.377 153.513 234.798C154.105 235.224 154.238 236.039 153.814 236.631C153.392 237.218 152.573 237.357 151.982 236.931ZM148.085 242.36C147.497 241.938 147.361 241.113 147.783 240.526C148.206 239.941 149.029 239.805 149.616 240.225C150.207 240.652 150.338 241.472 149.918 242.059C149.494 242.644 148.676 242.784 148.085 242.36ZM144.187 247.787C143.601 247.365 143.46 246.546 143.886 245.956C144.308 245.368 145.131 245.233 145.719 245.655C146.309 246.079 146.439 246.899 146.019 247.486C145.595 248.08 144.778 248.211 144.187 247.787ZM140.29 253.213C139.703 252.794 139.565 251.975 139.99 251.382C140.41 250.795 141.234 250.66 141.821 251.082C142.413 251.508 142.542 252.329 142.121 252.913C141.697 253.506 140.881 253.64 140.29 253.213ZM136.387 258.646C135.802 258.227 135.667 257.402 136.087 256.815C136.513 256.225 137.333 256.093 137.92 256.514C138.512 256.94 138.646 257.755 138.22 258.345C137.799 258.933 136.981 259.073 136.387 258.646ZM132.492 264.076C131.905 263.654 131.771 262.829 132.192 262.245C132.617 261.651 133.436 261.522 134.024 261.944C134.615 262.368 134.748 263.182 134.325 263.775C133.902 264.36 133.084 264.5 132.492 264.076ZM128.594 269.503C128.009 269.081 127.874 268.259 128.294 267.672C128.718 267.078 129.539 266.949 130.127 267.371C130.719 267.794 130.853 268.611 130.427 269.202C130.006 269.789 129.186 269.926 128.594 269.503ZM124.697 274.93C124.11 274.509 123.975 273.686 124.398 273.098C124.817 272.511 125.642 272.376 126.229 272.797C126.82 273.222 126.951 274.045 126.529 274.628C126.109 275.216 125.29 275.355 124.697 274.93ZM120.8 280.36C120.213 279.938 120.075 279.119 120.499 278.525C120.922 277.94 121.745 277.804 122.33 278.225C122.924 278.651 123.054 279.471 122.632 280.058C122.206 280.649 121.392 280.783 120.8 280.36ZM116.903 285.786C116.315 285.365 116.176 284.546 116.602 283.955C117.024 283.368 117.847 283.232 118.435 283.654C119.025 284.078 119.155 284.898 118.736 285.485C118.309 286.076 117.495 286.209 116.903 285.786Z" fill="#ACB0B5"/>
<path d="M157.711 231.204C157.512 231.481 157.201 231.678 156.862 231.734C156.518 231.786 156.161 231.707 155.878 231.505C155.602 231.306 155.409 230.99 155.353 230.651C155.245 229.968 155.755 229.258 156.437 229.142C156.774 229.086 157.134 229.173 157.41 229.372C157.692 229.575 157.89 229.886 157.946 230.225C157.997 230.569 157.914 230.922 157.711 231.204Z" fill="#ACB0B5"/>
<path d="M273.533 147.571C272.704 147.924 271.757 147.537 271.41 146.716C271.058 145.886 271.438 144.93 272.27 144.579C273.093 144.235 274.052 144.622 274.401 145.45C274.749 146.274 274.356 147.227 273.533 147.571ZM276.752 155.195C275.922 155.546 274.972 155.154 274.625 154.331C274.274 153.5 274.657 152.554 275.489 152.203C276.31 151.856 277.267 152.237 277.617 153.068C277.965 153.891 277.574 154.848 276.752 155.195Z" fill="#ACB0B5"/>
<path d="M278.555 136.478C277.726 136.828 276.778 136.444 276.426 135.612C276.08 134.79 276.462 133.834 277.291 133.484C278.115 133.135 279.073 133.525 279.421 134.349C279.769 135.179 279.378 136.13 278.555 136.478ZM281.771 144.096C280.939 144.447 279.993 144.06 279.646 143.238C279.295 142.408 279.681 141.458 280.51 141.108C281.333 140.761 282.288 141.144 282.64 141.974C282.985 142.796 282.594 143.747 281.771 144.096ZM284.989 151.717C284.16 152.068 283.208 151.676 282.862 150.853C282.511 150.023 282.894 149.076 283.726 148.725C284.548 148.377 285.503 148.76 285.854 149.59C286.201 150.413 285.812 151.37 284.989 151.717ZM288.206 159.337C287.374 159.688 286.425 159.294 286.078 158.473C285.727 157.641 286.113 156.693 286.942 156.343C287.765 155.994 288.719 156.378 289.071 157.205C289.417 158.03 289.03 158.988 288.206 159.337Z" fill="#ACB0B5"/>
<path d="M283.316 125.493C282.495 125.839 281.539 125.459 281.188 124.626C280.841 123.804 281.229 122.849 282.05 122.499C282.883 122.148 283.834 122.541 284.18 123.366C284.531 124.196 284.147 125.142 283.316 125.493ZM286.532 133.11C285.708 133.458 284.755 133.075 284.405 132.245C284.057 131.422 284.446 130.462 285.266 130.116C286.098 129.765 287.048 130.159 287.395 130.982C287.745 131.812 287.362 132.759 286.532 133.11ZM289.751 140.734C288.927 141.081 287.968 140.692 287.623 139.869C287.273 139.038 287.664 138.09 288.488 137.742C289.317 137.389 290.262 137.776 290.615 138.606C290.962 139.428 290.58 140.384 289.751 140.734ZM292.965 148.35C292.141 148.698 291.186 148.307 290.839 147.485C290.488 146.655 290.879 145.704 291.702 145.356C292.532 145.006 293.48 145.392 293.831 146.222C294.178 147.046 293.797 147.999 292.965 148.35ZM296.181 155.97C295.358 156.316 294.402 155.925 294.053 155.105C293.705 154.273 294.097 153.321 294.917 152.975C295.749 152.623 296.695 153.008 297.046 153.841C297.393 154.661 297.014 155.618 296.181 155.97ZM299.399 163.586C298.577 163.93 297.618 163.542 297.27 162.719C296.924 161.898 297.313 160.938 298.134 160.591C298.965 160.241 299.915 160.634 300.264 161.455C300.61 162.28 300.228 163.233 299.399 163.586Z" fill="#ACB0B5"/>
<path d="M288.339 114.399C287.508 114.75 286.56 114.363 286.211 113.533C285.864 112.711 286.243 111.756 287.075 111.405C287.897 111.055 288.857 111.448 289.204 112.269C289.552 113.101 289.161 114.049 288.339 114.399ZM291.554 122.015C290.723 122.366 289.777 121.981 289.427 121.15C289.079 120.326 289.459 119.371 290.291 119.023C291.113 118.673 292.07 119.064 292.417 119.888C292.771 120.717 292.377 121.667 291.554 122.015ZM294.77 129.632C293.939 129.983 292.992 129.597 292.642 128.767C292.295 127.943 292.674 126.988 293.506 126.637C294.329 126.29 295.288 126.68 295.636 127.503C295.986 128.333 295.593 129.284 294.77 129.632ZM297.989 137.256C297.157 137.607 296.208 137.213 295.859 136.389C295.51 135.56 295.89 134.606 296.722 134.255C297.545 133.907 298.501 134.297 298.852 135.129C299.199 135.951 298.812 136.908 297.989 137.256ZM301.205 144.873C300.373 145.223 299.423 144.83 299.076 144.008C298.725 143.177 299.109 142.229 299.94 141.878C300.763 141.531 301.719 141.913 302.07 142.743C302.414 143.566 302.027 144.524 301.205 144.873ZM304.421 152.49C303.589 152.841 302.641 152.45 302.293 151.626C301.94 150.792 302.325 149.846 303.156 149.496C303.979 149.148 304.936 149.531 305.286 150.359C305.633 151.183 305.244 152.143 304.421 152.49ZM307.634 160.106C306.805 160.459 305.86 160.073 305.507 159.241C305.16 158.418 305.541 157.464 306.372 157.113C307.196 156.766 308.155 157.156 308.499 157.978C308.853 158.809 308.459 159.758 307.634 160.106ZM310.851 167.722C310.02 168.073 309.075 167.688 308.724 166.858C308.376 166.035 308.757 165.08 309.588 164.729C310.411 164.382 311.37 164.771 311.715 165.595C312.066 166.426 311.675 167.376 310.851 167.722Z" fill="#ACB0B5"/>
<path d="M292.597 103.624C291.775 103.973 290.817 103.581 290.47 102.76C290.119 101.929 290.511 100.98 291.334 100.633C292.165 100.282 293.112 100.666 293.462 101.496C293.809 102.32 293.428 103.274 292.597 103.624ZM295.814 111.243C294.99 111.588 294.036 111.207 293.686 110.377C293.335 109.546 293.727 108.597 294.55 108.249C295.379 107.899 296.329 108.285 296.678 109.113C297.028 109.945 296.645 110.893 295.814 111.243ZM299.029 118.859C298.206 119.206 297.252 118.825 296.899 117.995C296.554 117.17 296.942 116.212 297.765 115.864C298.597 115.516 299.548 115.906 299.894 116.731C300.244 117.562 299.86 118.508 299.029 118.859ZM302.245 126.476C301.422 126.824 300.468 126.441 300.118 125.611C299.771 124.787 300.158 123.829 300.981 123.481C301.811 123.131 302.762 123.524 303.112 124.347C303.459 125.176 303.075 126.125 302.245 126.476ZM305.464 134.1C304.641 134.447 303.683 134.057 303.333 133.228C302.986 132.404 303.377 131.453 304.201 131.108C305.029 130.756 305.978 131.141 306.325 131.963C306.675 132.794 306.293 133.75 305.464 134.1ZM308.679 141.716C307.856 142.063 306.9 141.674 306.552 140.851C306.201 140.021 306.593 139.07 307.416 138.722C308.246 138.372 309.194 138.757 309.544 139.588C309.893 140.41 309.51 141.365 308.679 141.716ZM311.896 149.334C311.073 149.682 310.115 149.291 309.767 148.467C309.418 147.639 309.807 146.688 310.632 146.34C311.462 145.989 312.409 146.373 312.761 147.206C313.105 148.029 312.727 148.984 311.896 149.334ZM315.111 156.949C314.288 157.297 313.335 156.917 312.983 156.085C312.637 155.264 313.024 154.304 313.847 153.957C314.676 153.606 315.629 153.999 315.976 154.821C316.326 155.654 315.941 156.599 315.111 156.949ZM318.327 164.568C317.504 164.915 316.551 164.532 316.199 163.702C315.852 162.879 316.24 161.921 317.063 161.573C317.894 161.223 318.846 161.615 319.192 162.438C319.542 163.27 319.158 164.217 318.327 164.568ZM321.543 172.184C320.72 172.533 319.766 172.149 319.419 171.328C319.068 170.496 319.456 169.539 320.279 169.191C321.108 168.841 322.062 169.232 322.412 170.065C322.758 170.887 322.374 171.835 321.543 172.184Z" fill="#ACB0B5"/>
<path d="M268.231 154.3C267.4 154.651 266.449 154.259 266.104 153.437C265.754 152.607 266.137 151.659 266.969 151.31C267.792 150.961 268.745 151.344 269.096 152.174C269.443 152.996 269.056 153.952 268.231 154.3Z" fill="#ACB0B5"/>
<rect width="228" height="316" transform="matrix(-1 0 0 1 319 0)" fill="url(#pattern0)"/>
<defs>
<pattern id="pattern0" patternContentUnits="objectBoundingBox" width="1" height="1">
<use xlink:href="#image0" transform="translate(-0.0534052 -0.369677) scale(0.00310505 0.00224174)"/>
</pattern>
</defs>
</svg>
