<svg width="217" height="44" viewBox="0 0 217 44" fill="none" xmlns="http://www.w3.org/2000/svg">
<rect width="44" height="44" fill="white"/>
<g clip-path="url(#clip0_1_19)">
<path fill-rule="evenodd" clip-rule="evenodd" d="M12.9544 19.7741C12.7937 20.2289 12.4283 20.5552 11.8502 20.5552C11.272 20.5552 10.6789 20.031 10.6789 19.3839C10.6789 18.7375 11.2037 18.2127 11.8502 18.2127C18.6165 18.2127 25.3835 18.2127 32.1498 18.2127C32.7969 18.2127 33.3211 18.7375 33.3211 19.3839C33.3211 20.0303 32.7286 20.5552 32.1498 20.5552C31.5717 20.5552 31.2063 20.2295 31.0456 19.7741H32.1505C32.3645 19.7741 32.5407 19.5986 32.5407 19.3839C32.5407 19.1693 32.3651 18.9937 32.1505 18.9937C25.3835 18.9937 18.6165 18.9937 11.8502 18.9937C11.6355 18.9937 11.46 19.1693 11.46 19.3839C11.46 19.5986 11.6355 19.7741 11.8502 19.7741H12.9544ZM11.8502 16.6512C10.3414 16.6512 9.11745 17.8746 9.11745 19.3839C9.11745 20.8926 10.4078 22.1166 11.8502 22.1166C13.2931 22.1166 14.3658 21.0986 14.555 19.7741H29.4457C29.6349 21.0986 30.7075 22.1166 32.1505 22.1166C33.5934 22.1166 34.8832 20.8933 34.8832 19.3839C34.8832 17.8746 33.6598 16.6512 32.1505 16.6512H11.8502ZM27.4648 15.0897C27.4648 15.5196 27.1131 15.8708 26.6844 15.8708H17.3156C16.8869 15.8708 16.5346 15.5196 16.5346 15.0897C16.5346 14.6604 16.8857 14.3087 17.3156 14.3087H26.685C27.1137 14.3087 27.4648 14.6604 27.4648 15.0897ZM26.2501 10.1528L26.5361 11.0375L27.4654 11.0356L26.7123 11.5803L27.0014 12.4643L26.2501 11.9165L25.4989 12.4643L25.788 11.5803L25.0348 11.0356L25.9648 11.0375L26.2501 10.1528ZM17.7499 10.1528L18.0352 11.0375L18.9652 11.0356L18.212 11.5803L18.5011 12.4643L17.7499 11.9165L16.9986 12.4643L17.2871 11.5803L16.5339 11.0356L17.4633 11.0375L17.7499 10.1528ZM22 9.33892L22.4864 10.8464L24.0702 10.8439L22.7872 11.7726L23.2792 13.2789L21.9994 12.3452L20.7196 13.2789L21.2121 11.7726L19.9286 10.8439L21.5124 10.8464L22 9.33892ZM18.096 39.4385V22.1166H17.3156C16.8869 22.1166 16.5346 21.7655 16.5346 21.3356C16.5346 20.9063 16.8857 20.5545 17.3156 20.5545H26.685C27.1143 20.5545 27.4654 20.9057 27.4654 21.3356C27.4654 21.7655 27.1137 22.1166 26.685 22.1166H25.904V39.4385H39.4385V4.56147H4.56147V39.4379H18.096V39.4385ZM19.6575 23.0925V39.4385V41H18.096H3V3H41V41H25.9034H24.3419V39.4385V23.0925C24.3419 22.5559 23.9027 22.1166 23.3661 22.1166C22.8294 22.1166 22.3902 22.5571 22.3902 23.0925V41H21.6092V23.0925C21.6092 22.5559 21.1699 22.1166 20.6333 22.1166C20.0967 22.1166 19.6575 22.5559 19.6575 23.0925Z" fill="#1A1744"/>
</g>
<path d="M69.792 7.176V7.736C69.1573 7.75467 68.672 7.82933 68.336 7.96C68.0187 8.072 67.804 8.296 67.692 8.632C67.58 8.94933 67.524 9.45333 67.524 10.144V24.144C67.524 24.7787 67.5707 25.2547 67.664 25.572C67.776 25.8893 67.9813 26.104 68.28 26.216C68.5973 26.3093 69.0453 26.356 69.624 26.356H71.444C72.2467 26.356 72.9187 26.244 73.46 26.02C74.02 25.796 74.4867 25.46 74.86 25.012C75.2333 24.564 75.5227 23.9853 75.728 23.276C75.9333 22.5667 76.092 21.736 76.204 20.784H76.848C76.792 21.3813 76.764 22.1653 76.764 23.136C76.764 23.5093 76.7733 24.06 76.792 24.788C76.8293 25.4973 76.8853 26.2347 76.96 27C76.008 26.9627 74.9347 26.944 73.74 26.944C72.5453 26.9253 71.4813 26.916 70.548 26.916C70.1187 26.916 69.568 26.916 68.896 26.916C68.224 26.916 67.496 26.9253 66.712 26.944C65.9467 26.944 65.1627 26.9533 64.36 26.972C63.576 26.972 62.82 26.9813 62.092 27V26.44C62.7267 26.4027 63.2027 26.328 63.52 26.216C63.8373 26.104 64.0427 25.88 64.136 25.544C64.248 25.208 64.304 24.704 64.304 24.032V10.144C64.304 9.45333 64.248 8.94933 64.136 8.632C64.0427 8.296 63.828 8.072 63.492 7.96C63.1747 7.82933 62.708 7.75467 62.092 7.736V7.176C62.5213 7.19467 63.072 7.21333 63.744 7.232C64.4347 7.25067 65.172 7.26 65.956 7.26C66.6653 7.26 67.3653 7.25067 68.056 7.232C68.7653 7.21333 69.344 7.19467 69.792 7.176ZM88.1437 7.064L94.9757 24.648C95.237 25.3387 95.5357 25.8053 95.8717 26.048C96.2264 26.2907 96.553 26.4213 96.8517 26.44V27C96.4037 26.9627 95.8717 26.944 95.2557 26.944C94.6584 26.9253 94.0517 26.916 93.4357 26.916C92.6517 26.916 91.9237 26.9253 91.2517 26.944C90.5797 26.944 90.0384 26.9627 89.6277 27V26.44C90.5797 26.4027 91.177 26.244 91.4197 25.964C91.681 25.6653 91.625 25.04 91.2517 24.088L86.2117 10.48L86.6597 9.976L82.0117 22.128C81.6757 22.968 81.4704 23.668 81.3957 24.228C81.3397 24.788 81.3864 25.2267 81.5357 25.544C81.7037 25.8613 81.9837 26.0853 82.3757 26.216C82.7677 26.3467 83.253 26.4213 83.8317 26.44V27C83.2717 26.9627 82.7024 26.944 82.1237 26.944C81.5637 26.9253 81.0317 26.916 80.5277 26.916C80.0797 26.916 79.6784 26.9253 79.3237 26.944C78.9877 26.944 78.6797 26.9627 78.3997 27V26.44C78.7917 26.3467 79.1837 26.1133 79.5757 25.74C79.9677 25.3667 80.341 24.732 80.6957 23.836L87.1917 7.064C87.341 7.064 87.4997 7.064 87.6677 7.064C87.8357 7.064 87.9944 7.064 88.1437 7.064ZM91.0837 18.936V19.496H82.7397L83.0197 18.936H91.0837ZM122.098 7.176V7.736C121.725 7.82933 121.323 8.08133 120.894 8.492C120.465 8.884 120.101 9.54667 119.802 10.48L114.65 27.112C114.575 27.112 114.491 27.112 114.398 27.112C114.323 27.112 114.249 27.112 114.174 27.112C114.081 27.112 113.997 27.112 113.922 27.112C113.847 27.112 113.773 27.112 113.698 27.112L107.762 9.444C107.538 8.75333 107.277 8.30533 106.978 8.1C106.698 7.876 106.427 7.75467 106.166 7.736V7.176C106.558 7.19467 107.043 7.21333 107.622 7.232C108.201 7.25067 108.761 7.26 109.302 7.26C110.067 7.26 110.777 7.25067 111.43 7.232C112.102 7.21333 112.634 7.19467 113.026 7.176V7.736C112.466 7.75467 112.018 7.82 111.682 7.932C111.365 8.02533 111.178 8.23067 111.122 8.548C111.085 8.86533 111.178 9.37867 111.402 10.088L115.518 22.744L115.042 23.36L118.57 12.244C118.943 11.0867 119.111 10.1907 119.074 9.556C119.055 8.90267 118.841 8.44533 118.43 8.184C118.038 7.904 117.459 7.75467 116.694 7.736V7.176C117.254 7.19467 117.814 7.21333 118.374 7.232C118.934 7.25067 119.475 7.26 119.998 7.26C120.465 7.26 120.857 7.25067 121.174 7.232C121.51 7.21333 121.818 7.19467 122.098 7.176ZM102.386 7.176V7.736C101.938 7.77333 101.621 7.88533 101.434 8.072C101.247 8.24 101.154 8.492 101.154 8.828C101.173 9.14533 101.266 9.56533 101.434 10.088L105.774 23.052L105.046 23.864L108.854 12.02L109.274 12.72L104.71 27.112C104.635 27.112 104.561 27.112 104.486 27.112C104.411 27.112 104.327 27.112 104.234 27.112C104.159 27.112 104.075 27.112 103.982 27.112C103.907 27.112 103.833 27.112 103.758 27.112L97.7099 9.528C97.4673 8.81867 97.1686 8.352 96.8139 8.128C96.4593 7.88533 96.1326 7.75467 95.8339 7.736V7.176C96.2819 7.19467 96.8139 7.21333 97.4299 7.232C98.0459 7.25067 98.6433 7.26 99.2219 7.26C99.8939 7.26 100.501 7.25067 101.042 7.232C101.602 7.21333 102.05 7.19467 102.386 7.176ZM124.1 7.176C124.529 7.19467 125.08 7.21333 125.752 7.232C126.442 7.25067 127.124 7.26 127.796 7.26C128.692 7.26 129.541 7.25067 130.344 7.232C131.165 7.21333 131.744 7.204 132.08 7.204C133.666 7.204 134.982 7.40933 136.028 7.82C137.092 8.23067 137.876 8.80933 138.38 9.556C138.902 10.284 139.164 11.124 139.164 12.076C139.164 12.6547 139.042 13.2707 138.8 13.924C138.576 14.5587 138.174 15.156 137.596 15.716C137.017 16.2573 136.233 16.7053 135.244 17.06C134.254 17.4147 132.994 17.592 131.464 17.592H128.776V17.032H131.184C132.434 17.032 133.386 16.8267 134.04 16.416C134.712 15.9867 135.16 15.4267 135.384 14.736C135.626 14.0267 135.748 13.2427 135.748 12.384C135.748 10.9093 135.43 9.77067 134.796 8.968C134.161 8.14667 133.06 7.736 131.492 7.736C130.689 7.736 130.157 7.89467 129.896 8.212C129.653 8.52933 129.532 9.17333 129.532 10.144V24.032C129.532 24.704 129.588 25.208 129.7 25.544C129.812 25.88 130.026 26.104 130.344 26.216C130.661 26.328 131.128 26.4027 131.744 26.44V27C131.296 26.9627 130.726 26.944 130.036 26.944C129.364 26.9253 128.673 26.916 127.964 26.916C127.18 26.916 126.442 26.9253 125.752 26.944C125.08 26.944 124.529 26.9627 124.1 27V26.44C124.734 26.4027 125.21 26.328 125.528 26.216C125.845 26.104 126.05 25.88 126.144 25.544C126.256 25.208 126.312 24.704 126.312 24.032V10.144C126.312 9.45333 126.256 8.94933 126.144 8.632C126.05 8.296 125.836 8.072 125.5 7.96C125.182 7.82933 124.716 7.75467 124.1 7.736V7.176ZM128.832 17.116C129.784 17.1533 130.549 17.2 131.128 17.256C131.706 17.2933 132.192 17.3307 132.584 17.368C132.976 17.4053 133.34 17.452 133.676 17.508C135.076 17.6947 136.093 18.068 136.728 18.628C137.381 19.188 137.829 20.0467 138.072 21.204L138.772 24.06C138.94 24.8627 139.117 25.432 139.304 25.768C139.509 26.104 139.808 26.272 140.2 26.272C140.498 26.2533 140.741 26.1693 140.928 26.02C141.133 25.852 141.348 25.628 141.572 25.348L141.964 25.656C141.534 26.2347 141.086 26.6733 140.62 26.972C140.153 27.252 139.528 27.392 138.744 27.392C137.941 27.392 137.25 27.1867 136.672 26.776C136.112 26.3467 135.71 25.544 135.468 24.368L134.908 21.568C134.74 20.7653 134.553 20.0747 134.348 19.496C134.142 18.8987 133.853 18.432 133.48 18.096C133.125 17.76 132.602 17.592 131.912 17.592H128.888L128.832 17.116ZM157.974 7.176C157.9 7.88533 157.844 8.576 157.806 9.248C157.788 9.90133 157.778 10.4053 157.778 10.76C157.778 11.1147 157.788 11.4507 157.806 11.768C157.825 12.0853 157.844 12.3467 157.862 12.552H157.218C157.088 11.3573 156.882 10.4147 156.602 9.724C156.341 9.03333 155.94 8.548 155.398 8.268C154.876 7.96933 154.138 7.82 153.186 7.82H151.254C150.657 7.82 150.2 7.876 149.882 7.988C149.584 8.08133 149.378 8.28667 149.266 8.604C149.154 8.90267 149.098 9.37867 149.098 10.032V24.144C149.098 24.7787 149.154 25.2547 149.266 25.572C149.378 25.8893 149.584 26.104 149.882 26.216C150.2 26.3093 150.657 26.356 151.254 26.356H153.074C154.138 26.356 154.978 26.188 155.594 25.852C156.229 25.516 156.705 24.9653 157.022 24.2C157.358 23.4347 157.61 22.3893 157.778 21.064H158.422C158.366 21.6053 158.338 22.3147 158.338 23.192C158.338 23.5653 158.348 24.1067 158.366 24.816C158.404 25.5253 158.46 26.2533 158.534 27C157.582 26.9627 156.509 26.944 155.314 26.944C154.12 26.9253 153.056 26.916 152.122 26.916C151.693 26.916 151.142 26.916 150.47 26.916C149.798 26.916 149.07 26.9253 148.286 26.944C147.521 26.944 146.737 26.9533 145.934 26.972C145.15 26.972 144.394 26.9813 143.666 27V26.44C144.301 26.4027 144.777 26.328 145.094 26.216C145.412 26.104 145.617 25.88 145.71 25.544C145.822 25.208 145.878 24.704 145.878 24.032V10.144C145.878 9.45333 145.822 8.94933 145.71 8.632C145.617 8.296 145.402 8.072 145.066 7.96C144.749 7.82933 144.282 7.75467 143.666 7.736V7.176C144.394 7.19467 145.15 7.21333 145.934 7.232C146.737 7.232 147.521 7.24133 148.286 7.26C149.07 7.26 149.798 7.26 150.47 7.26C151.142 7.26 151.693 7.26 152.122 7.26C152.981 7.26 153.952 7.26 155.034 7.26C156.136 7.24133 157.116 7.21333 157.974 7.176ZM153.326 16.752C153.326 16.752 153.326 16.8453 153.326 17.032C153.326 17.2187 153.326 17.312 153.326 17.312H148.258C148.258 17.312 148.258 17.2187 148.258 17.032C148.258 16.8453 148.258 16.752 148.258 16.752H153.326ZM154.138 13.056C154.064 14.12 154.026 14.932 154.026 15.492C154.045 16.052 154.054 16.5653 154.054 17.032C154.054 17.4987 154.064 18.012 154.082 18.572C154.101 19.132 154.148 19.944 154.222 21.008H153.578C153.485 20.392 153.364 19.804 153.214 19.244C153.065 18.6653 152.794 18.1987 152.402 17.844C152.029 17.4893 151.441 17.312 150.638 17.312V16.752C151.236 16.752 151.702 16.6307 152.038 16.388C152.393 16.1453 152.664 15.828 152.85 15.436C153.037 15.044 153.168 14.6427 153.242 14.232C153.336 13.8027 153.42 13.4107 153.494 13.056H154.138ZM177.907 7.176C177.833 7.96 177.777 8.72533 177.739 9.472C177.721 10.2 177.711 10.76 177.711 11.152C177.711 11.5813 177.721 11.992 177.739 12.384C177.758 12.776 177.777 13.112 177.795 13.392H177.151C176.965 11.992 176.713 10.8907 176.395 10.088C176.097 9.28533 175.658 8.70667 175.079 8.352C174.501 7.99733 173.67 7.82 172.587 7.82H171.383V23.78C171.383 24.5267 171.449 25.0867 171.579 25.46C171.729 25.8333 172.009 26.0853 172.419 26.216C172.849 26.328 173.465 26.4027 174.267 26.44V27C173.745 26.9627 173.073 26.944 172.251 26.944C171.43 26.9253 170.59 26.916 169.731 26.916C168.835 26.916 167.986 26.9253 167.183 26.944C166.399 26.944 165.765 26.9627 165.279 27V26.44C166.082 26.4027 166.689 26.328 167.099 26.216C167.51 26.0853 167.79 25.8333 167.939 25.46C168.089 25.0867 168.163 24.5267 168.163 23.78V7.82H166.931C165.886 7.82 165.065 7.99733 164.467 8.352C163.87 8.70667 163.422 9.28533 163.123 10.088C162.825 10.8907 162.582 11.992 162.395 13.392H161.751C161.789 13.112 161.807 12.776 161.807 12.384C161.826 11.992 161.835 11.5813 161.835 11.152C161.835 10.76 161.817 10.2 161.779 9.472C161.761 8.72533 161.714 7.96 161.639 7.176C162.442 7.19467 163.319 7.21333 164.271 7.232C165.223 7.25067 166.185 7.26 167.155 7.26C168.126 7.26 169.003 7.26 169.787 7.26C170.571 7.26 171.439 7.26 172.391 7.26C173.343 7.26 174.305 7.25067 175.275 7.232C176.246 7.21333 177.123 7.19467 177.907 7.176ZM190.324 6.784C192.153 6.784 193.758 7.18533 195.14 7.988C196.54 8.79067 197.622 9.948 198.388 11.46C199.153 12.9533 199.536 14.7733 199.536 16.92C199.536 19.0107 199.144 20.84 198.36 22.408C197.576 23.976 196.484 25.1987 195.084 26.076C193.684 26.9533 192.088 27.392 190.296 27.392C188.448 27.392 186.833 26.9907 185.452 26.188C184.07 25.3853 182.997 24.228 182.232 22.716C181.466 21.204 181.084 19.384 181.084 17.256C181.084 15.1653 181.476 13.336 182.26 11.768C183.062 10.2 184.154 8.97733 185.536 8.1C186.917 7.22267 188.513 6.784 190.324 6.784ZM190.212 7.288C189.054 7.288 188.046 7.708 187.188 8.548C186.329 9.388 185.666 10.5453 185.2 12.02C184.733 13.4947 184.5 15.2027 184.5 17.144C184.5 19.1227 184.761 20.8493 185.284 22.324C185.806 23.78 186.516 24.9093 187.412 25.712C188.308 26.496 189.306 26.888 190.408 26.888C191.565 26.888 192.564 26.468 193.404 25.628C194.262 24.788 194.925 23.6307 195.392 22.156C195.877 20.6627 196.12 18.9547 196.12 17.032C196.12 15.0347 195.849 13.308 195.308 11.852C194.785 10.396 194.076 9.276 193.18 8.492C192.302 7.68933 191.313 7.288 190.212 7.288Z" fill="white"/>
<path d="M61.8789 42V35.5752H62.626V41.332H65.478V42H61.8789ZM73.6108 42L72.8198 39.9609H70.2446L69.458 42H68.7021L71.2158 35.5488H71.8882L74.3843 42H73.6108ZM72.5957 39.2974L71.8442 37.2715C71.8267 37.2188 71.7974 37.1323 71.7563 37.0122C71.7183 36.8921 71.6787 36.7676 71.6377 36.6387C71.5967 36.5098 71.563 36.4058 71.5366 36.3267C71.5073 36.4468 71.4751 36.5669 71.4399 36.687C71.4077 36.8042 71.3755 36.9141 71.3433 37.0166C71.311 37.1162 71.2832 37.2012 71.2598 37.2715L70.4951 39.2974H72.5957ZM85.5757 35.5752L83.8574 42H83.106L81.8315 37.6758C81.7935 37.5527 81.7568 37.4297 81.7217 37.3066C81.6895 37.1807 81.6587 37.062 81.6294 36.9507C81.6001 36.8364 81.5752 36.7368 81.5547 36.6519C81.5371 36.564 81.5239 36.498 81.5151 36.4541C81.5093 36.498 81.4976 36.5625 81.48 36.6475C81.4653 36.7324 81.4448 36.8306 81.4185 36.9419C81.395 37.0532 81.3657 37.1719 81.3306 37.2979C81.2983 37.4238 81.2632 37.5513 81.2251 37.6802L79.9858 42H79.2344L77.5293 35.5752H78.3071L79.3398 39.605C79.375 39.7397 79.4072 39.873 79.4365 40.0049C79.4688 40.1338 79.4966 40.2598 79.52 40.3828C79.5464 40.5059 79.5698 40.626 79.5903 40.7432C79.6108 40.8604 79.6299 40.9746 79.6475 41.0859C79.6621 40.9717 79.6812 40.853 79.7046 40.73C79.728 40.604 79.7529 40.4766 79.7793 40.3477C79.8086 40.2188 79.8394 40.0884 79.8716 39.9565C79.9067 39.8247 79.9434 39.6929 79.9814 39.561L81.1372 35.5752H81.9062L83.1104 39.5918C83.1514 39.7295 83.1895 39.8657 83.2246 40.0005C83.2598 40.1353 83.2905 40.2671 83.3169 40.396C83.3462 40.522 83.3711 40.6436 83.3916 40.7607C83.415 40.875 83.4355 40.9834 83.4531 41.0859C83.4736 40.9424 83.4985 40.7915 83.5278 40.6333C83.5571 40.4751 83.5908 40.3096 83.6289 40.1367C83.6699 39.9639 83.7139 39.7852 83.7607 39.6006L84.7935 35.5752H85.5757ZM91.23 38.7964L92.9395 35.5752H93.7437L91.6035 39.5083V42H90.8564V39.5435L88.7119 35.5752H89.5293L91.23 38.7964ZM101.204 42H97.627V35.5752H101.204V36.2344H98.374V38.313H101.042V38.9634H98.374V41.3408H101.204V42ZM107.364 35.5752C107.891 35.5752 108.326 35.6411 108.669 35.7729C109.015 35.9019 109.272 36.0996 109.442 36.3662C109.612 36.6328 109.697 36.9727 109.697 37.3857C109.697 37.7256 109.636 38.0098 109.513 38.2383C109.39 38.4639 109.229 38.647 109.029 38.7876C108.83 38.9282 108.618 39.0366 108.392 39.1128L110.154 42H109.284L107.711 39.3193H106.375V42H105.628V35.5752H107.364ZM107.32 36.2212H106.375V38.6865H107.395C107.919 38.6865 108.304 38.5796 108.55 38.3657C108.799 38.1519 108.924 37.8369 108.924 37.4209C108.924 36.9844 108.792 36.6753 108.528 36.4937C108.268 36.312 107.865 36.2212 107.32 36.2212ZM121.379 35.4741C121.696 35.4741 121.968 35.5298 122.197 35.6411C122.428 35.7495 122.605 35.9062 122.729 36.1113C122.854 36.3164 122.917 36.564 122.917 36.854C122.917 37.2349 122.793 37.5571 122.544 37.8208C122.298 38.0845 121.984 38.3247 121.604 38.5415L123.388 40.2729C123.549 40.0854 123.681 39.8687 123.783 39.6226C123.886 39.3735 123.972 39.104 124.042 38.814H124.781C124.687 39.2007 124.565 39.5566 124.416 39.8818C124.27 40.207 124.085 40.4927 123.862 40.7388L125.15 42H124.161L123.366 41.2222C123.178 41.395 122.976 41.5474 122.759 41.6792C122.545 41.8081 122.307 41.9092 122.043 41.9824C121.782 42.0527 121.483 42.0879 121.146 42.0879C120.736 42.0879 120.38 42.0205 120.079 41.8857C119.777 41.751 119.542 41.5532 119.375 41.2925C119.211 41.0317 119.129 40.7124 119.129 40.3345C119.129 40.0239 119.187 39.7573 119.301 39.5347C119.415 39.312 119.578 39.1143 119.789 38.9414C120 38.7686 120.251 38.6001 120.544 38.436C120.407 38.2837 120.276 38.1299 120.153 37.9746C120.03 37.8164 119.931 37.6479 119.854 37.4692C119.778 37.2876 119.74 37.0884 119.74 36.8716C119.74 36.5786 119.806 36.3281 119.938 36.1201C120.073 35.9121 120.262 35.7524 120.505 35.6411C120.751 35.5298 121.042 35.4741 121.379 35.4741ZM120.984 38.8975C120.755 39.0293 120.559 39.1597 120.395 39.2886C120.234 39.4175 120.109 39.5625 120.021 39.7236C119.937 39.8848 119.894 40.0796 119.894 40.3081C119.894 40.6509 120.01 40.9263 120.241 41.1343C120.473 41.3394 120.782 41.4419 121.168 41.4419C121.567 41.4419 121.905 41.376 122.184 41.2441C122.465 41.1123 122.704 40.9526 122.9 40.7651L120.984 38.8975ZM121.353 36.0762C121.086 36.0762 120.87 36.1465 120.703 36.2871C120.539 36.4248 120.457 36.6182 120.457 36.8672C120.457 37.0898 120.517 37.2949 120.637 37.4824C120.757 37.6699 120.928 37.8779 121.151 38.1064C121.517 37.9043 121.782 37.7095 121.946 37.522C122.113 37.3315 122.197 37.1089 122.197 36.854C122.197 36.6226 122.119 36.4351 121.964 36.2915C121.812 36.1479 121.608 36.0762 121.353 36.0762ZM138.445 42L137.654 39.9609H135.079L134.292 42H133.536L136.05 35.5488H136.722L139.218 42H138.445ZM137.43 39.2974L136.678 37.2715C136.661 37.2188 136.631 37.1323 136.59 37.0122C136.552 36.8921 136.513 36.7676 136.472 36.6387C136.431 36.5098 136.397 36.4058 136.371 36.3267C136.341 36.4468 136.309 36.5669 136.274 36.687C136.242 36.8042 136.209 36.9141 136.177 37.0166C136.145 37.1162 136.117 37.2012 136.094 37.2715L135.329 39.2974H137.43ZM145.083 42H144.332V36.2344H142.311V35.5752H147.096V36.2344H145.083V42ZM153.041 42H152.289V36.2344H150.268V35.5752H155.053V36.2344H153.041V42ZM164.597 38.7788C164.597 39.2739 164.534 39.7251 164.408 40.1323C164.282 40.5366 164.094 40.8853 163.845 41.1782C163.599 41.4683 163.293 41.6924 162.927 41.8506C162.561 42.0088 162.136 42.0879 161.652 42.0879C161.154 42.0879 160.719 42.0088 160.347 41.8506C159.978 41.6924 159.67 41.4668 159.424 41.1738C159.181 40.8809 158.998 40.5308 158.875 40.1235C158.755 39.7163 158.695 39.2651 158.695 38.77C158.695 38.1138 158.803 37.5381 159.02 37.043C159.237 36.5479 159.565 36.1626 160.004 35.8872C160.447 35.6118 161 35.4741 161.666 35.4741C162.301 35.4741 162.836 35.6104 163.27 35.8828C163.706 36.1553 164.036 36.5391 164.258 37.0342C164.484 37.5264 164.597 38.1079 164.597 38.7788ZM159.481 38.7788C159.481 39.3237 159.559 39.7954 159.714 40.1938C159.87 40.5923 160.107 40.8999 160.426 41.1167C160.749 41.3335 161.157 41.4419 161.652 41.4419C162.15 41.4419 162.558 41.3335 162.874 41.1167C163.193 40.8999 163.429 40.5923 163.582 40.1938C163.734 39.7954 163.81 39.3237 163.81 38.7788C163.81 37.9497 163.636 37.3022 163.287 36.8364C162.941 36.3677 162.401 36.1333 161.666 36.1333C161.167 36.1333 160.757 36.2402 160.435 36.4541C160.113 36.668 159.873 36.9727 159.714 37.3682C159.559 37.7607 159.481 38.231 159.481 38.7788ZM170.765 35.5752C171.292 35.5752 171.728 35.6411 172.07 35.7729C172.416 35.9019 172.674 36.0996 172.844 36.3662C173.014 36.6328 173.099 36.9727 173.099 37.3857C173.099 37.7256 173.037 38.0098 172.914 38.2383C172.791 38.4639 172.63 38.647 172.431 38.7876C172.231 38.9282 172.019 39.0366 171.793 39.1128L173.556 42H172.686L171.112 39.3193H169.776V42H169.029V35.5752H170.765ZM170.721 36.2212H169.776V38.6865H170.796C171.32 38.6865 171.706 38.5796 171.952 38.3657C172.201 38.1519 172.325 37.8369 172.325 37.4209C172.325 36.9844 172.193 36.6753 171.93 36.4937C171.669 36.312 171.266 36.2212 170.721 36.2212ZM182.607 42H181.746L178.243 36.6035H178.208C178.217 36.7471 178.227 36.9111 178.239 37.0957C178.25 37.2773 178.259 37.4722 178.265 37.6802C178.274 37.8853 178.278 38.0947 178.278 38.3086V42H177.584V35.5752H178.441L181.93 40.9541H181.961C181.955 40.8516 181.948 40.7065 181.939 40.519C181.93 40.3286 181.921 40.125 181.913 39.9082C181.907 39.6885 181.904 39.4849 181.904 39.2974V35.5752H182.607V42ZM190.938 42H187.36V35.5752H190.938V36.2344H188.107V38.313H190.775V38.9634H188.107V41.3408H190.938V42ZM197 38.7964L198.71 35.5752H199.514L197.374 39.5083V42H196.627V39.5435L194.482 35.5752H195.3L197 38.7964Z" fill="#D58F76"/>
<defs>
<clipPath id="clip0_1_19">
<rect width="38" height="38" fill="white" transform="translate(3 3)"/>
</clipPath>
</defs>
</svg>
