<svg xmlns="http://www.w3.org/2000/svg" viewBox="0 0 570.94 531.51"><title>Asset 2</title><g id="Layer_2" data-name="Layer 2"><g id="Layer_1-2" data-name="Layer 1"><path d="M220.69,246.44C337.47,220,421.37,42.43,300.88,0a165.16,165.16,0,0,1,58,16.36c55.65,27.43,44.79,126.1,17.1,169.79-8.42,13.29-1,21.71-9.43,29.55-1.45-.19-2.89-.31-4.29-.41-12.85-2.57-24.81-1.3-36.08,1.71s-21.89,8.13-31.74,13.84c-16.49,9.56-29.68,21-37.67,31.8-7.83,10.55-10.18,20.95-3.84,29.45,3.85,9.15,15.91,16.13,31.59,18.6,15.27,2.42,33.85-.24,50.82-9a73.2,73.2,0,0,0,26.48-23c7.23-10.29,12.16-23.44,14.28-39.46.35-1.72.66-3.55.93-5.41,11.09-11.44,17.75-7.52,28-24.41A185.27,185.27,0,0,0,429.49,82.3a166.44,166.44,0,0,1-95.66,242.6C275.86,342.46,217.76,309.33,220.69,246.44Z" fill="#f15a2b" fill-rule="evenodd"/><path d="M350.35,84.85c-116.86,26.29-200.89,204-80.35,246.48-44.71-4.12-82.62-20.63-93-68.58a167.3,167.3,0,0,1,9.64-101c5.86-13.65-.21-19.62,7.92-32.33a57.41,57.41,0,0,0,23.87-6.26,84.1,84.1,0,0,0,20-14c13.12-10.91,26.59-21.47,41.84-29,15.46-7.6,32.91-11.65,51.28-14.54l-3.26-5c-15.59,1.55-30.46,3.85-44.08,8.69-13.32,4.74-25.48,11.76-37.3,19l-3.89-6c11.82-7.27,24-14.29,37.29-19,13.62-4.85,28.5-7.15,44.09-8.69q-2.11-3.23-4.22-6.45c-15.62,1.68-30.5,4-44.12,8.83-13.31,4.74-25.47,11.76-37.3,19l-3.89-5.94c11.82-7.27,24-14.3,37.29-19,13.63-4.85,28.5-7.14,44.1-8.69q-2.11-3.21-4.22-6.44c-15.6,1.54-30.47,3.84-44.09,8.69-13.31,4.73-25.48,11.75-37.31,19q-1.92-3-3.89-5.94c11.83-7.27,24-14.29,37.3-19,13.62-4.84,28.49-7.14,44.09-8.68-1.08-1.66-2.17-3.31-3.26-5-19.45,1.28-37.84,3.7-54.45,9.72-16.2,5.86-30.84,14.81-45,24.11a52.6,52.6,0,0,0-15.87,20.28c-3.77,8.74-5.69,19.65-6,33.47a33.58,33.58,0,0,1-6.08,8c-7.55,7-13.66,2.8-21.46,19.6a184.72,184.72,0,0,0-17.16,77.91A187.14,187.14,0,0,0,141.43,249,166.42,166.42,0,0,1,249.06,3.28C302.06-8.52,353,29.43,350.35,84.85Z" fill="#f15a2b" fill-rule="evenodd"/><path d="M19.82,529.59q-9.76,0-14.71-3.2T0,515.84c0-1.06.58-1.6,1.76-1.6a20.44,20.44,0,0,1,4.39.73c2,.47,5.73.71,11.27.72a107.07,107.07,0,0,0,25.9-3,79.79,79.79,0,0,0,20.54-8,45,45,0,0,0,13.51-11.36,21.4,21.4,0,0,0,4.79-13.19q0-6.24-3.75-10a24.47,24.47,0,0,0-9.89-5.76,59.71,59.71,0,0,0-13.43-2.64c-4.85-.43-9.61-.64-14.31-.64-2,0-4.05,0-6.07.08s-3.94.07-5.76.07q-3.51,12.15-6.87,25.1t-7,25.42a13.74,13.74,0,0,1-8.31-2.56A7.53,7.53,0,0,1,3.22,503a17.79,17.79,0,0,1,.56-3.77c.38-1.56.93-3.37,1.68-5.51s1.74-5.38,3.28-10.07,3.38-10.23,5.52-16.62,4.5-13.14,7.11-20.23,5.33-14,8.15-20.86,5.62-13,8.39-18.38A53.53,53.53,0,0,0,27.36,411a69.6,69.6,0,0,0-6.55,3.35,8.11,8.11,0,0,1-3.68,1.44,4.49,4.49,0,0,1-2.47-1.12,14.65,14.65,0,0,1-2.72-2.56,4.2,4.2,0,0,1-1.2-2.56,188.55,188.55,0,0,1,17.9-6.24A79.64,79.64,0,0,1,51,400.55a98.78,98.78,0,0,1,12.63.88A49.12,49.12,0,0,1,76.79,405a25.51,25.51,0,0,1,10.31,7.8q4.08,5.2,4.07,13.83a23.08,23.08,0,0,1-3,11.91,28.16,28.16,0,0,1-7.92,8.63,48.28,48.28,0,0,1-10.86,5.92,97.91,97.91,0,0,1-11.71,3.76,63.75,63.75,0,0,1,16.55,4.07,35.2,35.2,0,0,1,10.55,6.48A22.75,22.75,0,0,1,90.42,475a19,19,0,0,1,1.68,7.59,30,30,0,0,1-5,17,48.24,48.24,0,0,1-13,13.11A85.5,85.5,0,0,1,56.37,522a117.34,117.34,0,0,1-19.26,5.62A89,89,0,0,1,19.82,529.59Zm10.71-74.33a106,106,0,0,0,17.58-2.08A63.65,63.65,0,0,0,63.72,448,30.71,30.71,0,0,0,74.83,439c2.78-3.68,4.16-8.23,4.16-13.68q0-7.67-4.16-11.82A22.29,22.29,0,0,0,64,407.78a62.12,62.12,0,0,0-14.38-1.56h-.64A197.37,197.37,0,0,0,39,429.48Q34.55,442,30.55,455.26Z" fill="#f15a2b"/><path d="M190.25,531.51q-5.92,0-10.14-5.27a19.53,19.53,0,0,1-4.21-12.63c0-.85,0-2,.08-3.51s.13-3.12.24-4.8a58.46,58.46,0,0,1-14.05,17.59,30.34,30.34,0,0,1-20,6.87q-10.71,0-16.71-6.39t-6-17.91a67.64,67.64,0,0,1,1.86-15.26q1.92-8.25,4.8-17t5.75-17.66q2.88-8.88,4.79-17.5a74.64,74.64,0,0,0,1.92-16.31q0-14.38-8.63-14.39a10.66,10.66,0,0,0-7.35,2.72,21.84,21.84,0,0,0-5,6.79,38.15,38.15,0,0,0-3,8.23,32.08,32.08,0,0,0-1,7,23.24,23.24,0,0,0,.64,5.18,44.07,44.07,0,0,0,1.44,5.05q-7.67,0-10.93-3.52a12.43,12.43,0,0,1-3.28-8.8,23.63,23.63,0,0,1,2.4-10.07,33.5,33.5,0,0,1,6.8-9.51,33.87,33.87,0,0,1,10.3-7,31,31,0,0,1,12.8-2.64q9.74,0,14.14,5.6t4.4,15a67.93,67.93,0,0,1-1.46,13.11q-1.44,7.18-3.69,14.87t-4.47,14.82q-4,12.94-6.55,22.46a66.27,66.27,0,0,0-2.56,17,23.64,23.64,0,0,0,3,12.4q3,5,10.23,5a19.59,19.59,0,0,0,12-4.07,39.13,39.13,0,0,0,9.51-10.56,84,84,0,0,0,7-13.66,94.17,94.17,0,0,0,4.31-13.43q2.24-9.44,5-20.14t5.67-21.07q3-10.39,6-18.87a81.4,81.4,0,0,1,6-13.5q3-5,5.83-5a9.55,9.55,0,0,1,4.4,1.68,34.25,34.25,0,0,1,5.84,4.56c-1,.74-2.35,3-4.16,6.71s-3.84,8.53-6.08,14.39-4.5,12.31-6.79,19.34-4.38,14.25-6.25,21.66-3.37,14.52-4.55,21.34a108.12,108.12,0,0,0-1.76,18.22q0,9.92,3.36,13.11c2.23,2.13,6.14,3.19,11.7,3.2a11.86,11.86,0,0,1-5.91,4.79A19.87,19.87,0,0,1,190.25,531.51Z" fill="#f15a2b"/><path d="M244.12,529.59q-8.48-.63-11.11-4.16a14.26,14.26,0,0,1-2.64-8.78,59.53,59.53,0,0,1,2.09-14.23,182.26,182.26,0,0,1,5.46-17.75q3.39-9.44,7.35-18.73l-5.51.49q-3.75.31-7.68.72c-2.62.26-4.72.56-6.31.88a11.15,11.15,0,0,1,3.76-7.76A20.16,20.16,0,0,1,238,456.2a52.68,52.68,0,0,1,11.26-1.42q4.16-11.52,8.58-22.46t8.88-20.06a21.28,21.28,0,0,0-2.24-.24c-.85-.06-2-.08-3.52-.08q-9.73,0-15.1,2.08T238.45,420a20.24,20.24,0,0,0-2,9.37,30.67,30.67,0,0,0,.78,7.27,49.66,49.66,0,0,0,2.4,7.12q-7.51-1.28-10.71-4.88a13.1,13.1,0,0,1-3.2-9,20.65,20.65,0,0,1,6.16-14.71Q238,408.71,248.5,405a71,71,0,0,1,23.58-3.67,128.59,128.59,0,0,1,17,1.15,121.31,121.31,0,0,0,15.82,1.11,50.6,50.6,0,0,0,7.68-.55,79.22,79.22,0,0,0,8.49-1.84q-7.67,8.47-12.54,11.36a18.8,18.8,0,0,1-9.52,2.87,61.39,61.39,0,0,1-9.93-1,131.48,131.48,0,0,0-13.13-1.47q-2.08,5.12-4.47,11.82t-4.88,14.39q-2.47,7.68-5,15.83,8.31.64,15,1.44t14.83,1.12a20.61,20.61,0,0,1-3.9,4.07,12.57,12.57,0,0,1-5.28,2.16,70.76,70.76,0,0,1-9,1q-5.67.33-14.79.48-1.28,4.79-2.71,9.75t-2.48,8.47c-.69,2.35-1.15,3.79-1.36,4.32a238.39,238.39,0,0,0-6.15,25A101,101,0,0,0,244.12,529.59Z" fill="#f15a2b"/><path d="M327.56,529.59q-8.47-.63-11.1-4.16a14.14,14.14,0,0,1-2.64-8.78,60,60,0,0,1,2.08-14.23,182.26,182.26,0,0,1,5.46-17.75q3.39-9.44,7.36-18.73l-5.52.49c-2.51.21-5.06.45-7.67.72s-4.71.56-6.31.88a11.14,11.14,0,0,1,3.75-7.76,20.28,20.28,0,0,1,8.47-4.07,53,53,0,0,1,11.27-1.45q4.17-11.5,8.59-22.46t8.87-20.05a21,21,0,0,0-2.24-.24c-.86-.06-2-.08-3.52-.08q-9.75,0-15.11,2.07t-7.41,6a20.24,20.24,0,0,0-2,9.37,30.67,30.67,0,0,0,.78,7.27,48.5,48.5,0,0,0,2.41,7.12q-7.51-1.28-10.72-4.88a13,13,0,0,1-3.19-9,20.6,20.6,0,0,1,6.15-14.71Q321.47,408.71,332,405a70.94,70.94,0,0,1,23.57-3.67,129.81,129.81,0,0,1,17,1.11,119.6,119.6,0,0,0,15.82,1.12A51.68,51.68,0,0,0,396,403a79.28,79.28,0,0,0,8.5-1.81q-7.71,8.47-12.55,11.35a18.68,18.68,0,0,1-9.52,2.87,60,60,0,0,1-9.91-1,130.89,130.89,0,0,0-13.1-1.47q-2.08,5.12-4.48,11.82T350,439.15q-2.47,7.68-5,15.83,8.31.64,15,1.44t14.89,1.08a20.61,20.61,0,0,1-3.9,4.07,12.57,12.57,0,0,1-5.28,2.16,70.76,70.76,0,0,1-9,1c-3.78.22-8.73.38-14.82.48-.86,3.19-1.76,6.45-2.72,9.75s-1.79,6.13-2.48,8.47-1.15,3.79-1.36,4.32a244.16,244.16,0,0,0-6.16,25A100.35,100.35,0,0,0,327.56,529.59Z" fill="#f15a2b"/><path d="M411.17,529.59a37.63,37.63,0,0,1-17.91-4.08,30.57,30.57,0,0,1-11.9-10.86,28,28,0,0,1-4.24-15.09,34.2,34.2,0,0,1,3-13.9,42.84,42.84,0,0,1,8.59-12.55,51.12,51.12,0,0,1,12.94-9.59,50,50,0,0,1,16.24-5.2A34.51,34.51,0,0,1,409.24,447a30.1,30.1,0,0,1-2.88-12.79A32.37,32.37,0,0,1,410.68,418a33.91,33.91,0,0,1,30.37-17.28q9.75,0,15,4.69t5.28,13.66A32.33,32.33,0,0,1,459.11,431a30.49,30.49,0,0,1-5.34,9.26q-3.12,3.53-6.15,3.52a5.94,5.94,0,0,1-4.24-2,20.93,20.93,0,0,1-3.44-4.56,58.33,58.33,0,0,0,10-10.23A18.59,18.59,0,0,0,454,415.8a8.68,8.68,0,0,0-3.2-7.28,13.06,13.06,0,0,0-8.31-2.47,17.39,17.39,0,0,0-12.07,4.39,27.44,27.44,0,0,0-7.35,11.19,40.48,40.48,0,0,0-2.48,13.94,39.82,39.82,0,0,0,2.56,13.83,26.77,26.77,0,0,0,9.27,12.07,45.62,45.62,0,0,0-33.09,22.22,32.22,32.22,0,0,0-4.68,16.15,28.19,28.19,0,0,0,2,10.06,20.27,20.27,0,0,0,6.54,8.88q4.57,3.59,12.23,3.59a34.17,34.17,0,0,0,17.31-4.86,62.58,62.58,0,0,0,15.61-12.87,73.31,73.31,0,0,0,11.43-16.94l4.32,2.72a100.61,100.61,0,0,1-13.92,19.9,65.05,65.05,0,0,1-17.73,14A44.4,44.4,0,0,1,411.17,529.59Z" fill="#f15a2b"/><path d="M496.85,529.59q-8.79,0-12.15-3.44a12.69,12.69,0,0,1-3.52-8.86A41.62,41.62,0,0,1,483,506.17q1.83-6.46,3.75-12.39,3.84-11.34,8-22.37t8.4-21.27q4.23-10.22,8.14-19.51t7.28-17.1q-10.86.17-18.78.63t-14.47,1.21q-6.55.72-13.58,2a13.59,13.59,0,0,1,6.31-10.3q5.51-3.6,14.83-5a140,140,0,0,1,21.26-1.44q6.24,0,11.75.24c3.67.16,7.19.4,10.54.72l9.83,1q10.08,1,16.07,1.28t8.59.32a28.53,28.53,0,0,1-12.08,6.48,74.29,74.29,0,0,1-15.26,2.47q-8,.48-15.19.48-7.67,18.87-14,39.16t-11.83,40.13q-2.09,7.67-3.44,13a97.76,97.76,0,0,0-2,9.74,65.18,65.18,0,0,0-.64,9.37,15.28,15.28,0,0,0,.08,1.83C496.6,527.73,496.7,528.67,496.85,529.59Z" fill="#f15a2b"/></g></g></svg>