<svg xmlns="http://www.w3.org/2000/svg" viewBox="0 0 1132.11 331.33"><title>Asset 1</title><g id="Layer_2" data-name="Layer 2"><g id="Layer_1-2" data-name="Layer 1"><path d="M101.63,246.44C218.41,220,302.31,42.43,181.82,0a165.18,165.18,0,0,1,58,16.36c55.65,27.43,44.79,126.1,17.1,169.79-8.42,13.29-.95,21.71-9.43,29.55-1.45-.19-2.89-.31-4.29-.41-12.85-2.57-24.81-1.3-36.08,1.71s-21.89,8.13-31.74,13.84c-16.49,9.56-29.68,21-37.67,31.8-7.83,10.55-10.18,20.95-3.84,29.45,3.85,9.15,15.91,16.13,31.59,18.6,15.27,2.42,33.85-.24,50.82-9a73.31,73.31,0,0,0,26.48-23c7.23-10.29,12.16-23.44,14.28-39.46.35-1.72.66-3.55.93-5.41,11.09-11.44,17.75-7.52,28-24.41A184.33,184.33,0,0,0,313,113.23a186.56,186.56,0,0,0-2.57-30.93,166.45,166.45,0,0,1-95.66,242.6C156.8,342.46,98.7,309.33,101.63,246.44Z" fill="#fff" fill-rule="evenodd"/><path d="M231.29,84.85c-116.86,26.29-200.89,204-80.35,246.48-44.71-4.12-82.62-20.63-93-68.58a167.25,167.25,0,0,1,9.64-101c5.86-13.65-.21-19.62,7.92-32.33a57.45,57.45,0,0,0,23.87-6.26,84.25,84.25,0,0,0,20-14c13.12-10.91,26.59-21.47,41.84-29,15.46-7.6,32.91-11.65,51.28-14.54l-3.26-5c-15.59,1.55-30.46,3.85-44.08,8.69-13.32,4.74-25.48,11.76-37.3,19l-3.89-6c11.82-7.27,24-14.29,37.29-19,13.62-4.85,28.5-7.15,44.09-8.69q-2.12-3.22-4.22-6.45C185.5,49.85,170.62,52.14,157,57c-13.31,4.74-25.47,11.76-37.3,19l-3.89-5.94c11.82-7.27,24-14.3,37.29-19,13.63-4.85,28.5-7.14,44.1-8.69q-2.12-3.21-4.22-6.44c-15.6,1.54-30.47,3.84-44.09,8.69-13.31,4.73-25.48,11.75-37.31,19q-1.93-3-3.89-5.94c11.83-7.27,24-14.29,37.3-19,13.62-4.84,28.49-7.14,44.09-8.68-1.08-1.66-2.17-3.31-3.26-5-19.45,1.28-37.84,3.7-54.45,9.72-16.2,5.86-30.84,14.81-45,24.11A52.44,52.44,0,0,0,70.5,79.11c-3.77,8.74-5.69,19.65-6,33.47a33.88,33.88,0,0,1-6.08,8c-7.55,7-13.66,2.8-21.46,19.6A184.63,184.63,0,0,0,19.8,218.09,186.56,186.56,0,0,0,22.37,249,166.43,166.43,0,0,1,130,3.28C183-8.52,233.89,29.43,231.29,84.85Z" fill="#fff" fill-rule="evenodd"/><path d="M426,243.48q-12.51,0-18.85-4.1t-6.55-13.52c0-1.36.74-2.05,2.25-2.05a26.33,26.33,0,0,1,5.63.93q3.8.91,14.44.92a136.57,136.57,0,0,0,33.19-3.79,102.1,102.1,0,0,0,26.32-10.24q11.16-6.47,17.31-14.55t6.14-16.9q0-8-4.81-12.8A31.32,31.32,0,0,0,488.4,160a77.21,77.21,0,0,0-17.21-3.38q-9.31-.82-18.33-.82-3.9,0-7.78.1t-7.38.1q-4.5,15.57-8.81,32.16t-9,32.57a17.57,17.57,0,0,1-10.65-3.28q-4.51-3.27-4.51-8a21.48,21.48,0,0,1,.72-4.82c.48-2,1.19-4.33,2.15-7.07q1.23-3.89,4.2-12.9t7.07-21.3q4.09-12.3,9.11-25.92t10.45-26.73q5.43-13.11,10.75-23.55a68.82,68.82,0,0,0-13.52,4.3,91.88,91.88,0,0,0-8.4,4.3,10.4,10.4,0,0,1-4.71,1.84,5.86,5.86,0,0,1-3.17-1.43,19.33,19.33,0,0,1-3.48-3.28,5.41,5.41,0,0,1-1.54-3.28,239.08,239.08,0,0,1,22.94-8q11.88-3.5,28.68-3.49a128.43,128.43,0,0,1,16.18,1.13A63.4,63.4,0,0,1,499,83.81a32.72,32.72,0,0,1,13.21,10q5.22,6.66,5.22,17.72a29.53,29.53,0,0,1-3.79,15.26,36.14,36.14,0,0,1-10.14,11.06,61.9,61.9,0,0,1-13.92,7.58,122.82,122.82,0,0,1-15,4.82,82,82,0,0,1,21.2,5.22,45.24,45.24,0,0,1,13.52,8.3,29.36,29.36,0,0,1,7.17,9.73,24.51,24.51,0,0,1,2.15,9.73A38.59,38.59,0,0,1,512.26,205a62,62,0,0,1-16.69,16.8,109.69,109.69,0,0,1-22.74,12A148.71,148.71,0,0,1,448.15,241,113.91,113.91,0,0,1,426,243.48Zm13.72-95.25a135.94,135.94,0,0,0,22.53-2.67,81.34,81.34,0,0,0,20-6.65,39.23,39.23,0,0,0,14.24-11.47q5.33-7.06,5.33-17.52,0-9.83-5.33-15.15a28.57,28.57,0,0,0-13.93-7.38,79.68,79.68,0,0,0-18.43-2h-.82a253.89,253.89,0,0,0-12.7,29.81Q444.86,131.23,439.75,148.23Z" fill="#fff"/><path d="M644.39,245.94q-7.59,0-13-6.76A25.07,25.07,0,0,1,626,223c0-1.09,0-2.59.1-4.5s.17-4,.31-6.15a74.79,74.79,0,0,1-18,22.54q-10.65,8.81-25.6,8.8-13.72,0-21.41-8.19t-7.68-22.94A86.47,86.47,0,0,1,556.1,193q2.46-10.56,6.15-21.82t7.37-22.63q3.69-11.37,6.14-22.43a96.47,96.47,0,0,0,2.46-20.9q0-18.43-11.06-18.43a13.62,13.62,0,0,0-9.42,3.48,27.9,27.9,0,0,0-6.45,8.7,49,49,0,0,0-3.79,10.55,41.33,41.33,0,0,0-1.23,9,29.71,29.71,0,0,0,.82,6.65,56.43,56.43,0,0,0,1.84,6.46q-9.82,0-14-4.51a15.88,15.88,0,0,1-4.2-11.27,30.21,30.21,0,0,1,3.07-12.9,43.15,43.15,0,0,1,8.71-12.19,43.59,43.59,0,0,1,13.21-9,39.64,39.64,0,0,1,16.39-3.38q12.49,0,18.13,7.17t5.63,19.25A87,87,0,0,1,594,121.6q-1.85,9.21-4.72,19.05t-5.73,19q-5.13,16.59-8.4,28.78a84.86,84.86,0,0,0-3.28,21.81q0,9.44,3.89,15.88t13.11,6.45a25.07,25.07,0,0,0,15.37-5.22,50,50,0,0,0,12.19-13.52,108.73,108.73,0,0,0,8.91-17.51,119.9,119.9,0,0,0,5.53-17.21q2.86-12.09,6.35-25.81t7.27-27q3.78-13.31,7.68-24.17a104.1,104.1,0,0,1,7.68-17.31q3.79-6.45,7.48-6.45c1.36,0,3.24.71,5.63,2.15a43.93,43.93,0,0,1,7.48,5.84q-1.85,1.42-5.33,8.6t-7.78,18.44q-4.3,11.27-8.71,24.78t-8,27.76q-3.58,14.24-5.83,27.34a138.83,138.83,0,0,0-2.26,23.35q0,12.71,4.3,16.8t15,4.1a15.22,15.22,0,0,1-7.58,6.14A25.48,25.48,0,0,1,644.39,245.94Z" fill="#fff"/><path d="M713.42,243.48q-10.86-.82-14.24-5.33a18.26,18.26,0,0,1-3.38-11.26,76.89,76.89,0,0,1,2.67-18.23q2.65-10.65,7-22.74t9.42-24l-7.06.62q-4.81.41-9.84.92t-8.09,1.13a14.29,14.29,0,0,1,4.82-9.94,25.88,25.88,0,0,1,10.85-5.22A68.21,68.21,0,0,1,720,147.61q5.32-14.75,11-28.78t11.37-25.7a27.75,27.75,0,0,0-2.87-.31c-1.09-.07-2.59-.1-4.5-.1q-12.49,0-19.36,2.66T706.15,103A25.91,25.91,0,0,0,703.59,115a39.42,39.42,0,0,0,1,9.32,62.74,62.74,0,0,0,3.07,9.12q-9.63-1.64-13.72-6.25a16.78,16.78,0,0,1-4.1-11.57,26.41,26.41,0,0,1,7.89-18.85q7.88-8.19,21.3-12.9a90.85,90.85,0,0,1,30.22-4.71A166.75,166.75,0,0,1,771,80.63a154.73,154.73,0,0,0,20.28,1.43,65.06,65.06,0,0,0,9.83-.71A102,102,0,0,0,812,79q-9.84,10.86-16.08,14.55a24,24,0,0,1-12.19,3.68A78.25,78.25,0,0,1,771,95.89,166.91,166.91,0,0,0,754.18,94q-2.67,6.55-5.73,15.15t-6.25,18.44q-3.18,9.83-6.45,20.28,10.65.83,19.25,1.84t19,1.44a26.5,26.5,0,0,1-5,5.22,16.05,16.05,0,0,1-6.76,2.76,87.83,87.83,0,0,1-11.47,1.23q-7.27.42-18.95.62-1.64,6.13-3.48,12.49t-3.17,10.86q-1.34,4.51-1.74,5.53a305.94,305.94,0,0,0-7.89,32.06A128.94,128.94,0,0,0,713.42,243.48Z" fill="#fff"/><path d="M820.34,243.48q-10.86-.82-14.23-5.33a18.19,18.19,0,0,1-3.38-11.26,76.82,76.82,0,0,1,2.66-18.23q2.65-10.65,7-22.74t9.43-24l-7.07.62q-4.82.41-9.83.92t-8.09,1.13a14.28,14.28,0,0,1,4.81-9.94,26,26,0,0,1,10.86-5.22,68.12,68.12,0,0,1,14.44-1.85q5.33-14.75,11-28.78t11.37-25.7a28.38,28.38,0,0,0-2.87-.31c-1.1-.07-2.6-.1-4.51-.1q-12.5,0-19.36,2.66T813.07,103A25.91,25.91,0,0,0,810.51,115a39.42,39.42,0,0,0,1,9.32,62.87,62.87,0,0,0,3.08,9.12q-9.63-1.64-13.73-6.25a16.77,16.77,0,0,1-4.09-11.57,26.4,26.4,0,0,1,7.88-18.85q7.89-8.19,21.31-12.9a90.79,90.79,0,0,1,30.21-4.71,166.63,166.63,0,0,1,21.71,1.43,154.73,154.73,0,0,0,20.28,1.43,65.06,65.06,0,0,0,9.83-.71A102,102,0,0,0,918.87,79Q909,89.85,902.79,93.54a24,24,0,0,1-12.19,3.68,78.25,78.25,0,0,1-12.7-1.33A167,167,0,0,0,861.11,94q-2.67,6.55-5.74,15.15t-6.25,18.44q-3.18,9.83-6.45,20.28,10.65.83,19.25,1.84T881,151.1a26.79,26.79,0,0,1-5,5.22,16.11,16.11,0,0,1-6.76,2.76,88,88,0,0,1-11.47,1.23q-7.28.42-19,.62c-1.1,4.09-2.25,8.26-3.48,12.49s-2.29,7.86-3.18,10.86-1.47,4.85-1.74,5.53a311.1,311.1,0,0,0-7.89,32.06A128.94,128.94,0,0,0,820.34,243.48Z" fill="#fff"/><path d="M927.47,243.48q-13.11,0-22.94-5.23a39.23,39.23,0,0,1-15.26-13.92A35.87,35.87,0,0,1,883.84,205a43.78,43.78,0,0,1,3.89-17.82,54.88,54.88,0,0,1,11-16.08,65.7,65.7,0,0,1,16.59-12.29,63.9,63.9,0,0,1,20.8-6.66A44.22,44.22,0,0,1,925,137.58a38.71,38.71,0,0,1-3.69-16.39,41.57,41.57,0,0,1,5.53-20.69,43.64,43.64,0,0,1,15.57-16q10-6.13,23.35-6.14,12.5,0,19.25,6t6.76,17.51a41,41,0,0,1-2.87,15.26A39.14,39.14,0,0,1,982.06,129q-4,4.51-7.88,4.51a7.6,7.6,0,0,1-5.43-2.56,26.68,26.68,0,0,1-4.41-5.84A74.52,74.52,0,0,0,977.15,112q5.22-7,5.22-14.34,0-6.13-4.1-9.32t-10.65-3.17a22.25,22.25,0,0,0-15.46,5.63,35.16,35.16,0,0,0-9.43,14.34A51.86,51.86,0,0,0,939.56,123a50.91,50.91,0,0,0,3.28,17.72,34.22,34.22,0,0,0,11.88,15.47,58.44,58.44,0,0,0-42.4,28.47q-6,10.44-6,20.69a36.31,36.31,0,0,0,2.57,12.9,25.92,25.92,0,0,0,8.39,11.37q5.85,4.6,15.67,4.61A43.87,43.87,0,0,0,955.13,228a80.58,80.58,0,0,0,20-16.49,93.88,93.88,0,0,0,14.64-21.71l5.54,3.48a128.7,128.7,0,0,1-17.83,25.5,83.47,83.47,0,0,1-22.73,18A57,57,0,0,1,927.47,243.48Z" fill="#fff"/><path d="M1037.27,243.48q-11.28,0-15.57-4.41a16.29,16.29,0,0,1-4.51-11.36,53.52,53.52,0,0,1,2.36-14.24q2.36-8.29,4.81-15.88,4.92-14.53,10.24-28.67t10.76-27.25q5.42-13.09,10.44-25t9.32-21.91q-13.92.2-24.06.81t-18.54,1.54q-8.4.93-17.41,2.56a17.48,17.48,0,0,1,8.09-13.21q7.06-4.6,19-6.45a179,179,0,0,1,27.24-1.85q8,0,15.06.31t13.51.92c4.31.41,8.5.82,12.6,1.23q12.9,1.23,20.59,1.64t11,.41a36.45,36.45,0,0,1-15.47,8.3,95.59,95.59,0,0,1-19.56,3.17q-10.24.61-19.46.62-9.82,24.17-18,50.18t-15.15,51.42q-2.67,9.82-4.41,16.69a125.44,125.44,0,0,0-2.56,12.49,82.84,82.84,0,0,0-.82,12c0,.68,0,1.46.1,2.35A36.24,36.24,0,0,0,1037.27,243.48Z" fill="#fff"/></g></g></svg>