<svg width="100" height="100" viewBox="0 0 100 100" fill="none" xmlns="http://www.w3.org/2000/svg">
<path d="M50 0C40.1109 0 30.444 2.93245 22.2215 8.42652C13.999 13.9206 7.59041 21.7295 3.80603 30.8658C0.0216489 40.0021 -0.968518 50.0555 0.960743 59.7545C2.89 69.4536 7.65204 78.3627 14.6447 85.3553C21.6373 92.348 30.5464 97.11 40.2455 99.0393C49.9445 100.969 59.9979 99.9784 69.1342 96.194C78.2705 92.4096 86.0794 86.001 91.5735 77.7785C97.0676 69.5561 100 59.8891 100 50C99.9841 36.7441 94.7112 24.0356 85.3378 14.6622C75.9644 5.28882 63.256 0.0158786 50 0V0ZM50 98C40.5065 98 31.2262 95.1848 23.3326 89.9105C15.4391 84.6362 9.2868 77.1397 5.65379 68.3688C2.02078 59.598 1.07022 49.9468 2.92231 40.6357C4.7744 31.3246 9.34596 22.7718 16.0589 16.0589C22.7718 9.34595 31.3246 4.7744 40.6357 2.92231C49.9468 1.07022 59.598 2.02078 68.3688 5.65378C77.1397 9.28679 84.6362 15.4391 89.9105 23.3326C95.1849 31.2262 98 40.5065 98 50C97.9762 62.7231 92.9115 74.9183 83.9149 83.9148C74.9183 92.9114 62.7231 97.9762 50 98V98Z" fill="white"/>
<path d="M50 3.42004C40.7873 3.42004 31.7816 6.15191 24.1215 11.2702C16.4615 16.3885 10.4912 23.6633 6.9657 32.1747C3.44017 40.686 2.51773 50.0517 4.31503 59.0873C6.11233 68.123 10.5486 76.4228 17.063 82.9371C23.5773 89.4514 31.8771 93.8877 40.9127 95.685C49.9483 97.4823 59.314 96.5599 67.8254 93.0344C76.3368 89.5088 83.6116 83.5386 88.7299 75.8785C93.8481 68.2185 96.58 59.2127 96.58 50C96.5641 37.6511 91.6515 25.8126 82.9195 17.0805C74.1875 8.34854 62.3489 3.43592 50 3.42004V3.42004ZM50 95.6C40.9812 95.6 32.1649 92.9257 24.666 87.9151C17.1671 82.9045 11.3225 75.7827 7.8711 67.4504C4.41974 59.1181 3.51671 49.9495 5.2762 41.1039C7.03568 32.2584 11.3787 24.1332 17.7559 17.756C24.1332 11.3787 32.2584 7.03572 41.1039 5.27624C49.9494 3.51675 59.1181 4.41978 67.4504 7.87114C75.7827 11.3225 82.9044 17.1672 87.915 24.666C92.9256 32.1649 95.6 40.9812 95.6 50C95.5841 62.089 90.7748 73.6784 82.2265 82.2266C73.6783 90.7748 62.089 95.5842 50 95.6V95.6Z" fill="white"/>
<path d="M8.99999 44.8101L11.15 45.1901C13.15 45.5401 14.23 44.7601 14.59 43.0001C14.95 41.2401 14.09 40.3301 12.02 40.0001L9.90999 39.6001L9.98999 39.1201L8.86999 38.9301L8.40999 41.5101L9.56999 41.7201L9.64999 41.2401L11.5 41.5701C13 41.8301 13.15 42.2201 13.06 42.7501C12.97 43.2801 12.61 43.5701 11.2 43.3201L9.31999 43.0001L9.39999 42.5201L8.26999 42.3301L7.78999 45.1001L8.91999 45.3001L8.99999 44.8101Z" fill="white"/>
<path d="M10.44 37.63L14.09 39.01L13.9 39.5L14.97 39.91L15.93 37.36L14.86 36.96L14.62 37.59L12.54 36.81L16.49 35.88L17.16 34.1L12.44 32.32L12.64 31.77L11.57 31.37L10.63 33.87L11.7 34.27L11.91 33.71L13.89 34.45L10.08 35.33L9.19 37.71L10.25 38.12L10.44 37.63Z" fill="white"/>
<path d="M13.48 30.3L16.77 32.3L16.49 32.77L17.49 33.38L18.87 31.1C19.99 29.23 19.63 27.58 17.87 26.54C16.42 25.66 14.66 26.03 13.55 27.86L12.15 30.17L13.15 30.78L13.48 30.3ZM14.59 28.46C15.08 27.65 16.05 27.78 16.86 28.27C17.67 28.76 18.35 29.63 17.86 30.45L17.69 30.73L14.4 28.73L14.59 28.46Z" fill="white"/>
<path d="M17.24 24.4501L20.17 26.9501L19.81 27.3701L20.71 28.14L24.17 24.07L22.65 22.7701L21.65 23.93L22.28 24.47L21.36 25.55L20.26 24.6101L21.35 23.33L20.46 22.57L19.36 23.85L18.43 23.05L19.35 21.98L19.95 22.49L20.95 21.32L19.46 20.05L15.99 24.1201L16.88 24.88L17.24 24.4501Z" fill="white"/>
<path d="M21.45 19.72L23.94 22.72L23.56 23.04L24.31 23.93L26.5 22.09L25.75 21.19L25.34 21.54L24.45 20.49C25.05 19.98 25.25 20.07 25.77 20.69C25.8995 20.8802 26.0707 21.0383 26.2705 21.1522C26.4704 21.2661 26.6937 21.3329 26.9233 21.3474C27.1529 21.3618 27.3828 21.3236 27.5954 21.2357C27.808 21.1478 27.9977 21.0124 28.15 20.84C28.2982 20.7301 28.4198 20.5883 28.5057 20.425C28.5917 20.2617 28.6398 20.0812 28.6465 19.8968C28.6533 19.7124 28.6184 19.5289 28.5446 19.3598C28.4707 19.1907 28.3598 19.0404 28.22 18.92L27.91 18.55L27.46 18.93L27.65 19.16C27.76 19.29 27.77 19.42 27.65 19.5C27.53 19.58 27.35 19.5 27.1 19.18C26.8859 18.9522 26.5994 18.8057 26.2894 18.7656C25.9794 18.7254 25.665 18.7942 25.4 18.96C25.6464 18.734 25.7995 18.4241 25.8291 18.091C25.8587 17.758 25.7627 17.4259 25.56 17.16C24.91 16.38 24.08 16.02 22.56 17.34L20.35 19.19L21.1 20.08L21.45 19.72ZM23.18 18.25C23.253 18.1697 23.3434 18.1073 23.4443 18.0674C23.5453 18.0275 23.654 18.0113 23.7621 18.02C23.8703 18.0287 23.975 18.0621 24.0682 18.1175C24.1615 18.173 24.2408 18.2491 24.3 18.34C24.61 18.7 24.51 19.1 24.12 19.44L23.81 19.69L22.81 18.54L23.18 18.25Z" fill="white"/>
<path d="M33.71 17.44C34.1625 17.2032 34.5596 16.8731 34.875 16.4714C35.1905 16.0698 35.4171 15.6058 35.54 15.11L34.1 14.57C34.062 14.8545 33.966 15.1282 33.8181 15.3741C33.6702 15.6201 33.4735 15.8331 33.24 16C32.49 16.39 31.73 15.89 31.33 15.11C30.93 14.33 30.91 13.35 31.48 13.06C31.6049 13.0053 31.7397 12.9766 31.8761 12.9758C32.0125 12.9751 32.1476 13.0022 32.2731 13.0556C32.3986 13.109 32.5119 13.1875 32.6059 13.2863C32.7 13.3851 32.7728 13.5021 32.82 13.63L34.23 12.91L33.09 10.67L31.85 11.3V11.84C31.613 11.7346 31.3544 11.6869 31.0954 11.7008C30.8364 11.7147 30.5843 11.7898 30.36 11.92C29.7298 12.367 29.2899 13.0338 29.127 13.789C28.9641 14.5442 29.0901 15.3331 29.48 16C29.6452 16.388 29.8903 16.7367 30.1993 17.0235C30.5083 17.3104 30.8743 17.5288 31.2734 17.6647C31.6725 17.8006 32.0958 17.8508 32.5156 17.8121C32.9355 17.7734 33.3424 17.6466 33.71 17.44V17.44Z" fill="white"/>
<path d="M39.15 15.2701C39.5664 15.174 39.9564 14.9872 40.2921 14.7229C40.6279 14.4586 40.9011 14.1233 41.0922 13.7411C41.2833 13.3589 41.3875 12.9392 41.3975 12.5121C41.4075 12.0849 41.323 11.6608 41.15 11.2701C40.56 9.36005 39.21 8.42005 37.15 9.06005C36.7428 9.17104 36.3635 9.36671 36.0371 9.63429C35.7106 9.90186 35.4443 10.2353 35.2556 10.6128C35.0668 10.9904 34.9598 11.4035 34.9416 11.8252C34.9235 12.2469 34.9945 12.6677 35.15 13.0601C35.2364 13.486 35.4144 13.8881 35.6715 14.2385C35.9287 14.5889 36.2589 14.8792 36.6393 15.0894C37.0197 15.2996 37.4413 15.4246 37.8748 15.4558C38.3083 15.487 38.7434 15.4236 39.15 15.2701V15.2701ZM37.56 10.37C38.21 10.17 38.74 10.9 39.06 11.92C39.38 12.94 39.27 13.7801 38.74 13.9201C38.21 14.0601 37.58 13.51 37.24 12.4C36.9 11.29 37 10.52 37.56 10.37V10.37Z" fill="white"/>
<path d="M42.13 9.07999L42.57 12.96L42.05 13.02L42.19 14.16L44.89 13.85L44.76 12.71L44.08 12.79L43.83 10.57L46.45 13.67L48.35 13.46L47.77 8.43999L48.36 8.36999L48.23 7.23999L45.58 7.53999L45.71 8.67999L46.31 8.60999L46.54 10.7L44.02 7.71999L41.49 7.99999L41.62 9.13999L42.13 9.07999Z" fill="white"/>
<path d="M50.85 12.8499C51.0615 13.1279 51.3315 13.3561 51.6407 13.5185C51.95 13.6809 52.2911 13.7736 52.64 13.7899C53.64 13.8599 55.02 13.4499 55.11 12.0699C55.25 9.99994 51.73 9.96994 51.79 9.06994C51.79 8.75994 52.18 8.62994 52.44 8.63994C52.5851 8.63046 52.7306 8.65274 52.8662 8.70524C53.0018 8.75774 53.1244 8.83919 53.2253 8.94392C53.3262 9.04865 53.4031 9.17413 53.4505 9.31161C53.498 9.44909 53.5149 9.59527 53.5 9.73994L55.1 9.83994L55.25 7.61994L53.73 7.51994L53.59 8.25994C53.4097 7.94723 53.148 7.68916 52.8329 7.51311C52.5178 7.33705 52.1608 7.24957 51.8 7.25994C51.5393 7.22776 51.2749 7.24724 51.0217 7.31727C50.7686 7.38729 50.5317 7.5065 50.3246 7.66807C50.1175 7.82965 49.9443 8.03043 49.8148 8.25895C49.6854 8.48748 49.6022 8.73927 49.57 8.99994C49.42 11.2599 52.83 11.1899 52.79 11.8799C52.79 12.2599 52.32 12.2999 52.01 12.2799C51.7 12.2599 50.9 12.0599 50.95 11.2799L49.31 11.1699L49.16 13.3899L50.7 13.4999L50.85 12.8499Z" fill="white"/>
<path d="M57.55 9.24006L58.29 9.42006L57.4 13.1601L56.69 12.9901L56.42 14.1401L59.63 14.9001L59.9 13.7601L59.18 13.5901L60.08 9.85006L60.8 10.0201L60.53 11.1201L61.8 11.4301L62.34 9.19006L56.56 7.81006L56.02 10.0401L57.29 10.3501L57.55 9.24006Z" fill="white"/>
<path d="M61.93 14.36L61.48 14.17L61 15.24L63.63 16.37L64.09 15.3L63.59 15.08L64.13 13.82C64.86 14.13 64.87 14.35 64.55 15.09C64.4369 15.2903 64.3713 15.5138 64.3583 15.7434C64.3454 15.973 64.3854 16.2026 64.4753 16.4142C64.5652 16.6259 64.7025 16.8141 64.8768 16.9642C65.051 17.1143 65.2574 17.2224 65.48 17.28C65.6442 17.3638 65.8252 17.4095 66.0095 17.4139C66.1938 17.4182 66.3767 17.3811 66.5447 17.3053C66.7127 17.2294 66.8615 17.1168 66.9802 16.9757C67.0988 16.8346 67.1842 16.6686 67.23 16.49L67.42 16.05L66.88 15.81L66.76 16.08C66.69 16.24 66.58 16.31 66.46 16.26C66.34 16.21 66.35 15.97 66.46 15.62C66.582 15.3384 66.6029 15.0232 66.5191 14.728C66.4352 14.4327 66.2518 14.1755 66 14C66.3133 14.116 66.6585 14.1117 66.9688 13.988C67.2791 13.8642 67.5325 13.6298 67.68 13.33C68.08 12.4 68.04 11.49 66.15 10.68L63.46 9.55005L63 10.62L63.45 10.81L61.93 14.36ZM65.14 11.53L65.55 11.7C65.6484 11.7313 65.7389 11.7834 65.8154 11.8527C65.8919 11.922 65.9526 12.007 65.9934 12.1018C66.0342 12.1967 66.0541 12.2992 66.0518 12.4024C66.0495 12.5056 66.025 12.6071 65.98 12.7C65.9387 12.7985 65.8762 12.8867 65.7971 12.9584C65.718 13.03 65.6241 13.0835 65.5221 13.115C65.4201 13.1464 65.3124 13.1551 65.2066 13.1405C65.1009 13.1258 64.9996 13.0881 64.91 13.03L64.55 12.87L65.14 11.53Z" fill="white"/>
<path d="M69.34 19.6101C70.73 20.5301 71.98 20.2201 73.14 18.4701L74.32 16.6701L74.72 16.9301L75.35 15.9801L73.16 14.5401L72.52 15.5401L72.92 15.8101L71.92 17.3701C71.08 18.6501 70.67 18.6301 70.22 18.3701C69.77 18.1101 69.65 17.6301 70.43 16.4401L71.49 14.8401L71.88 15.1101L72.51 14.1101L70.16 12.5601L69.53 13.5601L69.94 13.8301L68.74 15.6601C67.59 17.2701 67.87 18.5801 69.34 19.6101Z" fill="white"/>
<path d="M74.16 23.43C74.5355 23.7752 74.9806 24.0359 75.4653 24.1946C75.95 24.3533 76.4631 24.4063 76.97 24.35V22.82C76.6917 22.8769 76.4047 22.877 76.1263 22.8203C75.848 22.7636 75.5839 22.6513 75.35 22.49C75.2193 22.3421 75.1201 22.1691 75.0586 21.9815C74.9971 21.7939 74.9745 21.5957 74.9923 21.3991C75.0101 21.2025 75.0679 21.0115 75.162 20.838C75.2562 20.6645 75.3848 20.5121 75.54 20.39C76.2 19.68 77.04 19.39 77.54 19.82C77.635 19.9189 77.7086 20.0363 77.7563 20.1649C77.804 20.2935 77.8247 20.4305 77.8172 20.5674C77.8097 20.7043 77.7742 20.8383 77.7127 20.9609C77.6512 21.0834 77.5652 21.1921 77.46 21.28L78.62 22.37L80.34 20.53L79.34 19.53L78.86 19.75C78.8762 19.4914 78.8312 19.2326 78.7287 18.9945C78.6262 18.7565 78.469 18.546 78.27 18.38C77.6189 17.9035 76.8068 17.7014 76.0083 17.8174C75.2098 17.9333 74.4887 18.358 74 19C73.6935 19.2872 73.4521 19.6368 73.2921 20.0252C73.132 20.4135 73.0571 20.8317 73.0722 21.2514C73.0874 21.6712 73.1923 22.0828 73.38 22.4586C73.5676 22.8344 73.8336 23.1657 74.16 23.43V23.43Z" fill="white"/>
<path d="M80.12 23.85L81.02 23.16L81.48 23.76L78.43 26.11L77.99 25.53L77.06 26.25L79.06 28.86L80 28.14L79.55 27.56L82.6 25.22L83.05 25.81L82.15 26.5L82.95 27.53L84.77 26.13L81.15 21.41L79.33 22.82L80.12 23.85Z" fill="white"/>
<path d="M84.52 28.07L81.19 30L80.91 29.52L79.89 30.11L81.36 32.66L82.39 32.07L82.11 31.59L85.44 29.66L85.71 30.14L86.72 29.55L85.25 27L84.23 27.59L84.52 28.07Z" fill="white"/>
<path d="M84.43 31.56C84.0136 31.6855 83.6294 31.9 83.3041 32.1886C82.9787 32.4773 82.7201 32.8333 82.546 33.2318C82.3719 33.6304 82.2866 34.0621 82.2959 34.4969C82.3052 34.9317 82.409 35.3593 82.6 35.75C82.7294 36.1596 82.9484 36.5352 83.2412 36.8495C83.534 37.1638 83.8931 37.4089 84.2925 37.567C84.6919 37.725 85.1215 37.792 85.5501 37.7631C85.9787 37.7343 86.3954 37.6102 86.77 37.4C88.61 36.64 89.43 35.21 88.61 33.2C88.464 32.8016 88.235 32.4386 87.9384 32.1352C87.6417 31.8317 87.284 31.5947 86.8889 31.4397C86.4939 31.2847 86.0704 31.2153 85.6466 31.236C85.2227 31.2568 84.808 31.3672 84.43 31.56V31.56ZM87.34 33.71C87.6 34.35 86.92 34.94 85.93 35.35C84.94 35.76 84.1 35.73 83.88 35.22C83.66 34.71 84.19 34.03 85.26 33.58C86.33 33.13 87.14 33.21 87.34 33.71Z" fill="white"/>
<path d="M85.22 38.95L85.11 38.44L83.99 38.67L84.54 41.33L85.66 41.1L85.53 40.43L87.71 39.98L84.86 42.88L85.25 44.74L90.2 43.72L90.32 44.29L91.44 44.06L90.9 41.45L89.78 41.68L89.9 42.27L87.83 42.7L90.58 39.91L90.06 37.42L88.94 37.65L89.05 38.15L85.22 38.95Z" fill="white"/>
<path d="M16.87 69.42L17.87 68.91L16.67 66.52L15.67 67.03L15.94 67.57L14.06 68.51L16 65.12L14.9 62.91L14.15 60.4L13 60.72L13.14 61.18L11.34 61.71C9.88 62.15 9.57 61.87 9.42 61.35C9.27 60.83 9.42 60.42 10.82 60.01L12.66 59.47L12.8 59.93L13.89 59.6L13.09 56.9L11.99 57.23L12.13 57.7L10.03 58.32C8.13 58.9 7.5 60.08 8 61.81C8.5 63.54 9.59 64 11.6 63.38L13.67 62.77L13.8 63.23L14.5 63.02L13.83 63.35L14.06 63.81L10.57 65.56L10.34 65.09L9.34 65.61L10.53 68L11.53 67.49L11.23 66.88L13.23 65.88L11.23 69.41L12.08 71.11L16.59 68.85L16.87 69.42Z" fill="white"/>
<path d="M19.09 75.59C20.46 74.59 20.8 72.82 19.53 71.09L17.93 68.91L17 69.6L17.33 70.05L14.23 72.32L13.9 71.88L12.96 72.58L14.53 74.73C15.81 76.48 17.46 76.78 19.09 75.59ZM15.49 74.06L15.29 73.79L18.38 71.51L18.58 71.78C19.14 72.54 18.65 73.38 17.89 73.94C17.13 74.5 16.06 74.8 15.49 74.06Z" fill="white"/>
<path d="M21.24 79.39L20.66 79.97L19.65 78.97L20.67 77.94L21.86 79.14L22.7 78.3L21.51 77.11L22.37 76.25L23.37 77.25L22.82 77.81L23.9 78.89L25.29 77.5L21.5 73.73L20.68 74.55L21.07 74.95L18.36 77.67L17.96 77.28L17.13 78.11L20.91 81.89L22.32 80.47L21.24 79.39Z" fill="white"/>
<path d="M27.63 79.2601L25.31 77.5601L24.62 78.5001L25.02 78.7901L22.74 81.9101L22.34 81.6101L21.65 82.6101L24 84.2501L24.69 83.2501L24.21 83.0001L25 81.8801C25.64 82.3401 25.6 82.5601 25.13 83.2101C24.9752 83.3794 24.8613 83.5821 24.7971 83.8024C24.7329 84.0227 24.7202 84.2548 24.7598 84.4809C24.7994 84.7069 24.8903 84.9208 25.0256 85.1062C25.1608 85.2915 25.3368 85.4434 25.54 85.5501C25.6814 85.6679 25.8475 85.7525 26.0259 85.7976C26.2044 85.8427 26.3907 85.8472 26.5711 85.8108C26.7515 85.7743 26.9214 85.6978 27.0684 85.5869C27.2153 85.476 27.3355 85.3336 27.42 85.1701L27.71 84.7801L27.23 84.4301L27.06 84.6701C26.95 84.8101 26.83 84.8501 26.73 84.7701C26.63 84.6901 26.73 84.4701 26.91 84.1601C27.0814 83.899 27.1562 83.5862 27.1215 83.2758C27.0869 82.9654 26.9448 82.6769 26.72 82.4601C26.9993 82.6459 27.3381 82.7203 27.6695 82.6684C28.0009 82.6166 28.3008 82.4423 28.51 82.1801C29.13 81.3701 29.29 80.4701 27.63 79.2601ZM27.04 81.2601C26.76 81.6401 26.35 81.6401 25.93 81.3401L25.61 81.1101L26.5 79.8901L26.86 80.1501C26.9475 80.2059 27.0218 80.2803 27.0774 80.3679C27.1331 80.4556 27.1689 80.5544 27.1823 80.6574C27.1956 80.7603 27.1862 80.865 27.1547 80.9639C27.1232 81.0629 27.0704 81.1537 27 81.2301L27.04 81.2601Z" fill="white"/>
<path d="M36.14 86.75L37.14 84.45L35.87 83.88L35.48 84.25C35.411 84.0012 35.2846 83.7721 35.1109 83.581C34.9372 83.39 34.7211 83.2424 34.48 83.15C33.7355 82.9271 32.9342 82.9939 32.2369 83.337C31.5396 83.6801 30.9977 84.2742 30.72 85C30.5255 85.3736 30.4118 85.784 30.3864 86.2044C30.361 86.6249 30.4244 87.046 30.5725 87.4403C30.7206 87.8346 30.9501 88.1933 31.246 88.493C31.5419 88.7928 31.8976 89.0269 32.29 89.18C32.7657 89.3832 33.2792 89.4829 33.7964 89.4726C34.3137 89.4622 34.8228 89.3421 35.29 89.12L34.8 87.66C34.5561 87.8065 34.2851 87.9023 34.0034 87.9418C33.7216 87.9813 33.4348 87.9637 33.16 87.89C32.9884 87.7922 32.8385 87.6606 32.7193 87.5032C32.6 87.3458 32.514 87.1658 32.4663 86.9742C32.4186 86.7825 32.4103 86.5832 32.4419 86.3883C32.4735 86.1933 32.5443 86.0068 32.65 85.84C33 85 33.7 84.45 34.28 84.7C34.402 84.7618 34.51 84.8478 34.5974 84.953C34.6848 85.0581 34.7497 85.18 34.7882 85.3112C34.8266 85.4424 34.8377 85.5801 34.8208 85.7158C34.8039 85.8515 34.7594 85.9822 34.69 86.1L36.14 86.75Z" fill="white"/>
<path d="M40.22 85.1C39.8137 84.9761 39.3857 84.9398 38.9643 84.9937C38.5429 85.0476 38.1378 85.1903 37.7757 85.4124C37.4137 85.6346 37.1029 85.9311 36.864 86.2824C36.6251 86.6337 36.4636 87.0316 36.39 87.45C36.2366 87.8587 36.1742 88.2959 36.2072 88.7312C36.2402 89.1665 36.3678 89.5893 36.5811 89.9702C36.7944 90.3511 37.0882 90.6808 37.4421 90.9364C37.796 91.192 38.2014 91.3673 38.63 91.45C39.0346 91.5937 39.4661 91.6454 39.8932 91.6013C40.3202 91.5573 40.7322 91.4187 41.0989 91.1956C41.4657 90.9724 41.7782 90.6704 42.0136 90.3114C42.2491 89.9523 42.4015 89.5454 42.46 89.12C43 87.17 42.32 85.65 40.22 85.1ZM40.32 88.54C40.04 89.6 39.52 90.23 38.98 90.08C38.44 89.93 38.22 89.08 38.51 88C38.8 86.92 39.35 86.28 39.87 86.42C40.39 86.56 40.59 87.5 40.32 88.54V88.54Z" fill="white"/>
<path d="M47.19 87.56L47.79 87.61L47.62 89.71L45.72 86.29L43.19 86.08L43.09 87.22L43.61 87.26L43.28 91.16L42.76 91.11L42.67 92.25L45.38 92.48L45.47 91.34L44.79 91.28L44.98 89.06L46.95 92.61L48.85 92.76L49.27 87.73L49.85 87.78L49.94 86.64L47.28 86.42L47.19 87.56Z" fill="white"/>
<path d="M52.44 88.06C52.44 87.75 52.76 87.56 53.01 87.54C53.1519 87.5078 53.2991 87.5069 53.4413 87.5374C53.5836 87.5679 53.7175 87.6291 53.8336 87.7167C53.9498 87.8043 54.0454 87.9162 54.1139 88.0446C54.1823 88.173 54.222 88.3147 54.23 88.46L55.83 88.33L55.64 86.11L54.12 86.24V86.99C53.897 86.7042 53.6006 86.4845 53.2625 86.3541C52.9243 86.2238 52.557 86.1878 52.2 86.25C51.9356 86.2577 51.6753 86.3178 51.4343 86.4268C51.1932 86.5358 50.9762 86.6915 50.7958 86.885C50.6154 87.0784 50.4751 87.3058 50.3831 87.5538C50.2912 87.8018 50.2493 88.0657 50.26 88.33C50.46 90.58 53.82 90 53.88 90.69C53.88 91.06 53.48 91.17 53.17 91.19C52.86 91.21 52 91.15 52 90.4L50.36 90.54L50.55 92.77L52 92.64V91.95C52.2617 92.2037 52.578 92.3941 52.9247 92.5068C53.2713 92.6194 53.6391 92.6513 54 92.6C55 92.51 56.3 91.91 56.18 90.53C56 88.46 52.52 89 52.44 88.06Z" fill="white"/>
<path d="M68.91 86.3L68.37 86.53L68.48 86.8C68.55 86.97 68.48 87.09 68.41 87.14C68.34 87.19 68.12 87.02 67.97 86.67C67.8322 86.3899 67.601 86.1666 67.3161 86.0388C67.0313 85.911 66.7108 85.8867 66.41 85.97C66.7139 85.8241 66.9522 85.5697 67.078 85.257C67.2038 84.9442 67.2081 84.5957 67.09 84.28C66.69 83.35 66 82.76 64.09 83.57L61.46 84.7L55.74 86.12L56.29 88.35L57.56 88L57.29 86.9L58.03 86.72L59 90.49L58.29 90.66L58.57 91.81L61.77 91.02L61.49 89.87L60.78 90.05L59.86 86.32L60.58 86.14L60.85 87.24L62.11 86.93L61.59 85L61.92 85.76L62.37 85.57L63.9 89.12L63.44 89.32L63.9 90.39L66.53 89.27L66.07 88.19L65.58 88.4L65 87.15C65.73 86.84 65.9 86.98 66.21 87.72C66.2782 87.9395 66.3956 88.1405 66.5532 88.3077C66.7109 88.4749 66.9046 88.604 67.1197 88.685C67.3348 88.766 67.5655 88.7969 67.7943 88.7752C68.0231 88.7535 68.2439 88.6799 68.44 88.56C68.614 88.4993 68.7722 88.4003 68.9028 88.2702C69.0334 88.1402 69.1331 87.9824 69.1945 87.8086C69.256 87.6349 69.2776 87.4495 69.2578 87.2663C69.2379 87.083 69.1772 86.9066 69.08 86.75L68.91 86.3ZM65 86.08L64.63 86.24L64.04 84.85L64.45 84.68C64.5425 84.6234 64.6468 84.5887 64.7549 84.5787C64.8629 84.5687 64.9718 84.5836 65.0732 84.6222C65.1746 84.6608 65.2658 84.7222 65.3398 84.8015C65.4137 84.8809 65.4686 84.9762 65.5 85.08C65.7 85.52 65.48 85.88 65 86.08Z" fill="white"/>
<path d="M72.51 80.1901L72.92 79.9301L72.3 78.9301L70.09 80.34L70.72 81.34L71.12 81.0801L72.12 82.6601C72.94 83.9501 72.75 84.3201 72.3 84.6601C71.85 85.0001 71.39 84.8801 70.62 83.6601L69.62 82.0501L70.02 81.7901L69.41 80.7901L67 82.34L67.62 83.34L68.04 83.0801L69.22 84.9201C70.31 86.6201 71.62 86.9201 73.15 85.9201C74.68 84.9201 74.78 83.7501 73.65 81.9801L72.51 80.1901Z" fill="white"/>
<path d="M77.9 80.41C77.7383 80.5249 77.5548 80.6057 77.3609 80.6473C77.1669 80.689 76.9665 80.6907 76.7718 80.6524C76.5771 80.614 76.3924 80.5364 76.2287 80.4242C76.0651 80.312 75.926 80.1677 75.82 80C75.18 79.28 74.97 78.41 75.45 78C75.5568 77.9153 75.6798 77.8534 75.8114 77.818C75.943 77.7827 76.0805 77.7746 76.2153 77.7942C76.3502 77.8139 76.4796 77.8609 76.5956 77.9324C76.7116 78.0039 76.8118 78.0983 76.89 78.21L78.08 77.21L76.41 75.33L75.41 76.25L75.58 76.76C75.3246 76.715 75.0621 76.7325 74.8148 76.8109C74.5676 76.8892 74.3429 77.0261 74.16 77.21C73.642 77.8017 73.3692 78.5687 73.397 79.3547C73.4249 80.1406 73.7514 80.8864 74.31 81.44C74.5697 81.7708 74.896 82.0434 75.2678 82.2399C75.6396 82.4365 76.0486 82.5527 76.4682 82.581C76.8878 82.6093 77.3087 82.549 77.7035 82.4041C78.0983 82.2592 78.4583 82.033 78.76 81.74C79.1323 81.3893 79.4263 80.964 79.6228 80.4918C79.8193 80.0196 79.9137 79.5112 79.9 79L78.37 78.84C78.4268 79.4048 78.2578 79.9692 77.9 80.41V80.41Z" fill="white"/>
<path d="M82.8 75.4601L79.83 73.0001L80.31 72.4301L81.18 73.1501L82.01 72.1501L80.24 70.6801L76.44 75.2601L78.22 76.7301L79.05 75.7301L78.18 75.0001L78.66 74.4201L81.63 76.8701L81.16 77.4301L82.07 78.1801L84.17 75.6401L83.27 74.8901L82.8 75.4601Z" fill="white"/>
<path d="M85.71 71.27L82.47 69.19L82.77 68.73L81.78 68.1L80.19 70.58L81.18 71.21L81.48 70.74L84.72 72.82L84.42 73.29L85.41 73.92L87 71.44L86.01 70.81L85.71 71.27Z" fill="white"/>
<path d="M87.42 63.8101C85.62 62.9501 84.01 63.3001 83.08 65.2601C82.8823 65.6352 82.7663 66.0479 82.7398 66.4711C82.7133 66.8943 82.7767 67.3183 82.926 67.7152C83.0753 68.112 83.3071 68.4727 83.6059 68.7735C83.9048 69.0743 84.2641 69.3083 84.66 69.4601C85.033 69.6855 85.4506 69.827 85.8838 69.8746C86.317 69.9223 86.7553 69.875 87.1684 69.7361C87.5815 69.5971 87.9593 69.3698 88.2756 69.07C88.5919 68.7702 88.8391 68.4051 89 68.0001C89.2151 67.6293 89.345 67.2153 89.3804 66.7881C89.4157 66.3609 89.3556 65.9312 89.2044 65.5301C89.0531 65.129 88.8145 64.7666 88.5059 64.4691C88.1973 64.1716 87.8264 63.9465 87.42 63.8101V63.8101ZM87.73 67.4101C87.49 67.9201 86.64 67.9801 85.6 67.4801C84.56 66.9801 84.06 66.3401 84.3 65.8501C84.54 65.3601 85.5 65.3501 86.46 65.8501C87.42 66.3501 88 66.9101 87.73 67.4101Z" fill="white"/>
<path d="M92.21 58.21L87.34 56.86L87.5 56.3L86.39 55.99L85.68 58.57L86.78 58.87L86.95 58.29L88.98 58.85L85.26 60.08L84.58 62.53L85.69 62.84L85.83 62.34L89.59 63.38L89.45 63.89L90.56 64.19L91.28 61.57L90.18 61.27L90 61.92L87.84 61.33L91.7 60.05L92.21 58.21Z" fill="white"/>
<path d="M82.25 50C82.25 43.6216 80.3586 37.3864 76.8149 32.0829C73.2712 26.7794 68.2345 22.6458 62.3415 20.2049C56.4486 17.764 49.9642 17.1253 43.7083 18.3697C37.4524 19.6141 31.706 22.6856 27.1958 27.1958C22.6856 31.7061 19.614 37.4525 18.3697 43.7084C17.1253 49.9642 17.764 56.4486 20.2049 62.3416C22.6458 68.2345 26.7794 73.2712 32.0829 76.8149C37.3863 80.3586 43.6216 82.25 50 82.25C58.55 82.2394 66.7467 78.8383 72.7925 72.7925C78.8383 66.7468 82.2394 58.55 82.25 50V50ZM50.39 61.55H45.31C44.9691 61.5295 44.638 61.4281 44.3442 61.2542C44.0503 61.0803 43.802 60.8389 43.62 60.55L43.31 59.93L63.17 40L64.44 42.12C64.6054 42.4413 64.6983 42.795 64.7121 43.1561C64.726 43.5172 64.6604 43.877 64.52 44.21L61.34 50.6L50.39 61.55ZM54.52 62.34C54.3451 63.4074 53.7966 64.3778 52.9722 65.078C52.1479 65.7783 51.1016 66.1627 50.02 66.1627C48.9384 66.1627 47.8921 65.7783 47.0678 65.078C46.2434 64.3778 45.6949 63.4074 45.52 62.34H54.52ZM58.35 42.69L55.54 45.58C54.54 46.63 53.41 47.75 52.3 48.86C51.19 49.97 50.07 51.07 49 52.1L46.11 54.91C44.41 56.54 43.26 57.6 43.26 57.6C43.26 57.6 44.33 56.45 45.96 54.75L48.76 51.86L52 48.58C53.12 47.48 54.24 46.38 55.28 45.34L58.17 42.54C59.87 40.91 61.02 39.84 61.02 39.84C61.02 39.84 60 41 58.35 42.69ZM40.35 54.07L37.43 48.24L50 35.72H58.75L40.35 54.07ZM36.61 40.4L38.81 36.74C39.0155 36.451 39.2827 36.2113 39.5923 36.0383C39.9019 35.8653 40.2461 35.7635 40.6 35.74H41.28L36.61 40.4ZM42.35 40.49C43.35 39.49 44.44 38.49 45.24 37.72C46.04 36.95 46.6 36.52 46.6 36.52C46.6 36.52 46.13 37.08 45.4 37.88C44.67 38.68 43.66 39.74 42.63 40.77C41.6 41.8 40.54 42.77 39.74 43.54C38.94 44.31 38.38 44.75 38.38 44.75C38.38 44.75 38.84 44.19 39.58 43.38C40.32 42.57 41.32 41.52 42.35 40.49ZM58.28 19.85V34.93H42.13V19.74C47.4295 18.3572 52.9998 18.3951 58.28 19.85V19.85ZM18.73 50C18.7377 43.3134 20.8851 36.8048 24.8581 31.4266C28.8311 26.0483 34.421 22.0827 40.81 20.11V34.93H40.6C40.1078 34.9553 39.6283 35.095 39.1995 35.338C38.7707 35.5811 38.4045 35.9207 38.13 36.33L34.88 41.74C34.6455 42.1752 34.5136 42.6583 34.4945 43.1523C34.4755 43.6463 34.5697 44.1381 34.77 44.59L42.91 60.86C43.2973 61.5355 43.932 62.0339 44.68 62.25C44.7741 63.3795 45.2264 64.4494 45.9711 65.3039C46.7158 66.1583 47.7139 66.7525 48.82 67V67.51C48.5523 67.8596 48.2396 68.1723 47.89 68.44C47.5617 68.6993 47.2479 68.9764 46.95 69.27C46.5317 69.6863 46.204 70.1846 45.9875 70.7337C45.7711 71.2827 45.6704 71.8705 45.692 72.4603C45.7136 73.0501 45.857 73.629 46.113 74.1607C46.3691 74.6924 46.7324 75.1654 47.18 75.55L42.39 80.34C35.633 78.6357 29.6374 74.7266 25.352 69.2313C21.0667 63.7361 18.7364 56.9686 18.73 50V50ZM50.54 75.5L45.15 80.89C44.53 80.8 43.91 80.67 43.3 80.54L49.44 74.4C49.5491 74.2916 49.6878 74.2178 49.8387 74.1879C49.9896 74.1581 50.1459 74.1735 50.2881 74.2323C50.4302 74.2911 50.5518 74.3906 50.6376 74.5183C50.7233 74.646 50.7694 74.7962 50.77 74.95C50.7713 75.0525 50.7516 75.1542 50.712 75.2488C50.6724 75.3434 50.6139 75.4289 50.54 75.5V75.5ZM50.74 76.5H50.62H50.74ZM46.14 81L50.27 76.88L54.34 81C52.9023 81.2045 51.4521 81.3081 50 81.31C48.7081 81.2878 47.4189 81.1843 46.14 81V81ZM57.14 80.42L52.49 75.77C53.0486 75.3759 53.5039 74.8529 53.8172 74.2454C54.1306 73.6378 54.2928 72.9636 54.29 72.28C54.2629 71.9871 54.1275 71.7148 53.9101 71.5166C53.6927 71.3184 53.4092 71.2085 53.115 71.2085C52.8208 71.2085 52.5373 71.3184 52.3199 71.5166C52.1025 71.7148 51.9671 71.9871 51.94 72.28C51.9406 72.5861 51.8673 72.8877 51.7262 73.1593C51.5852 73.4309 51.3807 73.6644 51.13 73.84C51.13 73.84 51.13 73.84 51.13 73.84C50.8307 73.5551 50.4332 73.3962 50.02 73.3962C49.6068 73.3962 49.2093 73.5551 48.91 73.84V73.84C48.6604 73.6618 48.4574 73.4261 48.3181 73.1528C48.1789 72.8795 48.1075 72.5767 48.11 72.27C48.1065 72.0148 48.1553 71.7617 48.2533 71.5261C48.3513 71.2905 48.4965 71.0774 48.68 70.9C48.92 70.66 49.2 70.42 49.47 70.19C50.29 69.49 51.23 68.7 51.23 67.51V67C52.3371 66.7564 53.3372 66.1648 54.0839 65.312C54.8306 64.4591 55.2848 63.3896 55.38 62.26C56.128 62.0439 56.7627 61.5455 57.15 60.87L65.29 44.6C65.4903 44.1481 65.5845 43.6563 65.5655 43.1623C65.5464 42.6683 65.4145 42.1852 65.18 41.75L61.93 36.34C61.6615 35.9593 61.3128 35.6421 60.9085 35.4106C60.5043 35.1791 60.0542 35.039 59.59 35V20.24C66.0918 22.338 71.7276 26.5076 75.6357 32.1113C79.5438 37.715 81.5092 44.4444 81.2314 51.2706C80.9536 58.0969 78.4479 64.6443 74.0973 69.9119C69.7467 75.1794 63.7908 78.8773 57.14 80.44V80.42Z" fill="white"/>
<path d="M47.45 64.09C47.5355 64.2154 47.6363 64.3296 47.75 64.43C48.0445 64.6988 48.3827 64.9152 48.75 65.07C48.9526 65.1557 49.1638 65.2194 49.38 65.26C49.6005 65.3064 49.8247 65.3331 50.05 65.34C50.2753 65.3343 50.4997 65.3076 50.72 65.26C50.9362 65.2194 51.1474 65.1557 51.35 65.07C51.7173 64.9152 52.0555 64.6988 52.35 64.43C52.4636 64.3258 52.5643 64.2083 52.65 64.08C52.7227 63.9898 52.7863 63.8927 52.84 63.79L52.98 63.53L52.78 63.75C52.606 63.9408 52.4115 64.1118 52.2 64.26C52.072 64.3648 51.9308 64.4522 51.78 64.52C51.6146 64.6064 51.4443 64.6832 51.27 64.75C51.0831 64.8084 50.8927 64.8552 50.7 64.89C50.5005 64.9101 50.2995 64.9101 50.1 64.89C49.8972 64.9108 49.6928 64.9108 49.49 64.89C49.2996 64.8553 49.1123 64.8052 48.93 64.74C48.7543 64.6807 48.5837 64.6071 48.42 64.52C48.2673 64.4498 48.1231 64.3626 47.99 64.26C47.7814 64.1121 47.5902 63.941 47.42 63.75L47.22 63.53L47.36 63.8C47.3837 63.8986 47.4137 63.9954 47.45 64.09V64.09Z" fill="white"/>
<path d="M47.25 44.55L44.57 47.2701C43.73 48.1501 42.94 48.96 42.26 49.66C40.92 51.08 40 52 40 52C40 52 41 51.12 42.38 49.78L44.77 47.4701L47.49 44.7901L50.17 42.0801L52.48 39.68C53.82 38.26 54.7 37.3 54.7 37.3C54.7 37.3 53.7 38.1801 52.33 39.5201L50 41.87L47.25 44.55Z" fill="white"/>
<path d="M60.07 49.7099L57.91 51.7899C57.13 52.5599 56.29 53.3799 55.46 54.2099L53 56.6599C52.23 57.4399 51.53 58.1899 50.92 58.8199C49.76 60.0999 49 60.9999 49 60.9999C49 60.9999 49.88 60.2199 51.15 58.9999C51.78 58.3899 52.53 57.6899 53.32 56.9199L55.77 54.5099L58.15 51.9999L60.23 49.8399C61.44 48.5599 62.23 47.6899 62.23 47.6899C62.23 47.6899 61.35 48.4999 60.07 49.7099Z" fill="white"/>
</svg>
