<svg width="100" height="100" viewBox="0 0 100 100" fill="none" xmlns="http://www.w3.org/2000/svg">
<g clip-path="url(#clip0)">
<path d="M92.5509 35.0601L81.062 25.5301V9.67005C81.062 9.40484 80.9566 9.15048 80.7691 8.96294C80.5816 8.77541 80.3273 8.67005 80.0621 8.67005H68.0632C67.798 8.67005 67.5437 8.77541 67.3561 8.96294C67.1686 9.15048 67.0633 9.40484 67.0633 9.67005V13.9301L50.5748 0.230051C50.3959 0.0829695 50.1715 0.00256348 49.9399 0.00256348C49.7083 0.00256348 49.4838 0.0829695 49.3049 0.230051L7.33879 35.0601C7.18775 35.1932 7.08041 35.3688 7.03081 35.5639C6.98122 35.7591 6.99168 35.9646 7.06083 36.1537C7.12998 36.3428 7.25459 36.5067 7.41837 36.6238C7.58214 36.7409 7.77745 36.8058 7.97873 36.8101H13.3082V74.1401H15.3081V35.82C15.3081 35.5548 15.2027 35.3005 15.0152 35.1129C14.8277 34.9254 14.5733 34.82 14.3081 34.82H10.7085L49.9749 2.28005L67.4432 16.8001C67.5915 16.9204 67.7711 16.9958 67.9609 17.0173C68.1506 17.0388 68.3426 17.0055 68.514 16.9214C68.6855 16.8372 68.8292 16.7058 68.9283 16.5425C69.0274 16.3792 69.0776 16.191 69.0731 16.0001V10.6601H79.0722V26.0001C79.0734 26.1453 79.1062 26.2885 79.1684 26.4197C79.2306 26.551 79.3206 26.6671 79.4321 26.7601L89.1612 34.84H85.5916C85.3264 34.84 85.072 34.9454 84.8845 35.1329C84.697 35.3205 84.5917 35.5748 84.5917 35.84V74.1401H86.5915V36.8101H91.971C92.1714 36.8039 92.3654 36.7375 92.5276 36.6197C92.6899 36.5019 92.813 36.3379 92.8809 36.1492C92.9488 35.9606 92.9584 35.7558 92.9085 35.5616C92.8586 35.3673 92.7514 35.1926 92.6009 35.0601H92.5509Z" fill="white"/>
<path d="M77.1024 12.1501H71.1029C71.0377 12.1488 70.9729 12.1605 70.9123 12.1845C70.8517 12.2085 70.7965 12.2444 70.75 12.29C70.7034 12.3357 70.6664 12.3901 70.6412 12.4502C70.6159 12.5104 70.6029 12.5749 70.603 12.6401V21.3101L50.2548 4.4701C50.1658 4.39784 50.0546 4.3584 49.9399 4.3584C49.8252 4.3584 49.714 4.39784 49.6249 4.4701L15.878 32.4701C15.7992 32.535 15.7432 32.6233 15.718 32.7222C15.6928 32.8211 15.6998 32.9254 15.738 33.0201C15.7728 33.1141 15.8355 33.1951 15.9177 33.2523C16 33.3096 16.0978 33.3402 16.198 33.3401H16.7779V74.1401H17.7778V32.8501C17.7782 32.7589 17.7532 32.6694 17.7055 32.5917C17.6578 32.5139 17.5893 32.451 17.5078 32.4101L49.9749 5.4901L70.7729 22.7501C70.8471 22.808 70.9359 22.8443 71.0294 22.8549C71.123 22.8655 71.2176 22.85 71.3029 22.8101C71.3862 22.7706 71.4567 22.7083 71.5063 22.6304C71.5558 22.5526 71.5824 22.4624 71.5829 22.3701V13.1401H76.6424V27.3901C76.6449 27.4624 76.6621 27.5334 76.6931 27.5987C76.724 27.6641 76.768 27.7224 76.8224 27.7701L82.4219 32.4101C82.3443 32.4549 82.2796 32.5189 82.2341 32.596C82.1885 32.673 82.1637 32.7606 82.1619 32.8501V74.1401H83.1618V33.3401H83.7317C83.8333 33.3408 83.9327 33.3106 84.0166 33.2534C84.1006 33.1962 84.1651 33.1149 84.2017 33.0201C84.2357 32.9241 84.2396 32.8199 84.2128 32.7216C84.186 32.6233 84.1298 32.5356 84.0517 32.4701L77.6423 27.1501V12.6401C77.6427 12.5713 77.6285 12.5032 77.6008 12.4403C77.5732 12.3773 77.5325 12.3209 77.4816 12.2747C77.4307 12.2284 77.3706 12.1935 77.3052 12.172C77.2399 12.1505 77.1708 12.1431 77.1024 12.1501V12.1501Z" fill="white"/>
<path d="M19.5977 81.15C21.4775 81.15 23.0573 80.29 23.0573 78.55C23.0573 77.06 22.4774 75.75 19.4277 75.75H15.1781V77.46H15.918V83.19H15.1781V84.92H19.4077V83.19H18.6078V81.19L19.5977 81.15ZM18.5978 77.45H19.2477C19.4107 77.4313 19.5758 77.4493 19.7309 77.5027C19.886 77.5561 20.0272 77.6436 20.1442 77.7586C20.2612 77.8737 20.3509 78.0134 20.4069 78.1677C20.4628 78.3219 20.4836 78.4867 20.4676 78.65C20.4676 79.34 19.9476 79.74 19.1877 79.74H18.5978V77.45Z" fill="white"/>
<path d="M28.5968 84.92H33.8563V83.2H32.9764L30.6566 75.75H25.6571V77.44H26.197L24.3472 83.2H23.4473V84.92H27.6269V83.2H26.627L26.907 82.31H29.5967L29.8667 83.2H28.5968V84.92ZM27.3569 80.73L28.2169 77.9L29.0768 80.73H27.3569Z" fill="white"/>
<path d="M38.7459 77.48V75.75H34.3863V77.48H35.2162V83.17H34.3863V84.92H38.7459V83.17H37.926V77.48H38.7459Z" fill="white"/>
<path d="M45.7653 84.92H48.585V77.44H49.4549V75.75H45.5053V77.44H46.3952V80.56L43.1855 75.75H39.4158V77.44H40.1758V83.23H39.4058V84.92H43.4255V83.23H42.4256V79.92L45.7653 84.92Z" fill="white"/>
<path d="M58.7941 79.16V75.75H49.9849V79.16H51.9147V77.48H53.0446V83.17H51.9647V84.92H56.8442V83.17H55.7543V77.48H56.8642V79.16H58.7941Z" fill="white"/>
<path d="M63.6736 77.48V75.75H59.324V77.48H60.1439V83.17H59.324V84.92H63.6736V83.17H62.8637V77.48H63.6736Z" fill="white"/>
<path d="M70.7029 84.92H73.5227V77.44H74.3826V75.75H70.433V77.44H71.3329V80.56L68.1132 75.75H64.3435V77.44H65.1035V83.23H64.3335V84.92H68.3632V83.23H67.3532V79.92L70.7029 84.92Z" fill="white"/>
<path d="M58.3441 37.6901C57.0342 37.6901 55.5043 37.5601 53.8745 37.5301C52.2446 37.5001 50.4948 37.4801 48.745 37.4701C46.9951 37.4601 45.2653 37.4701 43.6254 37.5301C41.9856 37.5901 40.4657 37.6501 39.1558 37.6901C37.846 37.7301 36.7561 37.8401 35.9961 37.8801L34.7962 37.9801L35.9961 38.0801C36.7561 38.0801 37.846 38.2201 39.1558 38.2701C40.4657 38.3201 41.9956 38.4001 43.6254 38.4301C45.2553 38.4601 47.0051 38.4301 48.745 38.4901C50.4848 38.5501 52.2346 38.4901 53.8745 38.4301C55.5143 38.3701 57.0342 38.3101 58.3441 38.2701C59.654 38.2301 60.7439 38.1201 61.5038 38.0801L62.7037 37.9801L61.5038 37.8801C60.7439 37.8401 59.654 37.7301 58.3441 37.6901Z" fill="white"/>
<path d="M70.053 45.15V34.72C70.0504 34.2974 69.8806 33.893 69.5809 33.5951C69.2812 33.2972 68.8757 33.13 68.4532 33.13H66.1834V30.13C66.1847 29.9591 66.1517 29.7896 66.0865 29.6316C66.0212 29.4735 65.925 29.3302 65.8034 29.21C65.6814 29.0881 65.5363 28.9918 65.3766 28.9265C65.217 28.8613 65.0459 28.8285 64.8735 28.83H32.6165C32.2708 28.8326 31.9402 28.9718 31.6967 29.2172C31.4532 29.4626 31.3166 29.7943 31.3166 30.14V33.14C30.916 33.1678 30.5408 33.3461 30.2662 33.6392C29.9917 33.9323 29.8383 34.3184 29.8367 34.72C29.8361 35.1213 29.989 35.5075 30.2643 35.7995C30.5395 36.0915 30.916 36.267 31.3166 36.29V39.23C31.3166 39.5757 31.4532 39.9074 31.6967 40.1528C31.9402 40.3982 32.2708 40.5374 32.6165 40.54H64.8835C65.2282 40.54 65.5589 40.403 65.8026 40.1592C66.0464 39.9155 66.1834 39.5848 66.1834 39.24V36.31H66.8733V44L49.4549 49.58C49.1357 49.6834 48.8574 49.8852 48.6598 50.1564C48.4623 50.4276 48.3556 50.7544 48.355 51.09V58.25H47.2951C46.7382 58.25 46.2041 58.4713 45.8103 58.8651C45.4165 59.2589 45.1953 59.7931 45.1953 60.35V73.12H46.1952V60.35C46.1943 60.2092 46.2212 60.0695 46.2744 59.9391C46.3276 59.8087 46.406 59.69 46.5052 59.59C46.6522 59.449 46.8358 59.352 47.0351 59.31L47.2651 65.13L47.5051 59.27H49.1249L49.3449 63.27L49.5749 59.27H51.1947L51.4247 65.13L51.6647 59.27H52.5546C52.841 59.27 53.1157 59.3838 53.3182 59.5863C53.5207 59.7889 53.6345 60.0636 53.6345 60.35V73.12H54.6344V60.35C54.6344 59.7931 54.4132 59.2589 54.0194 58.8651C53.6256 58.4713 53.0915 58.25 52.5346 58.25H51.5247V52.25L68.9731 46.67C69.2894 46.5613 69.5636 46.3562 69.7573 46.0836C69.951 45.811 70.0544 45.4845 70.053 45.15V45.15ZM65.1635 39.23C65.1635 39.3045 65.1348 39.3761 65.0835 39.43C65.0285 39.4797 64.9576 39.5081 64.8835 39.51H32.6165C32.543 39.5075 32.4732 39.4772 32.4213 39.4252C32.3693 39.3733 32.339 39.3035 32.3365 39.23V30.13C32.339 30.0565 32.3693 29.9868 32.4213 29.9348C32.4732 29.8828 32.543 29.8525 32.6165 29.85H64.8835C64.9569 29.8525 65.0267 29.8828 65.0787 29.9348C65.1307 29.9868 65.161 30.0565 65.1635 30.13V39.23ZM63.5036 46.79C62.2037 47.27 60.4439 47.89 58.6841 48.45C56.9242 49.01 55.1244 49.53 53.7845 49.9C52.4446 50.27 51.5247 50.47 51.5247 50.47C51.5247 50.47 52.3846 50.11 53.6945 49.62C55.0044 49.13 56.7542 48.53 58.5241 47.96C60.2939 47.39 62.0737 46.88 63.4236 46.51C64.7735 46.14 65.6734 45.94 65.6734 45.94C65.6734 45.94 64.8135 46.31 63.5036 46.79Z" fill="white"/>
<path d="M50.5848 73.1L50.2448 73H49.9748C49.739 73.0023 49.5054 73.0463 49.2849 73.13H50.6648L50.5848 73.1Z" fill="white"/>
<path d="M47.4251 70.73C47.5151 70.4 47.5851 70.07 47.6951 69.73L48.075 68.73C48.185 68.41 48.375 68.12 48.505 67.8C48.6474 67.5253 48.8043 67.2582 48.975 67C49.269 66.4939 49.6034 66.0123 49.9749 65.56C50.3382 66.008 50.6722 66.479 50.9748 66.97C51.1448 67.27 51.3147 67.56 51.4547 67.87C51.5947 68.18 51.7747 68.48 51.8847 68.8L52.2647 69.8C52.3747 70.12 52.4446 70.46 52.5346 70.8L52.6846 71.29L52.7546 71.8L52.9046 72.8V71.8V71.2L52.8146 70.69C52.7446 70.35 52.6946 70 52.6046 69.69L52.2847 68.69C52.1779 68.3467 52.0442 68.0123 51.8847 67.69C51.7447 67.37 51.5747 67.06 51.4047 66.75C51.0327 66.1312 50.6078 65.5456 50.1349 65C50.1349 65 50.1349 65 50.1349 65C50.1126 64.9777 50.0861 64.9599 50.0569 64.9478C50.0277 64.9357 49.9965 64.9294 49.9649 64.9294C49.9333 64.9294 49.902 64.9357 49.8728 64.9478C49.8437 64.9599 49.8172 64.9777 49.7949 65C49.3624 65.5587 48.9746 66.1505 48.635 66.77C48.465 67.08 48.295 67.39 48.155 67.71C48.0045 68.0362 47.871 68.37 47.7551 68.71L47.4351 69.71C47.3451 70.05 47.2951 70.4 47.2251 70.71L47.1351 71.23V71.75V72.75L47.2851 71.75L47.3551 71.24L47.4251 70.73Z" fill="white"/>
<path d="M80.3521 81.6401H81.152V82.1901C81.028 82.4087 80.8424 82.586 80.6184 82.6998C80.3943 82.8136 80.1417 82.8589 79.8921 82.8301C78.7522 82.8301 78.0923 81.7601 78.0923 80.4201C78.0923 79.0801 78.8222 78.0001 79.8921 78.0001C80.101 78.0076 80.3063 78.0572 80.4956 78.1461C80.6848 78.235 80.8541 78.3612 80.9933 78.5172C81.1325 78.6732 81.2387 78.8558 81.3055 79.0539C81.3723 79.2521 81.3983 79.4617 81.382 79.6701H83.7318V75.7501H81.7319L81.452 76.6901C81.1697 76.3073 80.7926 76.0045 80.3578 75.8116C79.923 75.6188 79.4454 75.5424 78.9722 75.5901C76.9724 75.5901 74.9726 77.5901 74.9726 80.4201C74.9726 83.2501 76.7424 85.0001 79.0322 85.0001C79.4403 85.0194 79.847 84.9383 80.2165 84.764C80.5861 84.5896 80.9073 84.3274 81.152 84.0001L81.552 84.8301H84.1817V81.6401H84.7017V80.2301H80.3521V81.6401Z" fill="white"/>
<path d="M23.5773 93.0801C23.5773 92.6301 24.1072 92.3901 24.4872 92.3901C24.6995 92.3692 24.9138 92.3929 25.1164 92.4597C25.319 92.5266 25.5054 92.635 25.6636 92.7782C25.8218 92.9213 25.9483 93.096 26.035 93.2909C26.1217 93.4858 26.1667 93.6968 26.1671 93.9101H28.5368V90.6201H26.287L26.1571 91.7201C25.8611 91.2706 25.4496 90.909 24.9658 90.6733C24.482 90.4375 23.9437 90.3362 23.4073 90.3801C22.6215 90.3473 21.8542 90.6244 21.2706 91.1519C20.6871 91.6793 20.3341 92.4149 20.2876 93.2001C20.2876 96.5501 25.2871 96.1201 25.2871 97.1401C25.2871 97.6901 24.6272 97.8001 24.1672 97.8001C23.7073 97.8001 22.5174 97.5901 22.5174 96.4801H20.1176V99.7901H22.4074L22.5574 98.7901C22.8983 99.1793 23.3202 99.4892 23.7934 99.6982C24.2667 99.9072 24.7799 100.01 25.2971 100C26.857 100 28.7768 99.2601 28.7768 97.2201C28.7768 94.1201 23.5773 94.4401 23.5773 93.0801Z" fill="white"/>
<path d="M29.4368 92.3501H30.2667V98.0501H29.4368V99.7901H37.346V96.8201H35.0762V98.0501H32.9764V95.9101H35.4762V94.1601H32.9764V92.3501H35.0762V93.5201H37.346V90.6201H29.4368V92.3501Z" fill="white"/>
<path d="M46.3452 97.5601C46.3452 97.8201 46.2352 97.9801 46.0452 97.9801C45.8552 97.9801 45.7252 97.6501 45.7252 97.0901C45.6984 96.6229 45.5086 96.1799 45.1889 95.8383C44.8691 95.4966 44.4397 95.2778 43.9754 95.2201C44.4714 95.1959 44.9407 94.9879 45.2919 94.6367C45.643 94.2855 45.851 93.8162 45.8752 93.3201C45.8752 91.8201 45.2953 90.6201 42.2456 90.6201H37.976V92.3401H38.7059V98.0601H37.976V99.7901H42.2056V98.0601H41.4056V96.0001C42.5755 96.0001 42.7255 96.2901 42.7255 97.4901C42.6766 97.8374 42.7102 98.1912 42.8237 98.523C42.9372 98.8548 43.1273 99.1552 43.3786 99.3997C43.6299 99.6442 43.9354 99.826 44.2701 99.9304C44.6049 100.035 44.9596 100.059 45.3053 100C46.7651 100 47.2251 99.0001 47.2251 97.9001V97.1801H46.3452V97.5601ZM42.0356 94.5601H41.4456V92.3201H42.1056C42.265 92.2994 42.4271 92.3152 42.5795 92.3664C42.7319 92.4175 42.8707 92.5027 42.9853 92.6154C43.1 92.7281 43.1875 92.8655 43.2412 93.017C43.2949 93.1686 43.3135 93.3303 43.2955 93.4901C43.2955 94.1901 42.7955 94.5501 42.0356 94.5501V94.5601Z" fill="white"/>
<path d="M53.9045 92.3201H54.6044L53.4045 95.1801C53.1919 95.7166 53.0475 96.2777 52.9746 96.8501H52.8746C52.7899 96.3081 52.6526 95.7755 52.4646 95.2601L51.3447 92.3201H52.0547V90.6201H47.2251V92.3201H47.975L51.4547 99.7901H53.8745L56.9742 92.3201H57.6141V90.6201H53.9045V92.3201Z" fill="white"/>
<path d="M57.8341 92.3501H58.6641V98.0501H57.8341V99.7901H62.1937V98.0501H61.3838V92.3501H62.1937V90.6201H57.8341V92.3501Z" fill="white"/>
<path d="M67.7032 97.76C66.4633 97.76 65.7934 96.59 65.7934 95.29C65.7934 93.99 66.4033 92.69 67.3533 92.69C68.3032 92.69 68.7031 93.49 68.7431 94.34H71.0929V90.62H69.0331L68.7331 91.35C68.4926 91.0555 68.1864 90.8216 67.8391 90.667C67.4918 90.5125 67.113 90.4416 66.7333 90.46C65.0135 90.46 62.7337 92.27 62.7337 95.29C62.6822 95.9139 62.7656 96.5415 62.9783 97.1302C63.191 97.7189 63.5279 98.2549 63.9662 98.7018C64.4045 99.1487 64.9339 99.4959 65.5183 99.7199C66.1028 99.9439 66.7286 100.039 67.3533 100C68.1127 99.9915 68.8618 99.8223 69.5512 99.5034C70.2405 99.1845 70.8546 98.7233 71.3529 98.15L69.823 96.47C69.5759 96.8178 69.2604 97.1115 68.896 97.3333C68.5315 97.5551 68.1257 97.7003 67.7032 97.76V97.76Z" fill="white"/>
<path d="M71.8528 92.3501H72.6827V98.0501H71.8528V99.7901H79.7721V96.8201H77.5023V98.0501H75.4025V95.9101H77.8923V94.1601H75.4025V92.3501H77.5023V93.5201H79.7721V90.6201H71.8528V92.3501Z" fill="white"/>
</g>
<defs>
<clipPath id="clip0">
<rect width="100" height="100" fill="white"/>
</clipPath>
</defs>
</svg>
