<svg width="100" height="100" viewBox="0 0 100 100" fill="none" xmlns="http://www.w3.org/2000/svg">
<path d="M58.31 54.79C58.4972 54.8554 58.6983 54.8705 58.8931 54.8336C59.088 54.7968 59.2697 54.7093 59.42 54.58L74.42 39.64C74.7125 39.3426 74.8765 38.9421 74.8765 38.525C74.8765 38.1078 74.7125 37.7074 74.42 37.41L69.6 32.64C69.3026 32.3474 68.9022 32.1835 68.485 32.1835C68.0678 32.1835 67.6674 32.3474 67.37 32.64L52.43 47.64C52.3007 47.7903 52.2132 47.972 52.1763 48.1668C52.1395 48.3617 52.1545 48.5628 52.22 48.75C52.2468 48.8617 52.2468 48.9782 52.22 49.09C52.22 49.14 51.96 49.09 51.8 49.09C51.6018 49.0493 51.3971 49.0524 51.2002 49.099C51.0033 49.1456 50.8189 49.2347 50.66 49.36L41.66 40.74L42.18 40.23C42.2223 40.1881 42.2559 40.1383 42.2789 40.0834C42.3018 40.0284 42.3136 39.9695 42.3136 39.91C42.3136 39.8504 42.3018 39.7915 42.2789 39.7366C42.2559 39.6817 42.2223 39.6318 42.18 39.59L41.75 39.15C41.761 38.9669 41.805 38.7873 41.88 38.62C42.2253 38.9385 42.6804 39.1111 43.1501 39.1018C43.6197 39.0925 44.0676 38.9019 44.4 38.57V38.57L47.74 35.23C48.079 34.8841 48.2688 34.4192 48.2688 33.935C48.2688 33.4507 48.079 32.9858 47.74 32.64L43.5 28.3C43.1554 27.9586 42.69 27.7671 42.205 27.7671C41.72 27.7671 41.2546 27.9586 40.91 28.3L37.57 31.64C37.2381 31.9724 37.0475 32.4202 37.0382 32.8899C37.0289 33.3596 37.2015 33.8147 37.52 34.16C37.3526 34.2349 37.1731 34.279 36.99 34.29L36.55 33.86C36.5081 33.8176 36.4583 33.784 36.4034 33.7611C36.3485 33.7382 36.2895 33.7264 36.23 33.7264C36.1705 33.7264 36.1115 33.7382 36.0566 33.7611C36.0017 33.784 35.9518 33.8176 35.91 33.86L29.73 40.05C29.51 40.36 24.41 47.87 25.31 55.39C25.32 55.4996 25.3707 55.6015 25.4522 55.6755C25.5337 55.7496 25.6399 55.7904 25.75 55.79C25.8608 55.7913 25.9683 55.7525 26.0528 55.6809C26.1373 55.6092 26.1931 55.5095 26.21 55.4C26.3251 54.5867 26.5057 53.7841 26.75 53C27.87 51.06 30.27 48.31 35.35 46.22L35.48 46.35C35.5662 46.4361 35.6831 46.4844 35.805 46.4844C35.9269 46.4844 36.0438 46.4361 36.13 46.35L36.28 46.19L47.19 57.5L39.19 65.5L37.37 66.32L34.78 70L37 72.23L40.68 69.65L41.5 67.83L49.5 59.83L60.5 71.28C62.25 73.03 63.69 71.59 64.65 70.64L65.44 69.83L66.25 69.03C67.25 68.03 68.65 66.63 66.9 64.88L57.81 56.13C57.9682 55.8221 58.0242 55.4718 57.97 55.13C57.97 54.98 57.97 54.76 57.97 54.72C57.97 54.68 58.19 54.77 58.31 54.79ZM38.21 32.28L41.55 29L47.16 34.61L43.83 37.9C43.6558 38.0728 43.4204 38.1698 43.175 38.1698C42.9296 38.1698 42.6942 38.0728 42.52 37.9L38.21 33.59C38.0372 33.4158 37.9402 33.1803 37.9402 32.935C37.9402 32.6896 38.0372 32.4542 38.21 32.28V32.28ZM32 45.31C31.69 45.5 31.37 45.78 31 46.05L30.47 46.51C30.2807 46.6627 30.1004 46.8263 29.93 47C29.5751 47.3323 29.2411 47.6863 28.93 48.06L28.74 48.3C28.94 47.95 29.14 47.61 29.35 47.3C29.48 47.16 29.61 47.01 29.73 46.86C29.8897 46.6736 30.0599 46.4967 30.24 46.33L30.76 45.83C31.0789 45.5426 31.4127 45.2723 31.76 45.02C32.05 44.79 32.3 44.61 32.49 44.48L32.78 44.3L33.01 44.69C32.6611 44.8759 32.3238 45.083 32 45.31V45.31ZM35.8 45.31L33.34 42.84C33.0923 42.6004 32.7644 42.4614 32.42 42.45C32.0755 42.4517 31.7453 42.5881 31.5 42.83L31.42 42.92C29.2093 45.4769 27.4568 48.3965 26.24 51.55C26.8528 47.6308 28.2802 43.8836 30.43 40.55L36.23 34.74L41.29 39.8L35.8 45.31ZM36.93 45.47L37.33 45.07L40.59 48.07L37.59 44.8L40.11 42.28L44.48 46.28L40.48 41.91L41.11 41.28L50.16 49.98C50.0493 50.2252 49.9914 50.4909 49.99 50.76C49.9882 51.0149 50.0378 51.2675 50.1357 51.5029C50.2337 51.7383 50.3779 51.9515 50.56 52.13L51.56 53.13L51.47 53.22L50.74 52.51C50.4313 52.1897 50.0969 51.8954 49.74 51.63L48.74 50.83L47.63 50.11C47.2636 49.8703 46.8829 49.6533 46.49 49.46C46.1056 49.2395 45.7082 49.0425 45.3 48.87C44.4993 48.4832 43.6742 48.1492 42.83 47.87C42.7872 47.8601 42.7428 47.8601 42.7 47.87C42.6438 47.8884 42.5968 47.9278 42.5689 47.9799C42.541 48.0321 42.5342 48.093 42.55 48.15C42.8275 48.9948 43.1616 49.82 43.55 50.62C43.6781 51.0508 43.8283 51.4747 44 51.89C44.2091 52.2726 44.4394 52.6432 44.69 53L45.41 54.11L46.17 55.11L36.93 45.47ZM50.54 49.47C50.4555 49.553 50.3785 49.6433 50.31 49.74C50.379 49.6468 50.4559 49.5598 50.54 49.48V49.47ZM47.64 56.64L47.17 56.08C46.8859 55.738 46.6253 55.3772 46.39 55L45.64 54L45 52.85C44.77 52.49 44.59 52.09 44.39 51.71C44.1865 51.3263 44.003 50.9325 43.84 50.53C43.5437 49.8792 43.2866 49.2114 43.07 48.53C43.7514 48.7465 44.4193 49.0037 45.07 49.3C45.4712 49.4622 45.862 49.6493 46.24 49.86C46.63 50.06 47.02 50.23 47.39 50.46L48.52 51.12L49.59 51.86C49.944 52.096 50.2785 52.3602 50.59 52.65L51.37 53.29L47.8 56.86L47.64 56.64ZM41.14 67L40 65.87L52.12 53.79L52.38 54.05L44.06 63L53 54.63L53.26 54.89L41.14 67ZM65.59 68.45L60.5 63.65L65.29 68.75L64.78 69.24L64 70L56.79 63.2L63.64 70.36C63.49 70.5 63.34 70.62 63.21 70.73L59.69 67.5L62.87 71C62.7375 71.0974 62.5869 71.1674 62.4269 71.2056C62.267 71.2439 62.101 71.2496 61.9387 71.2226C61.7765 71.1956 61.6213 71.1363 61.4824 71.0482C61.3435 70.9602 61.2237 70.8451 61.13 70.71L50.13 59.25L49.7 59.68L50.4 58.98C50.6803 59.4735 50.9978 59.9449 51.35 60.39C51.6934 60.8263 52.0677 61.2373 52.47 61.62L52.94 62.04L52.53 61.56C52.28 61.25 51.93 60.8 51.53 60.24C51.1957 59.7512 50.9014 59.2362 50.65 58.7L53.19 56.16C53.7251 56.4135 54.2399 56.7077 54.73 57.04C55.29 57.42 55.73 57.76 56.05 58.04L56.53 58.44L56.11 57.97C55.7249 57.5701 55.3141 57.196 54.88 56.85C54.4333 56.5001 53.9621 56.1826 53.47 55.9L53.82 55.55L54.82 56.55C55.1202 56.8472 55.5092 57.0383 55.928 57.0943C56.3467 57.1502 56.7723 57.0679 57.14 56.86L66.26 65.64C67.18 66.49 66.88 67.12 65.59 68.42V68.45ZM57.76 53.93L54.28 51L57.16 54.44C57.0792 54.695 57.0553 54.9647 57.09 55.23C57.09 55.48 57.09 55.64 57.09 55.71L56.97 55.84C56.8705 55.9403 56.7521 56.02 56.6217 56.0744C56.4912 56.1288 56.3513 56.1568 56.21 56.1568C56.0687 56.1568 55.9288 56.1288 55.7983 56.0744C55.6679 56.02 55.5495 55.9403 55.45 55.84L54.45 54.84L52.13 52.52L51.13 51.52C51.029 51.4207 50.9488 51.3025 50.8938 51.172C50.8389 51.0416 50.8104 50.9015 50.81 50.76C50.8151 50.4749 50.9297 50.2028 51.13 50L51.25 49.88C51.32 49.81 51.49 49.82 51.74 49.88C51.9438 49.9294 52.157 49.9249 52.3586 49.867C52.5602 49.8092 52.7434 49.6999 52.89 49.55C52.9961 49.3973 53.0649 49.2219 53.0909 49.0378C53.117 48.8537 53.0995 48.6661 53.04 48.49C53.04 48.36 52.98 48.19 53.04 48.15L68 33.25C68.133 33.1181 68.3127 33.044 68.5 33.044C68.6873 33.044 68.867 33.1181 69 33.25L73.76 38C73.8873 38.1353 73.9581 38.3142 73.9581 38.5C73.9581 38.6858 73.8873 38.8646 73.76 39L58.81 54C58.81 54 58.61 54 58.47 54C58.2422 53.9206 57.9989 53.8966 57.76 53.93V53.93Z" fill="white"/>
<path d="M60.57 50.0999C60.9815 49.9276 61.3822 49.7305 61.77 49.5099L62.94 48.8299C63.31 48.5699 63.66 48.2899 64.02 48.0199L64.55 47.6099L65.01 47.1399C65.33 46.8299 65.63 46.5099 65.94 46.1399C65.5733 46.3933 65.2133 46.6533 64.86 46.9199L64.34 47.3199L63.77 47.6399C63.39 47.8599 63.03 48.0899 62.65 48.2999L61.48 48.8599C61.1 49.0599 60.68 49.1899 60.28 49.3599C59.8827 49.5285 59.4752 49.6721 59.06 49.7899C58.65 49.9299 58.24 50.0599 57.82 50.1599L57.19 50.3199C57.24 50.0999 57.29 49.8899 57.35 49.6899C57.45 49.2699 57.58 48.8599 57.72 48.4499C57.8362 48.0342 57.9799 47.6267 58.15 47.2299C58.32 46.8299 58.45 46.4099 58.65 46.0299L59.21 44.8599C59.42 44.4799 59.65 44.1099 59.87 43.7299L60.2 43.1599L60.59 42.6399L61.37 41.5699L60.37 42.4899L59.9 42.9699L59.49 43.4899C59.22 43.8499 58.94 44.1999 58.68 44.5699L58.01 45.7299C57.7943 46.1385 57.6105 46.5631 57.46 46.9999C57.2785 47.3989 57.1248 47.8098 57 48.2299C56.84 48.6499 56.7 49.0799 56.58 49.5199C56.46 49.9499 56.36 50.3799 56.27 50.8499C56.26 50.9028 56.26 50.9571 56.27 51.0099C56.2795 51.0643 56.2999 51.1161 56.33 51.1624C56.36 51.2086 56.3991 51.2484 56.4448 51.2792C56.4906 51.31 56.5421 51.3312 56.5962 51.3417C56.6504 51.3521 56.7061 51.3515 56.76 51.3399C57.22 51.2499 57.65 51.1499 58.09 51.0199C58.53 50.8899 58.95 50.7699 59.37 50.6099C59.7795 50.4632 60.1802 50.2929 60.57 50.0999V50.0999Z" fill="white"/>
<path d="M63.31 43C63.3735 43.1449 63.447 43.2852 63.53 43.42C63.62 43.54 63.65 43.58 63.78 43.73C64.2024 44.1263 64.7516 44.3601 65.33 44.39C65.8349 44.4181 66.3404 44.3502 66.82 44.19C67.6357 43.9372 68.3983 43.5373 69.07 43.01C69.5341 42.6519 69.9657 42.2537 70.36 41.82L70.78 41.31L70.24 41.69C69.7804 42.0245 69.2994 42.3285 68.8 42.6C68.1194 42.9845 67.3893 43.2739 66.63 43.46C66.258 43.5918 65.8595 43.6306 65.469 43.5731C65.0786 43.5156 64.7082 43.3635 64.39 43.13C64.39 43.13 64.24 42.96 64.2 42.89C64.16 42.82 64.12 42.76 64.09 42.68C64.0209 42.4968 63.9772 42.305 63.96 42.11C63.9206 41.7012 63.951 41.2886 64.05 40.89C64.2387 40.1316 64.5279 39.4018 64.91 38.72C65.1855 38.2197 65.4893 37.7356 65.82 37.27L66.21 36.74C66.21 36.74 66.02 36.88 65.7 37.16C65.2628 37.5538 64.8613 37.9855 64.5 38.45C63.9785 39.1218 63.5791 39.88 63.32 40.69C63.1635 41.1737 63.0991 41.6825 63.13 42.19C63.1478 42.4677 63.2085 42.7409 63.31 43Z" fill="white"/>
<path d="M67.6 38.5399C67.7557 38.827 67.9436 39.0954 68.16 39.3399C68.4092 39.5965 68.6917 39.8185 69 39.9999C69.2921 40.1651 69.6099 40.28 69.94 40.3399C70.2487 40.3794 70.5612 40.3794 70.87 40.3399C71.1454 40.315 71.4152 40.2475 71.67 40.1399C71.7832 40.1012 71.8935 40.0544 72 39.9999L72.28 39.8099C72.4273 39.7262 72.5564 39.614 72.66 39.4799L72.94 39.1399L72.56 39.3399C72.42 39.4247 72.2684 39.4887 72.11 39.5299C71.9273 39.6023 71.7355 39.6494 71.54 39.6699C71.3141 39.6957 71.0859 39.6957 70.86 39.6699C70.6097 39.651 70.3618 39.6074 70.12 39.5399C69.8704 39.4562 69.6294 39.3491 69.4 39.2199C69.1843 39.0838 68.9803 38.9299 68.79 38.7599C68.5815 38.5525 68.4031 38.3169 68.26 38.0599C68.1483 37.8507 68.061 37.6292 68 37.3999C67.9285 37.1591 67.8849 36.9108 67.87 36.6599C67.8394 36.4343 67.8394 36.2056 67.87 35.9799C67.8874 35.7817 67.9311 35.5866 68 35.3999C68.0387 35.2454 68.0993 35.0973 68.18 34.9599L68.38 34.5699L68.05 34.8599C67.9125 34.9627 67.7969 35.0919 67.71 35.2399L67.52 35.5099C67.4707 35.6175 67.4273 35.7277 67.39 35.8399C67.2757 36.0924 67.2079 36.3634 67.19 36.6399C67.1132 37.2975 67.2462 37.9625 67.57 38.5399H67.6Z" fill="white"/>
<path d="M36.07 35.3101L30.73 40.8101C30.4 41.3401 30.09 41.8901 29.8 42.4401C29.51 42.9901 29.24 43.5501 28.98 44.1101L28.59 44.9601C28.46 45.2401 28.37 45.5401 28.26 45.8301L27.62 47.5801L28.31 45.8501C28.43 45.5601 28.53 45.2701 28.67 44.9901L29.09 44.1601C29.36 43.6101 29.63 43.0501 29.95 42.5201C30.27 41.9901 30.57 41.4501 30.95 40.9401L36.44 35.6201L36.07 35.3101Z" fill="white"/>
<path d="M38.38 33.3499C38.48 33.4699 38.51 33.49 38.57 33.57L38.94 33.95C39.42 34.47 39.94 35.01 40.49 35.54C41.04 36.07 41.57 36.6099 42.09 37.0999L42.47 37.46C42.6004 37.5957 42.7484 37.7134 42.91 37.81C43.0152 37.8347 43.1248 37.8347 43.23 37.81C43.3316 37.7995 43.4284 37.7615 43.51 37.7C43.6325 37.6032 43.7433 37.4925 43.84 37.37C44.61 36.5699 45.1 36 45.1 36C45.1 36 44.51 36.48 43.66 37.25C43.45 37.46 43.24 37.65 43.05 37.52C42.9329 37.4279 42.8257 37.324 42.73 37.21L42.37 36.83C41.88 36.31 41.37 35.83 40.81 35.23L39.22 33.6699L38.84 33.31C38.78 33.31 38.69 33.1699 38.67 33.1699C38.65 33.1699 38.55 33.02 38.57 32.99C38.5611 32.941 38.5627 32.8907 38.5748 32.8424C38.5869 32.7941 38.6091 32.749 38.64 32.7099C38.7467 32.6033 38.8467 32.4933 38.94 32.38C39.71 31.54 40.2 30.95 40.2 30.95C40.2 30.95 39.61 31.44 38.76 32.2L38.44 32.5099C38.3603 32.5834 38.3016 32.6768 38.2699 32.7805C38.2383 32.8842 38.2349 32.9945 38.26 33.0999C38.2829 33.1905 38.3237 33.2755 38.38 33.3499V33.3499Z" fill="white"/>
<path d="M57 59.47C56.7401 59.3956 56.4702 59.3618 56.2 59.37C56.0553 59.371 55.9111 59.3878 55.77 59.42C55.6172 59.4386 55.4685 59.4826 55.33 59.55C55.0563 59.6651 54.803 59.8238 54.58 60.02C54.3574 60.2492 54.1839 60.5214 54.07 60.82C53.9983 60.9532 53.9541 61.0994 53.94 61.25C53.9043 61.3904 53.8875 61.535 53.89 61.68C53.8819 61.9502 53.9156 62.2201 53.99 62.48C54.0471 62.709 54.131 62.9306 54.24 63.14C54.3256 63.3223 54.433 63.4936 54.56 63.65C54.6447 63.773 54.7456 63.884 54.86 63.98L55.14 64.25C55.14 64.25 55.07 64.13 54.93 63.93C54.8367 63.8142 54.7593 63.6864 54.7 63.55C54.64 63.39 54.53 63.24 54.47 63.04C54.3967 62.8362 54.3464 62.6249 54.32 62.41C54.2894 62.1743 54.2894 61.9356 54.32 61.7C54.3254 61.578 54.3455 61.4571 54.38 61.34C54.3979 61.2168 54.4386 61.0982 54.5 60.99C54.593 60.7652 54.725 60.5587 54.89 60.38C55.0787 60.1982 55.299 60.0525 55.54 59.95C55.6489 59.892 55.7676 59.8547 55.89 59.84C56.0065 59.8014 56.1275 59.7779 56.25 59.77C56.4857 59.7398 56.7243 59.7398 56.96 59.77C57.176 59.796 57.3878 59.8498 57.59 59.93C57.7668 59.9906 57.9375 60.0676 58.1 60.16C58.2359 60.2161 58.3636 60.2901 58.48 60.38L58.8 60.59L58.53 60.31C58.4277 60.1981 58.3137 60.0975 58.19 60.01C58.0364 59.8841 57.8686 59.7767 57.69 59.69C57.4697 59.589 57.2381 59.5152 57 59.47V59.47Z" fill="white"/>
<path d="M26.75 20.65H25.94C25.94 19.74 25.94 19.28 25.94 18.36C27.11 18.23 27.26 18.55 27.28 19.94C27.28 21.73 28.14 22.78 29.88 22.78C31.36 22.78 31.81 21.49 31.8 20.1C31.8 19.74 31.8 19.55 31.8 19.18L30.91 19.24V19.78C30.91 20.11 30.81 20.31 30.61 20.32C30.41 20.33 30.29 19.93 30.28 19.23C30.28 18.06 28.52 17.14 28.52 17.12C28.52 17.1 30.43 15.8 30.42 14.53C30.42 12.66 29.78 11.24 26.73 12.06C25.02 12.51 24.17 12.76 22.49 13.31V15.1L23.22 14.91C23.22 17.29 23.22 18.48 23.22 20.86H22.48V22.62H26.78C26.76 21.84 26.76 21.45 26.75 20.65ZM25.9 14.24L26.56 14.09C27.32 13.92 27.76 14.3 27.77 15.21C27.7921 15.5687 27.6724 15.9216 27.4367 16.1929C27.201 16.4641 26.8682 16.6319 26.51 16.66L25.92 16.75C25.91 15.75 25.91 15.24 25.9 14.24V14.24Z" fill="white"/>
<path d="M33 12.92C33 15.92 33.05 17.37 33.08 20.34H32.24C32.24 21.23 32.24 21.68 32.24 22.58H40.24C40.24 20.9 40.24 20.06 40.24 18.38L38 18.49C38 19.17 38 19.49 38 20.18L35.87 20.25C35.87 19.09 35.87 18.51 35.87 17.35C36.87 17.28 37.39 17.25 38.4 17.2C38.4 16.2 38.4 15.74 38.4 14.77C37.4 14.85 36.88 14.89 35.86 14.99C35.86 13.99 35.86 13.52 35.86 12.54C36.72 12.43 37.14 12.38 38 12.29C38 12.94 38 13.29 38 13.91C38.93 13.83 39.39 13.79 40.32 13.73C40.32 12.08 40.32 11.26 40.32 9.62C37.6131 9.87002 34.9223 10.2706 32.26 10.82C32.26 11.71 32.26 12.16 32.26 13.05L33 12.92Z" fill="white"/>
<path d="M41.66 12L41.71 20.17H40.96C40.96 21.17 40.96 21.64 40.96 22.63H45.25C45.25 21.63 45.25 21.12 45.25 20.12H44.44C44.44 18.95 44.44 18.36 44.44 17.18H45.44C45.9398 17.1965 46.4373 17.1047 46.8984 16.9111C47.3595 16.7174 47.7733 16.4263 48.1114 16.0578C48.4495 15.6893 48.7039 15.2521 48.8573 14.7761C49.0107 14.3001 49.0594 13.7965 49 13.3C49 11.12 48.4 9.13997 45.28 9.29997C43.53 9.36997 42.66 9.42997 40.91 9.58997C40.91 10.59 40.91 11.05 40.91 12.03L41.66 12ZM45.09 11.8C45.87 11.8 46.34 12.38 46.34 13.51C46.34 14.64 45.81 15.1 45.03 15.12H44.43C44.43 13.79 44.43 13.12 44.43 11.81L45.09 11.8Z" fill="white"/>
<path d="M53.62 20.11H52.62C52.74 19.6 52.79 19.34 52.91 18.82L55.65 18.87C55.75 19.39 55.81 19.64 55.92 20.16H54.65C54.65 21.16 54.65 21.65 54.65 22.64H59.99C59.99 21.7 59.99 21.23 59.99 20.28H59.06C58.12 16 57.66 13.9 56.74 9.58C54.67 9.39 53.64 9.32 51.57 9.25C51.57 10.25 51.57 10.73 51.57 11.71H52.12C51.38 15.03 51.02 16.71 50.29 20.07H49.39C49.39 21.07 49.39 21.58 49.39 22.58H53.63C53.62 21.6 53.62 21.1 53.62 20.11ZM54.26 12.48C54.61 14.13 54.78 14.96 55.12 16.6L53.37 16.54C53.73 14.91 53.9 14.1 54.26 12.48Z" fill="white"/>
<path d="M64.92 20.37H64.09C64.09 17.37 64.09 15.9 64.17 12.92L65 13C65 12.11 65 11.66 65 10.77C63.23 10.42 62.35 10.27 60.57 10.02C60.57 11.02 60.57 11.44 60.57 12.39L61.41 12.49C61.41 15.58 61.41 17.13 61.33 20.22H60.49C60.49 21.22 60.49 21.65 60.49 22.61H64.9C64.91 21.72 64.91 21.27 64.92 20.37Z" fill="white"/>
<path d="M69.88 20.61H69.07C69.07 19.61 69.07 19.16 69.07 18.19C70.25 18.31 70.39 18.66 70.38 20.04C70.38 21.82 71.2 22.86 72.94 22.86C74.42 22.86 74.89 21.86 74.89 20.73V20L74 19.87V20.33C74 20.6 73.9 20.76 73.7 20.75C73.5 20.74 73.38 20.38 73.38 19.75C73.38 18.75 71.66 17.53 71.66 17.52C71.66 17.51 73.58 16.87 73.58 15.78C73.58 14.2 73.01 12.69 69.96 11.89C68.25 11.45 67.39 11.25 65.66 10.89C65.66 11.77 65.66 12.21 65.66 13.08L66.4 13.21C66.4 16.09 66.4 17.53 66.33 20.41H65.59C65.59 21.29 65.59 21.74 65.59 22.62H69.89C69.87 21.83 69.87 21.42 69.88 20.61ZM69.13 13.73L69.79 13.87C70.1582 13.927 70.49 14.1245 70.7156 14.421C70.9413 14.7175 71.0432 15.0899 71 15.46C71 16.26 70.49 16.6 69.72 16.46L69.13 16.37C69.12 15.33 69.12 14.8 69.13 13.73Z" fill="white"/>
<path d="M23.25 79.4201C23.261 79.3115 23.2939 79.2063 23.3466 79.1108C23.3993 79.0152 23.4707 78.9313 23.5566 78.8641C23.6426 78.7969 23.7412 78.7477 23.8466 78.7195C23.952 78.6913 24.062 78.6847 24.17 78.7001C24.4075 78.71 24.6405 78.7679 24.855 78.8704C25.0695 78.9728 25.2611 79.1176 25.4181 79.2961C25.5751 79.4746 25.6943 79.6831 25.7685 79.9089C25.8427 80.1347 25.8705 80.3732 25.85 80.6101L28.25 80.8201L28.3 76.6801H26L25.86 78.0001C25.6169 77.4824 25.2212 77.0516 24.726 76.7655C24.2308 76.4795 23.6599 76.352 23.09 76.4001C22.6927 76.3772 22.2948 76.4335 21.9195 76.5659C21.5442 76.6983 21.1989 76.904 20.9039 77.1711C20.6089 77.4383 20.37 77.7614 20.201 78.1217C20.0321 78.4821 19.9366 78.8724 19.92 79.2701C19.92 82.6901 24.98 83.1301 24.97 84.3301C24.97 84.9801 24.29 84.9701 23.84 84.8701C23.4048 84.7944 23.0069 84.5767 22.7084 84.2511C22.4099 83.9255 22.2276 83.5102 22.19 83.0701L19.75 82.5901V85.9401C20.66 86.2301 21.12 86.3701 22.03 86.6401L22.18 85.5801C22.8011 86.5874 23.7739 87.3286 24.91 87.6601C26.48 88.0801 28.42 87.5901 28.44 85.0101C28.49 81.1101 23.24 80.9401 23.25 79.4201Z" fill="white"/>
<path d="M29.18 78.9001H30.02C30.02 81.9001 29.97 83.3301 29.93 86.2801L29.1 86.1401C29.1 87.0301 29.1 87.4801 29.1 88.3701C32.3 89.0501 33.91 89.3701 37.1 89.7501C37.1 88.0601 37.1 87.2101 37.1 85.5201C36.18 85.4401 35.71 85.4001 34.79 85.3001C34.79 85.9801 34.79 86.3001 34.79 87.0001L32.66 86.7101C32.66 85.5501 32.66 84.9701 32.66 83.8101C33.66 83.9201 34.18 83.9701 35.19 84.0601C35.19 83.0601 35.19 82.6001 35.19 81.6201L32.65 81.4601C32.65 80.4601 32.65 79.9901 32.65 79.0101L34.79 79.0801C34.79 79.7301 34.79 80.0801 34.79 80.7001L37.09 80.8201V76.6801H29.09C29.19 77.5701 29.19 78.0001 29.18 78.9001Z" fill="white"/>
<path d="M46.33 87.2C46.33 87.59 46.22 87.83 46.02 87.82C45.82 87.81 45.7 87.32 45.7 86.47C45.7 85.05 43.96 83.64 43.96 83.62C43.96 83.6 45.9 82.35 45.91 80.81C45.91 78.56 45.32 76.74 42.23 76.73H37.9C37.9 77.73 37.9 78.21 37.9 79.2H38.65C38.65 82.5 38.6 84.2 38.57 87.45L37.82 87.38C37.82 88.38 37.82 88.87 37.82 89.86C39.55 90.08 40.42 90.16 42.16 90.3C42.16 89.3 42.16 88.76 42.16 87.74L41.35 87.68C41.35 86.49 41.35 85.89 41.35 84.68C42.54 84.74 42.68 85.17 42.67 86.94C42.67 89.22 43.5 90.64 45.26 90.73C46.76 90.8 47.26 89.28 47.26 87.63V86.56H46.36L46.33 87.2ZM42 82.55H41.4C41.4 81.24 41.4 80.55 41.4 79.27H42C42.78 79.27 43.21 79.87 43.21 81.02C43.21 82.17 42.73 82.58 42 82.55Z" fill="white"/>
<path d="M54 76.74V79.31H54.71L53.51 83.63C53.2766 84.4538 53.1193 85.2974 53.04 86.15H53C52.9143 85.3447 52.774 84.5462 52.58 83.76L51.43 79.32H52.15V76.74H47.25V79.32H48C49.41 83.84 50.12 86.12 51.56 90.61C52.56 90.61 53.04 90.61 54.04 90.55C55.32 86 55.95 83.73 57.2 79.27H57.86C57.86 78.27 57.86 77.75 57.86 76.74H54Z" fill="white"/>
<path d="M61.71 87.42C61.71 84.14 61.71 82.5 61.64 79.22H62.47C62.47 78.22 62.47 77.73 62.47 76.74H58C58 77.74 58 78.28 58 79.31H58.84C58.84 82.66 58.84 84.31 58.9 87.69L58.05 87.75C58.05 88.75 58.05 89.3 58.05 90.33C59.84 90.18 60.73 90.09 62.51 89.86C62.51 88.86 62.51 88.37 62.51 87.37L61.71 87.42Z" fill="white"/>
<path d="M68.15 86.2399C66.88 86.4299 66.15 84.9099 66.15 83.1199C66.15 81.1199 66.74 79.5299 67.7 79.4899C68.66 79.4499 69.09 80.4899 69.14 81.5999L71.52 81.3899L71.47 76.6799H69.37C69.25 77.0699 69.2 77.2599 69.08 77.6799C68.8695 77.3154 68.5661 77.0131 68.2007 76.8041C67.8353 76.595 67.421 76.4866 67 76.4899C65.25 76.4899 63 79.0699 63 83.3599C63 87.6499 65 89.8299 67.78 89.3599C68.6246 89.1284 69.4139 88.7293 70.1011 88.1864C70.7883 87.6435 71.3592 86.968 71.78 86.1999C71.15 85.4699 70.78 85.0899 70.2 84.3099C70.12 84.4399 69.27 86.0799 68.15 86.2399Z" fill="white"/>
<path d="M78 79.8L80.29 79.57V76.63L72.29 76.68C72.29 77.54 72.29 77.97 72.29 78.84H73.13C73.13 81.63 73.13 83.03 73.2 85.84L72.37 86C72.37 86.87 72.37 87.3 72.37 88.17C75.041 87.5824 77.681 86.8615 80.28 86.01V83.01L78 83.4V84.73C77.16 84.92 76.75 85.02 75.9 85.2C75.9 84.2 75.9 83.72 75.9 82.74L78.41 82.33C78.41 81.58 78.41 81.2 78.41 80.45L75.9 80.73C75.9 79.9 75.9 79.48 75.9 78.65L78 78.53C78 79 78 79.29 78 79.8Z" fill="white"/>
<path d="M50 100C36.33 100 23 96 10.46 88.2C10.3206 88.1106 10.2056 87.9879 10.1253 87.843C10.045 87.6982 10.0019 87.5356 10 87.37V12.63C10.0019 12.4644 10.045 12.3018 10.1253 12.157C10.2056 12.0121 10.3206 11.8894 10.46 11.8C23 4 36.33 0 50 0C63.67 0 77 4 89.56 11.8C89.7013 11.8883 89.8183 12.0104 89.9003 12.1554C89.9824 12.3003 90.027 12.4635 90.03 12.63V87.37C90.027 87.5365 89.9824 87.6997 89.9003 87.8447C89.8183 87.9896 89.7013 88.1117 89.56 88.2C77 96 63.68 100 50 100ZM12 86.82C24.08 94.27 36.87 98 50 98C63.13 98 75.93 94.23 88.05 86.78V13.18C75.94 5.73 63.14 2 50 2C36.86 2 24.08 5.73 12 13.18V86.82Z" fill="white"/>
<path d="M50 96.5701C37.1647 96.4767 24.6001 92.8695 13.67 86.1401C13.5971 86.0968 13.5366 86.0353 13.4946 85.9617C13.4525 85.8881 13.4302 85.8048 13.43 85.7201V14.2801C13.4302 14.1953 13.4525 14.112 13.4946 14.0384C13.5366 13.9648 13.5971 13.9033 13.67 13.8601C24.6001 7.13059 37.1647 3.52342 50 3.43005C62.842 3.52079 75.4136 7.12802 86.35 13.8601C86.4229 13.9033 86.4834 13.9648 86.5254 14.0384C86.5675 14.112 86.5897 14.1953 86.59 14.2801V85.7201C86.5897 85.8048 86.5675 85.8881 86.5254 85.9617C86.4834 86.0353 86.4229 86.0968 86.35 86.1401C75.4136 92.8721 62.842 96.4793 50 96.5701V96.5701ZM14.41 85.4401C25.1338 91.9872 37.4359 95.4956 50 95.59C62.5675 95.4974 74.8732 91.9889 85.6 85.4401V14.5601C74.8726 8.0126 62.5673 4.5042 50 4.41005C37.4359 4.5045 25.1338 8.01295 14.41 14.5601V85.4401Z" fill="white"/>
</svg>
