<svg width="100" height="100" viewBox="0 0 100 100" fill="none" xmlns="http://www.w3.org/2000/svg">
<path d="M36.55 32.85L36.75 33.07L37.12 33.46C37.63 34 38.18 34.55 38.73 35.11C39.28 35.67 39.84 36.21 40.37 36.71L40.76 37.08C40.8918 37.2211 41.0434 37.3423 41.21 37.44C41.3146 37.4823 41.4276 37.4994 41.54 37.49C41.642 37.4743 41.7383 37.433 41.82 37.37C41.9485 37.2695 42.0658 37.1555 42.17 37.03C42.96 36.16 43.46 35.56 43.46 35.56C43.46 35.56 42.85 36.06 41.98 36.85C41.77 37.07 41.55 37.26 41.35 37.13C41.2334 37.0338 41.1262 36.9266 41.03 36.81L40.66 36.42L39.06 34.78C38.5 34.23 37.95 33.68 37.41 33.17L37 32.8L36.83 32.65C36.83 32.59 36.71 32.5 36.73 32.47C36.7209 32.4194 36.7224 32.3676 36.7345 32.3176C36.7465 32.2677 36.7688 32.2208 36.8 32.18L37.11 31.85C37.9 30.98 38.4 30.37 38.4 30.37C38.4 30.37 37.8 30.87 36.93 31.66L36.59 31.97C36.5102 32.0477 36.4518 32.1447 36.4203 32.2515C36.3888 32.3583 36.3852 32.4714 36.41 32.58C36.438 32.6785 36.4856 32.7703 36.55 32.85V32.85Z" fill="white"/>
<path d="M34.18 34.86L28.69 40.52C28.34 41.07 28.03 41.62 27.69 42.19C27.35 42.76 27.12 43.34 26.85 43.92L26.45 44.79C26.32 45.08 26.22 45.38 26.11 45.68L25.45 47.48L26.16 45.7C26.29 45.41 26.39 45.1 26.53 44.82L27 44C27.28 43.43 27.55 42.86 27.88 42.32C28.21 41.78 28.52 41.22 28.88 40.7L34.53 35.22L34.18 34.86Z" fill="white"/>
<path d="M49.33 55.3199C49.1898 55.344 49.0546 55.3913 48.93 55.4599C48.8081 55.5179 48.6966 55.5956 48.6 55.6899C48.4289 55.8942 48.3044 56.1333 48.2353 56.3907C48.1662 56.6481 48.1542 56.9174 48.2 57.1799C48.2646 57.6483 48.3924 58.1058 48.58 58.5399C48.9247 59.2826 49.3578 59.981 49.87 60.6199C50.2169 61.0657 50.5945 61.4867 51 61.8799L51.48 62.3199C51.48 62.3199 51.33 62.1299 51.06 61.8199C50.79 61.5099 50.45 61.0399 50.06 60.4599C49.6315 59.8111 49.276 59.1169 49 58.3899C48.8308 57.9912 48.7197 57.5702 48.67 57.1399C48.6377 56.9426 48.6478 56.7407 48.6995 56.5476C48.7513 56.3545 48.8435 56.1747 48.97 56.0199C48.97 56.0199 49.15 55.8599 49.21 55.8499C49.2933 55.8109 49.3804 55.7807 49.47 55.7599C49.6751 55.7244 49.8849 55.7244 50.09 55.7599C50.5198 55.8061 50.9408 55.9139 51.34 56.0799C52.0667 56.3811 52.7603 56.7564 53.41 57.1999C53.99 57.5899 54.41 57.9499 54.77 58.1999L55.26 58.6099L54.83 58.1299C54.4225 57.7207 53.9846 57.343 53.52 56.9999C52.8883 56.4854 52.1925 56.0552 51.45 55.7199C51.0174 55.5261 50.5595 55.3948 50.09 55.3299C49.8387 55.2871 49.5823 55.2837 49.33 55.3199Z" fill="white"/>
<path d="M54.44 59.65C54.2827 59.6688 54.1302 59.7163 53.99 59.79C53.7077 59.9047 53.4473 60.067 53.22 60.27C52.9909 60.5056 52.8108 60.7843 52.69 61.09C52.618 61.2266 52.5739 61.3761 52.56 61.5299C52.5242 61.6738 52.5074 61.8217 52.51 61.97C52.5012 62.2468 52.535 62.5233 52.61 62.79C52.6706 63.0289 52.7578 63.2604 52.87 63.4799C52.9552 63.6678 53.0663 63.8429 53.2 64C53.2876 64.1237 53.3881 64.2377 53.5 64.3399L53.8 64.61L53.57 64.2799C53.4788 64.1627 53.4016 64.0351 53.34 63.9C53.2519 63.7285 53.175 63.5514 53.11 63.3699C53.0299 63.1601 52.9729 62.9422 52.94 62.72C52.9096 62.4776 52.9096 62.2323 52.94 61.99C52.9461 61.8648 52.9663 61.7407 53 61.6199C53.0238 61.4938 53.0677 61.3722 53.13 61.2599C53.2291 61.0323 53.3605 60.8202 53.52 60.63C53.7215 60.4476 53.9511 60.299 54.2 60.1899C54.3103 60.1356 54.4284 60.0985 54.55 60.08C54.6636 60.0411 54.7809 60.0143 54.9 60C55.1424 59.9696 55.3876 59.9696 55.63 60C55.8527 60.0248 56.0712 60.0786 56.28 60.16C56.4635 60.2239 56.6409 60.3043 56.81 60.4C56.9483 60.4554 57.0767 60.5331 57.19 60.63L57.52 60.8499L57.25 60.56C57.1471 60.4421 57.0294 60.3379 56.9 60.25C56.7441 60.1195 56.5728 60.0087 56.39 59.9199C56.1704 59.8078 55.939 59.7206 55.7 59.66C55.4334 59.5849 55.1568 59.5512 54.88 59.56C54.7299 59.5698 54.5819 59.6 54.44 59.65Z" fill="white"/>
<path d="M37 59.2899C38.25 58.0899 39.56 56.7799 40.87 55.4799L42.21 54.1299L41.66 53.5499L40.27 54.8999C38.97 56.2199 37.67 57.5299 36.47 58.7799C35.27 60.0299 34.16 61.2099 33.21 62.2199C32.26 63.2299 31.5 64.0999 31 64.6899L30.15 65.6899L31.15 64.8399C31.75 64.2999 32.62 63.5399 33.63 62.5799C34.64 61.6199 35.73 60.4899 37 59.2899Z" fill="white"/>
<path d="M32.82 72.56L37 73C37.4145 73.0283 37.8238 72.8953 38.1425 72.6288C38.4612 72.3623 38.6645 71.9829 38.71 71.57L39.04 67.35C39.0649 67.1556 39.1621 66.9777 39.3122 66.8517C39.4622 66.7257 39.6542 66.6609 39.85 66.67L44.06 67.08C44.4745 67.1083 44.8838 66.9753 45.2025 66.7088C45.5212 66.4423 45.7245 66.0629 45.77 65.65L46.1 61.43C46.1227 61.2355 46.2196 61.0572 46.3705 60.9324C46.5214 60.8075 46.7147 60.7458 46.91 60.76L48.67 60.93L59.25 71.93C61.04 73.72 62.53 72.24 63.51 71.26L64.33 70.43L65.15 69.61C66.15 68.61 67.62 67.14 65.82 65.34L54.11 54L55.05 54.91L58.19 55.21C58.4196 55.2359 58.652 55.2097 58.8701 55.1336C59.0882 55.0574 59.2864 54.9331 59.45 54.77C59.7117 54.4991 59.8708 54.1455 59.9 53.77L60.09 51.41L63.42 53.15C63.7166 53.286 64.0468 53.3311 64.369 53.2795C64.6911 53.2278 64.9908 53.0819 65.23 52.86L76.67 41.44C76.8807 41.225 76.9987 40.936 76.9987 40.635C76.9987 40.334 76.8807 40.045 76.67 39.83L64.2 27.36C63.985 27.1493 63.696 27.0313 63.395 27.0312C63.094 27.0313 62.805 27.1493 62.59 27.36L51.16 38.8C50.9834 38.9919 50.8622 39.2281 50.8093 39.4835C50.7565 39.7388 50.774 40.0038 50.86 40.25C50.7056 40.3282 50.564 40.4293 50.44 40.55L45.44 45.6L40 40.42L40.53 39.89C40.6167 39.802 40.6653 39.6835 40.6653 39.56C40.6653 39.4365 40.6167 39.3179 40.53 39.23L40.08 38.78C40.091 38.5926 40.1386 38.4091 40.22 38.24C40.5758 38.5653 41.043 38.7416 41.525 38.7323C42.007 38.723 42.467 38.5288 42.81 38.19V38.19L46.24 34.75C46.4172 34.5768 46.558 34.3699 46.6541 34.1415C46.7502 33.9131 46.7997 33.6678 46.7997 33.42C46.7997 33.1722 46.7502 32.9269 46.6541 32.6985C46.558 32.4701 46.4172 32.2632 46.24 32.09L41.81 27.66C41.6354 27.4852 41.4281 27.3466 41.1999 27.252C40.9716 27.1574 40.727 27.1087 40.48 27.1087C40.233 27.1087 39.9883 27.1574 39.7601 27.252C39.5319 27.3466 39.3246 27.4852 39.15 27.66L35.72 31.09C35.3798 31.4316 35.1838 31.891 35.1727 32.373C35.1615 32.855 35.336 33.3229 35.66 33.68C35.4912 33.7624 35.3076 33.81 35.12 33.82L34.67 33.37C34.582 33.2833 34.4635 33.2347 34.34 33.2347C34.2165 33.2347 34.0979 33.2833 34.01 33.37L27.66 39.73C27.44 40.06 22.19 47.78 23.11 55.51C23.1244 55.6223 23.1789 55.7256 23.2634 55.8009C23.3479 55.8762 23.4568 55.9185 23.57 55.92C23.6849 55.9209 23.7962 55.8797 23.8828 55.8042C23.9694 55.7286 24.0253 55.624 24.04 55.51C24.1618 54.661 24.3456 53.8221 24.59 53C25.75 51 28.22 48.17 33.44 46L33.57 46.14C33.6579 46.2267 33.7765 46.2753 33.9 46.2753C34.0235 46.2753 34.142 46.2267 34.23 46.14L34.4 46L39.79 51.61L39.58 51.39L26.15 64.84C26.0028 64.9859 25.8859 65.1596 25.8061 65.351C25.7264 65.5424 25.6853 65.7477 25.6853 65.955C25.6853 66.1623 25.7264 66.3676 25.8061 66.559C25.8859 66.7503 26.0028 66.924 26.15 67.07L30.58 71.5C31.2038 72.0695 31.9841 72.4388 32.82 72.56V72.56ZM57.25 36.73L63 31C63.1083 30.8943 63.2537 30.8352 63.405 30.8352C63.5563 30.8352 63.7017 30.8943 63.81 31L73.06 40.25C73.165 40.3566 73.2239 40.5003 73.2239 40.65C73.2239 40.7997 73.165 40.9433 73.06 41.05L67.11 47C66.9905 47.1129 66.8394 47.1868 66.6768 47.2119C66.5143 47.2369 66.348 47.2118 66.2 47.14L62.64 45.29C62.4065 45.1433 62.1973 44.9611 62.02 44.75L57.17 37.6C57.0844 37.4668 57.0458 37.3089 57.0603 37.1512C57.0748 36.9936 57.1416 36.8453 57.25 36.73V36.73ZM54.08 41.93C54.54 42.58 55.08 43.33 55.67 44.15L57.46 46.73L58.34 48.05C58.5 48.24 58.66 48.4 58.82 48.58C58.98 48.76 59.24 48.91 59.41 49.02C60.3 49.48 61.11 49.95 61.81 50.33C63.2 51.11 64.12 51.66 64.12 51.66C64.12 51.66 63.12 51.23 61.7 50.53C60.99 50.18 60.14 49.78 59.25 49.33C59 49.18 58.83 49.03 58.61 48.88C58.4014 48.6881 58.2076 48.4809 58.03 48.26C57.73 47.83 57.42 47.4 57.12 46.96L55.38 44.36C54.82 43.53 54.33 42.73 53.89 42.06C53.03 40.72 52.48 39.8 52.48 39.8C52.48 39.8 53.14 40.64 54.08 41.93ZM51 41.12C51.0756 41.0505 51.1639 40.9961 51.26 40.96L56.85 49.13C57.2904 49.7307 57.8526 50.2316 58.5 50.6L59.28 51L59.06 53.71C59.0397 53.9063 58.9438 54.0871 58.7927 54.214C58.6415 54.3409 58.4469 54.404 58.25 54.39L54.1 54L48 48.1C48.92 47.1 49.66 46.27 50.19 45.69L51.04 44.74L50.04 45.58C49.46 46.12 48.61 46.86 47.63 47.78L47.87 48.01L46 46.17L51 41.12ZM36.38 31.75L39.81 28.32L45.58 34.09L42.15 37.52C41.9662 37.6858 41.7275 37.7776 41.48 37.7776C41.2325 37.7776 40.9937 37.6858 40.81 37.52L36.38 33.09C36.2142 32.9062 36.1224 32.6675 36.1224 32.42C36.1224 32.1725 36.2142 31.9337 36.38 31.75ZM30 45.14C29.69 45.34 29.35 45.62 29 45.9L28.46 46.38C28.2649 46.5332 28.0811 46.7003 27.91 46.88C27.5552 47.223 27.2213 47.587 26.91 47.97L26.71 48.22L27.34 47.22C27.4733 47.08 27.6033 46.93 27.73 46.77C27.8938 46.5778 28.0709 46.3974 28.26 46.23L28.79 45.71C29.15 45.41 29.48 45.1 29.79 44.87C30.1 44.64 30.36 44.45 30.55 44.33L30.84 44.13L31.08 44.54C30.7075 44.7167 30.3468 44.9171 30 45.14V45.14ZM33.91 45.2L31.38 42.66C31.1305 42.4096 30.7934 42.2661 30.44 42.26C30.2635 42.2571 30.0882 42.2902 29.9249 42.3572C29.7615 42.4243 29.6136 42.5239 29.49 42.65L29.41 42.74C27.1362 45.3717 25.3332 48.3757 24.08 51.62C24.7171 47.5982 26.1849 43.7532 28.39 40.33L34.39 34.33L39.59 39.52L33.91 45.2ZM35.07 45.36L35.48 44.95L38.83 48L35.77 44.64L38.36 42.05L42.86 46.22L38.69 41.72L39.34 41.07L65.2 66C66.2 67 65.86 67.61 64.53 68.94L59.29 64L64.21 69.24L63.7 69.75L62.88 70.58L55.52 63.58L62.52 70.94C62.3812 71.0786 62.2343 71.2088 62.08 71.33L58.46 68L61.73 71.57C61.08 71.98 60.58 71.91 59.94 71.27L46.07 56.81L45.59 56.22C45.2948 55.8831 45.0241 55.5255 44.78 55.15L44 54.06L43.33 52.9C43.09 52.52 42.91 52.11 42.7 51.72C42.49 51.33 42.3 50.93 42.13 50.52C41.8319 49.8484 41.5715 49.1606 41.35 48.46C42.04 48.69 42.73 48.94 43.4 49.24C43.81 49.41 44.21 49.61 44.61 49.82C45.01 50.03 45.41 50.21 45.79 50.44L46.94 51.11L48.04 51.88C48.4155 52.1241 48.7731 52.3948 49.11 52.69L50.11 53.54L49.11 52.59C48.8007 52.2674 48.4663 51.9698 48.11 51.7L47.04 50.87L46 50.13C45.6192 49.8852 45.2253 49.6616 44.82 49.46C44.43 49.24 44.02 49.04 43.61 48.86C42.7871 48.4692 41.9384 48.1351 41.07 47.86H40.93C40.901 47.8691 40.8742 47.8838 40.8509 47.9033C40.8277 47.9229 40.8086 47.9468 40.7946 47.9738C40.7807 48.0007 40.7722 48.0302 40.7697 48.0604C40.7672 48.0907 40.7707 48.1211 40.78 48.15C41.0551 49.0184 41.3892 49.8671 41.78 50.69C41.96 51.11 42.17 51.51 42.39 51.91C42.5684 52.3125 42.7721 52.7033 43 53.08L43.74 54.22L44.52 55.22L35.07 45.36ZM26.73 65.42L40.15 52L48.29 60.45L47.83 60L47 59.9C46.5855 59.8717 46.1762 60.0047 45.8575 60.2712C45.5388 60.5377 45.3355 60.9171 45.29 61.33L45 65.54C44.9797 65.7363 44.8838 65.9171 44.7327 66.044C44.5815 66.1709 44.3869 66.234 44.19 66.22L40 65.82C39.5866 65.7918 39.1784 65.9252 38.8614 66.1919C38.5443 66.4586 38.3431 66.8379 38.3 67.25L37.96 71.46C37.9397 71.6563 37.8439 71.8371 37.6927 71.964C37.5415 72.0909 37.3469 72.154 37.15 72.14L32.94 71.74C32.2923 71.6426 31.6874 71.3575 31.2 70.92L26.77 66.49C26.6963 66.4229 26.6367 66.3417 26.5947 66.2513C26.5527 66.1609 26.5291 66.063 26.5254 65.9634C26.5217 65.8638 26.5378 65.7644 26.573 65.6711C26.6081 65.5778 26.6615 65.4924 26.73 65.42V65.42Z" fill="white"/>
<path d="M9.74 60.62C10.18 60.44 10.46 60.24 10.38 59.93C10.3 59.62 9.94 59.53 9.55 59.5C9.47689 59.5974 9.42639 59.7099 9.40218 59.8292C9.37796 59.9486 9.38063 60.0718 9.41 60.19C9.46166 60.3699 9.57958 60.5236 9.74 60.62V60.62Z" fill="white"/>
<path d="M95.79 53.9199C95.1687 52.7067 94.8446 51.3631 94.8446 50C94.8446 48.6368 95.1687 47.2932 95.79 46.08L97.32 43.34C97.4358 43.0716 97.4729 42.7758 97.4268 42.4872C97.3808 42.1985 97.2536 41.929 97.06 41.7099L94.76 39.58C93.7943 38.6169 93.0706 37.4388 92.6482 36.1421C92.2258 34.8453 92.1168 33.467 92.33 32.1199L93 29C93.0238 28.7095 92.9662 28.4181 92.8337 28.1585C92.7013 27.8988 92.4991 27.6812 92.25 27.53L89.4 26.2199C88.1862 25.6015 87.1358 24.7047 86.3346 23.6028C85.5334 22.501 85.0042 21.2253 84.79 19.8799L84.42 16.76C84.3554 16.4743 84.2112 16.2128 84.0042 16.0058C83.7971 15.7987 83.5356 15.6545 83.25 15.59L80.13 15.22C78.7846 15.0058 77.5089 14.4765 76.4071 13.6753C75.3053 12.8742 74.4085 11.8238 73.79 10.61L72.43 7.79995C72.2871 7.55241 72.0768 7.35051 71.8237 7.21775C71.5705 7.08498 71.2849 7.0268 71 7.04995L67.92 7.66995C66.5733 7.86956 65.1987 7.75399 63.9042 7.33234C62.6097 6.91068 61.4308 6.19444 60.46 5.23995L58.29 2.92995C58.0627 2.75166 57.7933 2.63499 57.5078 2.5912C57.2223 2.5474 56.9303 2.57797 56.66 2.67995L53.92 4.20995C52.701 4.81219 51.3596 5.12546 50 5.12546C48.6404 5.12546 47.299 4.81219 46.08 4.20995L43.34 2.67995C43.0697 2.57797 42.7777 2.5474 42.4922 2.5912C42.2067 2.63499 41.9373 2.75166 41.71 2.92995L39.58 5.23995C38.6092 6.19444 37.4303 6.91068 36.1358 7.33234C34.8413 7.75399 33.4667 7.86956 32.12 7.66995L29 7.04995C28.7086 7.01885 28.4145 7.0732 28.1535 7.20637C27.8925 7.33954 27.6758 7.54579 27.53 7.79995L26.22 10.65C25.6015 11.8638 24.7047 12.9142 23.6029 13.7153C22.5011 14.5165 21.2254 15.0458 19.88 15.26L16.76 15.63C16.4762 15.6949 16.2161 15.8379 16.0094 16.0429C15.8026 16.2479 15.6573 16.5067 15.59 16.79L15.22 19.92C15.0058 21.2653 14.4766 22.541 13.6754 23.6428C12.8742 24.7447 11.8238 25.6415 10.61 26.26L7.8 27.57C7.55719 27.718 7.35916 27.9293 7.22707 28.1811C7.09497 28.433 7.03377 28.716 7.05 29L7.67 32.08C7.88077 33.4269 7.77054 34.8046 7.34828 36.1009C6.92602 37.3972 6.20367 38.5755 5.24 39.54L2.93 41.7099C2.74022 41.9312 2.6162 42.2011 2.57202 42.4892C2.52783 42.7773 2.56524 43.072 2.68 43.34L4.21 46.08C4.83133 47.2932 5.15535 48.6368 5.15535 50C5.15535 51.3631 4.83133 52.7067 4.21 53.9199L2.68 56.66C2.56524 56.9279 2.52783 57.2226 2.57202 57.5107C2.6162 57.7988 2.74022 58.0687 2.93 58.29L5.24 60.4199C6.20367 61.3844 6.92602 62.5627 7.34828 63.859C7.77054 65.1553 7.88077 66.533 7.67 67.88L7.05 71C7.02624 71.2904 7.08382 71.5818 7.21628 71.8414C7.34874 72.1011 7.55086 72.3187 7.8 72.47L10.65 73.78C11.8638 74.3985 12.9142 75.2952 13.7154 76.3971C14.5166 77.4989 15.0458 78.7746 15.26 80.12L15.63 83.24C15.6946 83.5256 15.8388 83.7871 16.0458 83.9941C16.2529 84.2012 16.5144 84.3454 16.8 84.41L19.92 84.78C21.2654 84.9941 22.5411 85.5234 23.6429 86.3246C24.7447 87.1257 25.6415 88.1761 26.26 89.39L27.57 92.24C27.7134 92.4877 27.9234 92.6903 28.1762 92.8247C28.429 92.959 28.7144 93.0197 29 93L32.08 92.38C33.4267 92.1811 34.8011 92.2971 36.0954 92.7187C37.3898 93.1403 38.5688 93.8561 39.54 94.81L41.67 97.11C41.8954 97.2917 42.1645 97.4113 42.4504 97.4569C42.7363 97.5025 43.0292 97.4725 43.3 97.37L46.04 95.83C47.2559 95.1727 48.6178 94.8322 50 94.84C51.3699 94.8385 52.7181 95.1825 53.92 95.84L56.66 97.37C56.9308 97.4725 57.2237 97.5025 57.5096 97.4569C57.7955 97.4113 58.0646 97.2917 58.29 97.11L60.42 94.81C62.0477 93.1919 64.2449 92.2764 66.54 92.26C66.9894 92.2579 67.4381 92.2981 67.88 92.38L71 93C71.2911 93.0285 71.5843 92.9731 71.8448 92.8401C72.1053 92.7072 72.3223 92.5024 72.47 92.25L73.78 89.4C74.3985 88.1861 75.2953 87.1357 76.3971 86.3346C77.4989 85.5334 78.7746 85.0041 80.12 84.79L83.24 84.42C83.5256 84.3554 83.7871 84.2112 83.9942 84.0041C84.2012 83.7971 84.3454 83.5356 84.41 83.25L84.78 80.13C84.9942 78.7846 85.5234 77.5089 86.3246 76.4071C87.1258 75.3052 88.1762 74.4085 89.39 73.79L92.24 72.48C92.4926 72.3292 92.6978 72.1106 92.8322 71.8489C92.9665 71.5872 93.0247 71.2931 93 71L92.38 67.92C92.1668 66.5729 92.2758 65.1946 92.6982 63.8978C93.1206 62.6011 93.8443 61.423 94.81 60.4599L97.11 58.33C97.3036 58.1109 97.4308 57.8414 97.4768 57.5527C97.5229 57.2641 97.4858 56.9683 97.37 56.7L95.79 53.9199ZM78.71 18.76L80.71 20.94C82.16 22.49 81.83 23.37 81.06 24.09C80.7943 24.3001 80.4614 24.4068 80.1231 24.3902C79.7848 24.3737 79.4639 24.235 79.22 24C79.41 24.2632 79.501 24.5849 79.4773 24.9086C79.4535 25.2323 79.3164 25.5373 79.09 25.77C78.81 26.04 78.68 26.23 78.79 26.35C78.9 26.47 79.01 26.43 79.15 26.35L79.37 26.1399L79.79 26.59L79.42 26.93C79.3012 27.0817 79.1494 27.2044 78.9762 27.2888C78.8029 27.3732 78.6127 27.4171 78.42 27.4171C78.2273 27.4171 78.0371 27.3732 77.8638 27.2888C77.6906 27.2044 77.5388 27.0817 77.42 26.93C77.2329 26.7831 77.0815 26.5956 76.9775 26.3816C76.8734 26.1677 76.8194 25.9329 76.8194 25.695C76.8194 25.457 76.8734 25.2222 76.9775 25.0083C77.0815 24.7943 77.2329 24.6068 77.42 24.4599C78.03 23.8899 78.11 23.68 77.55 23.08L76.55 24.08L76.93 24.49L76.05 25.32L74.05 23.15L74.94 22.32L75.29 22.7L78.18 20L77.83 19.6299L78.71 18.76ZM74.71 17.1L75.47 16.1L77.84 18.02L77 19L76.56 18.65L74.05 21.74L74.49 22.1L73.72 23.0499L71.35 21.1299L72.12 20.18L72.57 20.5499L75.08 17.45L74.71 17.1ZM69.41 13.67L69.09 13.48L69.69 12.48L72.69 14.28L71.44 19.6L71.99 19.93L71.38 20.93L68.2 19.0599L68.82 18.06L69.57 18.51L69.72 17.87L68.1 16.87L67.61 17.31L68.23 17.68L67.62 18.68L65.1 17.23L65.71 16.23L66.25 16.55L69.41 13.67ZM62.13 9.35995L64.92 10.36C66.92 11.1 66.98 12.1 66.62 13.08C66.2 14.22 64.95 14.41 63.72 13.95L63.06 13.71L62.57 15.04L63.1 15.24L62.67 16.38L59.9 15.38L60.32 14.24L60.8 14.42L62.2 10.66L61.71 10.48L62.13 9.35995ZM54.48 13.05L55.04 13.16L55.81 9.24995L55.25 9.13995L55.48 7.99995L60.92 8.99995L60.53 11L59 10.7L59.16 9.89995L57.71 9.61995L57.47 10.86L59.18 11.2L58.95 12.4L57.23 12.06L56.94 13.53L58.38 13.81L58.55 12.98L60.11 13.28L59.71 15.28L54.27 14.21L54.48 13.05ZM47.77 12.83H48.29L48.38 8.82995H47.87V7.62995L50.87 7.69995C53 7.69995 53.4 8.60995 53.37 9.69995C53.3333 10.0386 53.1734 10.352 52.9209 10.5806C52.6683 10.8091 52.3406 10.937 52 10.94C52.3201 10.9931 52.6118 11.1558 52.8252 11.4002C53.0386 11.6447 53.1605 11.9556 53.17 12.28C53.17 12.67 53.17 12.9 53.38 12.91C53.59 12.92 53.59 12.8 53.6 12.62V12.32H54.22V12.83C54.22 13.59 53.86 14.29 52.84 14.27C52.603 14.2977 52.3629 14.2712 52.1377 14.1922C51.9126 14.1133 51.7084 13.9841 51.5406 13.8144C51.3729 13.6448 51.246 13.4391 51.1697 13.2131C51.0933 12.987 51.0695 12.7466 51.1 12.51C51.1 11.68 51.02 11.51 50.2 11.45V12.88H50.76V14.09L47.76 14.02L47.77 12.83ZM44.06 7.99995L44.47 9.99995L42.92 10.33L42.75 9.52995L41.31 9.81995L41.57 11.06L43.28 10.71L43.53 11.9L41.82 12.26L42.12 13.73L43.56 13.43L43.39 12.59L44.94 12.27L45.36 14.27L39.94 15.4L39.7 14.2L40.26 14.08L39.45 10.18L38.89 10.3L38.64 9.10995L44.06 7.99995ZM32.31 11.54L34.53 14.33L34 10.82L37.21 9.42995L37.68 10.51L37.22 10.72L38.83 14.42L39.3 14.22L39.77 15.32L37.11 16.48L36.63 15.38L37.1 15.17L35.88 12.36L35.67 11.86C35.77 12.27 35.89 12.86 35.92 13.09L36.46 16.76L34.7 17.52L32.29 14.57C32.0527 14.2546 31.842 13.9201 31.66 13.57V13.57L33 17L33.48 16.8L34 17.83L31.72 18.83L31.24 17.74L31.7 17.54L30 13.82L29.55 14.02L29.08 12.93L32.31 11.54ZM25.16 15.54C26.99 14.22 28.63 14.71 29.84 16.39C30.1406 16.7181 30.3645 17.1089 30.4953 17.5342C30.6262 17.9595 30.6608 18.4086 30.5967 18.849C30.5326 19.2893 30.3713 19.7099 30.1245 20.0802C29.8778 20.4505 29.5517 20.7612 29.17 20.99C28.8245 21.2841 28.4181 21.498 27.98 21.6162C27.5419 21.7345 27.083 21.7542 26.6364 21.6738C26.1898 21.5935 25.7666 21.4152 25.3972 21.1517C25.0278 20.8882 24.7214 20.5461 24.5 20.15C24.2177 19.8114 24.0096 19.4173 23.8892 18.9933C23.7688 18.5693 23.7387 18.1247 23.8009 17.6883C23.8631 17.2519 24.0163 16.8334 24.2504 16.4599C24.4845 16.0864 24.7944 15.7662 25.16 15.52V15.54ZM19.2 21L20.07 21.84L19.68 22.25L20.68 23.25L21.89 21.99L20.89 20.99L20.51 21.3799L19.64 20.54L21.7 18.39L22.58 19.2199L22.21 19.61L25.1 22.37L25.47 21.99L26.34 22.83L24.28 25L23.4 24.16L23.77 23.77L22.77 22.77L21.56 24.03L22.56 25.03L22.95 24.61L23.83 25.45L21.77 27.6L20.89 26.76L21.24 26.4L18.35 23.6299L18 24L17.12 23.16L19.2 21ZM50 16.42C56.6415 16.42 63.1338 18.3894 68.6561 22.0792C74.1783 25.769 78.4823 31.0135 81.0239 37.1494C83.5655 43.2854 84.2305 50.0372 82.9348 56.5511C81.6391 63.065 78.4409 69.0484 73.7446 73.7446C69.0484 78.4408 63.065 81.639 56.5511 82.9347C50.0373 84.2304 43.2854 83.5654 37.1495 81.0238C31.0135 78.4822 25.7691 74.1782 22.0793 68.656C18.3894 63.1338 16.42 56.6414 16.42 50C16.4332 41.098 19.9754 32.5645 26.27 26.2699C32.5646 19.9753 41.0981 16.4332 50 16.42ZM9.48 63.91C9.29544 63.9807 9.09766 64.0104 8.90044 63.997C8.70322 63.9835 8.51131 63.9273 8.33806 63.8321C8.16482 63.7369 8.0144 63.6051 7.8973 63.4458C7.7802 63.2866 7.69922 63.1037 7.66 62.91C7.5692 62.598 7.58146 62.265 7.69496 61.9606C7.80846 61.6561 8.01714 61.3964 8.29 61.22C8.17503 61.0085 8.07802 60.7877 8 60.56C7.84662 60.1407 7.78877 59.6924 7.83065 59.2479C7.87254 58.8034 8.0131 58.3739 8.24211 57.9906C8.47111 57.6073 8.78277 57.28 9.15435 57.0325C9.52594 56.785 9.94809 56.6236 10.39 56.56C10.7973 56.4216 11.229 56.3697 11.6575 56.4078C12.086 56.4459 12.5018 56.573 12.8784 56.781C13.2549 56.9891 13.5838 57.2734 13.8441 57.6159C14.1044 57.9584 14.2904 58.3515 14.39 58.77C14.96 60.92 13.93 62.23 11.99 62.77C11.1754 63.0387 10.2892 62.9887 9.51 62.63C9.24 62.78 8.96 62.9599 9.02 63.1899C9.08 63.4199 9.32 63.2999 9.48 63.2599L9.74 63.1899L9.9 63.79L9.48 63.91ZM10.69 68.23C9.93 66.48 10.39 65.13 12.33 64.23L14.43 63.2299L14.21 62.75L15.31 62.2299L16.6 64.94L15.5 65.4599L15.28 65L13.44 65.87C12.07 66.53 11.93 66.97 12.19 67.52C12.45 68.07 12.8 68.28 14.27 67.58L16.07 66.72L15.85 66.26L17 65.7099L18.2 68.23L17.1 68.75L16.88 68.29L14.81 69.29C12.77 70.24 11.46 69.83 10.69 68.23V68.23ZM14.92 75L15.92 74.28L16.45 75L16.85 74.46L15.71 72.9L15.07 73.12L15.51 73.71L14.51 74.44L12.74 72L13.74 71.27L14.12 71.79L18.21 70.37L18 70.07L19 69.35L21.13 72.28L17.79 76.79L18.18 77.32L17.18 78.05L14.92 75ZM17.92 78.83L18.79 77.93L19.17 78.29L22.01 75.29L21.67 75L22.54 74.11L24.68 76.18L23.81 77.08L23.45 76.73L20.61 79.67L21.48 80.52L22.31 79.65L23.45 80.76L21.75 82.52L17.92 78.83ZM25.78 84L25 85L22.51 83.1L23.27 82.1L23.74 82.46L26.22 79.2L25.75 78.84L26.5 77.84L29 79.72L28.25 80.72L27.78 80.37L25.31 83.62L25.78 84ZM39.87 86.26L39.39 86.09L36.69 88.36L36.32 89.36L36.81 89.55L36.39 90.7L33.55 89.7L34 88.49L34.5 88.68L34.89 87.63L34.23 84.14L33.93 84.03L33.31 85.12L32.1 84.43L32.7 83.38L32 83L30 86.55L30.68 86.94L30 88L27 86.25L27.62 85.17L28.29 85.55L30.29 82L29.58 81.6L28.98 82.6L27.8 82L29 79.85L34.33 82.9L37.22 84L36.8 85.1L36.34 84.93L36.51 86.05C36.51 86.24 36.51 86.71 36.51 86.87C36.6946 86.6395 36.8987 86.4254 37.12 86.23L37.94 85.51L37.45 85.33L37.87 84.2L40.25 85.08L39.87 86.26ZM48.55 90.63H48.18L47.9 92.9L46 92.67L45.79 92.05C45.5835 92.2528 45.3313 92.4032 45.0546 92.4885C44.778 92.5737 44.4849 92.5914 44.2 92.54C43.7836 92.4877 43.3829 92.3487 43.0236 92.1319C42.6643 91.9152 42.3545 91.6254 42.1142 91.2814C41.8739 90.9374 41.7084 90.5468 41.6284 90.1349C41.5485 89.723 41.5558 89.2989 41.65 88.89C41.6838 88.0349 42.0556 87.2281 42.6837 86.6469C43.3118 86.0657 44.1449 85.7575 45 85.79C45.3507 85.7903 45.6952 85.8829 45.9988 86.0584C46.3025 86.2339 46.5546 86.4862 46.73 86.79L47.01 86.14L48.4 86.3L48 89.08L46.33 88.88C46.3587 88.7319 46.3571 88.5796 46.3255 88.4322C46.2939 88.2848 46.2328 88.1452 46.146 88.022C46.0592 87.8987 45.9483 87.7943 45.8201 87.7149C45.6919 87.6355 45.549 87.5828 45.4 87.56C44.64 87.47 44.02 88.23 43.91 89.17C43.8 90.11 44.2 90.94 45 91C45.1824 91.0533 45.3768 91.0483 45.5562 90.9855C45.7355 90.9227 45.8907 90.8054 46 90.65V90.26L45.43 90.19L45.55 89.19L48.66 89.56L48.55 90.63ZM53.06 92.76L53 91.49L53.89 91.43L53.65 90.8L51.72 90.94L51.57 91.6L52.3 91.54L52.39 92.78L49.39 92.99L49.3 91.76L49.94 91.71L50.94 87.49H50.55L50.46 86.27L54 86L56 91.23H56.66L56.75 92.47L53.06 92.76ZM63.06 91.04C62.8348 91.1357 62.5908 91.1788 62.3465 91.1661C62.1022 91.1533 61.8639 91.0851 61.6499 90.9665C61.4359 90.848 61.2518 90.6822 61.1114 90.4818C60.9711 90.2814 60.8783 90.0516 60.84 89.81C60.62 88.97 60.47 88.81 59.66 89.01L60 90.4L60.56 90.25L60.87 91.45L58 92.23L57.65 91L58.16 90.86L57.16 86.86L56.65 86.99L56.33 85.8L59.33 85.02C61.44 84.46 62.07 85.19 62.33 86.23C62.4049 86.5831 62.3435 86.9516 62.158 87.2614C61.9725 87.5711 61.6767 87.7992 61.33 87.9C61.663 87.8614 61.9989 87.9401 62.2801 88.1227C62.5612 88.3052 62.7698 88.5801 62.87 88.9C62.97 89.29 63.08 89.51 63.25 89.46C63.42 89.41 63.43 89.3 63.38 89.12L63.3 88.82L63.91 88.65L64.04 89.16C64.1242 89.3426 64.1653 89.5422 64.1599 89.7433C64.1546 89.9443 64.103 90.1415 64.0092 90.3194C63.9154 90.4973 63.7819 90.6513 63.619 90.7693C63.4562 90.8873 63.2683 90.9662 63.07 91L63.06 91.04ZM68.67 88.64L68.14 87.53L68.95 87.14L68.49 86.65L66.75 87.48L66.85 88.15L67.51 87.83L68.05 88.95L65.34 90.24L64.8 89.13L65.38 88.85L64.74 84.57L64.39 84.73L63.86 83.64L67.14 82L71 86.15L71.59 85.86L72.1 87L68.67 88.64ZM80.67 80.19L79.74 79.34L80.27 78.77L77.27 75.99L76.72 76.59L77.61 77.4L76.67 78.4L75.04 76.9L75.66 77.71L75.16 78.09L78.38 82.38L76.78 83.6L72.7 82.17L74.13 84.07L74.71 83.63L75.44 84.63L73.12 86.36L72.39 85.36L72.84 85.03L70.35 81.7L69.91 82.03L69.18 81.03L71.34 79.4L75.27 80.79L73.92 79L73.41 79.39L72.68 78.39L74.92 76.71L79.22 72.06L81 73.74L80.06 74.74L79.17 73.92L78.64 74.51L81.64 77.28L82.18 76.71L83.1 77.56L80.67 80.19ZM84.67 75.73L83.67 75.04L84 74.54L80.58 72.28L80.26 72.78L79.26 72.09L82.4 67.35L84 68.47L83.1 69.83L82.4 69.36L81.57 70.62L82.66 71.34L83.66 69.85L84.66 70.54L83.66 72.03L84.95 72.88L85.78 71.62L85.05 71.14L85.95 69.78L87.81 71L84.67 75.73ZM88.34 70L87.2 69.48L87.44 68.94L83.72 67.24L83.47 67.78L82.34 67.27L84.7 62.09L86.59 62.9599L85.92 64.44L85.15 64.0899L84.53 65.4599L85.71 66L86.45 64.37L87.6 64.8899L86.85 66.5199L88.25 67.16L88.88 65.79L88.08 65.4199L88.76 63.9399L90.7 64.82L88.34 70ZM91.85 61L91.12 63.75L89.9 63.4199L90.06 62.86L86.06 61.81L85.91 62.3699L84.75 62L85.49 59.22C86.08 57.01 87.77 56.12 89.49 56.58C91.59 57.14 92.45 58.71 91.85 61V61Z" fill="white"/>
<path d="M51.96 89.79L53.19 89.7L52.42 87.71L51.96 89.79Z" fill="white"/>
<path d="M50 82.5499C56.4402 82.5499 62.7357 80.6401 68.0904 77.0619C73.4451 73.4837 77.6184 68.398 80.0825 62.4478C82.5466 56.4977 83.1908 49.9504 81.9336 43.6341C80.6765 37.3178 77.5745 31.5162 73.0199 26.963C68.4653 22.4098 62.6627 19.3096 56.346 18.0544C50.0293 16.7992 43.4823 17.4454 37.5329 19.9113C31.5835 22.3772 26.499 26.5521 22.9225 31.9079C19.346 37.2636 17.438 43.5598 17.44 49.9999C17.4506 58.6312 20.8847 66.9058 26.9889 73.0081C33.0931 79.1104 41.3687 82.542 50 82.5499V82.5499ZM50 18.9999C56.1312 18.9999 62.1248 20.8181 67.2227 24.2244C72.3206 27.6307 76.294 32.4723 78.6403 38.1368C80.9866 43.8013 81.6005 50.0343 80.4043 56.0477C79.2082 62.0612 76.2557 67.5848 71.9203 71.9203C67.5849 76.2557 62.0612 79.2081 56.0478 80.4043C50.0344 81.6004 43.8013 80.9865 38.1368 78.6402C32.4723 76.2939 27.6308 72.3205 24.2244 67.2226C20.8181 62.1247 19 56.1312 19 49.9999C19 41.7782 22.2661 33.8933 28.0797 28.0796C33.8933 22.266 41.7783 18.9999 50 18.9999V18.9999Z" fill="white"/>
<path d="M59.45 86.29L58.99 86.41L59.4 88L59.81 87.9C60.34 87.76 60.62 87.41 60.49 86.9C60.4737 86.7852 60.4317 86.6756 60.3672 86.5793C60.3026 86.4831 60.2172 86.4026 60.1172 86.344C60.0172 86.2853 59.9053 86.25 59.7898 86.2407C59.6742 86.2313 59.5581 86.2482 59.45 86.29V86.29Z" fill="white"/>
<path d="M11.2 59.7099C11.2949 60.0821 11.2668 60.475 11.12 60.8299L11.48 60.7499C12.48 60.4699 13.27 59.8099 13.09 59.1399C12.91 58.4699 12 58.2999 11 58.5799C10.8322 58.6229 10.6683 58.6797 10.51 58.7499C10.6856 58.8529 10.8377 58.9916 10.9565 59.1569C11.0754 59.3222 11.1583 59.5106 11.2 59.7099V59.7099Z" fill="white"/>
<path d="M98 52.6699C97.5951 51.8381 97.3846 50.9251 97.3846 49.9999C97.3846 49.0748 97.5951 48.1618 98 47.3299L99.54 44.5899C99.9311 43.8201 100.069 42.9464 99.9345 42.0934C99.7998 41.2405 99.3993 40.4518 98.79 39.8399L96.49 37.6999C95.8458 37.0351 95.3622 36.2317 95.0762 35.3512C94.7902 34.4707 94.7094 33.5365 94.84 32.6199L95.45 29.5399C95.5867 28.6862 95.4494 27.8112 95.0577 27.0404C94.666 26.2696 94.0402 25.6428 93.27 25.2499L90.41 23.9399C89.5923 23.5064 88.8844 22.8918 88.3403 22.1432C87.7961 21.3945 87.4301 20.5315 87.27 19.6199L86.9 16.4999C86.7698 15.6438 86.3699 14.8514 85.7584 14.2382C85.1469 13.6249 84.3558 13.2227 83.5 13.0899L80.38 12.7299C79.4684 12.5699 78.6054 12.2038 77.8568 11.6597C77.1081 11.1155 76.4936 10.4076 76.06 9.58994L74.74 6.72994C74.3501 5.95956 73.7253 5.33314 72.9559 4.94126C72.1865 4.54938 71.3124 4.41233 70.46 4.54994L67.38 5.15994C66.4635 5.29051 65.5292 5.20971 64.6488 4.92373C63.7683 4.63774 62.9649 4.15415 62.3 3.50994L60.16 1.19994C59.5489 0.589304 58.7602 0.187839 57.9069 0.0531056C57.0536 -0.081628 56.1795 0.0572895 55.41 0.449941L52.67 1.99994C51.8382 2.40488 50.9251 2.61532 50 2.61532C49.0748 2.61532 48.1618 2.40488 47.33 1.99994L44.59 0.449941C43.8205 0.0572895 42.9464 -0.081628 42.0931 0.0531056C41.2398 0.187839 40.4511 0.589304 39.84 1.19994L37.7 3.50994C37.0351 4.15415 36.2317 4.63774 35.3512 4.92373C34.4707 5.20971 33.5365 5.29051 32.62 5.15994L29.54 4.54994C28.6863 4.41324 27.8112 4.55059 27.0405 4.94227C26.2697 5.33394 25.6429 5.95979 25.25 6.72994L23.94 9.58994C23.5052 10.4067 22.8903 11.1138 22.1419 11.6578C21.3934 12.2018 20.5311 12.5685 19.62 12.7299L16.5 13.0899C15.6442 13.2227 14.8531 13.6249 14.2416 14.2382C13.6301 14.8514 13.2302 15.6438 13.1 16.4999L12.73 19.6199C12.5699 20.5315 12.2039 21.3945 11.6597 22.1432C11.1156 22.8918 10.4077 23.5064 9.59 23.9399L6.73 25.2499C5.95984 25.6428 5.33399 26.2696 4.94232 27.0404C4.55065 27.8112 4.4133 28.6862 4.55 29.5399L5.16 32.6199C5.29057 33.5365 5.20977 34.4707 4.92378 35.3512C4.6378 36.2317 4.1542 37.0351 3.51 37.6999L1.2 39.8399C0.590704 40.4518 0.190162 41.2405 0.0554862 42.0934C-0.0791898 42.9464 0.0588761 43.8201 0.449997 44.5899L2 47.3299C2.40494 48.1618 2.61537 49.0748 2.61537 49.9999C2.61537 50.9251 2.40494 51.8381 2 52.6699L0.449997 55.4099C0.0588761 56.1798 -0.0791898 57.0535 0.0554862 57.9064C0.190162 58.7594 0.590704 59.548 1.2 60.1599L3.51 62.2899C4.15439 62.9568 4.638 63.7619 4.92395 64.644C5.2099 65.5261 5.29063 66.4619 5.16 67.3799L4.55 70.4599C4.41239 71.3123 4.54943 72.1864 4.94132 72.9558C5.3332 73.7252 5.95961 74.35 6.73 74.7399L9.59 76.0599C10.4077 76.4935 11.1156 77.1081 11.6597 77.8567C12.2039 78.6054 12.5699 79.4684 12.73 80.3799L13.1 83.4999C13.2292 84.3555 13.629 85.1473 14.2408 85.7591C14.8527 86.371 15.6444 86.7708 16.5 86.8999L19.62 87.2699C20.5311 87.4314 21.3934 87.798 22.1419 88.342C22.8903 88.886 23.5052 89.5932 23.94 90.4099L25.25 93.2699C25.6429 94.0401 26.2697 94.6659 27.0405 95.0576C27.8112 95.4493 28.6863 95.5866 29.54 95.4499L32.62 94.8399C33.5365 94.7094 34.4707 94.7902 35.3512 95.0761C36.2317 95.3621 37.0351 95.8457 37.7 96.4899L39.84 98.7999C40.4519 99.4092 41.2405 99.8098 42.0935 99.9445C42.9464 100.079 43.8201 99.9411 44.59 99.5499L47.33 97.9999C48.1618 97.595 49.0748 97.3846 50 97.3846C50.9251 97.3846 51.8382 97.595 52.67 97.9999L55.41 99.5399C56.1799 99.9311 57.0535 100.069 57.9065 99.9344C58.7594 99.7998 59.5481 99.3992 60.16 98.7899L62.3 96.4799C62.9649 95.8357 63.7683 95.3521 64.6488 95.0662C65.5292 94.7802 66.4635 94.6994 67.38 94.8299L70.46 95.4399C71.3124 95.5775 72.1865 95.4405 72.9559 95.0486C73.7253 94.6567 74.3501 94.0303 74.74 93.2599L76.06 90.3999C76.4936 89.5823 77.1081 88.8744 77.8568 88.3302C78.6054 87.7861 79.4684 87.42 80.38 87.2599L83.5 86.8899C84.3556 86.7608 85.1473 86.361 85.7592 85.7491C86.371 85.1373 86.7708 84.3455 86.9 83.4899L87.27 80.3699C87.4301 79.4584 87.7961 78.5954 88.3403 77.8467C88.8844 77.0981 89.5923 76.4835 90.41 76.0499L93.27 74.7299C94.0404 74.34 94.6668 73.7152 95.0587 72.9458C95.4506 72.1764 95.5876 71.3023 95.45 70.4499L94.84 67.3699C94.7094 66.4519 94.7901 65.5161 95.076 64.634C95.362 63.7519 95.8456 62.9468 96.49 62.2799L98.8 60.1499C99.4093 59.538 99.8098 58.7494 99.9445 57.8964C100.079 57.0435 99.9411 56.1698 99.55 55.3999L98 52.6699ZM97.76 58.9999L95.45 61.1299C94.6107 61.9726 93.9814 63.001 93.6131 64.132C93.2448 65.2629 93.1479 66.4646 93.33 67.6399L94 70.7599C94.0715 71.2749 93.9832 71.7993 93.7472 72.2624C93.5111 72.7256 93.1386 73.1052 92.68 73.3499L89.82 74.6699C88.7644 75.2109 87.8517 75.9939 87.1565 76.955C86.4613 77.9161 86.0033 79.028 85.82 80.1999L85.45 83.3199C85.3622 83.8343 85.1168 84.3088 84.7478 84.6778C84.3789 85.0468 83.9044 85.2921 83.39 85.3799L80.27 85.7499C79.0981 85.9333 77.9862 86.3913 77.0251 87.0864C76.064 87.7816 75.281 88.6943 74.74 89.7499L73.42 92.6099C73.1818 93.0941 72.7955 93.4899 72.3173 93.7398C71.839 93.9898 71.2935 94.0809 70.76 93.9999L67.68 93.3899C67.3051 93.3118 66.9229 93.2749 66.54 93.2799C64.529 93.2913 62.602 94.0879 61.17 95.4999L59 97.7599C58.5135 98.2254 57.8632 98.4805 57.19 98.4699C56.8171 98.4754 56.4489 98.3859 56.12 98.2099L53.38 96.6799C52.3144 96.1617 51.1449 95.8924 49.96 95.8924C48.7751 95.8924 47.6056 96.1617 46.54 96.6799L43.8 98.2099C43.3381 98.4055 42.8305 98.467 42.3353 98.3874C41.8401 98.3078 41.3773 98.0904 41 97.7599L38.87 95.4499C37.438 94.0379 35.511 93.2413 33.5 93.2299C33.1177 93.2269 32.7359 93.2604 32.36 93.3299L29.24 93.9999C28.7248 94.0743 28.1992 93.9874 27.7355 93.751C27.2717 93.5147 26.8925 93.1405 26.65 92.6799L25.33 89.8199C24.789 88.7643 24.006 87.8516 23.0449 87.1564C22.0838 86.4613 20.9719 86.0033 19.8 85.8199L16.68 85.4499C16.1656 85.3621 15.6911 85.1168 15.3222 84.7478C14.9532 84.3788 14.7078 83.9043 14.62 83.3899L14.25 80.2699C14.0666 79.098 13.6087 77.9861 12.9135 77.025C12.2183 76.0639 11.3056 75.2809 10.25 74.7399L7.37 73.3499C6.91138 73.1052 6.5389 72.7256 6.30285 72.2624C6.0668 71.7993 5.97854 71.2749 6.05 70.7599L6.66 67.6799C6.84667 66.5053 6.75281 65.3032 6.3861 64.1718C6.01939 63.0403 5.39022 62.0117 4.55 61.1699L2.24 58.9999C1.87841 58.6242 1.64125 58.1462 1.56074 57.6309C1.48023 57.1157 1.56028 56.5881 1.79 56.1199L3.32 53.3799C3.86232 52.3215 4.14515 51.1492 4.14515 49.9599C4.14515 48.7706 3.86232 47.5984 3.32 46.5399L1.79 43.8399C1.56926 43.3765 1.4941 42.8571 1.57443 42.3501C1.65476 41.8432 1.88681 41.3724 2.24 40.9999L4.55 38.8699C5.38955 38.0277 6.01827 36.999 6.38494 35.8677C6.75161 34.7364 6.84585 33.5346 6.66 32.3599L6.05 29.2799C5.97854 28.765 6.0668 28.2406 6.30285 27.7774C6.5389 27.3143 6.91138 26.9347 7.37 26.6899L10.23 25.3699C11.2856 24.829 12.1983 24.046 12.8935 23.0849C13.5887 22.1238 14.0466 21.0119 14.23 19.8399L14.6 16.7099C14.6883 16.1968 14.934 15.7238 15.3031 15.3565C15.6722 14.9892 16.1464 14.7458 16.66 14.6599L19.78 14.2899C20.9519 14.1066 22.0638 13.6486 23.0249 12.9534C23.986 12.2582 24.769 11.3456 25.31 10.2899L26.63 7.42994C26.8736 6.97035 27.253 6.59703 27.7165 6.36083C28.18 6.12462 28.705 6.03702 29.22 6.10994L32.3 6.71994C33.4743 6.8931 34.6727 6.79278 35.8019 6.4268C36.9311 6.06081 37.9605 5.43904 38.81 4.60994L41 2.23994C41.3848 1.8939 41.8619 1.66714 42.3732 1.58724C42.8845 1.50735 43.408 1.57777 43.88 1.78994L46.62 3.31994C47.6856 3.83816 48.8551 4.10745 50.04 4.10745C51.2249 4.10745 52.3944 3.83816 53.46 3.31994L56.2 1.78994C56.6619 1.59439 57.1695 1.53288 57.6647 1.61247C58.1599 1.69205 58.6227 1.90951 59 2.23994L61.13 4.54994C62.562 5.96197 64.489 6.75861 66.5 6.76994C66.8829 6.77496 67.2651 6.73807 67.64 6.65994L70.72 6.04994C71.2348 5.97994 71.7586 6.06883 72.2215 6.30474C72.6844 6.54064 73.0641 6.91228 73.31 7.36994L74.63 10.2299C75.171 11.2856 75.954 12.1982 76.9151 12.8934C77.8762 13.5886 78.9881 14.0466 80.16 14.2299L83.28 14.5999C83.795 14.6864 84.2702 14.9312 84.6395 15.3005C85.0087 15.6697 85.2536 16.145 85.34 16.6599L85.71 19.7799C85.8933 20.9519 86.3513 22.0638 87.0465 23.0249C87.7417 23.986 88.6544 24.769 89.71 25.3099L92.57 26.6299C93.0526 26.8593 93.4506 27.235 93.7073 27.7036C93.964 28.1722 94.0665 28.7098 94 29.2399L93.38 32.3199C93.1987 33.4953 93.296 34.6968 93.6643 35.8276C94.0325 36.9583 94.6613 37.9868 95.5 38.8299L97.76 40.9999C98.1216 41.3757 98.3587 41.8537 98.4393 42.369C98.5198 42.8842 98.4397 43.4118 98.21 43.8799L96.68 46.6199C96.1377 47.6784 95.8549 48.8506 95.8549 50.0399C95.8549 51.2292 96.1377 52.4015 96.68 53.4599L98.21 56.1999C98.4219 56.6585 98.4923 57.1698 98.4122 57.6686C98.332 58.1674 98.1049 58.6309 97.76 58.9999V58.9999Z" fill="white"/>
<path d="M16.83 72.4999L17.56 73.4999L18.84 71.7999L16.83 72.4999Z" fill="white"/>
<path d="M70.47 14.6899L68.95 16.0999L69.99 16.7099L70.47 14.6899Z" fill="white"/>
<path d="M51.55 9.71995C51.5661 9.60763 51.5562 9.49311 51.521 9.38524C51.4858 9.27737 51.4263 9.17903 51.347 9.09784C51.2678 9.01664 51.1709 8.95476 51.0639 8.91698C50.9569 8.8792 50.8427 8.86653 50.73 8.87995H50.27V10.4399H50.68C51.18 10.4599 51.54 10.2099 51.55 9.71995Z" fill="white"/>
<path d="M28.33 19.8C28.8 19.46 28.64 18.63 27.97 17.71C27.3 16.79 26.56 16.26 25.97 16.71C25.38 17.16 25.67 17.92 26.34 18.84C27.01 19.76 27.85 20.15 28.33 19.8Z" fill="white"/>
<path d="M79.77 22.84C79.8593 22.7708 79.9315 22.6821 79.9813 22.5807C80.031 22.4793 80.0568 22.3679 80.0568 22.255C80.0568 22.142 80.031 22.0306 79.9813 21.9292C79.9315 21.8278 79.8593 21.7391 79.77 21.67L79.46 21.33L78.34 22.4L78.62 22.7C79 23.09 79.41 23.17 79.77 22.84Z" fill="white"/>
<path d="M66.58 86.2799L67.7 85.7499L66.25 84.1799L66.58 86.2799Z" fill="white"/>
<path d="M89 58.68C88 58.42 87 58.57 86.74 59.54L86.65 59.89L90.65 60.89L90.75 60.55C90.89 59.62 90.09 59 89 58.68Z" fill="white"/>
<path d="M64.91 12.5599C64.9594 12.4568 64.9852 12.3439 64.9855 12.2295C64.9858 12.1151 64.9606 12.0021 64.9117 11.8987C64.8629 11.7953 64.7916 11.704 64.7031 11.6316C64.6146 11.5592 64.5111 11.5074 64.4 11.4799L64 11.3199L63.44 12.8199L63.83 12.9599C63.9263 13.0096 64.0319 13.0386 64.1401 13.0452C64.2482 13.0517 64.3566 13.0357 64.4582 12.998C64.5598 12.9604 64.6524 12.902 64.7302 12.8266C64.808 12.7512 64.8693 12.6603 64.91 12.5599V12.5599Z" fill="white"/>
</svg>
