<svg width="100" height="100" viewBox="0 0 100 100" fill="none" xmlns="http://www.w3.org/2000/svg">
<path d="M62.43 43.85C62.4588 43.8187 62.4748 43.7776 62.4748 43.735C62.4748 43.6924 62.4588 43.6514 62.43 43.62L61.58 42.77V42.49L63.74 40.84C63.7679 40.8204 63.7888 40.7923 63.7996 40.7599C63.8104 40.7275 63.8105 40.6925 63.8 40.66C63.7895 40.6257 63.7683 40.5956 63.7395 40.574C63.7108 40.5525 63.676 40.5406 63.64 40.54H60.29C60.2467 40.5426 60.206 40.5616 60.1762 40.5932C60.1465 40.6248 60.1299 40.6666 60.13 40.71V41.46H59.13V40.71C59.1301 40.6666 59.1136 40.6248 59.0838 40.5932C59.0541 40.5616 59.0134 40.5426 58.97 40.54H55.6C55.5645 40.542 55.5303 40.5544 55.5018 40.5758C55.4733 40.5971 55.4518 40.6265 55.44 40.66C55.4295 40.6925 55.4297 40.7275 55.4405 40.7599C55.4513 40.7923 55.4721 40.8204 55.5 40.84L57.67 42.49V43.68L56.81 44.53C56.7812 44.5614 56.7652 44.6024 56.7652 44.645C56.7652 44.6876 56.7812 44.7287 56.81 44.76L57.67 45.61V46.32L56.81 47.17C56.7812 47.2014 56.7652 47.2424 56.7652 47.285C56.7652 47.3276 56.7812 47.3687 56.81 47.4L57.67 48.25V49L56.81 49.86C56.7961 49.8954 56.7961 49.9347 56.81 49.97C56.7945 50.0085 56.7945 50.0516 56.81 50.09L57.67 50.94V51.65L56.81 52.5C56.7812 52.5314 56.7652 52.5724 56.7652 52.615C56.7652 52.6576 56.7812 52.6987 56.81 52.73L57.67 53.59V54.29L56.81 55.15C56.7812 55.1814 56.7652 55.2224 56.7652 55.265C56.7652 55.3076 56.7812 55.3487 56.81 55.38L57.7 56.27L59.49 57.91C59.5207 57.9361 59.5597 57.9504 59.6 57.9504C59.6403 57.9504 59.6793 57.9361 59.71 57.91L61.5 56.27C61.5194 56.2545 61.535 56.2347 61.5454 56.2121C61.5558 56.1896 61.5608 56.1649 61.56 56.14V52.64L62.41 51.79C62.4395 51.757 62.4559 51.7143 62.4559 51.67C62.4559 51.6258 62.4395 51.583 62.41 51.55L61.56 50.7V50L62.41 49.15C62.4388 49.1187 62.4548 49.0776 62.4548 49.035C62.4548 48.9924 62.4388 48.9514 62.41 48.92L61.56 48.07V47.36L62.41 46.51C62.4395 46.477 62.4559 46.4343 62.4559 46.39C62.4559 46.3458 62.4395 46.303 62.41 46.27L61.56 45.42V44.7L62.43 43.85ZM61.29 45.6L62.08 46.38L61.29 47.16C61.2745 47.1985 61.2745 47.2416 61.29 47.28V48.12C61.2745 48.1585 61.2745 48.2016 61.29 48.24L62.08 49.02L61.29 49.81C61.2761 49.8454 61.2761 49.8847 61.29 49.92V50.77C61.2754 50.8087 61.2754 50.8514 61.29 50.89L62.08 51.67L61.29 52.45C61.2754 52.4887 61.2754 52.5314 61.29 52.57V56.05L59.66 57.54L58 56L57.22 55.22L58 54.44C58.0146 54.4014 58.0146 54.3587 58 54.32V53.48C58.0146 53.4414 58.0146 53.3987 58 53.36L57.22 52.58L58 51.79C58.013 51.7545 58.013 51.7156 58 51.68V50.83C58.0117 50.7909 58.0117 50.7492 58 50.71L57.22 49.93L58 49.15C58.0115 49.1267 58.0175 49.101 58.0175 49.075C58.0175 49.049 58.0115 49.0234 58 49V48.16C58.0146 48.1214 58.0146 48.0787 58 48.04L57.22 47.26L58 46.5C58.013 46.4645 58.013 46.4256 58 46.39V45.54C58.013 45.5045 58.013 45.4656 58 45.43L57.22 44.64L58 43.86C58.0146 43.8214 58.0146 43.7787 58 43.74V42.4C57.9989 42.3745 57.992 42.3495 57.9799 42.327C57.9678 42.3045 57.9507 42.2851 57.93 42.27L56.09 40.87H58.78V41.63C58.78 41.6519 58.7844 41.6736 58.7931 41.6937C58.8017 41.7138 58.8144 41.7319 58.8304 41.7469C58.8463 41.7619 58.8651 41.7734 58.8857 41.7809C58.9063 41.7883 58.9282 41.7914 58.95 41.79H60.29C60.3119 41.7914 60.3337 41.7883 60.3543 41.7809C60.3749 41.7734 60.3937 41.7619 60.4097 41.7469C60.4256 41.7319 60.4383 41.7138 60.447 41.6937C60.4556 41.6736 60.4601 41.6519 60.46 41.63V40.87H63.15L61.35 42.24L59.14 42.4L61.24 42.56V42.83C61.2245 42.8685 61.2245 42.9116 61.24 42.95L62.03 43.73L61.24 44.52C61.2261 44.5554 61.2261 44.5947 61.24 44.63V45.48C61.2421 45.5247 61.2598 45.5672 61.29 45.6Z" fill="white"/>
<path d="M61.41 43.3L58.71 46C58.71 45.66 58.71 45.33 58.71 45C58.71 44.67 58.71 44.5 58.71 44.28L59.2 43.8L58.75 43.35L58.67 43.43C58.67 43.17 58.67 43.02 58.67 43.02V43.48L57.4 44.64L57.83 45.08L58.51 44.4C58.51 44.59 58.51 44.78 58.51 44.99C58.51 45.36 58.51 45.77 58.51 46.21L57.4 47.29L57.83 47.72L58.43 47.12C58.43 47.69 58.43 48.28 58.43 48.88L57.43 49.88L57.86 50.32L58.45 49.74C58.45 50.33 58.45 50.91 58.45 51.47L57.45 52.47L57.88 52.9L58.5 52.28C58.5 52.73 58.5 53.17 58.5 53.55C58.5 53.7 58.5 53.84 58.5 53.98L57.4 55.22L57.83 55.66L58.54 54.95C58.54 54.95 58.54 55.06 58.54 55.11C58.54 55.45 58.54 55.65 58.54 55.65V55.11C58.54 55.03 58.54 54.95 58.54 54.87L61.75 51.66L61.32 51.22L58.67 54C58.6752 53.9101 58.6752 53.8199 58.67 53.73C58.67 53.27 58.67 52.73 58.67 52.19L61.84 49L61.41 48.57L58.75 51.23C58.75 50.65 58.75 50.06 58.75 49.46L61.84 46.37L61.41 45.93L58.76 48.58C58.76 48.05 58.76 47.52 58.76 47.02V46.85L61.88 43.73L61.41 43.3Z" fill="white"/>
<path d="M70.67 46.32C70.6266 46.3199 70.5848 46.3364 70.5532 46.3662C70.5216 46.3959 70.5026 46.4366 70.5 46.48V47.69L70 48.19H68.8C68.7566 48.1899 68.7148 48.2064 68.6832 48.2362C68.6516 48.2659 68.6326 48.3066 68.63 48.35V49.56L68.13 50.06H66.92C66.9028 50.0519 66.884 50.0478 66.865 50.0478C66.846 50.0478 66.8272 50.0519 66.81 50.06C66.797 50.0955 66.797 50.1345 66.81 50.17V51.38L66.31 51.88H65.11C65.0882 51.8786 65.0663 51.8817 65.0457 51.8892C65.0251 51.8966 65.0063 51.9082 64.9904 51.9231C64.9744 51.9381 64.9617 51.9562 64.9531 51.9763C64.9444 51.9964 64.94 52.0181 64.94 52.04V53.3L64.44 53.8H63.18C63.1536 53.7957 63.1265 53.7981 63.1012 53.807C63.076 53.8159 63.0534 53.831 63.0355 53.8509C63.0175 53.8708 63.0049 53.8949 62.9987 53.9209C62.9925 53.947 62.993 53.9741 63 54V55.28L63.1 57.71C63.1024 57.7516 63.12 57.791 63.1495 57.8205C63.179 57.85 63.2184 57.8676 63.26 57.87L65.69 57.97C65.7089 57.9782 65.7294 57.9825 65.75 57.9825C65.7707 57.9825 65.7911 57.9782 65.81 57.97L68.28 55.51H69.48C69.5243 55.5076 69.5662 55.4889 69.5976 55.4575C69.6289 55.4261 69.6476 55.3843 69.65 55.34V54.14L70.15 53.64H71.35C71.3943 53.6376 71.4362 53.6189 71.4676 53.5875C71.4989 53.5561 71.5176 53.5143 71.52 53.47V52.27L72.02 51.77H73.22C73.2643 51.7676 73.3062 51.7489 73.3376 51.7175C73.3689 51.6861 73.3876 51.6443 73.39 51.6V50.4L73.89 49.9H75.09C75.1343 49.8976 75.1762 49.8789 75.2076 49.8475C75.2389 49.8161 75.2576 49.7743 75.26 49.73V48.53L75.45 48.33L78.15 48.7C78.1841 48.7039 78.2186 48.6974 78.249 48.6813C78.2793 48.6653 78.3041 48.6404 78.32 48.61C78.3389 48.5819 78.349 48.5488 78.349 48.515C78.349 48.4811 78.3389 48.448 78.32 48.42L75.94 46C75.9086 45.9712 75.8676 45.9552 75.825 45.9552C75.7824 45.9552 75.7414 45.9712 75.71 46L75.18 46.54L74.58 45.94L74.46 45.81L74.99 45.28C75.0133 45.2652 75.0326 45.2449 75.0463 45.221C75.06 45.1971 75.0677 45.1702 75.0687 45.1426C75.0696 45.115 75.0639 45.0877 75.0519 45.0628C75.04 45.038 75.0222 45.0164 75 45L72.63 42.63C72.6019 42.6111 72.5689 42.601 72.535 42.601C72.5012 42.601 72.4681 42.6111 72.44 42.63C72.4096 42.6459 72.3847 42.6707 72.3687 42.701C72.3526 42.7314 72.3461 42.7659 72.35 42.8L72.72 45.5L71.88 46.34L70.67 46.32ZM72.06 46.6L73 45.6C73.0106 45.5782 73.0161 45.5542 73.0161 45.53C73.0161 45.5057 73.0106 45.4818 73 45.46L72.69 43.17L74.59 45.07L74.06 45.61C74.0432 45.6241 74.0297 45.6416 74.0204 45.6615C74.0111 45.6814 74.0063 45.703 74.0063 45.725C74.0063 45.7469 74.0111 45.7686 74.0204 45.7884C74.0297 45.8083 74.0432 45.8259 74.06 45.84L75.06 46.84C75.0914 46.8688 75.1324 46.8848 75.175 46.8848C75.2176 46.8848 75.2586 46.8688 75.29 46.84L75.83 46.3L77.73 48.2L75.49 47.9L73.81 46.45L75.19 48.05L75 48.24C74.9918 48.2589 74.9875 48.2793 74.9875 48.3C74.9875 48.3206 74.9918 48.341 75 48.36V49.46H73.84C73.7957 49.4635 73.7537 49.481 73.72 49.51L73.12 50.11C73.1054 50.1486 73.1054 50.1913 73.12 50.23V51.34H72C71.9811 51.3317 71.9607 51.3274 71.94 51.3274C71.9194 51.3274 71.8989 51.3317 71.88 51.34L71.28 51.93C71.2654 51.9686 71.2654 52.0113 71.28 52.05V53.16H70.1C70.0552 53.1611 70.0124 53.1789 69.98 53.21L69.38 53.8C69.3683 53.8391 69.3683 53.8808 69.38 53.92V55.03H68.23C68.1913 55.0154 68.1487 55.0154 68.11 55.03L65.65 57.6L63.45 57.5L63.35 55.25V54.13H64.46C64.5018 54.1283 64.5413 54.1104 64.57 54.08L65.17 53.48C65.1846 53.4413 65.1846 53.3986 65.17 53.36V52.26H66.28C66.3155 52.273 66.3545 52.273 66.39 52.26L66.99 51.66C67.003 51.6245 67.003 51.5855 66.99 51.55V50.39H68.2C68.2355 50.403 68.2745 50.403 68.31 50.39L68.91 49.79C68.9246 49.7513 68.9246 49.7086 68.91 49.67V48.57H70.02C70.0643 48.5664 70.1063 48.5489 70.14 48.52L70.73 47.92C70.7446 47.8813 70.7446 47.8386 70.73 47.8V46.7H71.84C71.8825 46.708 71.9265 46.7027 71.9658 46.6848C72.0052 46.6669 72.0381 46.6373 72.06 46.6Z" fill="white"/>
<path d="M72 47.4399L71.57 47.84L70.68 48.68H69.12V49.2999H70L68.74 50.54H67.25V51.16H68.08L66.86 52.4H65.38V53H66.26L65.38 53.93L65.09 54.24H63.51V54.86H64.51L64.41 54.9799L64.05 55.38L64.46 55.02L64.63 54.86H69.17V54.2299H65.32L65.51 54.0499C65.85 53.7299 66.23 53.38 66.63 52.99H71V52.36H67.28C67.69 51.96 68.12 51.5499 68.54 51.1199H72.91V50.49H69.17L70.26 49.38L70.38 49.25H74.79V48.6199H71L71.67 47.91L72.16 47.38H72.85V46.75H72.74L73 46.45L72.66 46.75H71V47.38L72 47.4399Z" fill="white"/>
<path d="M34.76 47.56C34.6778 47.2524 34.4767 46.99 34.201 46.8306C33.9254 46.6712 33.5977 46.6278 33.29 46.71C32.9824 46.7922 32.72 46.9933 32.5606 47.269C32.4012 47.5447 32.3578 47.8724 32.44 48.18L34 53.9C34.0407 54.0524 34.111 54.1952 34.2069 54.3203C34.3028 54.4455 34.4225 54.5505 34.559 54.6295C34.6955 54.7084 34.8462 54.7597 35.0025 54.7804C35.1588 54.801 35.3177 54.7907 35.47 54.75C35.6223 54.7093 35.7652 54.639 35.8903 54.5431C36.0155 54.4472 36.1205 54.3276 36.1995 54.1911C36.2784 54.0546 36.3296 53.9038 36.3503 53.7475C36.371 53.5912 36.3607 53.4324 36.32 53.28L34.76 47.56Z" fill="white"/>
<path d="M31.47 50.8499C31.3878 50.5423 31.1867 50.2799 30.9111 50.1205C30.6354 49.9611 30.3077 49.9177 30 49.9999C29.6924 50.0822 29.43 50.2832 29.2706 50.5589C29.1112 50.8346 29.0678 51.1623 29.15 51.4699L30.68 57.1899C30.7207 57.3423 30.7911 57.4851 30.887 57.6103C30.9829 57.7354 31.1025 57.8405 31.239 57.9194C31.3755 57.9983 31.5262 58.0496 31.6825 58.0703C31.8388 58.091 31.9977 58.0807 32.15 58.0399C32.3024 57.9992 32.4452 57.9289 32.5703 57.833C32.6955 57.7371 32.8005 57.6175 32.8795 57.481C32.9584 57.3445 33.0097 57.1938 33.0304 57.0374C33.051 56.8811 33.0407 56.7223 33 56.5699L31.47 50.8499Z" fill="white"/>
<path d="M56.23 62.9399C55.9938 62.7042 55.6737 62.5719 55.34 62.5719C55.0063 62.5719 54.6862 62.7042 54.45 62.9399L54.33 63.0599C53.4923 63.5722 52.5608 63.9122 51.59 64.0599C49.95 63.6099 47.75 61.2099 45.27 57.1999L45.79 56.6799C46.1854 56.31 46.444 55.8172 46.5239 55.2816C46.6038 54.746 46.5002 54.1992 46.23 53.7299L44.23 50.9399L49.61 45.5699C50.0192 45.1591 50.3278 44.6591 50.5116 44.1092C50.6955 43.5593 50.7497 42.9743 50.67 42.3999L53 40.0999C53.7634 39.2125 54.2345 38.1111 54.349 36.9461C54.4636 35.7811 54.216 34.6091 53.64 33.5899L61.28 25.9499L61 24.0499L59.12 23.8199L51.48 31.4699C50.4668 30.8937 49.3003 30.645 48.1402 30.7578C46.9801 30.8706 45.8832 31.3394 45 32.0999L42.67 34.4199C42.0918 34.3406 41.5031 34.3959 40.9498 34.5815C40.3965 34.7671 39.8935 35.078 39.48 35.4899L24.12 50.8199C23.4086 51.5324 23.009 52.4981 23.009 53.5049C23.009 54.5118 23.4086 55.4775 24.12 56.1899L28.89 60.9999C29.242 61.3519 29.6598 61.6311 30.1196 61.8216C30.5794 62.012 31.0723 62.1101 31.57 62.1101C32.0677 62.1101 32.5606 62.012 33.0204 61.8216C33.4803 61.6311 33.8981 61.3519 34.25 60.9999L34.78 60.4799C34.7974 60.4725 34.8161 60.4687 34.835 60.4687C34.8539 60.4687 34.8726 60.4725 34.89 60.4799C34.935 60.4919 34.977 60.5132 35.0132 60.5425C35.0494 60.5718 35.079 60.6084 35.1 60.6499L43.32 74.1699L43.26 74.2299L48.66 79.6299C48.8959 79.8664 49.216 79.9994 49.55 79.9999C49.7156 80.0008 49.8796 79.9685 50.0324 79.905C50.1853 79.8414 50.3239 79.7479 50.44 79.6299L50.15 79.3399L50.44 79.6299L60.74 69.3299C60.8576 69.2145 60.9511 69.0768 61.0148 68.9248C61.0786 68.7729 61.1115 68.6097 61.1115 68.4449C61.1115 68.2801 61.0786 68.117 61.0148 67.965C60.9511 67.8131 60.8576 67.6754 60.74 67.5599L56.23 62.9399ZM44.46 52.5199C44.8195 52.936 45.1535 53.3735 45.46 53.8299C45.5615 53.9552 45.6518 54.089 45.73 54.2299C45.8116 54.3807 45.8562 54.5486 45.86 54.7199C45.8856 54.8689 45.8856 55.021 45.86 55.1699C45.8289 55.2986 45.7819 55.4229 45.72 55.5399C45.633 55.7137 45.5143 55.8698 45.37 55.9999L45.21 56.1399C45.2389 56.0776 45.2723 56.0174 45.31 55.9599C45.3927 55.8013 45.4564 55.6335 45.5 55.4599C45.5512 55.226 45.5512 54.9838 45.5 54.7499C45.4871 54.6288 45.446 54.5124 45.38 54.4099C45.3026 54.2924 45.2192 54.1789 45.13 54.0699C44.77 53.5699 44.45 53.0699 44.22 52.6499C43.99 52.2299 43.87 51.9699 43.87 51.9699C43.87 51.9699 44.15 52.1799 44.46 52.5199ZM59.46 24.6799L60.31 24.7899L60.42 25.6399L59.53 26.5299L59.12 24.9999L59.46 24.6799ZM58.46 25.6799L58.86 27.1899L58.31 27.7299L57.91 26.2299L58.46 25.6799ZM57.27 26.8699L57.67 28.3699L57.12 28.9199L56.72 27.4199L57.27 26.8699ZM56.1 27.9999L56.51 29.5099L55.96 30.0599L55.55 28.5499L56.1 27.9999ZM54.92 29.1899L55.32 30.6999L54.77 31.2499L54.37 29.7399L54.92 29.1899ZM53.73 30.3799L54.13 31.8899L53.13 32.8899C52.9937 32.7084 52.8432 32.5379 52.68 32.3799C52.52 32.2199 52.35 32.0699 52.18 31.9299L53.73 30.3799ZM45 33.2499L48.43 36.6799L51.85 40.0999L50.45 41.5099C50.3601 41.29 50.2496 41.0791 50.12 40.8799C49.979 40.6508 49.8112 40.4393 49.62 40.2499L44.86 35.4799C44.6794 35.3041 44.4818 35.1467 44.27 35.0099C44.0965 34.8958 43.9123 34.7986 43.72 34.7199C43.6856 34.6962 43.6487 34.6761 43.61 34.6599L45 33.2499ZM35.8 60.1199C35.716 59.9715 35.5995 59.8441 35.4592 59.7471C35.319 59.6501 35.1585 59.5861 34.99 59.5599C34.8452 59.548 34.6995 59.5677 34.563 59.6178C34.4266 59.6679 34.3027 59.7471 34.2 59.8499L33.67 60.3699C33.1092 60.9196 32.3553 61.2275 31.57 61.2275C30.7848 61.2275 30.0308 60.9196 29.47 60.3699L24.7 55.6099C24.1473 55.0487 23.8375 54.2926 23.8375 53.5049C23.8375 52.7173 24.1473 51.9612 24.7 51.3999L40.05 36.0599C40.3942 35.7185 40.8159 35.4656 41.2792 35.3228C41.7424 35.18 42.2334 35.1515 42.71 35.2399V35.2399C42.8764 35.2794 43.0401 35.3295 43.2 35.3899L43.35 35.4499C43.4641 35.5021 43.5744 35.5623 43.68 35.6299L43.82 35.7199C43.9697 35.8166 44.1073 35.9308 44.23 36.0599L49 40.8199C49.127 40.9483 49.2409 41.089 49.34 41.2399L49.42 41.3699C49.4893 41.4833 49.5527 41.6001 49.61 41.7199L49.67 41.8599C49.7304 42.0156 49.7773 42.1762 49.81 42.3399V42.3399C49.8997 42.8158 49.8729 43.3062 49.7318 43.7695C49.5908 44.2327 49.3397 44.6549 49 44.9999L43.32 50.6799C42.8445 51.1873 42.5344 51.8271 42.4308 52.5147C42.3272 53.2022 42.4351 53.9051 42.74 54.5299C45.09 58.8099 48.48 64.0799 51.36 64.8599C51.8017 64.9168 52.2505 64.8546 52.66 64.6799L43.9 73.4399L35.8 60.1199ZM54.8 73.5999L52.28 76.2399L51 77.5599L50.37 78.2199L50.06 78.5499L49.9 78.7099L49.82 78.7999C49.82 78.7999 49.91 78.7399 49.73 78.8699L49.56 78.9499L49.42 78.8099L44.78 74.3599L45.36 73.7799L49.64 78.2099L49.75 78.0999L50.08 77.7799L50.74 77.1499L52 75.9399L54.63 73.3999L59.89 68.3299L54.8 73.5999Z" fill="white"/>
<path d="M48.72 64.72C48.2779 64.315 47.8636 63.8807 47.48 63.42C47.01 62.91 46.55 62.27 46.03 61.59C45.51 60.91 45.03 60.12 44.5 59.29C43.97 58.46 43.5 57.58 42.94 56.62L42.15 55.19C41.8976 54.7414 41.7186 54.2552 41.62 53.75C41.4681 52.707 41.6913 51.6438 42.25 50.75C42.4041 50.5182 42.5745 50.2976 42.76 50.09L43.34 49.5L44.55 48.29L46.87 45.91C47.25 45.53 47.61 45.15 47.98 44.77C48.1687 44.5845 48.3457 44.3874 48.51 44.18C48.6975 43.9505 48.8277 43.6797 48.89 43.39C48.9533 43.1132 48.9585 42.8263 48.9051 42.5475C48.8517 42.2686 48.741 42.0039 48.58 41.77L48.35 41.51L48.09 41.25L47.61 40.8C46.37 39.61 45.29 38.65 44.61 37.96L43.43 36.9L44.5 38.07C45.18 38.81 46.14 39.88 47.34 41.07C47.48 41.23 47.64 41.39 47.79 41.55L48.01 41.78L48.22 42.05C48.4129 42.3974 48.4631 42.8063 48.36 43.19C48.1986 43.6145 47.9171 43.9828 47.55 44.25L46.41 45.35L44 47.76L42.77 49L42.14 49.63C41.9416 49.8511 41.7579 50.085 41.59 50.33C40.914 51.3966 40.6475 52.672 40.84 53.92C40.8987 54.2198 40.9824 54.5141 41.09 54.8C41.2019 55.0783 41.3322 55.3489 41.48 55.61C41.76 56.09 42.04 56.56 42.32 57.02C42.84 57.96 43.45 58.83 44 59.66C44.55 60.49 45.13 61.23 45.67 61.91C46.1599 62.5287 46.6876 63.1165 47.25 63.67C47.6805 64.1021 48.1381 64.5062 48.62 64.88C48.9389 65.1151 49.2729 65.3289 49.62 65.52L49.99 65.71L49.65 65.48C49.3234 65.2477 49.0127 64.9938 48.72 64.72Z" fill="white"/>
<path d="M50 17.33C43.5385 17.33 37.222 19.246 31.8495 22.8358C26.4769 26.4257 22.2895 31.528 19.8168 37.4977C17.3441 43.4674 16.6971 50.0362 17.9577 56.3736C19.2183 62.7109 22.3298 68.5322 26.8988 73.1011C31.4678 77.6701 37.289 80.7816 43.6264 82.0422C49.9637 83.3028 56.5326 82.6558 62.5022 80.1831C68.4719 77.7104 73.5743 73.523 77.1641 68.1504C80.7539 62.7779 82.67 56.4615 82.67 50C82.662 41.3378 79.2175 33.0326 73.0924 26.9076C66.9673 20.7825 58.6622 17.3379 50 17.33V17.33ZM50 80.67C43.934 80.67 38.0043 78.8712 32.9606 75.5011C27.917 72.1311 23.9859 67.3411 21.6646 61.7369C19.3432 56.1326 18.7359 49.9659 19.9193 44.0165C21.1027 38.0671 24.0237 32.6023 28.313 28.313C32.6023 24.0237 38.0672 21.1027 44.0166 19.9193C49.9659 18.7359 56.1327 19.3432 61.7369 21.6646C67.3411 23.9859 72.1311 27.917 75.5011 32.9606C78.8712 38.0043 80.67 43.934 80.67 50C80.6594 58.1309 77.4247 65.9258 71.6752 71.6752C65.9258 77.4247 58.1309 80.6594 50 80.67V80.67Z" fill="white"/>
<path d="M94.91 50C94.91 41.1176 92.2761 32.4347 87.3413 25.0493C82.4065 17.6639 75.3925 11.9077 67.1863 8.50856C58.9801 5.10943 49.9502 4.22006 41.2385 5.95292C32.5268 7.68578 24.5246 11.963 18.2438 18.2438C11.963 24.5246 7.68578 32.5268 5.95292 41.2385C4.22006 49.9502 5.10943 58.9801 8.50856 67.1863C11.9077 75.3925 17.6639 82.4065 25.0493 87.3413C32.4347 92.2761 41.1176 94.91 50 94.91C61.9036 94.8862 73.3128 90.147 81.7299 81.7299C90.147 73.3128 94.8862 61.9036 94.91 50ZM50 92.91C41.5132 92.91 33.217 90.3934 26.1605 85.6783C19.104 80.9633 13.6041 74.2617 10.3563 66.4209C7.10856 58.5802 6.2588 49.9524 7.91449 41.6287C9.57018 33.3049 13.657 25.6591 19.658 19.658C25.6591 13.657 33.3049 9.57018 41.6287 7.91449C49.9524 6.2588 58.5802 7.10856 66.4209 10.3563C74.2617 13.6041 80.9633 19.104 85.6783 26.1605C90.3934 33.217 92.91 41.5132 92.91 50C92.8862 61.3731 88.3577 72.2736 80.3157 80.3157C72.2736 88.3577 61.3731 92.8862 50 92.91V92.91Z" fill="white"/>
<path d="M18.68 71.74C20.59 70.74 21.33 68.49 19.99 66.06L18.31 63L17 63.74L17.34 64.36L13 66.75L12.66 66.13L11.33 66.86L12.98 69.86C14.33 72.34 16.4 73 18.68 71.74ZM14.33 69.18L14.12 68.8L18.46 66.41L18.67 66.79C19.25 67.85 18.49 68.85 17.41 69.44C16.16 70.13 14.93 70.23 14.33 69.18V69.18Z" fill="white"/>
<path d="M19.07 76.15L22.94 73.06L23.38 73.61L24.56 72.67L22.19 69.71L21.02 70.65L21.46 71.21L17.59 74.31L17.14 73.74L15.95 74.69L18.32 77.65L19.51 76.71L19.07 76.15Z" fill="white"/>
<path d="M25.33 76.46C25.6 76.17 26.07 76.32 26.33 76.54C26.4864 76.6491 26.6176 76.7906 26.7145 76.9549C26.8115 77.1192 26.872 77.3023 26.8919 77.4921C26.9118 77.6818 26.8907 77.8735 26.83 78.0543C26.7693 78.2352 26.6704 78.4008 26.54 78.54L28.08 79.92L30 77.74L28.53 76.43L27.81 77.07C27.8831 76.6078 27.8285 76.1344 27.6523 75.7009C27.4761 75.2673 27.1848 74.8902 26.81 74.61C26.3201 74.1294 25.6612 73.8601 24.975 73.8601C24.2887 73.8601 23.6298 74.1294 23.14 74.61C21.2 76.78 24.72 79.42 24.14 80.09C23.82 80.45 23.33 80.09 23.03 79.87C22.73 79.65 22.08 78.77 22.72 78.06L21.14 76.64L19.22 78.79L20.71 80.12L21.39 79.55C21.3853 80.0001 21.4796 80.4457 21.6662 80.8552C21.8528 81.2648 22.1272 81.6283 22.47 81.92C23.47 82.83 25.15 83.46 26.34 82.13C28.1 80.15 24.54 77.34 25.33 76.46Z" fill="white"/>
<path d="M38.44 83.92L39 84.2L39.66 82.88L35.77 80.94L32.88 84.26L33.76 79.93L29.89 78L29.23 79.32L29.77 79.59L27.52 84.09L27 83.81L26.34 85.12L29.11 86.51L29.77 85.19L29.18 84.9L31.18 80.9C30.9968 81.3423 30.8562 81.801 30.76 82.27L29.86 86.92L32 88L35.06 84.56C35.25 84.36 35.73 83.76 36.06 83.34L35.76 83.94L34.1 87.36L33.53 87.08L32.86 88.4L36.09 90L36.75 88.67L36.19 88.39L38.44 83.92Z" fill="white"/>
<path d="M45.54 83.77L41.23 83L41 84.44L41.46 84.52L39 89.18L38.26 89L38 90.51L41.57 91.16L41.84 89.69L41 89.53L41.38 88.81L43.68 89.22L43.78 90.03L42.71 89.84L42.44 91.31L46.95 92.12L47.21 90.65L46.43 90.51L45.54 83.77ZM42 87.54L43.16 85.24L43.47 87.8L42 87.54Z" fill="white"/>
<path d="M70.18 83.42L70.89 84.68L69.61 85.41L67.18 81.09L67.7 80.79L66.96 79.48L63.82 81.25L63.84 81.29L56.64 83.59L56.65 83.62L53.4 83.86L53.5 85.33L54.28 85.27L54.47 87.98L51.38 84L48.12 84.24L48.22 85.71L48.88 85.66L49.24 90.68L48.57 90.73L48.68 92.2L52.17 91.94L52.07 90.48L51.19 90.54L50.98 87.67L54.2 91.8L56.65 91.62L56.18 85.13L56.93 85.08L56.87 84.32L57.54 86.41L59.14 85.91L58.7 84.51L59.63 84.22L61.13 88.94L60.24 89.22L60.7 90.67L64.75 89.38L64.29 87.93L63.39 88.22L61.88 83.5L62.8 83.21L63.24 84.6L64.84 84.09L64.08 81.72L64.56 82.56L65.11 82.25L67.54 86.57L66.99 86.88L67.73 88.2L73.31 85.06L71.85 82.48L70.18 83.42Z" fill="white"/>
<path d="M75.88 81.13L72.81 77.23L73.37 76.79L72.44 75.6L69.46 77.94L70.39 79.13L70.95 78.69L74.02 82.59L73.45 83.03L74.39 84.23L77.37 81.89L76.43 80.69L75.88 81.13Z" fill="white"/>
<path d="M79.52 70.14L78.41 69.17L76.14 71.75L77.25 72.72L77.77 72.14L79.81 73.93L74.81 73.26L72.65 75.72L73.75 76.7L74.19 76.2L77.97 79.52L77.53 80.03L78.64 81L80.95 78.37L79.84 77.4L79.26 78.06L77.1 76.16L82.29 76.84L83.91 75L79.02 70.7L79.52 70.14Z" fill="white"/>
<path d="M86.75 64.11L85.66 63.55L83.93 66.92L85.01 67.48L85.33 66.86L85.76 67.08C85.88 67.2627 85.944 67.4765 85.944 67.695C85.944 67.9136 85.88 68.1273 85.76 68.31C85.31 69.19 84.21 69.31 83.18 68.74C82.15 68.17 81.55 67.19 82 66.36C82.0889 66.202 82.2088 66.0635 82.3524 65.9528C82.4961 65.8422 82.6605 65.7616 82.836 65.7158C83.0114 65.6701 83.1943 65.6602 83.3737 65.6867C83.5531 65.7132 83.7252 65.7755 83.88 65.87L84.82 64.05L81.82 62.51L81 64L81.62 64.59C81.1979 64.6561 80.8012 64.8337 80.4707 65.1045C80.1402 65.3752 79.8879 65.7292 79.74 66.13C78.93 67.72 79.66 70.03 81.87 71.13C84.08 72.23 86.17 71.56 87.09 69.79C87.2661 69.4894 87.3679 69.1512 87.3871 68.8033C87.4062 68.4555 87.3421 68.1081 87.2 67.79H88L89 65.79L86.46 64.49L86.75 64.11Z" fill="white"/>
<path d="M11.63 37.94L16.31 39.56L16.08 40.24L17.51 40.74L18.75 37.16L17.32 36.66L17.09 37.33L12.41 35.71L12.64 35.04L11.21 34.54L9.97 38.13L11.4 38.62L11.63 37.94Z" fill="white"/>
<path d="M13.34 33.0201L17.69 35.55L17.35 36.14L18.63 36.8801L20.39 33.84L19.11 33.1L18.67 33.87L16.18 32.42L21.41 32.09L22.64 29.96L17.01 26.7001L17.39 26.0401L16.12 25.3L14.39 28.2701L15.67 29.0201L16.06 28.34L18.41 29.71L13.38 30.0201L11.73 32.8601L13 33.6L13.34 33.0201Z" fill="white"/>
<path d="M24.66 24.4C25 24.73 24.66 25.21 24.39 25.49C24.12 25.77 23.26 26.4 22.57 25.73L21.09 27.25L23.16 29.25L24.55 27.81L24 27.11C24.4522 27.1328 24.9039 27.0549 25.3223 26.8819C25.7408 26.709 26.1157 26.4454 26.42 26.11C27.37 25.11 28.07 23.49 26.79 22.25C24.86 20.38 21.91 23.82 21.07 23C20.9541 22.852 20.9008 22.6645 20.9213 22.4776C20.9419 22.2908 21.0347 22.1193 21.18 22C21.2953 21.8492 21.4415 21.7247 21.6089 21.6351C21.7763 21.5455 21.9609 21.4927 22.1504 21.4804C22.3399 21.4681 22.5298 21.4965 22.7074 21.5637C22.885 21.6309 23.0461 21.7354 23.18 21.87L24.62 20.39L22.56 18.39L21.19 19.8L21.8 20.55C21.3423 20.4566 20.8677 20.4911 20.4284 20.6499C19.9891 20.8087 19.6021 21.0855 19.31 21.45C18.8075 21.9182 18.5115 22.5667 18.4871 23.2531C18.4627 23.9395 18.712 24.6074 19.18 25.11C21.24 27.19 24 23.78 24.66 24.4Z" fill="white"/>
<path d="M27.11 18.6899L26.31 17.4699L27.13 16.9299L29.83 21.0899L29.05 21.5999L29.88 22.8699L33.44 20.5499L32.61 19.2799L31.81 19.7999L29.11 15.6399L29.92 15.1199L30.71 16.3499L32.12 15.4299L30.5 12.9399L24.08 17.1199L25.7 19.6099L27.11 18.6899Z" fill="white"/>
<path d="M34.79 12.7L35 17.94L34.27 18.19L34.76 19.61L38.19 18.42L37.66 17L36.82 17.29V16.48L39 15.73L39.48 16.38L38.48 16.73L39 18.15L43.32 16.65L42.84 15.24L42 15.5L38 10L33.85 11.43L34.33 12.82L34.79 12.7ZM38.16 14.57L36.75 15.06L36.64 12.48L38.16 14.57Z" fill="white"/>
<path d="M43.32 10.3L43.82 15.23L43.2 15.29L43.35 16.8L49.71 16.15L49.41 13.2L47.5 13.39L47.65 14.84L46.18 14.99L45.68 10.06L46.28 10L46.13 8.5L42.54 8.87L42.69 10.36L43.32 10.3Z" fill="white"/>
<path d="M56.56 13.79L54.65 13.61L54.52 15.05L53.05 14.92L53.51 9.98996L54.11 10.04L54.25 8.53996L50.66 8.20996L50.52 9.70996L51.14 9.76996L50.69 14.7L50.06 14.64L49.92 16.15L56.28 16.74L56.56 13.79Z" fill="white"/>
<path d="M59.79 17.74L60.26 16.33L59.42 16L59.89 15.34L62.11 16.08V16.9L61.11 16.55L60.59 18L64.93 19.45L65.41 18L64.65 17.75L64.79 11L60.63 9.60999L60.16 11L60.6 11.15L57.55 15.42L56.82 15.18L56.34 16.59L59.79 17.74ZM62.21 12.11L62.14 14.69L60.72 14.22L62.21 12.11Z" fill="white"/>
<path d="M70.65 21.41L69.85 20.9L72.5 16.72L73.31 17.24L72.53 18.47L73.94 19.37L75.53 16.86L69.08 12.76L67.48 15.26L68.9 16.16L69.68 14.93L70.51 15.46L67.85 19.63L67.06 19.13L66.25 20.41L69.83 22.69L70.65 21.41Z" fill="white"/>
<path d="M72.82 23.18L72.29 22.69L71.27 23.82L74.07 26.37L75.09 25.25L74.57 24.77L77.91 21.11L78.43 21.58L79.44 20.47L76.64 17.92L75.63 19.03L76.16 19.52L72.82 23.18Z" fill="white"/>
<path d="M76.61 29.69C78.17 31.69 80.3 31.92 82.35 30.35C84.4 28.78 84.93 26.74 83.23 24.51C82.9104 24.0689 82.5021 23.6995 82.0314 23.4254C81.5607 23.1514 81.0379 22.9787 80.4965 22.9184C79.9552 22.8582 79.4072 22.9117 78.8877 23.0755C78.3683 23.2394 77.8888 23.51 77.48 23.87C75.22 25.6 75.16 27.79 76.61 29.69ZM79.2 26.11C80.32 25.25 81.41 25.01 81.83 25.57C82.25 26.13 81.71 27.25 80.61 28.09C79.51 28.93 78.47 29.17 78.03 28.6C77.59 28.03 78 27 79.2 26.11Z" fill="white"/>
<path d="M80.86 32.76L80.59 32.14L79.24 32.72L80.62 35.95L81.98 35.37L81.63 34.56L84.28 33.42L81.42 37.81L82.39 40.07L88.38 37.51L88.67 38.2L90.03 37.62L88.67 34.46L87.32 35.04L87.62 35.75L85.13 36.82L87.88 32.6L86.58 29.59L85.23 30.17L85.49 30.78L80.86 32.76Z" fill="white"/>
<path d="M53.94 0L51.12 3.47C52.8091 3.50851 54.495 3.6387 56.17 3.86L53.94 0Z" fill="white"/>
<path d="M23.79 7.23999L23.56 11.69C24.9407 10.717 26.3728 9.81905 27.85 8.99999L23.79 7.23999Z" fill="white"/>
<path d="M21.73 13L17.43 11.84L17.89 16.28C19.1092 15.1174 20.3911 14.0224 21.73 13V13Z" fill="white"/>
<path d="M46.07 0L43.84 3.86C45.4984 3.63976 47.1675 3.50957 48.84 3.47L46.07 0Z" fill="white"/>
<path d="M38.29 1.22998L36.7 5.37998C38.3126 4.90776 39.948 4.51726 41.6 4.20998L38.29 1.22998Z" fill="white"/>
<path d="M30.81 3.66003L29.88 8.00003C31.3964 7.27379 32.9521 6.63279 34.54 6.08003L30.81 3.66003Z" fill="white"/>
<path d="M5.38001 36.7L1.23001 38.29L4.23001 41.5999C4.53071 39.9483 4.91453 38.3129 5.38001 36.7V36.7Z" fill="white"/>
<path d="M7.99999 29.88L3.64999 30.81L6.07999 34.54C6.63275 32.9521 7.27375 31.3964 7.99999 29.88V29.88Z" fill="white"/>
<path d="M11.69 23.5601L7.23999 23.7901L8.99999 27.8501C9.81905 26.3728 10.717 24.9408 11.69 23.5601V23.5601Z" fill="white"/>
<path d="M16.3 17.8901L11.86 17.4301L13 21.7301C14.0289 20.3906 15.1305 19.1087 16.3 17.8901V17.8901Z" fill="white"/>
<path d="M3.86 43.83L0 46.06L3.47 48.88C3.51349 47.1911 3.64366 45.5055 3.86 43.83V43.83Z" fill="white"/>
<path d="M93.91 34.54L96.34 30.81L92 29.88C92.7229 31.3966 93.3605 32.9524 93.91 34.54V34.54Z" fill="white"/>
<path d="M95.78 41.5999L98.78 38.29L94.61 36.7C95.0916 38.31 95.4822 39.946 95.78 41.5999V41.5999Z" fill="white"/>
<path d="M92.76 23.7901L88.31 23.5601C89.283 24.9408 90.1809 26.3728 91 27.8501L92.76 23.7901Z" fill="white"/>
<path d="M61.71 1.22998L58.4 4.22998C60.052 4.53726 61.6874 4.92776 63.3 5.39998L61.71 1.22998Z" fill="white"/>
<path d="M96.53 48.88L100 46.06L96.13 43.83C96.3546 45.5048 96.4882 47.1906 96.53 48.88V48.88Z" fill="white"/>
<path d="M69.19 3.66003L65.46 6.09003C67.0435 6.64197 68.5958 7.27958 70.11 8.00003L69.19 3.66003Z" fill="white"/>
<path d="M88.14 17.4301L83.69 17.8901C84.8655 19.106 85.9707 20.3881 87 21.7301L88.14 17.4301Z" fill="white"/>
<path d="M76.2 7.23999L72.2 9.03999C73.6763 9.84605 75.1084 10.7307 76.49 11.69L76.2 7.23999Z" fill="white"/>
<path d="M82.57 11.86L78.26 13C79.5994 14.0289 80.8814 15.1305 82.1 16.3L82.57 11.86Z" fill="white"/>
<path d="M83.69 82.11L88.14 82.57L87 78.27C85.9707 79.612 84.8655 80.8941 83.69 82.11Z" fill="white"/>
<path d="M78.26 87L82.57 88.16L82.1 83.7C80.8814 84.8694 79.5994 85.9711 78.26 87V87Z" fill="white"/>
<path d="M76.2 92.7601L76.44 88.3101C75.0593 89.283 73.6272 90.181 72.15 91.0001L76.2 92.7601Z" fill="white"/>
<path d="M69.19 96.34L70.11 92C68.5978 92.728 67.0453 93.369 65.46 93.92L69.19 96.34Z" fill="white"/>
<path d="M61.71 98.77L63.3 94.62C61.6874 95.0922 60.052 95.4827 58.4 95.79L61.71 98.77Z" fill="white"/>
<path d="M3.47 51.12L0 53.94L3.86 56.17C3.64366 54.4944 3.51349 52.8089 3.47 51.12V51.12Z" fill="white"/>
<path d="M94.61 63.3L98.77 61.71L95.77 58.39C95.4766 60.0473 95.0894 61.6866 94.61 63.3Z" fill="white"/>
<path d="M96.13 56.17L100 53.94L96.53 51.12C96.4882 52.8093 96.3546 54.4951 96.13 56.17V56.17Z" fill="white"/>
<path d="M53.94 100L56.17 96.13C54.4951 96.3546 52.8093 96.4882 51.12 96.53L53.94 100Z" fill="white"/>
<path d="M88.31 76.44L92.76 76.21L91 72.15C90.1809 73.6272 89.283 75.0593 88.31 76.44V76.44Z" fill="white"/>
<path d="M92 70.12L96.35 69.19L93.92 65.46C93.3672 67.0478 92.7262 68.6036 92 70.12V70.12Z" fill="white"/>
<path d="M7.23999 76.21L11.69 76.44C10.717 75.0593 9.81905 73.6272 8.99999 72.15L7.23999 76.21Z" fill="white"/>
<path d="M11.86 82.57L16.31 82.11C15.1344 80.8906 14.0293 79.6052 13 78.26L11.86 82.57Z" fill="white"/>
<path d="M6.09 65.46L3.66 69.19L8 70.12C7.27715 68.6034 6.63949 67.0476 6.09 65.46V65.46Z" fill="white"/>
<path d="M4.22 58.39L1.22 61.71L5.38 63.3C4.90528 61.6854 4.51805 60.0464 4.22 58.39V58.39Z" fill="white"/>
<path d="M30.81 96.34L34.54 93.91C32.9524 93.3605 31.3966 92.7229 29.88 92L30.81 96.34Z" fill="white"/>
<path d="M38.29 98.77L41.6 95.77C39.948 95.4627 38.3126 95.0722 36.7 94.6L38.29 98.77Z" fill="white"/>
<path d="M17.43 88.14L21.74 87C20.3958 85.9802 19.1104 84.8851 17.89 83.72L17.43 88.14Z" fill="white"/>
<path d="M46.07 100L48.88 96.53C47.2078 96.4854 45.5389 96.3553 43.88 96.14L46.07 100Z" fill="white"/>
<path d="M23.79 92.76L27.85 91C26.3737 90.1939 24.9416 89.3093 23.56 88.35L23.79 92.76Z" fill="white"/>
<path d="M90.84 51.68L91 50H89.06C89.1503 50.5658 89.0519 51.1456 88.78 51.65C88.3924 51.2101 88.0568 50.7269 87.78 50.21C90.07 48.83 89.51 46.46 87.26 46.46C86.8918 46.4553 86.53 46.5567 86.2178 46.7519C85.9056 46.9471 85.6561 47.2279 85.4991 47.561C85.3421 47.894 85.2841 48.2652 85.3321 48.6303C85.3802 48.9953 85.5321 49.3389 85.77 49.62C85.2971 49.852 84.8975 50.21 84.6151 50.6547C84.3328 51.0994 84.1788 51.6133 84.17 52.14C84.17 54.71 87.41 54.61 88.53 53.78C88.7041 53.947 88.9214 54.0622 89.1573 54.1128C89.3932 54.1633 89.6385 54.1472 89.8658 54.0663C90.0931 53.9853 90.2934 53.8427 90.4443 53.6544C90.5951 53.4661 90.6906 53.2395 90.72 53C90.26 53.26 89.88 53 89.56 52.57C89.7467 52.3175 89.8763 52.0275 89.94 51.72C90.28 51.71 90.57 51.68 90.84 51.68ZM86.45 50.87C86.7868 51.5447 87.1995 52.1788 87.68 52.76C86.58 53.67 84.5 52.55 86.45 50.87ZM87.1 48.87C86.73 48.49 86.56 47.38 87.41 47.38C88.26 47.38 88.11 48.31 87.1 48.87V48.87Z" fill="white"/>
<path d="M13.41 53.74C13.5832 53.9097 13.8004 54.0275 14.037 54.0802C14.2737 54.1329 14.5203 54.1184 14.7492 54.0383C14.978 53.9583 15.1799 53.8158 15.332 53.627C15.4841 53.4382 15.5804 53.2106 15.61 52.97C15.15 53.23 14.77 52.97 14.45 52.54C14.6367 52.2875 14.7663 51.9975 14.83 51.69C15.17 51.69 15.46 51.69 15.73 51.69L15.84 50H14C14.0903 50.5658 13.9919 51.1456 13.72 51.65C13.3324 51.2101 12.9968 50.7269 12.72 50.21C15.01 48.83 14.45 46.46 12.2 46.46C11.8318 46.4553 11.4701 46.5567 11.1578 46.7519C10.8456 46.9471 10.5961 47.2279 10.4391 47.561C10.2821 47.894 10.2241 48.2652 10.2721 48.6303C10.3202 48.9953 10.4722 49.3389 10.71 49.62C10.2325 49.8414 9.82507 50.1899 9.5323 50.6273C9.23953 51.0647 9.07267 51.5741 9.04999 52.1C9.04999 54.67 12.3 54.57 13.41 53.74ZM12.3 47.38C13.07 47.38 13 48.31 11.99 48.87C11.62 48.49 11.45 47.38 12.3 47.38ZM11.3 50.87C11.6368 51.5447 12.0495 52.1788 12.53 52.76C11.47 53.67 9.38999 52.55 11.34 50.87H11.3Z" fill="white"/>
</svg>
