<svg width="100" height="100" viewBox="0 0 100 100" fill="none" xmlns="http://www.w3.org/2000/svg">
<g clip-path="url(#clip0)">
<path d="M60 62.23C60.5878 61.6045 60.951 60.8014 61.0325 59.947C61.1139 59.0925 60.909 58.2352 60.45 57.51C57.14 52.42 55.45 48.41 55.86 46.78C56.79 43.32 62.97 40.09 67.94 37.5C69.8107 36.5854 71.627 35.5637 73.38 34.44C75.93 32.67 78.22 28 78.6 23.81C78.83 21.23 78.31 19.22 77.09 18C75.87 16.78 73.86 16.26 71.28 16.49C67.09 16.87 62.42 19.16 60.65 21.71C59.5322 23.4665 58.5107 25.2825 57.59 27.15C55 32.15 51.78 38.31 48.31 39.23C46.68 39.67 42.67 37.95 37.58 34.64C36.8531 34.1839 35.9956 33.9817 35.1415 34.0649C34.2875 34.1482 33.4851 34.5122 32.86 35.1L30.33 37.62L29.43 38.52L24.43 43.52L23.99 43.98L23.81 44.15C22.51 45.44 14.08 53.52 7.61 53.52H6L33.54 81.07H33.8C35.9327 80.9887 38.0202 80.4318 39.91 79.44C39.9333 82.0613 40.4068 84.6591 41.31 87.12C41.31 82.96 44.43 78.12 47.14 74.7C48.76 73.38 50 72.21 50.63 71.6L50.72 71.5C50.92 71.32 51.04 71.19 51.08 71.15L56.57 65.66L60 62.23ZM65.89 25.43C66.3918 24.9335 67.0691 24.655 67.775 24.655C68.4809 24.655 69.1582 24.9335 69.66 25.43V25.43C69.9107 25.6746 70.1097 25.967 70.2454 26.29C70.3811 26.6129 70.4507 26.9597 70.45 27.31C70.4461 27.8365 70.2872 28.3503 69.993 28.787C69.6989 29.2238 69.2827 29.5642 68.7962 29.7658C68.3098 29.9675 67.7747 30.0213 67.2579 29.9207C66.741 29.82 66.2653 29.5694 65.89 29.2C65.3914 28.6972 65.1111 28.0181 65.11 27.31C65.1097 26.9607 65.1784 26.6147 65.3123 26.2921C65.4462 25.9695 65.6425 25.6765 65.89 25.43V25.43ZM34.06 79.8L30.48 76.22C30.6392 76.2 30.7965 76.1666 30.95 76.12L31.8 75.91L32.71 75.57C33.0351 75.4615 33.3525 75.3312 33.66 75.18C33.97 75.02 34.3 74.9 34.66 74.72C35.28 74.38 35.89 74.05 36.44 73.72C36.99 73.39 37.44 73.02 37.93 72.72C38.77 72.11 39.32 71.72 39.32 71.72C39.32 71.72 38.72 72.09 37.82 72.59C37.36 72.84 36.82 73.14 36.24 73.4C35.6386 73.7036 35.021 73.974 34.39 74.21C34.08 74.35 33.75 74.43 33.39 74.54C33.0839 74.6561 32.7698 74.7497 32.45 74.82L31.57 75.03L30.77 75.14C30.3789 75.1924 29.9845 75.2158 29.59 75.21H29.4L27.48 73.29C27.63 73.29 27.78 73.29 27.95 73.19L28.8 72.97L29.71 72.64C30.0303 72.5237 30.3441 72.3901 30.65 72.24C30.96 72.09 31.29 71.96 31.65 71.78C32.27 71.45 32.89 71.11 33.43 70.78C33.97 70.45 34.49 70.08 34.92 69.78C35.77 69.17 36.31 68.78 36.31 68.78C36.31 68.78 35.72 69.14 34.81 69.65C34.35 69.89 33.81 70.19 33.24 70.46C32.67 70.73 32.02 71.01 31.39 71.26C31.07 71.4 30.74 71.49 30.39 71.6C30.0833 71.7118 29.7692 71.802 29.45 71.87L28.56 72.09L27.77 72.19C27.3766 72.2528 26.978 72.2762 26.58 72.26H26.4L24.48 70.34C24.63 70.34 24.78 70.34 24.95 70.24L25.8 70.03L26.71 69.69C27.0351 69.5815 27.3525 69.4512 27.66 69.3C27.97 69.14 28.3 69.01 28.66 68.84C29.28 68.5 29.89 68.17 30.44 67.84C30.99 67.51 31.49 67.13 31.93 66.84C32.77 66.23 33.32 65.84 33.32 65.84C33.32 65.84 32.72 66.21 31.82 66.71C31.36 66.96 30.82 67.26 30.24 67.52C29.6386 67.8236 29.021 68.094 28.39 68.33C28.08 68.47 27.75 68.55 27.39 68.66C27.0824 68.7716 26.7685 68.8651 26.45 68.94L25.57 69.15L24.77 69.26C24.3792 69.3152 23.9843 69.3352 23.59 69.32H23.41L21.49 67.4C21.64 67.4 21.79 67.4 21.96 67.3L22.81 67.08L23.71 66.75C24.0359 66.6398 24.3534 66.5061 24.66 66.35C24.97 66.2 25.3 66.07 25.61 65.89C26.23 65.56 26.84 65.22 27.39 64.89C27.94 64.56 28.45 64.19 28.88 63.89C29.73 63.28 30.27 62.89 30.27 62.89C30.27 62.89 29.68 63.25 28.77 63.76C28.31 64 27.77 64.3 27.2 64.57C26.63 64.84 25.98 65.12 25.35 65.37C25.03 65.51 24.7 65.6 24.35 65.71C24.0433 65.8218 23.7292 65.912 23.41 65.98L22.52 66.19L21.73 66.3C21.3366 66.3628 20.938 66.3862 20.54 66.37H20.36L18.46 64.2C18.6192 64.18 18.7765 64.1466 18.93 64.1L19.78 63.89L20.69 63.55C21.0135 63.4372 21.3306 63.307 21.64 63.16C21.95 63 22.28 62.87 22.59 62.7C23.21 62.36 23.82 62.03 24.37 61.7C24.92 61.37 25.42 61 25.85 60.7C26.7 60.09 27.25 59.7 27.25 59.7C27.25 59.7 26.65 60.07 25.75 60.57C25.29 60.82 24.75 61.12 24.17 61.38C23.59 61.64 22.96 61.93 22.33 62.19C22.01 62.32 21.68 62.41 21.33 62.52C21.0239 62.6361 20.7098 62.7297 20.39 62.8L19.51 63.01L18.71 63.12C18.3192 63.1752 17.9243 63.1952 17.53 63.18H17.35L15.46 61.2C15.6151 61.1752 15.7686 61.1418 15.92 61.1L16.77 60.88L17.68 60.55C18.0043 60.4355 18.3215 60.302 18.63 60.15C18.94 60 19.27 59.87 19.58 59.69C20.2 59.36 20.81 59.02 21.36 58.69C21.91 58.36 22.42 57.99 22.85 57.69C23.7 57.08 24.24 56.69 24.24 56.69C24.24 56.69 23.65 57.05 22.74 57.56C22.28 57.8 21.74 58.1 21.17 58.37C20.6 58.64 19.95 58.92 19.32 59.17C19 59.31 18.67 59.4 18.32 59.51C18.0133 59.6218 17.6992 59.712 17.38 59.78L16.49 60L15.7 60.1C15.3061 60.1578 14.9079 60.1813 14.51 60.17H14.33L12.41 58.25C12.56 58.25 12.71 58.25 12.88 58.15L13.73 57.94L14.64 57.6C14.9821 57.4937 15.3163 57.3633 15.64 57.21C15.95 57.05 16.28 56.92 16.59 56.75C17.21 56.41 17.82 56.08 18.37 55.75C18.92 55.42 19.42 55.05 19.85 54.75C20.7 54.14 21.25 53.75 21.25 53.75C21.25 53.75 20.65 54.12 19.75 54.62C19.29 54.87 18.75 55.17 18.17 55.43C17.59 55.69 16.96 55.99 16.32 56.24C16.01 56.38 15.68 56.46 15.32 56.57C15.0139 56.6861 14.6998 56.7797 14.38 56.85L13.5 57.06L12.7 57.17C12.3089 57.2224 11.9145 57.2458 11.52 57.24H11.34L9 54.73C15.36 53.81 22.53 47.19 24.4 45.36L49.73 70.7C47.82 72.55 40.14 79.6 34.06 79.8ZM53.59 66.8L40.88 55L52.72 67.7L50.63 69.8L25.29 44.46L25.71 44.04L42.86 60.32L26.59 43.17L30.33 39.42L55.67 64.76L53.59 66.8Z" fill="white"/>
<path d="M50 0C40.111 0 30.444 2.93245 22.2215 8.42652C13.9991 13.9206 7.59043 21.7295 3.80605 30.8658C0.0216641 40.0021 -0.968503 50.0555 0.960759 59.7545C2.89002 69.4536 7.65206 78.3627 14.6447 85.3553C21.6373 92.348 30.5465 97.11 40.2455 99.0393C49.9446 100.969 59.9979 99.9784 69.1342 96.194C78.2705 92.4096 86.0794 86.001 91.5735 77.7785C97.0676 69.5561 100 59.8891 100 50C99.9841 36.7441 94.7112 24.0356 85.3378 14.6622C75.9644 5.28882 63.256 0.0158786 50 0V0ZM50 98C40.5065 98 31.2262 95.1848 23.3327 89.9105C15.4391 84.6362 9.28681 77.1397 5.6538 68.3688C2.0208 59.598 1.07024 49.9468 2.92233 40.6357C4.77442 31.3246 9.34598 22.7718 16.0589 16.0589C22.7718 9.34595 31.3246 4.7744 40.6357 2.92231C49.9468 1.07022 59.598 2.02078 68.3688 5.65378C77.1397 9.28679 84.6363 15.4391 89.9106 23.3326C95.1849 31.2262 98 40.5065 98 50C97.9762 62.7231 92.9115 74.9183 83.9149 83.9148C74.9183 92.9114 62.7231 97.9762 50 98V98Z" fill="white"/>
<path d="M50 3.43005C40.7893 3.43005 31.7855 6.16134 24.1271 11.2785C16.4687 16.3957 10.4997 23.6689 6.97494 32.1785C3.45017 40.688 2.52793 50.0517 4.32484 59.0854C6.12176 68.1191 10.5571 76.4171 17.0701 82.93C23.583 89.4429 31.881 93.8783 40.9147 95.6752C49.9484 97.4721 59.312 96.5499 67.8216 93.0251C76.3311 89.5004 83.6044 83.5314 88.7216 75.873C93.8387 68.2146 96.57 59.2107 96.57 50.0001C96.5568 37.653 91.6461 25.8154 82.9154 17.0847C74.1847 8.35401 62.3471 3.44329 50 3.43005V3.43005ZM50 95.59C40.9832 95.59 32.1688 92.9162 24.6716 87.9068C17.1743 82.8973 11.3309 75.7771 7.88035 67.4466C4.42975 59.1161 3.52691 49.9495 5.28601 41.1059C7.04511 32.2623 11.3871 24.1389 17.763 17.7631C24.1389 11.3872 32.2623 7.04515 41.1058 5.28605C49.9494 3.52695 59.1161 4.42979 67.4466 7.88039C75.777 11.331 82.8972 17.1744 87.9067 24.6716C92.9162 32.1688 95.59 40.9832 95.59 50.0001C95.5768 62.0872 90.7693 73.6755 82.2224 82.2224C73.6755 90.7694 62.0872 95.5768 50 95.59V95.59Z" fill="white"/>
<path d="M58.28 83.5399L54.28 84.4899L54.67 86.1099L55.36 85.9499L56.63 91.3499L55.94 91.5199L56.32 93.1599L60.32 92.2199L59.93 90.5799L59.18 90.7599L58.72 88.8299L59.67 88.6099C61.44 88.1999 62.73 87.0299 62.35 85.3899C62 83.9999 61.16 82.8699 58.28 83.5399ZM59 87.3599L58.44 87.4999L57.93 85.3399L58.55 85.1899C58.6997 85.1364 58.8595 85.1169 59.0177 85.1329C59.1759 85.1489 59.3285 85.1999 59.4646 85.2823C59.6006 85.3646 59.7165 85.4763 59.8039 85.609C59.8914 85.7418 59.9481 85.8925 59.97 86.0499C60.07 86.7099 59.66 87.1899 59 87.3599Z" fill="white"/>
<path d="M72.89 85.18L67.54 79.8L63.2 82.05L64 83.51L64.46 83.27L65.48 89L64.71 89.4L65.48 90.88L69.08 89L68.31 87.52L67.42 87.98L67.26 87.09L69.58 85.88L70.22 86.53L69.14 87.08L69.91 88.57L74.45 86.21L73.68 84.73L72.89 85.18ZM67 85.55L66.47 82.73L68.47 84.73L67 85.55Z" fill="white"/>
<path d="M77.25 81.63L73.77 77.33L74.39 76.83L73.33 75.53L70.04 78.19L71.1 79.5L71.72 78.99L75.2 83.29L74.58 83.8L75.64 85.11L78.93 82.45L77.86 81.13L77.25 81.63Z" fill="white"/>
<path d="M90.75 59.18L85.39 57.79L85.59 57.03L83.96 56.61L82.9 60.7L83.09 60.75L79.51 68.43L79.53 68.44L77.28 71.16L78.55 72.21L79.1 71.54L81.44 73.47L75.85 72.9L73.52 75.72L74.78 76.77L75.25 76.2L79.59 79.78L79.11 80.36L80.38 81.41L82.87 78.39L81.6 77.34L80.98 78.1L78.5 76.06L84.31 76.64L86.06 74.53L80.46 69.9L81 69.25L80.63 68.95L82.51 69.83L83.3 68.13L81.83 67.44L82.29 66.45L87.3 68.78L86.86 69.73L88.39 70.45L90.4 66.15L88.86 65.44L88.42 66.39L83.4 64.06L83.86 63.09L85.33 63.78L86.13 62.08L83.52 60.86L84.53 61.13L84.73 60.35L90.09 61.73L89.89 62.51L91.53 62.93L92.59 58.83L90.95 58.41L90.75 59.18Z" fill="white"/>
<path d="M93.59 48.22L86.33 47.84L86.38 47L84.73 46.92L84.54 50.75L86.18 50.84L86.22 49.97L89.25 50.13L84.42 53L84.23 56.66L85.87 56.74L85.91 56L91.53 56.29L91.49 57.05L93.13 57.13L93.33 53.22L91.69 53.14L91.64 54.12L88.43 53.95L93.45 50.96L93.59 48.22Z" fill="white"/>
<path d="M84.29 40.82C83.9747 41.1771 83.7603 41.6118 83.6689 42.0794C83.5775 42.5469 83.6124 43.0304 83.77 43.48C84.2 45.42 86.47 46.89 89.19 46.3C91.91 45.71 93.19 43.61 92.71 41.43C92.6487 41.0441 92.496 40.6784 92.2646 40.3636C92.0333 40.0487 91.7299 39.7937 91.38 39.62L92.08 39.07L91.53 36.58L88.42 37.26L88.31 36.76L87 37.05L87.91 41.18L89.24 40.89L89.07 40.13L89.59 40.02C89.8257 40.0886 90.0355 40.2263 90.1923 40.4152C90.3492 40.6041 90.4459 40.8356 90.47 41.08C90.7 42.16 89.82 43.01 88.55 43.29C87.28 43.57 86.06 43.1 85.84 42.09C85.8044 41.8906 85.8092 41.6862 85.8542 41.4888C85.8992 41.2913 85.9835 41.105 86.102 40.9408C86.2204 40.7766 86.3707 40.6379 86.5439 40.5329C86.7171 40.428 86.9096 40.359 87.11 40.33L86.6 38.1L82.93 38.9L83.33 40.76L84.29 40.82Z" fill="white"/>
<path d="M10.83 39.66L16 41.52L15.73 42.27L17.33 42.84L18.62 39.23C19.67 36.28 18.7 34.06 15.96 33.08C13.67 32.26 11.29 33.28 10.25 36.18L9 39.84L10.58 40.4L10.83 39.66ZM11.83 36.75C12.29 35.47 13.69 35.38 14.97 35.84C16.47 36.38 17.47 37.33 17.04 38.61L16.88 39.06L11.71 37.2L11.83 36.75Z" fill="white"/>
<path d="M14.81 30L19.4 33.09L18.95 33.75L20.36 34.7L24.64 28.32L22.25 26.71L21.02 28.54L22.01 29.2L20.87 30.9L19.15 29.74L20.5 27.73L19.09 26.78L17.74 28.79L16.28 27.81L17.42 26.12L18.36 26.75L19.59 24.92L17.25 23.35L12.97 29.73L14.36 30.67L14.81 30Z" fill="white"/>
<path d="M26.74 22.8699C27.1 23.2599 26.74 23.7699 26.36 24.0699C25.98 24.3699 25.03 24.9899 24.36 24.1999L22.6 25.7899L24.75 28.1699L26.41 26.6799L25.85 25.8499C26.3509 25.9098 26.8589 25.8583 27.3377 25.6993C27.8165 25.5403 28.2543 25.2776 28.62 24.9299C29.74 23.9299 30.62 22.1399 29.31 20.6599C27.31 18.4399 23.76 22.0599 22.88 21.0799C22.58 20.7499 22.8 20.2399 23.08 19.9899C23.2188 19.8358 23.3884 19.7125 23.5779 19.6281C23.7674 19.5437 23.9725 19.5001 24.18 19.5001C24.3874 19.5001 24.5925 19.5437 24.782 19.6281C24.9715 19.7125 25.1412 19.8358 25.28 19.9899L27 18.4399L24.8 16.0699L23.18 17.5399L23.8 18.4199C23.2945 18.2843 22.7614 18.2899 22.2589 18.4362C21.7563 18.5826 21.3036 18.8641 20.95 19.2499C20.3583 19.7347 19.9828 20.4342 19.906 21.1952C19.8291 21.9563 20.0571 22.7167 20.54 23.3099C22.72 25.7299 26.07 22.1299 26.74 22.8699Z" fill="white"/>
<path d="M28.22 15.95L31.07 20.69L30.38 21.1L31.25 22.56L34.88 20.38L34.01 18.93L33.33 19.34L30.49 14.59L31.16 14.18L30.3 12.74L26.67 14.91L27.54 16.36L28.22 15.95Z" fill="white"/>
<path d="M38.67 18.9C39.0476 18.7929 39.3943 18.5973 39.6812 18.3295C39.9682 18.0617 40.1871 17.7293 40.32 17.36L41 18L43.41 17.17L42.41 14.17L42.89 14L42.45 12.71L38.45 14.09L38.9 15.38L39.63 15.13L39.8 15.63C39.7593 15.8805 39.6408 16.1118 39.4613 16.2913C39.2819 16.4708 39.0505 16.5893 38.8 16.63C37.8 16.99 36.8 16.21 36.39 14.98C35.98 13.75 36.28 12.48 37.26 12.15C37.4537 12.0892 37.6576 12.0684 37.8595 12.0887C38.0615 12.109 38.2572 12.1701 38.4348 12.2683C38.6124 12.3665 38.7683 12.4996 38.8929 12.6598C39.0176 12.8199 39.1085 13.0037 39.16 13.2L41.32 12.46L40.06 8.88L38.26 9.49V10.49C37.872 10.2163 37.4173 10.0523 36.9439 10.0154C36.4705 9.97843 35.9959 10.0698 35.57 10.28C33.68 10.93 32.49 13.36 33.39 15.99C34.29 18.62 36.56 19.62 38.67 18.9Z" fill="white"/>
<path d="M44.23 9.71004L44.48 15.32L43.73 15.35L43.8 17L47.71 16.82L47.63 15.18L46.65 15.23L46.52 12.02L49.97 16.73L52.71 16.61L52.39 9.35004L53.23 9.31004L53.16 7.67004L49.33 7.84004L49.4 9.48004L50.27 9.44004L50.4 12.47L47.08 7.94004L43.42 8.10004L43.49 9.74004L44.23 9.71004Z" fill="white"/>
<path d="M75 57.42L75.18 54.42H71.89C71.89 55.95 71.89 56.42 71.4 57.3C70.7302 56.5293 70.1468 55.6876 69.66 54.79C73.66 52.38 72.66 48.24 68.74 48.24C66.39 48.24 64.18 50.73 66.15 53.76C65.3218 54.1633 64.621 54.7877 64.1252 55.5641C63.6293 56.3405 63.3576 57.2389 63.34 58.16C63.34 62.64 69 62.46 70.96 61.01C71.2614 61.3036 71.6387 61.5073 72.0495 61.5981C72.4603 61.6889 72.8883 61.6632 73.2854 61.524C73.6824 61.3847 74.0326 61.1374 74.2967 60.8098C74.5608 60.4823 74.7282 60.0875 74.78 59.67C73.99 60.13 73.33 59.67 72.78 58.92C73.1042 58.48 73.3293 57.9751 73.44 57.44C74 57.48 74.52 57.42 75 57.42ZM67.33 56C67.9277 57.1762 68.6484 58.2857 69.48 59.31C67.57 60.89 63.92 58.94 67.33 56ZM68.47 52.51C67.83 51.83 67.53 49.9 69 49.9C70.47 49.9 70.24 51.54 68.47 52.52V52.51Z" fill="white"/>
</g>
<defs>
<clipPath id="clip0">
<rect width="100" height="100" fill="white"/>
</clipPath>
</defs>
</svg>
