<svg width="170" height="36" viewBox="0 0 170 36" fill="none" xmlns="http://www.w3.org/2000/svg">
<g clip-path="url(#clip0)">
<path fill-rule="evenodd" clip-rule="evenodd" d="M9.24617e-06 28.62V33.62H22.9V27.62L9.24617e-06 28.62ZM24.34 3.25002C24.2 13.15 24.34 23.74 24.2 33.65H31.87V9.38002C30.0093 6.6481 27.3926 4.51786 24.34 3.25002ZM9.24617e-06 8.69002C0.140009 10.49 -0.139991 12.45 9.24617e-06 14.26C5.45001 9.93002 12.57 7.26002 22.9 8.69002V2.83002C16.24 1.00002 8.84001 1.85002 9.24617e-06 8.69002ZM9.24617e-06 15.52V20.67C6.43001 17.05 14 15.8 22.9 17.19V11.06C15.68 9.66002 8.00001 10.91 9.24617e-06 15.52ZM9.24617e-06 21.79V27.37C7.48238 25.5135 15.2091 24.8386 22.9 25.37V19.28C15.175 18.4598 7.36394 19.3159 9.24617e-06 21.79Z" fill="#FF5E14"/>
</g>
<path d="M46.17 8.94C47.13 8.94 47.96 8.97 48.66 9.03C49.36 9.07 50 9.14 50.58 9.24C51.16 9.34 51.76 9.47 52.38 9.63L52.02 13.02C51.36 12.98 50.75 12.95 50.19 12.93C49.63 12.91 49.03 12.89 48.39 12.87C47.77 12.85 47.03 12.84 46.17 12.84C45.15 12.84 44.35 13.05 43.77 13.47C43.19 13.87 42.78 14.56 42.54 15.54C42.32 16.52 42.21 17.89 42.21 19.65C42.21 21.39 42.32 22.76 42.54 23.76C42.78 24.74 43.19 25.43 43.77 25.83C44.35 26.23 45.15 26.43 46.17 26.43C47.55 26.43 48.71 26.42 49.65 26.4C50.59 26.36 51.52 26.28 52.44 26.16L52.83 29.52C51.87 29.82 50.89 30.03 49.89 30.15C48.89 30.29 47.65 30.36 46.17 30.36C44.03 30.36 42.31 30.02 41.01 29.34C39.73 28.64 38.81 27.51 38.25 25.95C37.69 24.39 37.41 22.29 37.41 19.65C37.41 17.01 37.69 14.91 38.25 13.35C38.81 11.79 39.73 10.67 41.01 9.99C42.31 9.29 44.03 8.94 46.17 8.94ZM63.6638 8.88C65.3038 8.88 66.6838 9.06 67.8038 9.42C68.9438 9.76 69.8638 10.34 70.5638 11.16C71.2638 11.98 71.7738 13.08 72.0938 14.46C72.4138 15.84 72.5738 17.57 72.5738 19.65C72.5738 21.73 72.4138 23.46 72.0938 24.84C71.7738 26.22 71.2638 27.32 70.5638 28.14C69.8638 28.96 68.9438 29.54 67.8038 29.88C66.6838 30.22 65.3038 30.39 63.6638 30.39C62.0238 30.39 60.6338 30.22 59.4938 29.88C58.3538 29.54 57.4338 28.96 56.7338 28.14C56.0338 27.32 55.5238 26.22 55.2038 24.84C54.9038 23.46 54.7538 21.73 54.7538 19.65C54.7538 17.57 54.9038 15.84 55.2038 14.46C55.5238 13.08 56.0338 11.98 56.7338 11.16C57.4338 10.34 58.3538 9.76 59.4938 9.42C60.6338 9.06 62.0238 8.88 63.6638 8.88ZM63.6638 12.48C62.6038 12.48 61.7738 12.69 61.1738 13.11C60.5938 13.53 60.1738 14.26 59.9138 15.3C59.6738 16.34 59.5538 17.79 59.5538 19.65C59.5538 21.51 59.6738 22.96 59.9138 24C60.1738 25.04 60.5938 25.77 61.1738 26.19C61.7738 26.59 62.6038 26.79 63.6638 26.79C64.7038 26.79 65.5238 26.59 66.1238 26.19C66.7238 25.77 67.1438 25.04 67.3838 24C67.6238 22.96 67.7438 21.51 67.7438 19.65C67.7438 17.79 67.6238 16.34 67.3838 15.3C67.1438 14.26 66.7238 13.53 66.1238 13.11C65.5238 12.69 64.7038 12.48 63.6638 12.48ZM93.5295 9.3V28.35C93.5295 29.45 92.9795 30 91.8795 30H89.3595C88.8595 30 88.4795 29.89 88.2195 29.67C87.9795 29.43 87.7395 29.08 87.4995 28.62L81.7695 17.73C81.5295 17.29 81.2895 16.79 81.0495 16.23C80.8295 15.67 80.6395 15.13 80.4795 14.61H80.1495C80.2895 15.73 80.3595 16.81 80.3595 17.85V30H76.0395V10.95C76.0395 9.85 76.5895 9.3 77.6895 9.3H80.1795C80.6595 9.3 81.0195 9.42 81.2595 9.66C81.5195 9.88 81.7695 10.21 82.0095 10.65L87.5595 21.21C87.7995 21.67 88.0495 22.19 88.3095 22.77C88.5695 23.33 88.8195 23.9 89.0595 24.48H89.4195C89.3595 23.9 89.3095 23.33 89.2695 22.77C89.2495 22.19 89.2395 21.61 89.2395 21.03V9.3H93.5295ZM105.881 8.88C107.521 8.88 108.901 9.06 110.021 9.42C111.161 9.76 112.081 10.34 112.781 11.16C113.481 11.98 113.991 13.08 114.311 14.46C114.631 15.84 114.791 17.57 114.791 19.65C114.791 21.73 114.631 23.46 114.311 24.84C113.991 26.22 113.481 27.32 112.781 28.14C112.081 28.96 111.161 29.54 110.021 29.88C108.901 30.22 107.521 30.39 105.881 30.39C104.241 30.39 102.851 30.22 101.711 29.88C100.571 29.54 99.6505 28.96 98.9505 28.14C98.2505 27.32 97.7405 26.22 97.4205 24.84C97.1205 23.46 96.9705 21.73 96.9705 19.65C96.9705 17.57 97.1205 15.84 97.4205 14.46C97.7405 13.08 98.2505 11.98 98.9505 11.16C99.6505 10.34 100.571 9.76 101.711 9.42C102.851 9.06 104.241 8.88 105.881 8.88ZM105.881 12.48C104.821 12.48 103.991 12.69 103.391 13.11C102.811 13.53 102.391 14.26 102.131 15.3C101.891 16.34 101.771 17.79 101.771 19.65C101.771 21.51 101.891 22.96 102.131 24C102.391 25.04 102.811 25.77 103.391 26.19C103.991 26.59 104.821 26.79 105.881 26.79C106.921 26.79 107.741 26.59 108.341 26.19C108.941 25.77 109.361 25.04 109.601 24C109.841 22.96 109.961 21.51 109.961 19.65C109.961 17.79 109.841 16.34 109.601 15.3C109.361 14.26 108.941 13.53 108.341 13.11C107.741 12.69 106.921 12.48 105.881 12.48ZM125.066 8.91C126.086 8.91 127.196 8.97 128.396 9.09C129.596 9.19 130.766 9.4 131.906 9.72L131.606 12.78C130.726 12.74 129.686 12.71 128.486 12.69C127.306 12.67 126.156 12.66 125.036 12.66C124.296 12.66 123.696 12.7 123.236 12.78C122.796 12.86 122.476 13.04 122.276 13.32C122.096 13.58 122.006 14.02 122.006 14.64C122.006 15.36 122.166 15.88 122.486 16.2C122.826 16.52 123.396 16.8 124.196 17.04L128.186 18.33C129.826 18.91 130.966 19.68 131.606 20.64C132.266 21.58 132.596 22.83 132.596 24.39C132.596 25.97 132.346 27.2 131.846 28.08C131.346 28.94 130.526 29.54 129.386 29.88C128.266 30.22 126.766 30.39 124.886 30.39C124.206 30.39 123.236 30.34 121.976 30.24C120.716 30.16 119.286 29.94 117.686 29.58L117.956 26.34C119.736 26.4 121.156 26.44 122.216 26.46C123.296 26.48 124.186 26.49 124.886 26.49C126.086 26.49 126.906 26.37 127.346 26.13C127.786 25.87 128.006 25.31 128.006 24.45C128.006 23.71 127.846 23.19 127.526 22.89C127.226 22.59 126.716 22.33 125.996 22.11L121.796 20.67C120.196 20.11 119.066 19.36 118.406 18.42C117.766 17.48 117.446 16.23 117.446 14.67C117.446 13.09 117.696 11.89 118.196 11.07C118.716 10.23 119.536 9.66 120.656 9.36C121.776 9.06 123.246 8.91 125.066 8.91ZM151.284 9.3V12.9H145.044V30H140.484V12.9H134.244V9.3H151.284ZM162.023 9.3C162.403 9.3 162.733 9.41 163.013 9.63C163.313 9.85 163.513 10.14 163.613 10.5L169.613 30H164.933L163.403 24.51H156.263L154.763 30H150.083L156.083 10.5C156.183 10.14 156.373 9.85 156.653 9.63C156.953 9.41 157.293 9.3 157.673 9.3H162.023ZM158.993 14.76L157.223 21.09H162.443L160.703 14.76C160.603 14.44 160.513 14.11 160.433 13.77C160.373 13.41 160.313 13.07 160.253 12.75H159.443C159.383 13.07 159.313 13.41 159.233 13.77C159.153 14.11 159.073 14.44 158.993 14.76Z" fill="#0A2959"/>
<defs>
<clipPath id="clip0">
<rect width="31.87" height="31.65" fill="white" transform="translate(0 2)"/>
</clipPath>
</defs>
</svg>
