<svg width="200" height="200" viewBox="0 0 200 200" fill="none" xmlns="http://www.w3.org/2000/svg">
<path d="M9.07258 87.3988H25.8498C26.8421 90.9771 28.2715 94.4194 30.1096 97.6456L18.2349 109.516C17.6679 110.083 17.3489 110.852 17.3489 111.655C17.3489 112.458 17.6679 113.227 18.2349 113.794L31.0641 126.627C32.2455 127.806 34.1592 127.806 35.3405 126.627L47.2164 114.75C50.4426 116.587 53.8814 118.018 57.4597 119.009V135.786C57.4597 137.456 58.8135 138.81 60.4839 138.81H78.629C80.2994 138.81 81.6532 137.456 81.6532 135.786V119.009C85.2315 118.018 88.6703 116.587 91.8965 114.75L103.772 126.627C104.973 127.761 106.85 127.761 108.049 126.627L120.88 113.794C121.447 113.227 121.766 112.458 121.766 111.655C121.766 110.852 121.447 110.083 120.88 109.516L109.003 97.6456C110.841 94.4194 112.271 90.9771 113.263 87.3988H130.04C131.711 87.3988 133.065 86.045 133.065 84.3746V66.2295C133.065 64.5602 131.711 63.2053 130.04 63.2053H113.263C112.271 59.6282 110.841 56.1858 109.003 52.9596L120.878 41.0897C121.445 40.5226 121.764 39.7536 121.764 38.9503C121.764 38.147 121.445 37.3779 120.878 36.8109L108.049 23.9782C106.867 22.798 104.954 22.798 103.772 23.9782L91.8965 35.8552C88.6703 34.0194 85.2303 32.5889 81.6532 31.5965V14.8182C81.6532 13.149 80.2994 11.794 78.629 11.794H60.4839C58.8135 11.794 57.4597 13.149 57.4597 14.8182V31.5965C53.8826 32.5889 50.4426 34.0194 47.2164 35.8552L35.3405 23.9782C34.1403 22.8441 32.2632 22.8441 31.0641 23.9782L18.2326 36.8109C17.6655 37.3779 17.3466 38.147 17.3466 38.9503C17.3466 39.7536 17.6655 40.5226 18.2326 41.0897L30.1096 52.9596C28.2715 56.1858 26.8421 59.6282 25.8498 63.2053H9.07258C7.40218 63.2053 6.04839 64.5602 6.04839 66.2295V84.3746C6.04839 86.045 7.40218 87.3988 9.07258 87.3988V87.3988ZM12.0968 69.2537H28.216C29.6371 69.2537 30.8669 68.2649 31.1705 66.8768C32.1628 62.3476 33.9572 58.0311 36.4687 54.1327C37.2354 52.9372 37.0653 51.3672 36.06 50.3619L24.6472 38.9491L33.2023 30.3928L44.6128 41.8056C45.6181 42.8132 47.1892 42.9833 48.3871 42.2155C52.2867 39.7052 56.602 37.9107 61.1312 36.9172C62.5181 36.6124 63.5081 35.3827 63.5081 33.9616V17.8424H75.6048V33.9616C75.6048 35.3827 76.5948 36.6124 77.9817 36.9172C82.5109 37.9107 86.8263 39.7052 90.7258 42.2155C91.9237 42.9833 93.4948 42.8132 94.5001 41.8056L105.911 30.3928L114.463 38.9491L103.053 50.3584C102.045 51.3648 101.876 52.936 102.644 54.1327C105.156 58.0334 106.948 62.3488 107.939 66.8792C108.244 68.2672 109.473 69.2572 110.893 69.2572H127.016V81.354H110.893C109.473 81.354 108.244 82.3427 107.939 83.7308C106.948 88.26 105.155 92.5754 102.644 96.4714C101.878 97.6681 102.048 99.2381 103.053 100.243L114.466 111.654L105.911 120.212L94.5001 108.799C93.4948 107.792 91.9237 107.622 90.7258 108.39C86.8286 110.901 82.5144 112.696 77.9852 113.688C76.596 113.99 75.6048 115.221 75.6048 116.643V132.762H63.5081V116.643C63.5081 115.221 62.5169 113.99 61.1277 113.688C56.5985 112.696 52.2843 110.901 48.3871 108.39C47.1892 107.622 45.6181 107.792 44.6128 108.799L33.2023 120.212L24.6495 111.656L36.06 100.246C37.0676 99.2404 37.2366 97.6693 36.4687 96.4714C33.9572 92.5718 32.1628 88.2553 31.1705 83.7249C30.8657 82.3368 29.6371 81.3504 28.216 81.3504H12.0968V69.2537Z" fill="white"/>
<path d="M69.5565 99.4956C82.9184 99.4956 93.75 88.6652 93.75 75.302C93.75 61.9401 82.9184 51.1085 69.5565 51.1085C56.1945 51.1085 45.3629 61.9401 45.3629 75.302C45.3771 88.6569 56.2016 99.4814 69.5565 99.4956ZM69.5565 57.1569C79.5765 57.1569 87.7016 65.282 87.7016 75.302C87.7016 85.3232 79.5765 93.4472 69.5565 93.4472C59.5365 93.4472 51.4113 85.3232 51.4113 75.302C51.4219 65.2844 59.5388 57.1675 69.5565 57.1569Z" fill="white"/>
<path d="M69.5565 108.568C87.9285 108.568 102.823 93.6752 102.823 75.302C102.823 56.93 87.9285 42.0359 69.5565 42.0359C51.1845 42.0359 36.2903 56.93 36.2903 75.302C36.3128 93.6657 51.1928 108.547 69.5565 108.568ZM69.5565 48.0843C84.5888 48.0843 96.7742 60.2697 96.7742 75.302C96.7742 90.3344 84.5888 102.52 69.5565 102.52C54.5241 102.52 42.3387 90.3344 42.3387 75.302C42.3553 60.2779 54.5312 48.1008 69.5565 48.0843Z" fill="white"/>
<path d="M178.427 150.907V126.713C178.427 125.044 177.074 123.689 175.403 123.689H169.355V99.4956C169.355 97.8264 168.001 96.4714 166.331 96.4714H139.113C137.443 96.4714 136.089 97.8264 136.089 99.4956V123.689H120.968C119.297 123.689 117.944 125.044 117.944 126.713V150.907H21.1694C12.8221 150.918 6.05902 157.681 6.04839 166.028V172.076C6.05902 180.425 12.8221 187.188 21.1694 187.197H178.427C186.775 187.188 193.538 180.425 193.548 172.076V166.028C193.538 157.681 186.775 150.918 178.427 150.907V150.907ZM172.379 150.907H151.21V129.738H172.379V150.907ZM142.137 102.52H163.306V123.689H142.137V102.52ZM123.992 129.738H145.161V150.907H123.992V129.738ZM187.5 172.076C187.5 177.087 183.437 181.149 178.427 181.149H21.1694C16.1594 181.149 12.0968 177.087 12.0968 172.076V166.028C12.0968 161.018 16.1594 156.955 21.1694 156.955H178.427C183.437 156.955 187.5 161.018 187.5 166.028V172.076Z" fill="white"/>
<path d="M99.7984 159.979C94.7884 159.979 90.7258 164.042 90.7258 169.052C90.7258 174.063 94.7884 178.125 99.7984 178.125C104.808 178.125 108.871 174.063 108.871 169.052C108.871 164.042 104.808 159.979 99.7984 159.979V159.979ZM99.7984 172.076C98.128 172.076 96.7742 170.722 96.7742 169.052C96.7742 167.383 98.128 166.028 99.7984 166.028C101.469 166.028 102.823 167.383 102.823 169.052C102.823 170.722 101.469 172.076 99.7984 172.076Z" fill="white"/>
<path d="M69.5565 159.979C64.5465 159.979 60.4839 164.042 60.4839 169.052C60.4839 174.063 64.5465 178.125 69.5565 178.125C74.5665 178.125 78.6291 174.063 78.6291 169.052C78.6291 164.042 74.5665 159.979 69.5565 159.979V159.979ZM69.5565 172.076C67.8861 172.076 66.5323 170.722 66.5323 169.052C66.5323 167.383 67.8861 166.028 69.5565 166.028C71.2269 166.028 72.5807 167.383 72.5807 169.052C72.5807 170.722 71.2269 172.076 69.5565 172.076Z" fill="white"/>
<path d="M130.04 159.979C125.03 159.979 120.968 164.042 120.968 169.052C120.968 174.063 125.03 178.125 130.04 178.125C135.05 178.125 139.113 174.063 139.113 169.052C139.113 164.042 135.05 159.979 130.04 159.979V159.979ZM130.04 172.076C128.37 172.076 127.016 170.722 127.016 169.052C127.016 167.383 128.37 166.028 130.04 166.028C131.711 166.028 133.065 167.383 133.065 169.052C133.065 170.722 131.711 172.076 130.04 172.076Z" fill="white"/>
<path d="M39.3145 159.979C34.3045 159.979 30.2419 164.042 30.2419 169.052C30.2419 174.063 34.3045 178.125 39.3145 178.125C44.3245 178.125 48.3871 174.063 48.3871 169.052C48.3871 164.042 44.3245 159.979 39.3145 159.979V159.979ZM39.3145 172.076C37.6441 172.076 36.2903 170.722 36.2903 169.052C36.2903 167.383 37.6441 166.028 39.3145 166.028C40.9849 166.028 42.3387 167.383 42.3387 169.052C42.3387 170.722 40.9849 172.076 39.3145 172.076Z" fill="white"/>
<path d="M160.282 159.979C155.272 159.979 151.21 164.042 151.21 169.052C151.21 174.063 155.272 178.125 160.282 178.125C165.292 178.125 169.355 174.063 169.355 169.052C169.355 164.042 165.292 159.979 160.282 159.979V159.979ZM160.282 172.076C158.612 172.076 157.258 170.722 157.258 169.052C157.258 167.383 158.612 166.028 160.282 166.028C161.953 166.028 163.306 167.383 163.306 169.052C163.306 170.722 161.953 172.076 160.282 172.076Z" fill="white"/>
</svg>
