<svg width="200" height="200" viewBox="0 0 200 200" fill="none" xmlns="http://www.w3.org/2000/svg">
<path d="M190.524 173.69H184.476V70.8673C184.476 69.1969 183.122 67.8431 181.452 67.8431H105.847V31.5528C105.847 29.8824 104.493 28.5286 102.823 28.5286H90.7258V13.4076C90.7258 11.7372 89.372 10.3834 87.7016 10.3834H39.3145C37.6441 10.3834 36.2903 11.7372 36.2903 13.4076V28.5286H24.1936C22.5232 28.5286 21.1694 29.8824 21.1694 31.5528V173.69H9.07259C7.4022 173.69 6.0484 175.044 6.0484 176.714V185.787C6.0484 187.456 7.4022 188.811 9.07259 188.811H190.524C192.195 188.811 193.548 187.456 193.548 185.787V176.714C193.548 175.044 192.195 173.69 190.524 173.69ZM105.847 73.8915H178.427V173.69H157.258V143.448C157.258 141.778 155.904 140.424 154.234 140.424H130.04C128.37 140.424 127.016 141.778 127.016 143.448V173.69H105.847V73.8915ZM151.21 146.472V173.69H145.161V146.472H151.21ZM139.113 146.472V173.69H133.065V146.472H139.113ZM42.3387 16.4318H84.6774V28.5286H42.3387V16.4318ZM27.2178 34.577H99.7984V173.69H78.6291V143.448C78.6291 141.778 77.2753 140.424 75.6049 140.424H51.4113C49.7409 140.424 48.3871 141.778 48.3871 143.448V173.69H27.2178V34.577ZM72.5807 146.472V173.69H66.5323V146.472H72.5807ZM60.4839 146.472V173.69H54.4355V146.472H60.4839ZM187.5 182.762H12.0968V179.738H187.5V182.762Z" fill="white"/>
<path d="M60.4839 131.351V107.158C60.4839 105.487 59.1301 104.133 57.4597 104.133H33.2661C31.5957 104.133 30.2419 105.487 30.2419 107.158V131.351C30.2419 133.02 31.5957 134.375 33.2661 134.375H57.4597C59.1301 134.375 60.4839 133.02 60.4839 131.351ZM54.4355 128.327H36.2903V110.182H54.4355V128.327Z" fill="white"/>
<path d="M69.5564 134.375H93.75C95.4204 134.375 96.7742 133.02 96.7742 131.351V107.158C96.7742 105.487 95.4204 104.133 93.75 104.133H69.5564C67.886 104.133 66.5322 105.487 66.5322 107.158V131.351C66.5322 133.02 67.886 134.375 69.5564 134.375ZM72.5806 110.182H90.7258V128.327H72.5806V110.182Z" fill="white"/>
<path d="M33.2661 101.109H57.4597C59.1301 101.109 60.4839 99.7542 60.4839 98.085V73.8915C60.4839 72.2211 59.1301 70.8673 57.4597 70.8673H33.2661C31.5957 70.8673 30.2419 72.2211 30.2419 73.8915V98.085C30.2419 99.7542 31.5957 101.109 33.2661 101.109ZM36.2903 76.9157H54.4355V95.0608H36.2903V76.9157Z" fill="white"/>
<path d="M69.5564 101.109H93.75C95.4204 101.109 96.7742 99.7542 96.7742 98.085V73.8915C96.7742 72.2211 95.4204 70.8673 93.75 70.8673H69.5564C67.886 70.8673 66.5322 72.2211 66.5322 73.8915V98.085C66.5322 99.7542 67.886 101.109 69.5564 101.109ZM72.5806 76.9157H90.7258V95.0608H72.5806V76.9157Z" fill="white"/>
<path d="M33.2661 67.8431H57.4597C59.1301 67.8431 60.4839 66.4882 60.4839 64.8189V40.6254C60.4839 38.955 59.1301 37.6012 57.4597 37.6012H33.2661C31.5957 37.6012 30.2419 38.955 30.2419 40.6254V64.8189C30.2419 66.4882 31.5957 67.8431 33.2661 67.8431ZM36.2903 43.6496H54.4355V61.7947H36.2903V43.6496Z" fill="white"/>
<path d="M69.5564 67.8431H93.75C95.4204 67.8431 96.7742 66.4882 96.7742 64.8189V40.6254C96.7742 38.955 95.4204 37.6012 93.75 37.6012H69.5564C67.886 37.6012 66.5322 38.955 66.5322 40.6254V64.8189C66.5322 66.4882 67.886 67.8431 69.5564 67.8431ZM72.5806 43.6496H90.7258V61.7947H72.5806V43.6496Z" fill="white"/>
<path d="M111.895 107.158H172.379C174.049 107.158 175.403 105.803 175.403 104.133V89.0125C175.403 87.3421 174.049 85.9883 172.379 85.9883H111.895C110.225 85.9883 108.871 87.3421 108.871 89.0125V104.133C108.871 105.803 110.225 107.158 111.895 107.158ZM114.919 92.0367H169.355V101.109H114.919V92.0367Z" fill="white"/>
<path d="M175.403 128.327V113.206C175.403 111.536 174.049 110.182 172.379 110.182H111.895C110.225 110.182 108.871 111.536 108.871 113.206V128.327C108.871 129.996 110.225 131.351 111.895 131.351H172.379C174.049 131.351 175.403 129.996 175.403 128.327ZM169.355 125.303H114.919V116.23H169.355V125.303Z" fill="white"/>
</svg>
