<svg width="200" height="200" viewBox="0 0 200 200" fill="none" xmlns="http://www.w3.org/2000/svg">
<path d="M193.512 48.9053C193.495 48.6383 193.442 48.3749 193.355 48.1221C193.322 48.0252 193.298 47.9354 193.254 47.8409C193.109 47.5113 192.903 47.2113 192.651 46.9549L165.433 19.7372C165.179 19.4832 164.879 19.2777 164.549 19.1312C164.455 19.091 164.359 19.0579 164.262 19.0296C164.011 18.9422 163.749 18.8902 163.485 18.8748C163.426 18.8642 163.367 18.8571 163.306 18.8512H9.07259C7.4022 18.8512 6.0484 20.205 6.0484 21.8754V142.843C6.0484 144.512 7.4022 145.867 9.07259 145.867H190.524C192.195 145.867 193.548 144.512 193.548 142.843V49.0931C193.548 49.0293 193.514 48.9715 193.512 48.9053V48.9053ZM183.224 46.0689H166.331V29.176L183.224 46.0689ZM12.0968 139.819V24.8996H160.282V49.0931C160.282 50.7623 161.636 52.1173 163.306 52.1173H187.5V139.819H12.0968Z" fill="white"/>
<path d="M72.5807 30.948H21.1694C19.499 30.948 18.1452 32.3018 18.1452 33.9722V130.746C18.1452 132.416 19.499 133.771 21.1694 133.771H72.5807C74.251 133.771 75.6048 132.416 75.6048 130.746V33.9722C75.6048 32.3018 74.251 30.948 72.5807 30.948V30.948ZM39.3145 127.722V109.577H54.4355V127.722H39.3145ZM69.5565 127.722H60.4839V106.553C60.4839 104.882 59.1301 103.529 57.4597 103.529H36.2903C34.6199 103.529 33.2661 104.882 33.2661 106.553V127.722H24.1936V36.9964H69.5565V127.722Z" fill="white"/>
<path d="M30.2419 58.1657H42.3387C44.0091 58.1657 45.3629 56.8107 45.3629 55.1415V43.0447C45.3629 41.3743 44.0091 40.0205 42.3387 40.0205H30.2419C28.5715 40.0205 27.2177 41.3743 27.2177 43.0447V55.1415C27.2177 56.8107 28.5715 58.1657 30.2419 58.1657ZM33.2661 46.0689H39.3145V52.1173H33.2661V46.0689Z" fill="white"/>
<path d="M51.4113 58.1657H63.5081C65.1785 58.1657 66.5323 56.8107 66.5323 55.1415V43.0447C66.5323 41.3743 65.1785 40.0205 63.5081 40.0205H51.4113C49.7409 40.0205 48.3871 41.3743 48.3871 43.0447V55.1415C48.3871 56.8107 49.7409 58.1657 51.4113 58.1657ZM54.4355 46.0689H60.4839V52.1173H54.4355V46.0689Z" fill="white"/>
<path d="M30.2419 79.3351H42.3387C44.0091 79.3351 45.3629 77.9801 45.3629 76.3109V64.2141C45.3629 62.5437 44.0091 61.1899 42.3387 61.1899H30.2419C28.5715 61.1899 27.2177 62.5437 27.2177 64.2141V76.3109C27.2177 77.9801 28.5715 79.3351 30.2419 79.3351ZM33.2661 67.2383H39.3145V73.2867H33.2661V67.2383Z" fill="white"/>
<path d="M51.4113 79.3351H63.5081C65.1785 79.3351 66.5323 77.9801 66.5323 76.3109V64.2141C66.5323 62.5437 65.1785 61.1899 63.5081 61.1899H51.4113C49.7409 61.1899 48.3871 62.5437 48.3871 64.2141V76.3109C48.3871 77.9801 49.7409 79.3351 51.4113 79.3351ZM54.4355 67.2383H60.4839V73.2867H54.4355V67.2383Z" fill="white"/>
<path d="M30.2419 100.504H42.3387C44.0091 100.504 45.3629 99.1494 45.3629 97.4802V85.3834C45.3629 83.7131 44.0091 82.3593 42.3387 82.3593H30.2419C28.5715 82.3593 27.2177 83.7131 27.2177 85.3834V97.4802C27.2177 99.1494 28.5715 100.504 30.2419 100.504ZM33.2661 88.4076H39.3145V94.456H33.2661V88.4076Z" fill="white"/>
<path d="M51.4113 100.504H63.5081C65.1785 100.504 66.5323 99.1494 66.5323 97.4802V85.3834C66.5323 83.7131 65.1785 82.3593 63.5081 82.3593H51.4113C49.7409 82.3593 48.3871 83.7131 48.3871 85.3834V97.4802C48.3871 99.1494 49.7409 100.504 51.4113 100.504ZM54.4355 88.4076H60.4839V94.456H54.4355V88.4076Z" fill="white"/>
<path d="M84.7707 95.2027C85.1133 96.5423 86.3194 97.4803 87.7016 97.4803H154.234C155.904 97.4803 157.258 96.1253 157.258 94.4561V58.1658C157.258 57.0979 156.696 56.1103 155.777 55.5645C154.86 55.0199 153.724 54.9998 152.786 55.5102L86.2533 91.8005C85.0389 92.462 84.4293 93.8631 84.7707 95.2027V95.2027ZM151.21 63.2608V91.4319H99.5621L151.21 63.2608Z" fill="white"/>
<path d="M146.708 70.8449C145.786 70.3051 144.651 70.2862 143.713 70.7941L121.832 82.7279C120.619 83.3894 120.009 84.7905 120.351 86.1301C120.691 87.4697 121.899 88.4077 123.282 88.4077H145.161C146.832 88.4077 148.185 87.0527 148.185 85.3835V73.4497C148.184 72.383 147.623 71.3942 146.708 70.8449ZM142.137 82.3593H135.142L142.137 78.5413V82.3593Z" fill="white"/>
<path d="M181.452 103.529H81.6532C79.9828 103.529 78.629 104.882 78.629 106.553V130.746C78.629 132.416 79.9828 133.771 81.6532 133.771H181.452C183.122 133.771 184.476 132.416 184.476 130.746V106.553C184.476 104.882 183.122 103.529 181.452 103.529ZM178.427 127.722H84.6774V109.577H87.7016V115.625C87.7016 117.295 89.0554 118.65 90.7258 118.65C92.3962 118.65 93.75 117.295 93.75 115.625V109.577H96.7742V112.601C96.7742 114.27 98.128 115.625 99.7984 115.625C101.469 115.625 102.823 114.27 102.823 112.601V109.577H105.847V115.625C105.847 117.295 107.201 118.65 108.871 118.65C110.541 118.65 111.895 117.295 111.895 115.625V109.577H114.919V112.601C114.919 114.27 116.273 115.625 117.944 115.625C119.614 115.625 120.968 114.27 120.968 112.601V109.577H123.992V115.625C123.992 117.295 125.346 118.65 127.016 118.65C128.687 118.65 130.04 117.295 130.04 115.625V109.577H133.065V112.601C133.065 114.27 134.418 115.625 136.089 115.625C137.759 115.625 139.113 114.27 139.113 112.601V109.577H142.137V115.625C142.137 117.295 143.491 118.65 145.161 118.65C146.832 118.65 148.185 117.295 148.185 115.625V109.577H151.21V112.601C151.21 114.27 152.563 115.625 154.234 115.625C155.904 115.625 157.258 114.27 157.258 112.601V109.577H160.282V115.625C160.282 117.295 161.636 118.65 163.306 118.65C164.977 118.65 166.331 117.295 166.331 115.625V109.577H169.355V112.601C169.355 114.27 170.709 115.625 172.379 115.625C174.049 115.625 175.403 114.27 175.403 112.601V109.577H178.427V127.722Z" fill="white"/>
<path d="M139.113 46.069C140.783 46.069 142.137 44.714 142.137 43.0448V33.9722C142.137 32.3018 140.783 30.948 139.113 30.948C137.442 30.948 136.089 32.3018 136.089 33.9722V43.0448C136.089 44.714 137.442 46.069 139.113 46.069Z" fill="white"/>
<path d="M148.186 40.0206C149.856 40.0206 151.21 38.6656 151.21 36.9964V33.9722C151.21 32.3018 149.856 30.948 148.186 30.948C146.515 30.948 145.161 32.3018 145.161 33.9722V36.9964C145.161 38.6656 146.515 40.0206 148.186 40.0206Z" fill="white"/>
<path d="M84.6774 46.069C86.3478 46.069 87.7016 44.714 87.7016 43.0448V33.9722C87.7016 32.3018 86.3478 30.948 84.6774 30.948C83.007 30.948 81.6532 32.3018 81.6532 33.9722V43.0448C81.6532 44.714 83.007 46.069 84.6774 46.069Z" fill="white"/>
<path d="M93.75 40.0206C95.4204 40.0206 96.7742 38.6656 96.7742 36.9964V33.9722C96.7742 32.3018 95.4204 30.948 93.75 30.948C92.0796 30.948 90.7258 32.3018 90.7258 33.9722V36.9964C90.7258 38.6656 92.0796 40.0206 93.75 40.0206Z" fill="white"/>
<path d="M102.823 46.069C104.493 46.069 105.847 44.714 105.847 43.0448V33.9722C105.847 32.3018 104.493 30.948 102.823 30.948C101.152 30.948 99.7984 32.3018 99.7984 33.9722V43.0448C99.7984 44.714 101.152 46.069 102.823 46.069Z" fill="white"/>
<path d="M120.968 46.069C122.638 46.069 123.992 44.714 123.992 43.0448V33.9722C123.992 32.3018 122.638 30.948 120.968 30.948C119.297 30.948 117.944 32.3018 117.944 33.9722V43.0448C117.944 44.714 119.297 46.069 120.968 46.069Z" fill="white"/>
<path d="M111.895 40.0206C113.566 40.0206 114.919 38.6656 114.919 36.9964V33.9722C114.919 32.3018 113.566 30.948 111.895 30.948C110.225 30.948 108.871 32.3018 108.871 33.9722V36.9964C108.871 38.6656 110.225 40.0206 111.895 40.0206Z" fill="white"/>
<path d="M130.04 40.0206C131.711 40.0206 133.065 38.6656 133.065 36.9964V33.9722C133.065 32.3018 131.711 30.948 130.04 30.948C128.37 30.948 127.016 32.3018 127.016 33.9722V36.9964C127.016 38.6656 128.37 40.0206 130.04 40.0206Z" fill="white"/>
<path d="M159.832 148.891H57.4597C57.4337 148.891 57.4112 148.906 57.3876 148.906C57.0876 148.907 56.7887 148.954 56.504 149.047L41.4007 154.093L29.304 158.118C28.0624 158.523 27.2201 159.681 27.2177 160.988V167.037C27.2177 168.338 28.0518 169.496 29.2898 169.907L41.3866 173.927L56.5075 178.976C56.8147 179.08 57.136 179.133 57.4597 179.133H160.282C164.836 179.137 169.149 177.09 172.025 173.558C174.9 170.025 176.029 165.385 175.101 160.927C173.518 153.796 167.135 148.765 159.832 148.891V148.891ZM145.161 160.988H60.4839V154.94H145.161V160.988ZM33.2661 163.171L39.3145 161.161V166.863L33.2661 164.852V163.171ZM45.3629 159.147L54.4355 156.122V171.913L45.3629 168.889V159.147ZM60.4839 167.037H145.161V173.085H60.4839V167.037ZM167.301 169.757C165.582 171.866 163.004 173.089 160.282 173.085H151.21V154.94H159.832C164.25 154.812 168.149 157.808 169.165 162.111C169.739 164.81 169.054 167.625 167.301 169.757V169.757Z" fill="white"/>
</svg>
