<svg width="200" height="200" viewBox="0 0 200 200" fill="none" xmlns="http://www.w3.org/2000/svg">
<path d="M159.832 148.891H57.4596C57.4337 148.891 57.4112 148.906 57.3876 148.906C57.0875 148.907 56.7887 148.954 56.504 149.047L41.4007 154.093L29.3039 158.118C28.0624 158.523 27.2201 159.681 27.2177 160.988V167.037C27.2177 168.338 28.0517 169.496 29.2898 169.907L41.3865 173.927L56.5075 178.976C56.8146 179.08 57.136 179.133 57.4596 179.133H160.282C164.836 179.137 169.149 177.09 172.025 173.558C174.9 170.025 176.029 165.385 175.101 160.927C173.518 153.796 167.135 148.765 159.832 148.891V148.891ZM145.161 160.988H60.4838V154.94H145.161V160.988ZM33.2661 163.171L39.3145 161.161V166.863L33.2661 164.852V163.171ZM45.3629 159.147L54.4355 156.122V171.913L45.3629 168.889V159.147ZM60.4838 167.037H145.161V173.085H60.4838V167.037ZM167.3 169.757C165.582 171.866 163.004 173.089 160.282 173.085H151.21V154.94H159.832C164.25 154.812 168.149 157.808 169.165 162.111C169.739 164.81 169.054 167.625 167.3 169.757V169.757Z" fill="white"/>
<path d="M193.512 48.9053C193.495 48.6383 193.442 48.3749 193.355 48.1221C193.322 48.0252 193.298 47.9354 193.254 47.8409C193.109 47.5113 192.903 47.2113 192.651 46.9549L165.433 19.7372C165.102 19.4147 164.7 19.1761 164.259 19.0414C164.009 18.9552 163.748 18.9055 163.485 18.8902C163.426 18.8748 163.367 18.8606 163.306 18.8512H9.07259C7.4022 18.8512 6.0484 20.205 6.0484 21.8754V142.843C6.0484 144.512 7.4022 145.867 9.07259 145.867H190.524C192.195 145.867 193.548 144.512 193.548 142.843V49.0931C193.548 49.0293 193.514 48.9715 193.512 48.9053V48.9053ZM183.224 46.0689H166.331V29.176L183.224 46.0689ZM12.0968 139.819V24.8996H160.282V49.0931C160.282 50.7623 161.636 52.1173 163.306 52.1173H187.5V139.819H12.0968Z" fill="white"/>
<path d="M18.1452 58.1658H117.944C119.614 58.1658 120.968 56.8108 120.968 55.1416V30.948C120.968 29.2776 119.614 27.9238 117.944 27.9238H18.1452C16.4748 27.9238 15.121 29.2776 15.121 30.948V55.1416C15.121 56.8108 16.4748 58.1658 18.1452 58.1658ZM21.1694 33.9722H114.919V52.1174H111.895V49.0932C111.895 47.4228 110.541 46.069 108.871 46.069C107.201 46.069 105.847 47.4228 105.847 49.0932V52.1174H102.823V46.069C102.823 44.3986 101.469 43.0448 99.7984 43.0448C98.128 43.0448 96.7742 44.3986 96.7742 46.069V52.1174H93.75V49.0932C93.75 47.4228 92.3962 46.069 90.7258 46.069C89.0554 46.069 87.7016 47.4228 87.7016 49.0932V52.1174H84.6774V46.069C84.6774 44.3986 83.3236 43.0448 81.6532 43.0448C79.9828 43.0448 78.629 44.3986 78.629 46.069V52.1174H75.6048V49.0932C75.6048 47.4228 74.251 46.069 72.5807 46.069C70.9103 46.069 69.5565 47.4228 69.5565 49.0932V52.1174H66.5323V46.069C66.5323 44.3986 65.1785 43.0448 63.5081 43.0448C61.8377 43.0448 60.4839 44.3986 60.4839 46.069V52.1174H57.4597V49.0932C57.4597 47.4228 56.1059 46.069 54.4355 46.069C52.7651 46.069 51.4113 47.4228 51.4113 49.0932V52.1174H48.3871V46.069C48.3871 44.3986 47.0333 43.0448 45.3629 43.0448C43.6925 43.0448 42.3387 44.3986 42.3387 46.069V52.1174H39.3145V49.0932C39.3145 47.4228 37.9607 46.069 36.2903 46.069C34.6199 46.069 33.2661 47.4228 33.2661 49.0932V52.1174H30.2419V46.069C30.2419 44.3986 28.8881 43.0448 27.2177 43.0448C25.5474 43.0448 24.1936 44.3986 24.1936 46.069V52.1174H21.1694V33.9722Z" fill="white"/>
<path d="M181.452 115.625H163.128L158.138 106.553H172.379C174.049 106.553 175.403 105.198 175.403 103.529C175.403 101.858 174.049 100.504 172.379 100.504H154.812L149.822 91.4319H163.306C164.977 91.4319 166.331 90.0769 166.331 88.4077C166.331 86.7373 164.977 85.3835 163.306 85.3835H146.495L141.505 76.3109H151.21C152.88 76.3109 154.234 74.9559 154.234 73.2867C154.234 71.6163 152.88 70.2625 151.21 70.2625H138.178L135.713 65.7829C135.216 64.7953 134.22 64.1574 133.113 64.1208C132.008 64.0842 130.971 64.6536 130.408 65.6057C129.847 66.5591 129.849 67.7427 130.416 68.6925L131.278 70.2625H113.338L111.681 66.1161C111.061 64.5638 109.301 63.8089 107.749 64.428C106.196 65.0481 105.443 66.8083 106.061 68.3606L106.825 70.2625H92.7719L93.5362 68.3606C94.154 66.8083 93.4003 65.0481 91.8481 64.428C90.2958 63.8089 88.5356 64.5638 87.9154 66.1161L86.2592 70.2625H71.3426L72.205 68.6925C72.9374 67.2383 72.3869 65.464 70.9611 64.6819C69.5328 63.8975 67.7419 64.3854 66.9079 65.7829L64.4425 70.2625H51.4113C49.7409 70.2625 48.3871 71.6163 48.3871 73.2867C48.3871 74.9559 49.7409 76.3109 51.4113 76.3109H61.1159L56.126 85.3835H36.2903C34.6199 85.3835 33.2661 86.7373 33.2661 88.4077C33.2661 90.0769 34.6199 91.4319 36.2903 91.4319H52.7994L47.8094 100.504H27.2177C25.5474 100.504 24.1936 101.858 24.1936 103.529C24.1936 105.198 25.5474 106.553 27.2177 106.553H44.4828L39.4929 115.625H18.1452C16.4748 115.625 15.121 116.979 15.121 118.65C15.121 120.319 16.4748 121.674 18.1452 121.674H36.1663L33.6418 126.267C33.0748 127.217 33.0724 128.401 33.6335 129.354C34.197 130.306 35.2342 130.876 36.3388 130.839C37.4457 130.802 38.4415 130.164 38.9389 129.176L43.0688 121.674H65.6947L63.7219 126.6C63.1017 128.151 63.8577 129.911 65.41 130.531C65.7668 130.675 66.1483 130.748 66.5323 130.746C67.7703 130.746 68.8831 129.993 69.3426 128.844L72.2085 121.674H127.388L130.254 128.844C130.714 129.993 131.826 130.746 133.065 130.746C133.448 130.748 133.83 130.675 134.187 130.531C135.739 129.911 136.495 128.151 135.875 126.6L133.902 121.674H159.552L163.682 129.176C164.516 130.575 166.307 131.062 167.735 130.277C169.161 129.495 169.712 127.722 168.979 126.267L166.455 121.674H181.452C183.122 121.674 184.476 120.319 184.476 118.65C184.476 116.979 183.122 115.625 181.452 115.625V115.625ZM147.911 100.504H125.434L121.805 91.4319H142.919L147.911 100.504ZM118.922 100.504H80.6751L84.3053 91.4319H115.291L118.922 100.504ZM134.603 76.3109L139.595 85.3835H119.386L115.757 76.3109H134.603ZM109.243 76.3109L112.873 85.3835H86.7235L90.3537 76.3109H109.243ZM68.0184 76.3109H83.8399L80.2108 85.3835H63.0261L68.0184 76.3109ZM59.7018 91.4319H77.7915L74.1624 100.504H54.7096L59.7018 91.4319ZM46.393 115.625L51.3853 106.553H71.7431L68.1141 115.625H46.393ZM74.6267 115.625L78.2569 106.553H121.34L124.97 115.625H74.6267ZM131.483 115.625L127.854 106.553H151.236L156.228 115.625H131.483Z" fill="white"/>
</svg>
