<svg width="200" height="200" viewBox="0 0 200 200" fill="none" xmlns="http://www.w3.org/2000/svg">
<path d="M190.524 173.69H142.137V31.5528C142.137 29.8824 140.783 28.5286 139.113 28.5286H127.016V13.4076C127.016 11.7372 125.662 10.3834 123.992 10.3834H75.6048C73.9345 10.3834 72.5807 11.7372 72.5807 13.4076V28.5286H60.4839C58.8135 28.5286 57.4597 29.8824 57.4597 31.5528V173.69H9.07258C7.40218 173.69 6.04839 175.044 6.04839 176.714V185.787C6.04839 187.456 7.40218 188.811 9.07258 188.811H190.524C192.195 188.811 193.548 187.456 193.548 185.787V176.714C193.548 175.044 192.195 173.69 190.524 173.69ZM78.629 16.4318H120.968V28.5286H78.629V16.4318ZM63.5081 34.577H136.089V173.69H114.919V143.448C114.919 141.778 113.566 140.424 111.895 140.424H87.7016C86.0312 140.424 84.6774 141.778 84.6774 143.448V173.69H63.5081V34.577ZM90.7258 173.69V146.472H96.7742V173.69H90.7258ZM102.823 146.472H108.871V173.69H102.823V146.472ZM187.5 182.762H12.0968V179.738H187.5V182.762Z" fill="white"/>
<path d="M93.75 134.375C95.4204 134.375 96.7742 133.02 96.7742 131.351V107.158C96.7742 105.487 95.4204 104.133 93.75 104.133H69.5565C67.8861 104.133 66.5323 105.487 66.5323 107.158V131.351C66.5323 133.02 67.8861 134.375 69.5565 134.375H93.75ZM72.5807 110.182H90.7258V128.327H72.5807V110.182Z" fill="white"/>
<path d="M105.847 134.375H130.04C131.711 134.375 133.065 133.02 133.065 131.351V107.158C133.065 105.487 131.711 104.133 130.04 104.133H105.847C104.176 104.133 102.823 105.487 102.823 107.158V131.351C102.823 133.02 104.176 134.375 105.847 134.375ZM108.871 110.182H127.016V128.327H108.871V110.182Z" fill="white"/>
<path d="M69.5565 101.109H93.75C95.4204 101.109 96.7742 99.7542 96.7742 98.085V73.8915C96.7742 72.2211 95.4204 70.8673 93.75 70.8673H69.5565C67.8861 70.8673 66.5323 72.2211 66.5323 73.8915V98.085C66.5323 99.7542 67.8861 101.109 69.5565 101.109ZM72.5807 76.9157H90.7258V95.0608H72.5807V76.9157Z" fill="white"/>
<path d="M105.847 101.109H130.04C131.711 101.109 133.065 99.7542 133.065 98.085V73.8915C133.065 72.2211 131.711 70.8673 130.04 70.8673H105.847C104.176 70.8673 102.823 72.2211 102.823 73.8915V98.085C102.823 99.7542 104.176 101.109 105.847 101.109ZM108.871 76.9157H127.016V95.0608H108.871V76.9157Z" fill="white"/>
<path d="M69.5565 67.8431H93.75C95.4204 67.8431 96.7742 66.4882 96.7742 64.8189V40.6254C96.7742 38.955 95.4204 37.6012 93.75 37.6012H69.5565C67.8861 37.6012 66.5323 38.955 66.5323 40.6254V64.8189C66.5323 66.4882 67.8861 67.8431 69.5565 67.8431ZM72.5807 43.6496H90.7258V61.7947H72.5807V43.6496Z" fill="white"/>
<path d="M105.847 67.8431H130.04C131.711 67.8431 133.065 66.4882 133.065 64.8189V40.6254C133.065 38.955 131.711 37.6012 130.04 37.6012H105.847C104.176 37.6012 102.823 38.955 102.823 40.6254V64.8189C102.823 66.4882 104.176 67.8431 105.847 67.8431ZM108.871 43.6496H127.016V61.7947H108.871V43.6496Z" fill="white"/>
</svg>
