<svg width="200" height="200" viewBox="0 0 200 200" fill="none" xmlns="http://www.w3.org/2000/svg">
<path d="M164.984 70.2156C164.389 69.5186 163.517 69.1146 162.601 69.1146C161.684 69.1146 160.812 69.5186 160.217 70.2156C158.607 72.2782 144.456 90.6715 144.456 99.7984C144.456 109.818 152.58 117.944 162.601 117.944C172.621 117.944 180.746 109.818 180.746 99.7984C180.746 90.6715 166.595 72.2782 164.984 70.2156V70.2156ZM162.601 111.895C155.92 111.895 150.504 106.479 150.504 99.7984C150.504 95.19 157.175 84.5333 162.601 77.1169C168.025 84.5475 174.698 95.2042 174.698 99.7984C174.698 106.479 169.281 111.895 162.601 111.895Z" fill="white"/>
<path d="M160.971 85.261C159.56 86.1564 159.145 88.0277 160.042 89.4382C162.314 92.6915 164.189 96.206 165.625 99.9047C165.624 100.396 165.49 100.88 165.241 101.305C164.519 102.734 165.037 104.479 166.422 105.284C167.809 106.088 169.581 105.671 170.464 104.335C171.29 102.906 171.708 101.281 171.673 99.6318C171.396 96.5497 167.975 90.6195 165.157 86.1895C164.726 85.5102 164.042 85.0306 163.256 84.8558C162.471 84.6821 161.649 84.8263 160.971 85.261V85.261Z" fill="white"/>
<path d="M148.12 124.651C146.004 127.373 135.383 141.339 135.383 148.691C135.383 157.041 142.153 163.812 150.504 163.812C158.855 163.812 165.625 157.041 165.625 148.691C165.625 141.339 155.013 127.376 152.887 124.651C152.293 123.954 151.421 123.55 150.504 123.55C149.587 123.55 148.716 123.954 148.12 124.651V124.651ZM150.504 157.764C145.494 157.764 141.431 153.701 141.431 148.691C141.431 145.421 146.167 137.598 150.504 131.562C154.841 137.595 159.577 145.419 159.577 148.691C159.577 153.701 155.514 157.764 150.504 157.764Z" fill="white"/>
<path d="M99.0927 105.847H96.0685V78.6289C96.0579 70.2817 89.2948 63.5186 80.9476 63.508H77.9234V60.4838C77.9234 58.8134 76.5696 57.4596 74.8992 57.4596H44.6573C42.9869 57.4596 41.6331 58.8134 41.6331 60.4838V63.508H38.6089C30.2616 63.5186 23.4985 70.2817 23.4879 78.6289V105.847H20.4637C18.7933 105.847 17.4395 107.2 17.4395 108.871V178.427C17.4501 186.775 24.2132 193.538 32.5605 193.548H86.996C95.3432 193.538 102.106 186.775 102.117 178.427V108.871C102.117 107.2 100.763 105.847 99.0927 105.847ZM47.6815 63.508H71.875V69.5564H47.6815V63.508ZM29.5363 78.6289C29.5363 73.6189 33.5989 69.5564 38.6089 69.5564H41.6331V72.5806C41.6331 74.251 42.9869 75.6048 44.6573 75.6048H74.8992C76.5696 75.6048 77.9234 74.251 77.9234 72.5806V69.5564H80.9476C85.9576 69.5564 90.0202 73.6189 90.0202 78.6289V105.847H29.5363V78.6289ZM38.6089 111.895H44.6573V145.161C44.6573 146.832 43.3035 148.185 41.6331 148.185C39.9627 148.185 38.6089 146.832 38.6089 145.161V111.895ZM50.7056 145.161V111.895H56.754V160.282C56.754 161.953 55.4002 163.306 53.7298 163.306C52.0594 163.306 50.7056 161.953 50.7056 160.282V145.161ZM96.0685 178.427C96.0685 183.437 92.006 187.5 86.996 187.5H32.5605C27.5505 187.5 23.4879 183.437 23.4879 178.427V111.895H32.5605V145.161C32.5605 150.171 36.6231 154.234 41.6331 154.234C42.6655 154.223 43.6886 154.035 44.6573 153.677V160.282C44.6573 165.292 48.7198 169.355 53.7298 169.355C58.7398 169.355 62.8024 165.292 62.8024 160.282V111.895H96.0685V178.427Z" fill="white"/>
<path d="M141.431 120.968V66.5323C141.431 64.8619 140.078 63.5081 138.407 63.5081H135.383V39.3146C135.383 37.6442 134.029 36.2904 132.359 36.2904H86.996V27.2178H90.0202V30.242C90.0202 31.9124 91.374 33.2662 93.0444 33.2662H150.504V44.2431C150.506 48.2005 153.714 51.409 157.671 51.4114H158.457C159.943 51.4125 161.391 50.9506 162.601 50.0895V59.3641C162.603 63.3215 165.81 66.53 169.768 66.5323H170.553C174.511 66.53 177.718 63.3215 177.722 59.3641V9.07266C177.722 7.40226 176.368 6.04846 174.698 6.04846H93.0444C91.374 6.04846 90.0202 7.40226 90.0202 9.07266V12.0968H74.8992C73.2288 12.0968 71.875 13.4506 71.875 15.121V48.3872C71.875 50.0576 73.2288 51.4114 74.8992 51.4114H120.262V63.5081H117.238C115.568 63.5081 114.214 64.8619 114.214 66.5323V120.968C114.214 125.978 118.276 130.04 123.286 130.04H132.359C137.369 130.04 141.431 125.978 141.431 120.968ZM96.0685 12.0968H171.673V59.3641C171.676 59.6629 171.56 59.95 171.35 60.1603C171.138 60.3705 170.852 60.4863 170.553 60.4839H169.768C169.47 60.4863 169.183 60.3705 168.973 60.1603C168.763 59.95 168.646 59.6629 168.649 59.3641V30.242C168.649 28.5716 167.295 27.2178 165.625 27.2178H162.601C160.93 27.2178 159.577 28.5716 159.577 30.242V44.2431C159.579 44.542 159.463 44.829 159.253 45.0393C159.041 45.2496 158.756 45.3653 158.457 45.363H157.671C157.373 45.3653 157.086 45.2496 156.876 45.0393C156.666 44.829 156.549 44.542 156.552 44.2431V30.242C156.552 28.5716 155.199 27.2178 153.528 27.2178H96.0685V12.0968ZM123.286 45.363H77.9234V18.1452H90.0202V21.1694H83.9718C82.3014 21.1694 80.9476 22.5232 80.9476 24.1936V39.3146C80.9476 40.985 82.3014 42.3388 83.9718 42.3388H129.335V63.5081H126.31V48.3872C126.31 46.7168 124.957 45.363 123.286 45.363ZM135.383 120.968C135.383 122.638 134.029 123.992 132.359 123.992H123.286C121.616 123.992 120.262 122.638 120.262 120.968V69.5565H135.383V120.968Z" fill="white"/>
<path d="M90.0202 114.919C88.3498 114.919 86.996 116.273 86.996 117.944V160.282C86.996 161.953 88.3498 163.306 90.0202 163.306C91.6906 163.306 93.0443 161.953 93.0443 160.282V117.944C93.0443 116.273 91.6906 114.919 90.0202 114.919Z" fill="white"/>
<path d="M138.407 21.1694H165.625C167.295 21.1694 168.649 19.8156 168.649 18.1452C168.649 16.4748 167.295 15.121 165.625 15.121H138.407C136.737 15.121 135.383 16.4748 135.383 18.1452C135.383 19.8156 136.737 21.1694 138.407 21.1694Z" fill="white"/>
<path d="M90.0202 166.331C88.3498 166.331 86.996 167.684 86.996 169.355V175.403C86.996 177.074 88.3498 178.427 90.0202 178.427C91.6906 178.427 93.0443 177.074 93.0443 175.403V169.355C93.0443 167.684 91.6906 166.331 90.0202 166.331Z" fill="white"/>
<path d="M126.31 21.1694H129.335C131.005 21.1694 132.359 19.8156 132.359 18.1452C132.359 16.4748 131.005 15.121 129.335 15.121H126.31C124.64 15.121 123.286 16.4748 123.286 18.1452C123.286 19.8156 124.64 21.1694 126.31 21.1694Z" fill="white"/>
<path d="M129.335 72.5807C127.664 72.5807 126.31 73.9345 126.31 75.6049V105.847C126.31 107.517 127.664 108.871 129.335 108.871C131.005 108.871 132.359 107.517 132.359 105.847V75.6049C132.359 73.9345 131.005 72.5807 129.335 72.5807Z" fill="white"/>
</svg>
