<svg width="151" height="114" viewBox="0 0 151 114" fill="none" xmlns="http://www.w3.org/2000/svg">
<path d="M102 26.2C113.8 23.5 132.8 17.8 142.7 21.7C152.6 25.7 153.2 39.4 143.6 47.5C134 55.6 114.1 58.1 106.5 65.9C98.8 73.7 103.4 86.7 101.2 97.4C99 108.1 90 116.5 83.3 112.6C76.5 108.7 72.1 92.5 60.8 86.9C49.6 81.4 31.7 86.7 18.8 82.8C5.99997 78.9 -1.60003 66 1.09997 54.6C3.89997 43.2 17.1 33.4 25.9 22.7C34.7 11.9 39.2 0.199999 47.7 0.899999C56.1 1.6 68.6 14.7 77.1 21.5C85.6 28.3 90.1 28.8 102 26.2Z" fill="#FF5E14"/>
</svg>
