<svg width="70" height="70" viewBox="0 0 70 70" fill="none" xmlns="http://www.w3.org/2000/svg">
<g filter="url(#filter0_d)">
<path d="M5.06897 61.3394H52.1035H64.931C65.086 61.3394 65.2293 61.3079 65.3608 61.2556C65.395 61.2423 65.4217 61.2175 65.4527 61.2004C65.551 61.1499 65.6419 61.0957 65.7157 61.0215C65.7263 61.011 65.7413 61.0081 65.752 60.9977C65.7841 60.9624 65.7958 60.9196 65.8215 60.8815C65.861 60.8254 65.9006 60.773 65.9262 60.7093C65.9519 60.6455 65.9604 60.5798 65.9711 60.5122C65.9776 60.4694 66 60.4323 66 60.3876V12.7973C66 12.2719 65.5222 11.8455 64.931 11.8455H52.1035H51.0345V8.99007C51.0345 4.26722 46.7191 0.423828 41.4138 0.423828C38.9477 0.423828 36.7039 1.26046 35 2.62345C33.2961 1.26046 31.0523 0.423828 28.5862 0.423828C23.2809 0.423828 18.9655 4.26722 18.9655 8.99007V11.8455H5.06897C4.47783 11.8455 4 12.2719 4 12.7973V60.3876C4 60.9139 4.47783 61.3394 5.06897 61.3394ZM58.5172 56.8687L61.9775 59.4357H55.0559L58.5172 56.8687ZM57.4483 55.1821L53.1724 58.3545V13.7491H57.4483V55.1821ZM63.8621 58.3545L59.5862 55.1821V13.7491H63.8621V58.3545ZM48.8966 8.99007V11.8455H38.2069V8.99007C38.2069 7.14548 37.542 5.43984 36.4239 4.03974C37.7494 2.97942 39.495 2.32744 41.4138 2.32744C45.5389 2.32744 48.8966 5.31611 48.8966 8.99007ZM33.931 8.99007C33.931 7.74131 34.3255 6.5763 35 5.57595C35.6745 6.5763 36.069 7.74131 36.069 8.99007V11.8455H33.931V8.99007ZM21.1034 8.99007C21.1034 5.31611 24.4611 2.32744 28.5862 2.32744C30.505 2.32744 32.2506 2.97942 33.5761 4.03974C32.458 5.43984 31.7931 7.14548 31.7931 8.99007V11.8455H21.1034V8.99007ZM6.13793 13.7491H18.9655V19.4599C18.9655 19.9853 19.4433 20.4117 20.0345 20.4117C20.6256 20.4117 21.1034 19.9853 21.1034 19.4599V13.7491H36.069V19.4599C36.069 19.9853 36.5468 20.4117 37.1379 20.4117C37.7291 20.4117 38.2069 19.9853 38.2069 19.4599V13.7491H51.0345V59.4357H6.13793V13.7491Z" fill="white"/>
<path d="M16.8212 33.7432C18.5892 33.7432 20.0281 32.4613 20.0281 30.8872C20.0281 29.3132 18.5892 28.0322 16.8212 28.0322C15.0531 28.0322 13.6143 29.3132 13.6143 30.8872C13.6143 32.4613 15.0531 33.7432 16.8212 33.7432ZM16.8212 29.9356C17.4112 29.9356 17.8901 30.3629 17.8901 30.8872C17.8901 31.4125 17.4112 31.8398 16.8212 31.8398C16.2311 31.8398 15.7522 31.4125 15.7522 30.8872C15.7522 30.3629 16.2311 29.9356 16.8212 29.9356Z" fill="white"/>
<path d="M46.6752 48.3012C46.6977 48.2374 46.7116 48.1755 46.7191 48.1099C46.7223 48.0794 46.7394 48.0528 46.7394 48.0214C46.7394 47.9918 46.7233 47.9661 46.7201 47.9376C46.7137 47.8738 46.6988 47.8129 46.6774 47.7501C46.656 47.6873 46.6303 47.6292 46.5961 47.5721C46.5801 47.5464 46.578 47.5179 46.5598 47.4931L33.7322 30.357C33.5676 30.1362 33.3153 29.9982 33.0449 29.9516C32.9775 29.9392 32.9091 29.9506 32.8418 29.9506C32.7733 29.9506 32.706 29.9392 32.6387 29.9516C32.3671 29.9982 32.117 30.1362 31.9513 30.357L25.3558 39.1678L23.0361 36.0687C22.8715 35.8479 22.6192 35.709 22.3477 35.6633C22.2804 35.6509 22.213 35.6623 22.1457 35.6623C22.0783 35.6623 22.0099 35.6509 21.9426 35.6633C21.6711 35.709 21.4209 35.847 21.2552 36.0687L12.7035 47.4931C12.6843 47.5179 12.6821 47.5474 12.6672 47.5721C12.633 47.6292 12.6062 47.6863 12.5859 47.7501C12.5645 47.812 12.5496 47.8738 12.5432 47.9376C12.54 47.9661 12.5239 47.9918 12.5239 48.0214C12.5239 48.0528 12.541 48.0794 12.5442 48.1099C12.5517 48.1755 12.5656 48.2374 12.5881 48.3012C12.6084 48.3592 12.6319 48.4116 12.6629 48.4649C12.6939 48.5172 12.7302 48.5639 12.7741 48.6115C12.8222 48.6629 12.8713 48.7076 12.9301 48.7504C12.9558 48.7695 12.9718 48.7961 13.0007 48.8132C13.037 48.8342 13.0766 48.8437 13.1151 48.8618C13.1514 48.878 13.1845 48.8941 13.2252 48.9075C13.3449 48.9474 13.4689 48.9731 13.5929 48.9731C13.5929 48.9731 13.5929 48.9731 13.594 48.9731H45.6715C45.6726 48.9731 45.6726 48.9731 45.6726 48.9731C45.7966 48.9731 45.9195 48.9474 46.0403 48.9075C46.0798 48.8941 46.113 48.878 46.1504 48.8608C46.1889 48.8437 46.2284 48.8351 46.2648 48.8132C46.2936 48.7952 46.3097 48.7685 46.3353 48.7504C46.3941 48.7076 46.4433 48.6629 46.4914 48.6115C46.5331 48.5639 46.5705 48.5172 46.6026 48.4649C46.6346 48.4125 46.6549 48.3583 46.6752 48.3012ZM26.2484 41.4092C26.2484 41.4083 26.2484 41.4073 26.2494 41.4073L32.8418 32.6004L43.6736 47.0696H22.0099L26.2484 41.4092ZM19.4401 47.0696H15.5886L22.1446 38.3121L24.0698 40.8839L19.4401 47.0696Z" fill="white"/>
</g>
<defs>
<filter id="filter0_d" x="0" y="0.423828" width="70" height="68.9155" filterUnits="userSpaceOnUse" color-interpolation-filters="sRGB">
<feFlood flood-opacity="0" result="BackgroundImageFix"/>
<feColorMatrix in="SourceAlpha" type="matrix" values="0 0 0 0 0 0 0 0 0 0 0 0 0 0 0 0 0 0 127 0"/>
<feOffset dy="4"/>
<feGaussianBlur stdDeviation="2"/>
<feColorMatrix type="matrix" values="0 0 0 0 0 0 0 0 0 0 0 0 0 0 0 0 0 0 0.25 0"/>
<feBlend mode="normal" in2="BackgroundImageFix" result="effect1_dropShadow"/>
<feBlend mode="normal" in="SourceGraphic" in2="effect1_dropShadow" result="shape"/>
</filter>
</defs>
</svg>
