<svg width="44" height="44" viewBox="0 0 44 44" fill="none" xmlns="http://www.w3.org/2000/svg">
<g filter="url(#filter0_d)">
<path d="M22 0C12.0103 0 4 8.1 4 18C4 27.9 12.0103 36 22 36C31.9897 36 40 27.9 40 18C40 8.1 31.9001 0 22 0ZM22 32.4C14.0802 32.4 7.59965 25.9197 7.59965 18C7.59965 10.0802 14.0803 3.6 22 3.6C29.9197 3.6 36.4003 10.0802 36.4003 18C36.4003 25.9198 29.9198 32.4 22 32.4ZM28.3 16.2C29.8303 16.2 31.0001 15.0302 31.0001 13.5C31.0001 11.9698 29.8302 10.8 28.3 10.8C26.7698 10.8 25.6 11.9698 25.6 13.5C25.6 15.0302 26.7698 16.2 28.3 16.2ZM15.7 16.2C17.2302 16.2 18.4 15.0302 18.4 13.5C18.4 11.9698 17.2301 10.8 15.7 10.8C14.1697 10.8 12.9999 11.9698 12.9999 13.5C12.9999 15.0302 14.1698 16.2 15.7 16.2ZM22 27.9C26.2303 27.9 29.7397 25.2897 31.1801 21.5999H12.8199C14.2603 25.2897 17.7697 27.9 22 27.9Z" fill="#211C1C"/>
</g>
<defs>
<filter id="filter0_d" x="0" y="0" width="44" height="44" filterUnits="userSpaceOnUse" color-interpolation-filters="sRGB">
<feFlood flood-opacity="0" result="BackgroundImageFix"/>
<feColorMatrix in="SourceAlpha" type="matrix" values="0 0 0 0 0 0 0 0 0 0 0 0 0 0 0 0 0 0 127 0"/>
<feOffset dy="4"/>
<feGaussianBlur stdDeviation="2"/>
<feColorMatrix type="matrix" values="0 0 0 0 0 0 0 0 0 0 0 0 0 0 0 0 0 0 0.25 0"/>
<feBlend mode="normal" in2="BackgroundImageFix" result="effect1_dropShadow"/>
<feBlend mode="normal" in="SourceGraphic" in2="effect1_dropShadow" result="shape"/>
</filter>
</defs>
</svg>
