<svg width="70" height="70" viewBox="0 0 70 70" fill="none" xmlns="http://www.w3.org/2000/svg">
<g filter="url(#filter0_d)">
<path d="M63.1818 45.0912L47.6818 29.5912L54.727 22.546L57.5453 19.7277L60.3621 16.9108C63.4759 13.7971 63.4752 8.74958 60.3614 5.63718C57.2484 2.52547 52.2022 2.52547 49.0898 5.63787L46.273 8.45473L43.4547 11.273L36.4088 18.3182L20.9088 2.81824L18.0905 0L15.2723 2.81824L6.81824 11.273L4 14.0905L6.81824 16.9088L10.3405 20.4311L11.75 21.8405L15.977 26.0676L17.3865 27.4763L21.6135 31.7034L22.3182 32.4081L15.273 39.4547L12.9597 42.1324C11.9911 43.254 11.2512 44.5546 10.7828 45.9599L8.67411 52.2853L6.15278 59.8472L13.7147 57.3266L20.0401 55.2186C21.4461 54.7501 22.7467 54.0103 23.8682 53.041L26.546 50.7277L33.5912 43.6824L34.296 44.3872L38.523 48.6142L39.9318 50.0237L44.1588 54.2507L45.5682 55.6602L49.0905 59.1824L51.9095 62L54.7277 59.1818L63.1824 50.727L66 47.9095L63.1818 45.0912ZM51.9095 8.45473C53.4657 6.89785 55.9891 6.89785 57.546 8.45473C59.1028 10.0109 59.1028 12.5343 57.546 14.0912L54.7277 16.9095L49.0912 11.273L51.9095 8.45473ZM46.2723 14.0905L46.3901 14.2083L51.9088 19.727L44.8635 26.773L39.227 21.1365L46.2723 14.0905ZM12.454 53.546L15.2723 45.0912L20.9088 50.7277L12.454 53.546ZM23.727 47.9095L18.0905 42.273L25.1358 35.2277L27.2493 37.3412L28.6581 38.75L30.7716 40.8635L23.727 47.9095ZM51.9095 56.3635L48.3865 52.8405L54.023 47.204L52.6135 45.7946L46.977 51.4311L42.75 47.204L45.5682 44.3858L44.1588 42.9763L41.3405 45.7946L37.1135 41.5676L39.9318 38.7493L38.523 37.3405L35.7047 40.1588L31.4777 35.9318L37.1142 30.2953L35.7054 28.8865L30.0689 34.523L25.8419 30.296L28.6602 27.4777L27.2514 26.0689L24.4331 28.8872L20.2061 24.6602L23.0244 21.8419L21.6149 20.4324L18.7966 23.2507L14.5696 19.0237L20.2061 13.3872L18.7966 11.9777L13.1602 17.6142L9.63718 14.0912L18.0919 5.63718L60.3642 47.9095L51.9095 56.3635Z" fill="white"/>
</g>
<defs>
<filter id="filter0_d" x="0" y="0" width="70" height="70" filterUnits="userSpaceOnUse" color-interpolation-filters="sRGB">
<feFlood flood-opacity="0" result="BackgroundImageFix"/>
<feColorMatrix in="SourceAlpha" type="matrix" values="0 0 0 0 0 0 0 0 0 0 0 0 0 0 0 0 0 0 127 0"/>
<feOffset dy="4"/>
<feGaussianBlur stdDeviation="2"/>
<feColorMatrix type="matrix" values="0 0 0 0 0 0 0 0 0 0 0 0 0 0 0 0 0 0 0.25 0"/>
<feBlend mode="normal" in2="BackgroundImageFix" result="effect1_dropShadow"/>
<feBlend mode="normal" in="SourceGraphic" in2="effect1_dropShadow" result="shape"/>
</filter>
</defs>
</svg>
