<svg width="70" height="70" viewBox="0 0 70 70" fill="none" xmlns="http://www.w3.org/2000/svg">
<g filter="url(#filter0_d)">
<path d="M9.81691 35.9557C10.1494 35.7467 10.3929 35.4012 10.4937 34.995C10.5946 34.5888 10.5447 34.1552 10.3549 33.7894L9.99207 33.1017L14.8715 32.1115L15.8348 33.9614C16.5446 35.3021 17.6567 36.3293 18.9803 36.8667C20.304 37.4041 21.7565 37.4182 23.0886 36.9065C24.4206 36.3948 25.549 35.3892 26.2801 34.0625C27.0112 32.7357 27.2993 31.1706 27.095 29.6357L37.667 27.497L38.4052 28.9136C38.4916 29.1096 38.6137 29.284 38.764 29.4259C38.9143 29.5678 39.0895 29.6742 39.2788 29.7385C39.4681 29.8028 39.6674 29.8236 39.8643 29.7997C40.0612 29.7758 40.2515 29.7076 40.4235 29.5994C40.5954 29.4912 40.7453 29.3453 40.8637 29.1707C40.9822 28.9961 41.0668 28.7967 41.1121 28.5847C41.1575 28.3727 41.1628 28.1527 41.1276 27.9384C41.0923 27.724 41.0174 27.52 40.9074 27.3388L27.3014 1.1305C27.0982 0.795747 26.7869 0.558282 26.4306 0.46608C26.0742 0.373878 25.6993 0.433814 25.3815 0.633777C25.0638 0.833739 24.827 1.15882 24.7189 1.54335C24.6108 1.92787 24.6395 2.34317 24.7992 2.70533L25.4247 3.8813L6.98311 27.2632L6.7454 26.8093C6.65898 26.6133 6.53684 26.4389 6.38654 26.297C6.23625 26.1551 6.06102 26.0487 5.87174 25.9844C5.68247 25.9201 5.48318 25.8993 5.28627 25.9232C5.08936 25.9471 4.89902 26.0153 4.72709 26.1235C4.55516 26.2318 4.40531 26.3777 4.28684 26.5522C4.16837 26.7268 4.08382 26.9263 4.03843 27.1383C3.99305 27.3503 3.9878 27.5703 4.02301 27.7846C4.05823 27.9989 4.13316 28.203 4.24314 28.3841L7.84639 35.3643C8.03648 35.7298 8.35081 35.9974 8.7203 36.1083C9.0898 36.2192 9.48422 36.1643 9.81691 35.9557ZM24.2737 30.1996C24.3616 31.0019 24.1948 31.813 23.8014 32.4956C23.4081 33.1783 22.8124 33.6907 22.1151 33.9463C21.4177 34.2018 20.6615 34.1848 19.9743 33.8981C19.287 33.6114 18.7109 33.0726 18.3433 32.3728L17.8804 31.52L24.2737 30.1996ZM37.2729 12.2644C37.1689 12.0644 37.1018 11.8438 37.0754 11.6152C37.049 11.3867 37.0638 11.1547 37.119 10.9324C37.1742 10.7102 37.2687 10.5021 37.397 10.32C37.5254 10.1379 37.6852 9.98538 37.8672 9.87119L42.609 6.89344C42.791 6.7644 42.995 6.67746 43.2086 6.63791C43.4221 6.59837 43.6408 6.60706 43.8512 6.66344C44.0617 6.71982 44.2594 6.82272 44.4325 6.96587C44.6056 7.10901 44.7503 7.2894 44.8579 7.49604C44.9655 7.70268 45.0337 7.93124 45.0583 8.1678C45.083 8.40435 45.0635 8.64394 45.0012 8.87196C44.9388 9.09999 44.8349 9.31166 44.6957 9.49409C44.5565 9.67653 44.385 9.82589 44.1916 9.93308L39.4436 12.9521C39.2601 13.0639 39.0583 13.1349 38.8497 13.1609C38.6412 13.1868 38.4301 13.1673 38.2284 13.1034C38.0268 13.0395 37.8386 12.9325 37.6746 12.7886C37.5107 12.6446 37.3741 12.4665 37.2729 12.2644ZM34.6518 8.68146C34.357 8.38502 34.1755 7.97656 34.1442 7.53867C34.1128 7.10079 34.2339 6.66615 34.4829 6.32264L37.9735 1.50873C38.1003 1.32387 38.2595 1.1688 38.4417 1.05269C38.6238 0.936572 38.8253 0.861762 39.0343 0.832675C39.2432 0.803588 39.4553 0.820812 39.6581 0.883333C39.8608 0.945853 40.0501 1.0524 40.2148 1.19669C40.3795 1.34097 40.5162 1.52007 40.6169 1.7234C40.7176 1.92674 40.7802 2.15019 40.801 2.38056C40.8219 2.61093 40.8005 2.84356 40.7382 3.0647C40.6759 3.28584 40.5739 3.49102 40.4383 3.66812L36.9476 8.48203C36.8128 8.667 36.6451 8.81975 36.4547 8.93091C36.2643 9.04207 36.0552 9.1093 35.8404 9.12847H35.7215C35.3284 9.13514 34.947 8.9807 34.6518 8.69522V8.68146ZM38.768 16.5763C38.7249 16.3449 38.7253 16.1062 38.7691 15.875C38.8129 15.6437 38.8993 15.4248 39.0229 15.2315C39.1465 15.0383 39.3048 14.8749 39.4879 14.7514C39.6711 14.6279 39.8753 14.5468 40.0879 14.5132L45.6117 13.6398C46.0264 13.575 46.4476 13.6941 46.7826 13.9707C47.1175 14.2474 47.3387 14.6589 47.3976 15.1149C47.4565 15.5709 47.3483 16.0339 47.0966 16.4021C46.845 16.7703 46.4706 17.0136 46.0558 17.0783L40.5133 17.9448H40.2944C39.9367 17.9399 39.5911 17.8019 39.3139 17.5534C39.0367 17.3049 38.8443 16.9604 38.768 16.5763ZM20.0011 61.3388C19.7562 61.3452 19.5126 61.2976 19.2848 61.1988C19.0569 61.1 18.8493 60.952 18.6744 60.7635C18.4994 60.575 18.3606 60.3499 18.2662 60.1014C18.1717 59.853 18.1235 59.5862 18.1244 59.3169V52.2817C18.1244 51.7473 18.3175 51.2348 18.6612 50.857C19.005 50.4791 19.4712 50.2668 19.9573 50.2668H24.9243C25.4104 50.2668 25.8766 50.4791 26.2203 50.857C26.5641 51.2348 26.7572 51.7473 26.7572 52.2817V59.3169C26.7572 59.5815 26.7098 59.8436 26.6177 60.088C26.5255 60.3325 26.3905 60.5546 26.2203 60.7417C26.0501 60.9288 25.8481 61.0773 25.6257 61.1785C25.4033 61.2798 25.165 61.3319 24.9243 61.3319L20.0011 61.3388ZM32.3059 61.3388C31.8198 61.3388 31.3536 61.1265 31.0099 60.7486C30.6661 60.3707 30.473 59.8582 30.473 59.3238V49.9229C30.473 49.6583 30.5204 49.3963 30.6125 49.1518C30.7047 48.9074 30.8397 48.6852 31.0099 48.4981C31.1801 48.311 31.3821 48.1626 31.6045 48.0613C31.8269 47.9601 32.0652 47.908 32.3059 47.908H37.2729C37.5136 47.908 37.7519 47.9601 37.9743 48.0613C38.1967 48.1626 38.3988 48.311 38.569 48.4981C38.7392 48.6852 38.8742 48.9074 38.9663 49.1518C39.0584 49.3963 39.1058 49.6583 39.1058 49.9229V59.3169C39.1058 59.5815 39.0584 59.8436 38.9663 60.088C38.8742 60.3325 38.7392 60.5546 38.569 60.7417C38.3988 60.9288 38.1967 61.0773 37.9743 61.1785C37.7519 61.2798 37.5136 61.3319 37.2729 61.3319L32.3059 61.3388ZM51.3856 44.5864V59.3169C51.3856 59.5815 51.3382 59.8436 51.2461 60.088C51.154 60.3325 51.019 60.5546 50.8488 60.7417C50.6786 60.9288 50.4765 61.0773 50.2541 61.1785C50.0318 61.2798 49.7934 61.3319 49.5527 61.3319H44.5795C44.3388 61.3319 44.1004 61.2798 43.8781 61.1785C43.6557 61.0773 43.4536 60.9288 43.2834 60.7417C43.1132 60.5546 42.9782 60.3325 42.8861 60.088C42.794 59.8436 42.7466 59.5815 42.7466 59.3169V44.5864C42.7466 44.052 42.9397 43.5394 43.2834 43.1616C43.6272 42.7837 44.0934 42.5714 44.5795 42.5714H49.5465C49.7877 42.5705 50.0267 42.6219 50.2498 42.7228C50.4729 42.8237 50.6757 42.9719 50.8466 43.1591C51.0174 43.3463 51.153 43.5688 51.2455 43.8137C51.338 44.0586 51.3856 44.3212 51.3856 44.5864ZM63.6904 34.5872V59.2757C63.6906 59.8146 63.4989 60.3322 63.1564 60.7177C62.8138 61.1033 62.3477 61.3262 61.8576 61.3388H56.9093C56.4192 61.3262 55.9531 61.1033 55.6105 60.7177C55.268 60.3322 55.0763 59.8146 55.0764 59.2757V34.5872C55.0763 34.0483 55.268 33.5307 55.6105 33.1451C55.9531 32.7596 56.4192 32.5367 56.9093 32.5241H61.8513C62.3425 32.5349 62.8102 32.757 63.1541 33.1427C63.498 33.5285 63.6905 34.0471 63.6904 34.5872ZM65.9612 21.5209C66.0614 22.0542 65.9657 22.6093 65.695 23.0654C65.4243 23.5214 65.0006 23.8413 64.5162 23.9553C64.0301 24.0696 63.5226 23.9673 63.1051 23.6708C62.6876 23.3742 62.3942 22.9077 62.2892 22.3736L61.526 18.4537C58.1327 24.5201 53.7515 29.847 48.6019 34.1677C44.2329 37.7915 39.3478 40.594 34.1451 42.4614C29.3815 44.214 24.3985 45.1398 19.3755 45.2053C18.531 45.2053 18.0306 45.1709 17.9805 45.164C17.4828 45.1248 17.0196 44.8699 16.6929 44.4552C16.3662 44.0406 16.2027 43.5002 16.2383 42.9531C16.274 42.4059 16.5059 41.8967 16.8831 41.5375C17.2603 41.1784 17.7518 40.9986 18.2495 41.0378C18.2495 41.0378 18.6186 41.0378 19.2942 41.0378C23.9748 40.9645 28.617 40.097 33.0566 38.4658C43.6411 34.6147 52.1363 27.1325 58.3169 16.2118L54.8512 17.0783C54.3764 17.1615 53.8907 17.0411 53.4943 16.7421C53.0978 16.4431 52.8209 15.9882 52.7206 15.4713C52.6203 14.9544 52.7043 14.4149 52.9552 13.964C53.2062 13.5132 53.6049 13.1854 54.0693 13.0484L62.0327 11.1778C62.5188 11.0635 63.0263 11.1658 63.4438 11.4624C63.8613 11.7589 64.1547 12.2254 64.2597 12.7595L65.9612 21.5209Z" fill="black"/>
</g>
<defs>
<filter id="filter0_d" x="0" y="0.423828" width="70" height="68.9155" filterUnits="userSpaceOnUse" color-interpolation-filters="sRGB">
<feFlood flood-opacity="0" result="BackgroundImageFix"/>
<feColorMatrix in="SourceAlpha" type="matrix" values="0 0 0 0 0 0 0 0 0 0 0 0 0 0 0 0 0 0 127 0"/>
<feOffset dy="4"/>
<feGaussianBlur stdDeviation="2"/>
<feColorMatrix type="matrix" values="0 0 0 0 0 0 0 0 0 0 0 0 0 0 0 0 0 0 0.25 0"/>
<feBlend mode="normal" in2="BackgroundImageFix" result="effect1_dropShadow"/>
<feBlend mode="normal" in="SourceGraphic" in2="effect1_dropShadow" result="shape"/>
</filter>
</defs>
</svg>
