<svg width="70" height="70" viewBox="0 0 70 70" fill="none" xmlns="http://www.w3.org/2000/svg">
<g filter="url(#filter0_d)">
<g clip-path="url(#clip0)">
<path d="M62.1485 -0.507324H7.85151C6.25454 -0.507324 4.93939 0.887861 4.93939 2.48236C4.93939 9.15932 4.93939 39.2555 4.93939 46.0321C4.93939 47.7262 6.25454 49.1214 7.85151 49.1214H27.6727L25.9818 55.1008H20.2515C19.6879 55.1008 19.3121 55.4994 19.3121 56.0974V61.0802C19.3121 61.6781 19.6879 62.0767 20.2515 62.0767H49.8424C50.4061 62.0767 50.7818 61.6781 50.7818 61.0802V56.0974C50.7818 55.4994 50.4061 55.1008 49.8424 55.1008H44.1121L42.4212 49.1214H62.2424C63.8394 49.1214 65.1545 47.7262 65.1545 46.0321V2.48236C65.0606 0.887861 63.7454 -0.507324 62.1485 -0.507324ZM7.85151 1.4858H62.1485C62.7121 1.4858 63.1818 1.98408 63.1818 2.58202V37.5613H6.81818V2.48236C6.81818 1.98408 7.28788 1.4858 7.85151 1.4858ZM48.8091 60.0836H21.1909V57.0939H48.903V60.0836H48.8091ZM42.0455 55.2005H27.8606L29.5515 49.2211H40.2606L42.0455 55.2005ZM62.1485 47.1283H7.85151C7.28788 47.1283 6.81818 46.7297 6.81818 46.1317V39.5544H63.1818V46.1317C63.1818 46.7297 62.7121 47.1283 62.1485 47.1283Z" fill="white"/>
<path d="M35 40.252C33.403 40.252 32.0879 41.6471 32.0879 43.3413C32.0879 45.0354 33.403 46.4306 35 46.4306C36.597 46.4306 37.9121 45.0354 37.9121 43.3413C37.9121 41.6471 36.597 40.252 35 40.252ZM35 44.4375C34.4364 44.4375 33.9667 43.9392 33.9667 43.3413C33.9667 42.7434 34.4364 42.2451 35 42.2451C35.5636 42.2451 36.0333 42.7434 36.0333 43.3413C36.0333 43.9392 35.5636 44.4375 35 44.4375Z" fill="white"/>
<path d="M38.3818 20.2215L33.6848 25.2043C33.5909 25.304 33.497 25.4036 33.403 25.7026L32.1818 31.6819C32.0879 31.9809 32.1818 32.3795 32.4636 32.5788C32.6515 32.7782 33.0273 32.8778 33.3091 32.8778L38.9455 31.5823C39.1333 31.5823 39.3212 31.383 39.4152 31.2833L44.1121 26.4002L52.097 34.8709C52.4727 35.2696 53.0364 35.2696 53.4121 34.8709L59.2364 28.6923C59.6121 28.2936 59.6121 27.6957 59.2364 27.2971L51.2515 18.8263L57.1697 12.548C57.5455 12.1493 57.5455 11.5514 57.1697 11.1528L52.8485 6.46894C52.6606 6.26963 52.4727 6.16997 52.1909 6.16997C51.9091 6.16997 51.7212 6.26963 51.5333 6.46894C51.4394 6.5686 45.5212 12.8469 45.6152 12.7473L37.6303 4.27651C37.4424 4.0772 37.2545 3.97754 36.9727 3.97754C36.6909 3.97754 36.503 4.0772 36.3152 4.27651L30.4909 10.4552C30.1152 10.8538 30.1152 11.4517 30.4909 11.8504C30.4909 11.95 38.4758 20.3211 38.3818 20.2215ZM40.5424 22.6132L36.503 26.7988L35.6576 25.9019L39.697 21.6167L40.5424 22.6132ZM34.9061 27.895L35.8455 28.8916L36.7849 29.8881L34.3424 30.4861L34.9061 27.895ZM38.6636 29.1905L37.8182 28.2936L41.8576 24.0084L42.703 24.9053L38.6636 29.1905ZM51.6273 15.438L49.8424 17.3315L48.997 16.4346L50.7818 14.5411L51.6273 15.438ZM52.003 8.56172L55.0091 11.7507L52.8485 14.0428C52.6606 13.8435 49.6545 10.6545 49.8424 10.8538L52.003 8.56172ZM48.5273 12.249L49.3727 13.1459L47.5879 15.0394L46.7424 14.1425L48.5273 12.249ZM36.8788 6.36929L57.1697 27.895L52.6606 32.6785L49.9364 29.7885L52.2849 27.2971C52.6606 26.8984 52.6606 26.3005 52.2849 25.9019C51.9091 25.5033 51.3455 25.5033 50.9697 25.9019L48.6212 28.3933L46.5545 26.2009L48.0576 24.6064C48.4333 24.2077 48.4333 23.6098 48.0576 23.2112C47.6818 22.8125 47.1182 22.8125 46.7424 23.2112L45.2394 24.8057L44.6758 24.2077L43.1727 22.6132L43.6424 22.2146L45.6152 20.1218C45.9909 19.7232 45.9909 19.1253 45.6152 18.7266C45.2394 18.328 44.6758 18.328 44.3 18.7266L41.9515 21.2181L39.8849 19.0256L41.3879 17.4311C41.7636 17.0325 41.7636 16.4346 41.3879 16.0359C41.0121 15.6373 40.4485 15.6373 40.0727 16.0359L38.5697 17.6304L36.503 15.438L38.8515 12.9466C39.2273 12.548 39.2273 11.95 38.8515 11.5514C38.4758 11.1528 37.9121 11.1528 37.5364 11.5514L35.1879 14.0428L32.4636 11.1528L36.8788 6.36929Z" fill="white"/>
<path d="M11.5152 10.455H26.6394C27.203 10.455 27.5788 10.0564 27.5788 9.45848C27.5788 8.86054 27.203 8.46191 26.6394 8.46191H11.5152C10.9515 8.46191 10.5758 8.86054 10.5758 9.45848C10.5758 10.0564 11.0455 10.455 11.5152 10.455Z" fill="white"/>
<path d="M11.5152 17.1318H26.6394C27.203 17.1318 27.5788 16.7332 27.5788 16.1352C27.5788 15.5373 27.203 15.1387 26.6394 15.1387H11.5152C10.9515 15.1387 10.5758 15.5373 10.5758 16.1352C10.5758 16.7332 11.0455 17.1318 11.5152 17.1318Z" fill="white"/>
<path d="M11.5152 23.8086H26.6394C27.203 23.8086 27.5788 23.4099 27.5788 22.812C27.5788 22.2141 27.203 21.8154 26.6394 21.8154H11.5152C10.9515 21.8154 10.5758 22.2141 10.5758 22.812C10.5758 23.4099 11.0455 23.8086 11.5152 23.8086Z" fill="white"/>
<path d="M11.5152 30.5854H26.6394C27.203 30.5854 27.5788 30.1868 27.5788 29.5888C27.5788 28.9909 27.203 28.5923 26.6394 28.5923H11.5152C10.9515 28.5923 10.5758 28.9909 10.5758 29.5888C10.5758 30.0871 11.0455 30.5854 11.5152 30.5854Z" fill="white"/>
</g>
</g>
<defs>
<filter id="filter0_d" x="0" y="0" width="70" height="70" filterUnits="userSpaceOnUse" color-interpolation-filters="sRGB">
<feFlood flood-opacity="0" result="BackgroundImageFix"/>
<feColorMatrix in="SourceAlpha" type="matrix" values="0 0 0 0 0 0 0 0 0 0 0 0 0 0 0 0 0 0 127 0"/>
<feOffset dy="4"/>
<feGaussianBlur stdDeviation="2"/>
<feColorMatrix type="matrix" values="0 0 0 0 0 0 0 0 0 0 0 0 0 0 0 0 0 0 0.25 0"/>
<feBlend mode="normal" in2="BackgroundImageFix" result="effect1_dropShadow"/>
<feBlend mode="normal" in="SourceGraphic" in2="effect1_dropShadow" result="shape"/>
</filter>
<clipPath id="clip0">
<rect x="4" width="62" height="62" fill="white"/>
</clipPath>
</defs>
</svg>
