<svg width="70" height="70" viewBox="0 0 70 70" fill="none" xmlns="http://www.w3.org/2000/svg">
<g filter="url(#filter0_d)">
<path d="M35 6.49854C50.9649 6.49854 59.122 17.7639 59.7202 29.5202C60.3726 42.3497 52.0248 55.7646 35 55.7646C17.8876 55.7646 9.74641 42.8221 10.2683 30.2045C10.7644 18.205 19.0969 6.49854 35 6.49854ZM54.5888 19.1928L40.2655 25.3327L55.0392 42.3266C58.389 35.2275 58.3896 26.2171 54.5888 19.1928ZM54.9354 42.5039L42.5492 32.8899L35.7521 53.7644C43.7218 53.5134 50.9433 49.2423 54.9354 42.5039V42.5039ZM35.4096 53.773L37.2837 38.6884L15.527 43.2511C19.8468 49.936 27.3506 53.9118 35.4096 53.773L35.4096 53.773ZM15.4111 43.0698L29.7347 36.9297L14.9613 19.936C11.4253 27.3356 11.5386 36.2887 15.4111 43.0698H15.4111ZM15.0651 19.759L27.451 29.3727L34.2479 8.49878C26.28 8.74976 19.0555 13.0209 15.0651 19.759V19.759ZM34.5904 8.4902L32.7166 23.5745L54.473 19.0115C50.1548 12.3269 42.6477 8.3517 34.5904 8.49023L34.5904 8.4902Z" fill="black"/>
<path d="M35 4.15381C50.1644 4.15381 62.4583 16.2326 62.4583 31.1317C62.4583 46.031 50.1645 58.1099 35 58.1099C19.8359 58.1099 7.54205 46.0311 7.54205 31.1317C7.54205 16.2327 19.8358 4.15381 35 4.15381ZM35 4.67567C20.1286 4.67567 8.07332 16.5201 8.07332 31.1316C8.07332 45.7433 20.1286 57.5878 35 57.5878C49.8717 57.5878 61.927 45.7433 61.927 31.1316C61.927 16.5201 49.8717 4.67567 35 4.67567Z" fill="black"/>
<path d="M35 0.671387C52.1212 0.671387 66 14.3074 66 31.1287C66 47.9501 52.121 61.5859 35 61.5859C17.8791 61.5859 4 47.95 4 31.1287C4 14.3075 17.879 0.671387 35 0.671387ZM35 3.32181C19.3688 3.32181 6.69766 15.771 6.69766 31.1287C6.69766 46.4865 19.3687 58.9358 35 58.9358C50.6315 58.9358 63.3026 46.4866 63.3026 31.1287C63.3026 15.7711 50.6316 3.32181 35 3.32181Z" fill="black"/>
</g>
<defs>
<filter id="filter0_d" x="0" y="0.671387" width="70" height="68.9146" filterUnits="userSpaceOnUse" color-interpolation-filters="sRGB">
<feFlood flood-opacity="0" result="BackgroundImageFix"/>
<feColorMatrix in="SourceAlpha" type="matrix" values="0 0 0 0 0 0 0 0 0 0 0 0 0 0 0 0 0 0 127 0"/>
<feOffset dy="4"/>
<feGaussianBlur stdDeviation="2"/>
<feColorMatrix type="matrix" values="0 0 0 0 0 0 0 0 0 0 0 0 0 0 0 0 0 0 0.25 0"/>
<feBlend mode="normal" in2="BackgroundImageFix" result="effect1_dropShadow"/>
<feBlend mode="normal" in="SourceGraphic" in2="effect1_dropShadow" result="shape"/>
</filter>
</defs>
</svg>
