<svg width="48" height="44" viewBox="0 0 48 44" fill="none" xmlns="http://www.w3.org/2000/svg">
<g filter="url(#filter0_d)">
<path d="M41.7825 12.4615H28.8873L24.9688 0.917308C24.776 0.354808 24.2412 0 23.6364 0C23.0315 0 22.4968 0.354808 22.3039 0.917308L18.3854 12.4615H5.4026C4.63117 12.4615 4 13.0846 4 13.8462C4 13.924 4.00877 14.0106 4.0263 14.0798C4.04383 14.3827 4.18409 14.7202 4.61364 15.0577L15.212 22.4308L11.1445 34.1048C10.9429 34.6673 11.1445 35.299 11.6266 35.6625C11.8808 35.8442 12.1175 36 12.4156 36C12.7049 36 13.0468 35.8529 13.2922 35.6885L23.6364 28.4106L33.9805 35.6885C34.226 35.8615 34.5679 36 34.8571 36C35.1552 36 35.3919 35.8529 35.6373 35.6625C36.1282 35.299 36.3211 34.676 36.1195 34.1048L32.0519 22.4308L42.5627 14.9885L42.8169 14.7721C43.0448 14.5298 43.2727 14.201 43.2727 13.8462C43.2727 13.0846 42.5539 12.4615 41.7825 12.4615ZM30.6318 20.4663C29.7552 21.0894 29.387 22.2144 29.7377 23.2183L32.3763 30.8077C32.4903 31.1279 32.1221 31.3962 31.8416 31.2058L25.0565 26.4288C24.6269 26.126 24.1273 25.9788 23.6276 25.9788C23.1279 25.9788 22.6282 26.126 22.2075 26.4288L15.4224 31.1971C15.1419 31.3962 14.7737 31.1192 14.8877 30.799L17.5263 23.2096C17.8769 22.1885 17.5088 21.0635 16.6234 20.4404L9.52273 15.499C9.24221 15.3087 9.38247 14.8673 9.72435 14.8673H18.3766C19.4286 14.8673 20.3666 14.201 20.6997 13.2144L23.2945 5.58173C23.3997 5.27019 23.8555 5.27019 23.9607 5.58173L26.5555 13.2144C26.8886 14.201 27.8266 14.8673 28.8786 14.8673H37.4081C37.75 14.8673 37.8903 15.3 37.6097 15.4904L30.6318 20.4663Z" fill="#211C1C"/>
</g>
<defs>
<filter id="filter0_d" x="0" y="0" width="47.2727" height="44" filterUnits="userSpaceOnUse" color-interpolation-filters="sRGB">
<feFlood flood-opacity="0" result="BackgroundImageFix"/>
<feColorMatrix in="SourceAlpha" type="matrix" values="0 0 0 0 0 0 0 0 0 0 0 0 0 0 0 0 0 0 127 0"/>
<feOffset dy="4"/>
<feGaussianBlur stdDeviation="2"/>
<feColorMatrix type="matrix" values="0 0 0 0 0 0 0 0 0 0 0 0 0 0 0 0 0 0 0.25 0"/>
<feBlend mode="normal" in2="BackgroundImageFix" result="effect1_dropShadow"/>
<feBlend mode="normal" in="SourceGraphic" in2="effect1_dropShadow" result="shape"/>
</filter>
</defs>
</svg>
