<svg width="44" height="44" viewBox="0 0 44 44" fill="none" xmlns="http://www.w3.org/2000/svg">
<g filter="url(#filter0_d)">
<path d="M26.9116 15.694C27.0261 15.5885 27.0328 15.4185 26.9116 15.313L25.579 14.0821C25.5251 14.0293 25.4444 14 25.3636 14C25.2828 14 25.2021 14.0293 25.1482 14.0821L20.6724 18.1325L22.4493 19.721L26.9116 15.694ZM13.8745 18.2028C13.8139 18.1501 13.7399 18.1208 13.6591 18.1208C13.5783 18.1208 13.5043 18.1501 13.4437 18.2028L12.0909 19.4162C11.9697 19.5217 11.9697 19.6975 12.0909 19.803L16.3446 23.6131C16.6138 23.8593 16.9504 24 17.233 24C17.6369 24 17.9801 23.7362 18.1147 23.6249L18.1215 23.619L19.0234 22.8101L13.8745 18.2028Z" fill="#211C1C"/>
</g>
<g filter="url(#filter1_d)">
<path d="M32.9214 13.4044L31.7003 12.0878C31.6509 12.0313 31.5769 12 31.5029 12C31.4289 12 31.3549 12.0313 31.3056 12.0878L22.8073 21.0345L19.7175 17.7994C19.662 17.7429 19.5942 17.7116 19.5202 17.7116C19.4462 17.7116 19.3784 17.7429 19.3228 17.7994L18.0833 19.0972C17.9722 19.21 17.9722 19.3981 18.0833 19.511L21.9809 23.5862C22.2276 23.8495 22.5359 24 22.7949 24C23.165 24 23.4795 23.7179 23.6028 23.5987L23.609 23.5925L32.9214 13.8056C33.0262 13.6991 33.0262 13.5172 32.9214 13.4044Z" fill="#211C1C"/>
</g>
<g filter="url(#filter2_d)">
<path d="M21.9827 0C12.0481 0 4 8.06538 4 18C4 27.9346 12.0481 36 21.9827 36C31.9346 36 40 27.9346 40 18C40 8.06538 31.9346 0 21.9827 0ZM22 32.4C14.0471 32.4 7.6 25.9529 7.6 18C7.6 10.0471 14.0471 3.6 22 3.6C29.9529 3.6 36.4 10.0471 36.4 18C36.4 25.9529 29.9529 32.4 22 32.4Z" fill="#211C1C"/>
</g>
<defs>
<filter id="filter0_d" x="8" y="14" width="23" height="18" filterUnits="userSpaceOnUse" color-interpolation-filters="sRGB">
<feFlood flood-opacity="0" result="BackgroundImageFix"/>
<feColorMatrix in="SourceAlpha" type="matrix" values="0 0 0 0 0 0 0 0 0 0 0 0 0 0 0 0 0 0 127 0"/>
<feOffset dy="4"/>
<feGaussianBlur stdDeviation="2"/>
<feColorMatrix type="matrix" values="0 0 0 0 0 0 0 0 0 0 0 0 0 0 0 0 0 0 0.25 0"/>
<feBlend mode="normal" in2="BackgroundImageFix" result="effect1_dropShadow"/>
<feBlend mode="normal" in="SourceGraphic" in2="effect1_dropShadow" result="shape"/>
</filter>
<filter id="filter1_d" x="14" y="12" width="23" height="20" filterUnits="userSpaceOnUse" color-interpolation-filters="sRGB">
<feFlood flood-opacity="0" result="BackgroundImageFix"/>
<feColorMatrix in="SourceAlpha" type="matrix" values="0 0 0 0 0 0 0 0 0 0 0 0 0 0 0 0 0 0 127 0"/>
<feOffset dy="4"/>
<feGaussianBlur stdDeviation="2"/>
<feColorMatrix type="matrix" values="0 0 0 0 0 0 0 0 0 0 0 0 0 0 0 0 0 0 0.25 0"/>
<feBlend mode="normal" in2="BackgroundImageFix" result="effect1_dropShadow"/>
<feBlend mode="normal" in="SourceGraphic" in2="effect1_dropShadow" result="shape"/>
</filter>
<filter id="filter2_d" x="0" y="0" width="44" height="44" filterUnits="userSpaceOnUse" color-interpolation-filters="sRGB">
<feFlood flood-opacity="0" result="BackgroundImageFix"/>
<feColorMatrix in="SourceAlpha" type="matrix" values="0 0 0 0 0 0 0 0 0 0 0 0 0 0 0 0 0 0 127 0"/>
<feOffset dy="4"/>
<feGaussianBlur stdDeviation="2"/>
<feColorMatrix type="matrix" values="0 0 0 0 0 0 0 0 0 0 0 0 0 0 0 0 0 0 0.25 0"/>
<feBlend mode="normal" in2="BackgroundImageFix" result="effect1_dropShadow"/>
<feBlend mode="normal" in="SourceGraphic" in2="effect1_dropShadow" result="shape"/>
</filter>
</defs>
</svg>
