<svg width="62" height="62" viewBox="0 0 62 62" fill="none" xmlns="http://www.w3.org/2000/svg">
<path d="M42.8997 62C42.9234 62 42.9457 61.9938 42.9701 61.9924C43.6611 61.9545 44.2119 61.3776 44.2119 60.6643C44.2119 59.9283 43.6239 59.3301 42.8997 59.3301H41.4594H19.1288H18.0076C17.2827 59.3301 16.6947 59.9276 16.6947 60.6643C16.6947 61.2736 17.0978 61.7815 17.6459 61.9414C17.761 61.9759 17.8809 62 18.0069 62H42.8997Z" fill="white"/>
<path d="M58.755 11.1045H51.6836L38.5503 32.1484C38.4887 32.2484 38.4155 32.3435 38.3281 32.4449L37.8837 32.953C38.0395 33.932 38.2536 37.02 35.1136 38.4113C33.3474 39.8584 31.3767 41.7765 31.5847 43.8462C31.6585 44.5791 31.4038 44.9045 31.1761 45.0472C30.9167 45.2099 30.5976 45.1989 30.2934 45.0224V50.6641H2.88328V14.0264H30.2934V35.5012C30.3395 35.4143 30.3842 35.3288 30.433 35.2405C30.5881 34.7524 31.6409 31.694 33.8094 30.8922L34.2823 30.7171C34.2959 30.713 34.3074 30.7075 34.3216 30.7026L34.5397 30.1118C34.5946 29.9649 34.6637 29.8236 34.747 29.6905L46.3459 11.1045H3.24437C1.45248 11.1045 0 12.5833 0 14.4062V52.5573C0 54.3802 1.45248 55.8584 3.24437 55.8584H20.6301L19.1295 58.5051H41.46L39.9581 55.8584H58.755C60.5475 55.8584 62 54.3795 62 52.5573V14.4056C62 12.5827 60.5468 11.1045 58.755 11.1045Z" fill="white"/>
<path d="M55.8296 0.185384C55.2836 -0.166916 54.5594 -0.0021415 54.2118 0.552853L47.6269 11.1039L36.2029 29.4112C36.5274 29.3815 36.835 29.4339 37.1229 29.6201C37.4833 29.8531 37.7509 30.2474 38.0598 30.8831L50.4031 11.1046L56.1907 1.83106C56.5362 1.27607 56.375 0.538374 55.8296 0.185384Z" fill="white"/>
<path d="M36.8114 33.0995C36.7917 32.9761 36.7707 32.8858 36.7606 32.8396C36.4862 32.219 36.2003 31.6308 35.9632 31.4763C35.785 31.3612 35.4144 31.468 34.6509 31.7494L34.1794 31.9238C32.6795 32.4789 31.6992 34.7807 31.4493 35.6213L31.431 35.6799L31.4005 35.7343C30.891 36.6418 30.534 37.4948 30.2935 38.2816C29.5889 40.5868 29.8836 42.332 30.2935 43.2864C30.3572 43.436 30.4249 43.5657 30.4913 43.6753C30.4087 41.1784 32.5725 39.0739 34.4938 37.5044L34.5527 37.4569L34.6232 37.4258C37.0749 36.3784 36.9706 34.0504 36.8114 33.0995Z" fill="white"/>
</svg>
