<svg width="48" height="55" viewBox="0 0 48 55" fill="none" xmlns="http://www.w3.org/2000/svg">
<g filter="url(#filter0_d)">
<path d="M24 7.5C20.7366 7.5 17.5465 8.46771 14.8331 10.2808C12.1197 12.0938 10.0048 14.6707 8.756 17.6857C7.50715 20.7007 7.18039 24.0183 7.81705 27.219C8.45371 30.4197 10.0252 33.3597 12.3327 35.6673C14.6403 37.9748 17.5803 39.5463 20.781 40.183C23.9817 40.8196 27.2993 40.4929 30.3143 39.244C33.3293 37.9952 35.9062 35.8803 37.7193 33.1669C39.5323 30.4535 40.5 27.2634 40.5 24C40.5 19.6239 38.7616 15.4271 35.6673 12.3327C32.5729 9.23839 28.3761 7.5 24 7.5Z" stroke="white" stroke-width="2" stroke-miterlimit="10"/>
<path d="M21.75 15C20.415 15 19.1099 15.3959 17.9999 16.1376C16.8899 16.8793 16.0247 17.9335 15.5138 19.1669C15.0029 20.4003 14.8693 21.7575 15.1297 23.0669C15.3902 24.3762 16.033 25.579 16.977 26.523C17.921 27.467 19.1238 28.1099 20.4331 28.3703C21.7425 28.6308 23.0997 28.4971 24.3331 27.9862C25.5665 27.4753 26.6207 26.6101 27.3624 25.5001C28.1041 24.3901 28.5 23.085 28.5 21.75C28.5 20.8636 28.3254 19.9858 27.9862 19.1669C27.647 18.3479 27.1498 17.6038 26.523 16.977C25.8962 16.3502 25.1521 15.853 24.3331 15.5138C23.5142 15.1746 22.6364 15 21.75 15V15Z" stroke="white" stroke-width="2" stroke-miterlimit="10"/>
<path d="M26.5913 26.5913L31.5 31.5001" stroke="white" stroke-width="2" stroke-miterlimit="10" stroke-linecap="round"/>
</g>
<defs>
<filter id="filter0_d" x="-5" y="0" width="58" height="61" filterUnits="userSpaceOnUse" color-interpolation-filters="sRGB">
<feFlood flood-opacity="0" result="BackgroundImageFix"/>
<feColorMatrix in="SourceAlpha" type="matrix" values="0 0 0 0 0 0 0 0 0 0 0 0 0 0 0 0 0 0 127 0"/>
<feOffset dy="8"/>
<feGaussianBlur stdDeviation="2.5"/>
<feColorMatrix type="matrix" values="0 0 0 0 0 0 0 0 0 0 0 0 0 0 0 0 0 0 0.25 0"/>
<feBlend mode="normal" in2="BackgroundImageFix" result="effect1_dropShadow"/>
<feBlend mode="normal" in="SourceGraphic" in2="effect1_dropShadow" result="shape"/>
</filter>
</defs>
</svg>
