<svg width="13" height="13" viewBox="0 0 13 13" fill="none" xmlns="http://www.w3.org/2000/svg">
<path d="M11.1038 1.93286C9.84197 0.655821 8.10884 -0.0435094 6.31491 0.00209909C2.74224 0.108519 -0.0550806 3.07307 0.0513393 6.64574C0.0665421 7.39068 0.218571 8.12042 0.492222 8.80454C0.720264 9.38225 1.02432 9.91435 1.40439 10.4008L0.872293 11.6627C0.659453 12.1492 0.887495 12.7117 1.37399 12.9245C1.54122 13.0005 1.73885 13.0157 1.92129 12.9853L4.38415 12.5596C5.26591 12.8637 6.19329 12.9701 7.12066 12.8789C10.2981 12.5596 12.7761 9.95996 12.9433 6.76736C13.0346 4.95822 12.3656 3.2099 11.1038 1.93286ZM6.02606 9.03259H4.33854C4.08009 9.03259 3.85205 8.81975 3.85205 8.54609C3.85205 8.28765 4.06489 8.0596 4.33854 8.0596H6.02606C6.2845 8.0596 6.51255 8.27244 6.51255 8.54609C6.51255 8.81975 6.29971 9.03259 6.02606 9.03259ZM8.65615 7.05622H4.33854C4.08009 7.05622 3.85205 6.84338 3.85205 6.56973C3.85205 6.29607 4.06489 6.08324 4.33854 6.08324H8.65615C8.91459 6.08324 9.14264 6.29607 9.14264 6.56973C9.14264 6.84338 8.91459 7.05622 8.65615 7.05622ZM8.65615 5.06464H4.33854C4.08009 5.06464 3.85205 4.85181 3.85205 4.57815C3.85205 4.31971 4.06489 4.09166 4.33854 4.09166H8.65615C8.91459 4.09166 9.14264 4.3045 9.14264 4.57815C9.14264 4.8366 8.91459 5.06464 8.65615 5.06464Z" fill="#4F4F4F"/>
</svg>
