<svg width="30" height="42" viewBox="0 0 30 42" fill="none" xmlns="http://www.w3.org/2000/svg">
<path d="M14.3201 19.5819C16.9777 29.3631 26.0804 35.4209 26.0804 35.4209C26.0804 35.4209 30.8744 25.6201 28.2169 15.8389C25.5593 6.05775 16.4566 0 16.4566 0C16.4566 0 11.6626 9.80072 14.3201 19.5819Z" fill="#3F3D56"/>
<path d="M18.225 17.4801C25.5174 24.5481 26.4081 35.4131 26.4081 35.4131C26.4081 35.4131 15.4755 34.8188 8.18312 27.7509C0.890714 20.6829 0 9.81787 0 9.81787C0 9.81787 10.9326 10.4122 18.225 17.4801Z" fill="#6C63FF"/>
<path d="M28 42H21V35H28V42ZM21.5385 41.4615H27.4615V35.5385H21.5385V41.4615Z" fill="#3F3D56"/>
</svg>
