<svg width="20" height="20" viewBox="0 0 20 20" fill="none" xmlns="http://www.w3.org/2000/svg">
<path d="M1.65977 12.3828C1.38086 12.0715 1.21094 11.6605 1.21094 11.2109C1.21094 10.2418 1.99961 9.45312 2.96875 9.45312H6.38047C6.04258 8.42773 5.89844 7.06719 5.89844 6.48398V5.89844C5.89844 4.60625 6.95 3.55469 8.24219 3.55469H8.82812C9.09688 3.55469 9.33125 3.7375 9.39648 3.99844L9.71562 5.27539C10.1629 7.06367 11.5828 9.03672 13.0523 9.39531C13.3098 8.74375 13.9453 8.28125 14.6875 8.28125H18.2031C18.5266 8.28125 18.7891 8.54375 18.7891 8.86719V19.4141C18.7891 19.7375 18.5266 20 18.2031 20H14.6875C13.9887 20 13.384 19.5902 13.1008 18.998L11.0875 19.6691C10.4293 19.8887 9.74336 20 9.04922 20H4.14062C3.17148 20 2.38281 19.2113 2.38281 18.2422C2.38281 18.0137 2.42656 17.7949 2.50625 17.5945C1.76094 17.391 1.21094 16.7078 1.21094 15.8984C1.21094 15.4488 1.38086 15.0379 1.65977 14.7266C1.38086 14.4152 1.21094 14.0043 1.21094 13.5547C1.21094 13.1051 1.38086 12.6941 1.65977 12.3828ZM14.1016 18.2422C14.1016 18.5652 14.3645 18.8281 14.6875 18.8281H17.6172V9.45312H14.6875C14.3645 9.45312 14.1016 9.71602 14.1016 10.0391V18.2422ZM4.14062 12.9688H2.96875C2.6457 12.9688 2.38281 13.2316 2.38281 13.5547C2.38281 13.8777 2.6457 14.1406 2.96875 14.1406H4.14062C4.46406 14.1406 4.72656 14.4031 4.72656 14.7266C4.72656 15.05 4.46406 15.3125 4.14062 15.3125H2.96875C2.6457 15.3125 2.38281 15.5754 2.38281 15.8984C2.38281 16.2215 2.6457 16.4844 2.96875 16.4844H4.14062C4.46406 16.4844 4.72656 16.7469 4.72656 17.0703C4.72656 17.3938 4.46406 17.6562 4.14062 17.6562C3.81758 17.6562 3.55469 17.9191 3.55469 18.2422C3.55469 18.5652 3.81758 18.8281 4.14062 18.8281H9.04922C9.61719 18.8281 10.1785 18.7371 10.7172 18.5574L12.9297 17.8199V10.5695C12.0105 10.3949 11.1109 9.81289 10.2988 8.86016C9.50586 7.92969 8.86289 6.69609 8.57891 5.55977L8.3707 4.72656H8.24219C7.59609 4.72656 7.07031 5.25234 7.07031 5.89844V6.48398C7.07031 7.2707 7.31641 8.77969 7.63125 9.45312H8.82812C9.15156 9.45312 9.41406 9.71562 9.41406 10.0391C9.41406 10.3625 9.15156 10.625 8.82812 10.625H2.96875C2.6457 10.625 2.38281 10.8879 2.38281 11.2109C2.38281 11.534 2.6457 11.7969 2.96875 11.7969H4.14062C4.46406 11.7969 4.72656 12.0594 4.72656 12.3828C4.72656 12.7063 4.46406 12.9688 4.14062 12.9688Z" fill="black"/>
<path d="M15.8594 17.6562C15.5358 17.6562 15.2734 17.3939 15.2734 17.0703C15.2734 16.7467 15.5358 16.4844 15.8594 16.4844C16.183 16.4844 16.4453 16.7467 16.4453 17.0703C16.4453 17.3939 16.183 17.6562 15.8594 17.6562Z" fill="black"/>
<path d="M7.65625 0C7.97984 0 8.24219 0.262344 8.24219 0.585938V1.79688C8.24219 2.12047 7.97984 2.38281 7.65625 2.38281C7.33266 2.38281 7.07031 2.12047 7.07031 1.79688V0.585938C7.07031 0.262344 7.33266 0 7.65625 0Z" fill="black"/>
<path d="M10.1422 2.58375L10.9708 1.75512C11.1996 1.52629 11.5706 1.52629 11.7994 1.75512C12.0283 1.98395 12.0283 2.35492 11.7994 2.58375L10.9708 3.41238C10.742 3.64117 10.371 3.64121 10.1422 3.41238C9.91335 3.18355 9.91335 2.81258 10.1422 2.58375Z" fill="black"/>
<path d="M3.51303 1.75512C3.74182 1.52629 4.11284 1.52629 4.34167 1.75512L5.1703 2.58371C5.39913 2.81254 5.39913 3.18352 5.1703 3.41234C4.94151 3.64117 4.57049 3.64121 4.34167 3.41238L3.51303 2.58375C3.2842 2.35492 3.2842 1.98395 3.51303 1.75512Z" fill="black"/>
</svg>
