<svg width="19" height="16" viewBox="0 0 19 16" fill="none" xmlns="http://www.w3.org/2000/svg">
<path d="M13.4763 0.778589C16.0565 0.778589 18.1556 2.71154 18.1556 5.08773C18.1556 10.219 11.2294 14.1971 9.49937 15.1106C7.7672 14.1979 0.844444 10.2279 0.844444 5.08773C0.844444 2.71173 2.94373 0.778589 5.52393 0.778589C6.80052 0.778589 7.99372 1.24438 8.88398 2.09023L9.481 2.6575L9.49662 2.64311L9.51583 2.661L10.1162 2.09062C11.0063 1.24457 12.1995 0.778589 13.4763 0.778589ZM13.4763 0.000976562C11.9193 0.000976562 10.5138 0.595073 9.5095 1.5494L9.49979 1.54046L9.49029 1.5492C8.48603 0.595073 7.08067 0.00117104 5.52393 0.00117104C2.47317 0.000976641 0 2.27822 0 5.08773C0 11.4741 9.49979 15.999 9.49979 15.999C9.49979 15.999 19 11.4741 19 5.08773C19 2.27822 16.5268 0.000976562 13.4763 0.000976562Z" fill="black"/>
</svg>
