<svg width="20" height="20" viewBox="0 0 20 20" fill="none" xmlns="http://www.w3.org/2000/svg">
<path d="M1.21094 12.9688C1.21094 12.3242 1.73828 11.7969 2.38281 11.7969C1.73828 11.7969 1.21094 11.2695 1.21094 10.625C1.21094 9.98047 1.73828 9.45312 2.38281 9.45312H7.18746C6.47266 7.30855 6.48438 6.625 6.48438 5.3125C6.48438 4.33746 7.28383 3.55469 8.24219 3.55469H8.59375C8.81641 3.55469 9.09766 3.73051 9.15629 4C9.73602 6.25707 10.6424 8.84703 12.9297 9.37164V17.8506L10.9024 18.5234C10.3047 18.7226 9.68359 18.8281 9.05078 18.8281H3.55469C2.90746 18.8281 2.38281 18.3034 2.38281 17.6562C2.38281 17.009 2.90746 16.4844 3.55469 16.4844H2.38281C1.73828 16.4844 1.21094 15.957 1.21094 15.3125C1.21094 14.668 1.73828 14.1406 2.38281 14.1406C1.73828 14.1406 1.21094 13.6133 1.21094 12.9688Z" fill="#F19000"/>
<path d="M15.8594 8.28125H18.2031C18.527 8.28125 18.7891 8.54332 18.7891 8.86719V19.4141C18.7891 19.7379 18.527 20 18.2031 20H15.8594C14.8901 20 14.1016 19.2115 14.1016 18.2422V10.0391C14.1016 9.06977 14.8901 8.28125 15.8594 8.28125ZM15.8594 17.6562C16.183 17.6562 16.4453 17.3939 16.4453 17.0703C16.4453 16.7466 16.183 16.4844 15.8594 16.4844C15.5358 16.4844 15.2734 16.7466 15.2734 17.0703C15.2734 17.3939 15.5358 17.6562 15.8594 17.6562Z" fill="#F19000"/>
<path d="M10.7284 2.5837L11.557 1.75515C11.7858 1.52628 12.1566 1.52628 12.3855 1.75515C12.6144 1.98401 12.6144 2.35484 12.3855 2.5837L11.557 3.41226C11.3281 3.64113 10.9573 3.64113 10.7284 3.41226C10.4995 3.18339 10.4995 2.81257 10.7284 2.5837Z" fill="#F19000"/>
<path d="M4.09889 1.75515C4.32776 1.52628 4.69858 1.52628 4.92744 1.75515L5.75599 2.5837C5.98486 2.81257 5.98486 3.18339 5.75599 3.41226C5.52713 3.64113 5.15631 3.64113 4.92744 3.41226L4.09889 2.5837C3.87003 2.35484 3.87003 1.98401 4.09889 1.75515Z" fill="#F19000"/>
<path d="M8.24219 0C8.57035 0 8.82812 0.257773 8.82812 0.585938V1.79688C8.82812 2.12504 8.57035 2.38281 8.24219 2.38281C7.91402 2.38281 7.65625 2.12504 7.65625 1.79688V0.585938C7.65625 0.257773 7.91402 0 8.24219 0Z" fill="#F19000"/>
</svg>
