<svg width="536" height="318" viewBox="0 0 536 318" fill="none" xmlns="http://www.w3.org/2000/svg">
<path d="M386.068 43.8113H356.348V81.2936H386.068V43.8113Z" fill="#2F2E41"/>
<path d="M386.466 44.995C383.804 52.8399 379.724 59.9879 371.407 59.9879C363.09 59.9879 356.817 53.2622 356.349 44.995C355.75 34.4311 362.899 29.9583 371.407 30.002C381.458 30.0537 389.624 35.6849 386.466 44.995Z" fill="#2F2E41"/>
<path d="M378.807 56.6504C378.807 56.6504 376.429 70.8542 377.618 71.2488C378.807 71.6433 364.145 73.2215 364.145 73.2215C364.145 73.2215 368.504 62.5687 367.315 60.5959C366.126 58.6231 378.807 56.6504 378.807 56.6504Z" fill="#FFB8B8"/>
<path opacity="0.1" d="M378.807 56.6504C378.807 56.6504 376.429 70.8542 377.618 71.2488C378.807 71.6433 364.145 73.2215 364.145 73.2215C364.145 73.2215 368.504 62.5687 367.315 60.5959C366.126 58.6231 378.807 56.6504 378.807 56.6504Z" fill="black"/>
<path d="M408.299 107.746L414.847 112.92C414.847 112.92 409.434 85.6233 409.283 83.6171C409.132 81.6109 404.042 67.8694 398.59 69.9845C393.138 72.0996 402.458 87.1541 402.458 87.1541L408.547 108.968L408.299 107.746Z" fill="#FFB8B8"/>
<path d="M370.484 64.1466C376.831 64.1466 381.976 59.0239 381.976 52.7047C381.976 46.3854 376.831 41.2627 370.484 41.2627C364.137 41.2627 358.992 46.3854 358.992 52.7047C358.992 59.0239 364.137 64.1466 370.484 64.1466Z" fill="#FFB8B8"/>
<path d="M370.485 69.276L365.334 66.9087C365.334 66.9087 362.56 72.0378 360.975 72.0378C359.389 72.0378 345.916 74.7997 345.916 77.5616C345.916 80.3234 349.879 100.051 349.879 100.051C349.879 100.051 357.804 118.989 358.201 118.989C358.597 118.989 386.733 115.438 386.733 115.438L388.318 111.098L390.695 85.4526C390.695 85.4526 381.185 79.1398 381.185 77.167C381.185 75.1943 380.392 68.4869 378.807 68.4869C377.222 68.4869 374.448 70.8542 374.448 70.8542L370.485 69.276Z" fill="#D0CDE1"/>
<path d="M387.13 87.0306L390.697 85.4524C390.697 85.4524 393.471 90.5816 394.263 90.9761C395.056 91.3707 396.245 93.3434 396.245 94.1325C396.245 94.9216 398.622 101.234 400.604 101.629C402.585 102.024 405.755 103.602 405.359 104.785C405.112 105.42 405.112 106.124 405.359 106.758L406.944 104.785L415.266 111.098C415.266 111.098 419.625 124.513 413.284 124.118C406.944 123.724 401.396 120.567 398.622 118.989C395.848 117.411 395.848 118.2 394.263 115.833C392.678 113.466 385.941 109.125 385.941 109.125L387.13 87.0306Z" fill="#D0CDE1"/>
<path d="M358.201 115.439L355.031 117.017L355.823 122.935C355.823 122.935 311.836 277.994 318.177 279.177C324.517 280.361 342.35 283.517 351.86 285.885C361.371 288.252 374.844 288.646 374.844 285.885C374.844 283.123 378.807 184.88 378.807 184.88C378.807 184.88 379.996 289.041 383.563 289.041C387.129 289.041 416.454 295.354 418.435 289.041C420.416 282.728 408.924 140.69 394.658 124.119C394.658 124.119 387.525 115.044 387.922 113.86C388.318 112.677 387.525 111.098 387.525 111.098C387.525 111.098 387.922 110.309 383.563 111.493C379.204 112.677 377.222 112.677 376.033 112.282C374.844 111.888 372.863 110.309 371.674 111.493C370.485 112.677 366.919 114.649 365.334 114.255C363.749 113.86 362.956 111.493 361.371 113.071C360.435 114.009 359.367 114.807 358.201 115.439Z" fill="#2F2E41"/>
<path d="M320.556 277.994C320.556 277.994 318.178 290.619 320.556 291.014C322.933 291.408 334.822 292.197 335.218 291.408C335.614 290.619 332.444 279.572 331.255 278.783C330.066 277.994 320.556 277.994 320.556 277.994Z" fill="#2F2E41"/>
<path d="M402.585 279.572C402.585 279.572 404.963 290.619 402.585 291.014C400.207 291.408 388.319 292.197 387.923 291.408C387.526 290.619 390.697 281.15 391.885 280.361C393.074 279.572 402.585 279.572 402.585 279.572Z" fill="#2F2E41"/>
<path d="M323.131 109.323C323.131 109.323 339.378 113.663 343.341 114.452C347.304 115.241 351.663 119.187 352.059 120.765C352.455 122.343 356.022 129.445 358.796 127.867C361.57 126.289 358.796 112.874 356.814 112.479C354.833 112.085 330.66 105.377 330.66 105.377L323.131 109.323Z" fill="#FFB8B8"/>
<path d="M350.275 76.7725H345.916L320.554 95.7109C320.554 95.7109 314.61 97.2891 315.007 98.4727C315.403 99.6564 309.062 106.758 313.025 108.337C316.988 109.915 320.158 110.309 321.743 111.493C323.328 112.677 333.235 105.969 333.235 105.969L331.65 104.786C331.65 104.786 349.879 98.4727 351.464 99.2618C353.049 100.051 350.275 76.7725 350.275 76.7725Z" fill="#D0CDE1"/>
<path d="M361.967 70.6568L371.477 76.5751L370.685 97.8809L373.459 92.7517L375.044 97.8809V76.5751H381.781L381.384 73.0241L373.459 74.2078L363.156 68.6841L361.967 70.6568Z" fill="#6C63FF"/>
<path d="M364.363 37.1039C364.363 37.1039 364.232 36.3798 359.122 38.2876C354.013 40.1953 350.95 54.2738 353.505 62.5408C354.534 65.8724 353.697 68.2745 352.33 69.9552C347.2 76.2621 349.219 85.7349 356.691 88.9781C356.902 89.0697 357.117 89.1602 357.337 89.2496L360.531 91.1574C360.531 91.1574 356.459 85.8241 358.497 79.0018C360.266 73.1889 360.484 67.0175 359.131 61.095C358.897 60.096 358.631 59.0661 358.33 58.0151C355.775 49.1122 357.018 50.1403 365.96 41.2374C365.96 41.2374 371.069 45.053 375.54 46.9607C380.011 48.8685 383.843 50.7763 380.65 57.1355C377.456 63.4947 369.792 69.218 374.901 77.485C380.011 85.752 380.65 82.5724 380.011 85.752L379.372 88.9317L383.205 85.1161L380.65 90.2035C380.65 90.2035 388.953 90.2035 391.508 83.8443L392.785 85.1161C392.785 85.1161 397.895 76.2132 388.314 67.9462C388.314 67.9462 385.121 66.0384 389.592 59.6792C394.063 53.32 390.629 39.6476 384.88 37.1039C379.132 34.5602 364.363 37.1039 364.363 37.1039Z" fill="#2F2E41"/>
<path d="M371.407 33.1585C374.69 33.1585 377.351 30.5089 377.351 27.2403C377.351 23.9717 374.69 21.322 371.407 21.322C368.124 21.322 365.463 23.9717 365.463 27.2403C365.463 30.5089 368.124 33.1585 371.407 33.1585Z" fill="#2F2E41"/>
<path d="M364.275 24.0838C364.275 22.6167 364.822 21.2019 365.811 20.1139C366.799 19.0259 368.158 18.3422 369.624 18.1954C369.429 18.1761 369.231 18.1655 369.03 18.1655C367.454 18.1655 365.942 18.7891 364.827 19.8989C363.712 21.0088 363.086 22.5142 363.086 24.0838C363.086 25.6534 363.712 27.1587 364.827 28.2686C365.942 29.3785 367.454 30.0021 369.03 30.0021C369.231 30.0021 369.429 29.9915 369.624 29.9722C368.158 29.8254 366.799 29.1417 365.811 28.0537C364.822 26.9657 364.275 25.5509 364.275 24.0838Z" fill="#2F2E41"/>
<path d="M382.107 52.8859C382.545 52.8859 382.9 52.1793 382.9 51.3077C382.9 50.4361 382.545 49.7295 382.107 49.7295C381.669 49.7295 381.314 50.4361 381.314 51.3077C381.314 52.1793 381.669 52.8859 382.107 52.8859Z" fill="#FFB8B8"/>
<path d="M493.581 291.211H236.793V292H493.581V291.211Z" fill="#2F2E41"/>
<path d="M243.971 266.069C246.628 275.85 255.731 281.908 255.731 281.908C255.731 281.908 260.525 272.107 257.867 262.326C255.21 252.545 246.107 246.487 246.107 246.487C246.107 246.487 241.313 256.288 243.971 266.069Z" fill="#3F3D56"/>
<path d="M247.875 263.967C255.168 271.035 256.059 281.9 256.059 281.9C256.059 281.9 245.126 281.306 237.834 274.238C230.541 267.17 229.65 256.305 229.65 256.305C229.65 256.305 240.583 256.899 247.875 263.967Z" fill="#6C63FF"/>
<path d="M259.33 291.606H249.026V281.347H259.33V291.606ZM249.819 290.816H258.537V282.136H249.819V290.816Z" fill="#3F3D56"/>
<path d="M275.381 190.6H188V136.941H287.466V174.554" fill="#F2F2F2"/>
<path d="M280.136 186.655H192.358V132.207H292.617V170.214H291.824V132.996H193.151V185.866H280.136V186.655Z" fill="black"/>
<path d="M315.939 186.852H292.221V186.063H312.885L292.226 174.614L292.611 173.925L315.939 186.852Z" fill="black"/>
<path d="M281.126 151.145H203.852V151.934H281.126V151.145Z" fill="black"/>
<path d="M281.126 159.036H203.852V159.826H281.126V159.036Z" fill="black"/>
<path d="M281.126 166.927H203.852V167.716H281.126V166.927Z" fill="black"/>
<path d="M314.406 189.555C316.203 189.555 317.659 188.105 317.659 186.316C317.659 184.528 316.203 183.078 314.406 183.078C312.61 183.078 311.153 184.528 311.153 186.316C311.153 188.105 312.61 189.555 314.406 189.555Z" fill="#6C63FF"/>
<path d="M250.639 127.801L249.012 127.27C243.203 125.32 239.387 124.075 238.028 121.025C237.759 120.449 237.609 119.825 237.587 119.19C237.565 118.556 237.67 117.923 237.898 117.33C238.125 116.737 238.47 116.195 238.912 115.737C239.353 115.278 239.883 114.913 240.469 114.662C241.158 114.362 241.905 114.215 242.658 114.231C243.41 114.247 244.15 114.426 244.826 114.755C245.035 114.035 245.398 113.369 245.891 112.803C246.384 112.236 246.995 111.784 247.682 111.476C248.262 111.212 248.889 111.066 249.527 111.048C250.164 111.029 250.799 111.139 251.393 111.369C251.988 111.599 252.53 111.945 252.987 112.388C253.445 112.83 253.809 113.36 254.057 113.945C255.416 116.995 253.783 120.647 251.336 126.243L250.639 127.801Z" fill="#FF6584"/>
<path d="M299.466 47.2871H262.5V72.609H299.466V47.2871Z" fill="#F2F2F2"/>
<path d="M302.523 70.3537H264.765V44.2427H302.523V70.3537ZM265.557 69.5646H301.731V45.0318H265.557V69.5646Z" fill="black"/>
<path d="M283.495 57.7767L264.936 44.9613L265.387 44.3126L283.498 56.8191L301.904 44.311L302.351 44.9628L283.495 57.7767Z" fill="black"/>
<path d="M283.496 60.537C285.293 60.537 286.749 59.0869 286.749 57.2982C286.749 55.5094 285.293 54.0593 283.496 54.0593C281.7 54.0593 280.243 55.5094 280.243 57.2982C280.243 59.0869 281.7 60.537 283.496 60.537Z" fill="#6C63FF"/>
<path d="M278.273 38.5181L277.165 38.157C273.212 36.8298 270.614 35.9822 269.689 33.9058C269.506 33.5139 269.404 33.0893 269.389 32.6573C269.373 32.2253 269.445 31.7947 269.6 31.3909C269.755 30.9871 269.99 30.6183 270.29 30.3064C270.591 29.9945 270.951 29.7458 271.35 29.5751C271.82 29.3707 272.328 29.2705 272.84 29.2814C273.353 29.2923 273.856 29.4141 274.316 29.6383C274.458 29.1482 274.706 28.6946 275.041 28.3092C275.377 27.9238 275.793 27.6157 276.26 27.4064C276.655 27.2266 277.082 27.1275 277.516 27.1149C277.95 27.1023 278.382 27.1766 278.786 27.3332C279.191 27.4899 279.56 27.7258 279.871 28.0269C280.183 28.3281 280.43 28.6884 280.6 29.0866C281.525 31.1629 280.413 33.649 278.748 37.4581L278.273 38.5181Z" fill="#FF6584"/>
<path d="M490.868 176.7H453.902V202.022H490.868V176.7Z" fill="#F2F2F2"/>
<path d="M489.568 179.553H481.643V181.92H489.568V179.553Z" fill="#6C63FF"/>
<path d="M489.567 186.26H471.338V187.838H489.567V186.26Z" fill="white"/>
<path d="M489.566 189.417H463.016V190.995H489.566V189.417Z" fill="white"/>
<path d="M489.566 192.573H463.016V194.151H489.566V192.573Z" fill="white"/>
<path d="M479.816 172.098L479.451 171.346C478.167 168.642 477.311 166.879 477.93 165.364C478.043 165.074 478.213 164.809 478.43 164.585C478.648 164.362 478.908 164.184 479.196 164.062C479.483 163.94 479.792 163.877 480.105 163.877C480.417 163.876 480.727 163.938 481.015 164.058C481.356 164.199 481.662 164.411 481.912 164.681C482.162 164.951 482.35 165.272 482.463 165.621C482.789 165.449 483.149 165.351 483.517 165.331C483.886 165.312 484.254 165.373 484.596 165.509C484.887 165.623 485.152 165.794 485.375 166.012C485.598 166.23 485.776 166.49 485.896 166.777C486.017 167.064 486.078 167.372 486.077 167.683C486.075 167.995 486.012 168.302 485.889 168.588C485.27 170.103 483.42 170.771 480.605 171.814L479.816 172.098Z" fill="#FF6584"/>
<path d="M445.379 82.4937H532.761V28.8347H433.295V66.4473" fill="#F2F2F2"/>
<path d="M528.403 78.5479H440.625V77.7588H527.61V24.889H428.937V62.1069H428.145V24.0999H528.403V78.5479Z" fill="black"/>
<path d="M428.541 78.7453H404.822L428.15 65.8179L428.535 66.5071L407.876 77.9562H428.541V78.7453Z" fill="black"/>
<path d="M516.911 43.0383H439.637V43.8274H516.911V43.0383Z" fill="black"/>
<path d="M516.911 50.9292H439.637V51.7183H516.911V50.9292Z" fill="black"/>
<path d="M516.911 58.8203H439.637V59.6094H516.911V58.8203Z" fill="black"/>
<path d="M406.343 81.4482C408.139 81.4482 409.596 79.9981 409.596 78.2093C409.596 76.4205 408.139 74.9705 406.343 74.9705C404.546 74.9705 403.09 76.4205 403.09 78.2093C403.09 79.9981 404.546 81.4482 406.343 81.4482Z" fill="#6C63FF"/>
<path d="M522.503 13.5174L522.254 12.1132C521.408 7.0789 520.826 3.78567 522.55 1.58471C522.871 1.16023 523.273 0.804093 523.735 0.537394C524.196 0.270694 524.706 0.0988514 525.236 0.0320349C525.765 -0.0347817 526.302 0.00478711 526.816 0.1484C527.329 0.292012 527.808 0.536749 528.225 0.868123C528.72 1.25616 529.123 1.74666 529.408 2.30559C529.693 2.86452 529.852 3.47847 529.875 4.10482C530.49 3.97396 531.127 3.97808 531.741 4.11689C532.355 4.2557 532.931 4.52588 533.43 4.90866C533.854 5.23043 534.209 5.63369 534.474 6.09459C534.739 6.55549 534.909 7.06465 534.973 7.59194C535.037 8.11922 534.994 8.65392 534.846 9.16436C534.699 9.67481 534.45 10.1506 534.115 10.5637C532.391 12.7647 529.041 13.0051 523.932 13.4153L522.503 13.5174Z" fill="#FF6584"/>
<path d="M92.9097 223.997H76.4736V296H92.9097V223.997Z" fill="url(#paint0_linear)"/>
<g style="mix-blend-mode:screen">
<path d="M127.293 290C109.793 269.5 131.895 205.62 84.3524 190C84.3524 190 24.5767 283.472 16.5 290C-41.5173 336.892 100.793 308.5 105.793 308.5C110.793 308.5 112.681 307.811 121.293 308.5C131.072 309.283 122.646 308.5 139.793 308.5C156.939 308.5 127.293 290 127.293 290Z" fill="url(#paint1_linear)"/>
</g>
<g filter="url(#filter0_d)">
<path d="M91.8274 223.997H77.9863V294.712H91.8274V223.997Z" fill="#ECEFF1"/>
</g>
<path d="M131.147 167.898H57.1246C54.5802 167.963 52.0726 168.518 49.7414 169.533C42.2169 172.848 37.8373 178.05 36.6005 189.586V216.238L16.9863 216.032C13.0418 216.032 11.5996 222.195 11.5996 226.361H144.093V181.57C144.093 174.02 138.305 167.898 131.147 167.898Z" fill="url(#paint2_linear)"/>
<path d="M59.8193 170.692H133.161C135.544 170.692 137.829 171.633 139.514 173.307C141.199 174.982 142.146 177.253 142.146 179.621V223.997H59.8193V170.692Z" fill="#6C63FF"/>
<path d="M58.0854 170.692C63.3624 170.692 68.4232 172.775 72.1546 176.484C75.886 180.192 77.9823 185.221 77.9823 190.466V214.32C77.9823 216.886 76.9564 219.348 75.1302 221.163C73.3041 222.977 70.8273 223.997 68.2448 223.997H47.926C45.3435 223.997 42.8667 222.977 41.0405 221.163C39.2144 219.348 38.1885 216.886 38.1885 214.32V190.466C38.1885 185.221 40.2848 180.192 44.0161 176.484C47.7475 172.775 52.8084 170.692 58.0854 170.692Z" fill="#6C63FF"/>
<path opacity="0.2" d="M58.0854 170.692C63.3624 170.692 68.4232 172.775 72.1546 176.484C75.886 180.192 77.9823 185.221 77.9823 190.466V214.32C77.9823 216.886 76.9564 219.348 75.1302 221.163C73.3041 222.977 70.8273 223.997 68.2448 223.997H47.926C45.3435 223.997 42.8667 222.977 41.0405 221.163C39.2144 219.348 38.1885 216.886 38.1885 214.32V190.466C38.1885 185.221 40.2848 180.192 44.0161 176.484C47.7475 172.775 52.8084 170.692 58.0854 170.692Z" fill="black"/>
<path d="M111.078 163.601H100.806H94.6416V175.74V190.681H102.102V175.74H111.078V163.601Z" fill="url(#paint3_linear)"/>
<path d="M109.779 163.601H101.128H95.9375V174.777V188.532H101.128V174.777H109.779V163.601Z" fill="#FFCC80"/>
<path d="M38.349 180.868L36.3027 197.575L63.657 200.884L65.7033 184.177L38.349 180.868Z" fill="url(#paint4_linear)"/>
<path d="M38.6343 181.324L36.7246 196.916L63.1515 200.112L65.0612 184.521L38.6343 181.324Z" fill="#FAF8E4"/>
<g opacity="0.6">
<path opacity="0.6" d="M39.3273 185.128L42.6904 185.535L42.9933 183.062L39.6302 182.655L39.3273 185.128Z" fill="#6C63FF"/>
<path opacity="0.6" d="M41.4963 190.271L54.4072 191.833L54.5054 191.031L41.5945 189.469L41.4963 190.271Z" fill="#6C63FF"/>
<path opacity="0.6" d="M44.7812 192.432L54.1953 193.571L54.2607 193.037L44.8466 191.899L44.7812 192.432Z" fill="#6C63FF"/>
</g>
<path d="M49.4955 184.543L47.4492 201.25L74.8035 204.559L76.8498 187.852L49.4955 184.543Z" fill="url(#paint5_linear)"/>
<path d="M49.7798 185.001L47.8701 200.593L74.297 203.79L76.2067 188.198L49.7798 185.001Z" fill="#FAF8E4"/>
<g opacity="0.6">
<path opacity="0.6" d="M50.4748 188.806L53.8379 189.212L54.1408 186.739L50.7777 186.333L50.4748 188.806Z" fill="#6C63FF"/>
<path opacity="0.6" d="M52.6438 193.949L65.5547 195.511L65.6529 194.709L52.742 193.147L52.6438 193.949Z" fill="#6C63FF"/>
<path opacity="0.6" d="M55.9238 196.11L65.3379 197.249L65.4033 196.715L55.9892 195.576L55.9238 196.11Z" fill="#6C63FF"/>
</g>
<path d="M25.8128 186.114L23.0391 208.76L60.1165 213.245L62.8903 190.599L25.8128 186.114Z" fill="url(#paint6_linear)"/>
<path d="M26.2011 186.729L23.6123 207.865L59.4336 212.198L62.0224 191.062L26.2011 186.729Z" fill="white"/>
<g opacity="0.6">
<path opacity="0.6" d="M27.1403 191.886L31.6982 192.437L32.1087 189.086L27.5507 188.535L27.1403 191.886Z" fill="#6C63FF"/>
<path opacity="0.6" d="M30.0774 198.86L47.5791 200.977L47.7123 199.89L30.2105 197.773L30.0774 198.86Z" fill="#6C63FF"/>
<path opacity="0.6" d="M34.5302 201.788L47.292 203.332L47.3809 202.606L34.619 201.063L34.5302 201.788Z" fill="#6C63FF"/>
</g>
<path d="M40.9222 191.095L38.1484 213.742L75.2259 218.227L77.9997 195.58L40.9222 191.095Z" fill="url(#paint7_linear)"/>
<path d="M41.3076 191.714L38.7188 212.851L74.54 217.184L77.1288 196.047L41.3076 191.714Z" fill="white"/>
<g opacity="0.6">
<path opacity="0.6" d="M42.2487 196.871L46.8066 197.422L47.2171 194.071L42.6591 193.52L42.2487 196.871Z" fill="#6C63FF"/>
<path opacity="0.6" d="M45.1858 203.845L62.6875 205.962L62.8207 204.875L45.3189 202.758L45.1858 203.845Z" fill="#6C63FF"/>
<path opacity="0.6" d="M49.6386 206.773L62.4004 208.316L62.4893 207.591L49.7274 206.047L49.6386 206.773Z" fill="#6C63FF"/>
</g>
<path opacity="0.2" d="M57.8725 170.907C55.2697 170.905 52.6919 171.412 50.2861 172.4C51.2232 172.266 52.1686 172.199 53.1153 172.198C55.7282 172.198 58.3155 172.709 60.7295 173.703C63.1435 174.697 65.3369 176.153 67.1845 177.989C69.0321 179.826 70.4977 182.005 71.4976 184.404C72.4976 186.803 73.0122 189.375 73.0122 191.971V223.358H77.7694V190.681C77.7694 185.437 75.6732 180.407 71.9418 176.699C68.2104 172.991 63.1495 170.907 57.8725 170.907Z" fill="black"/>
<path d="M20.8904 217.118H77.986V223.997H13.9688C13.9688 222.173 14.698 220.423 15.996 219.133C17.2941 217.843 19.0546 217.118 20.8904 217.118Z" fill="#6C63FF"/>
<path opacity="0.2" d="M20.8904 217.118H77.986V223.997H13.9688C13.9688 222.173 14.698 220.423 15.996 219.133C17.2941 217.843 19.0546 217.118 20.8904 217.118Z" fill="white"/>
<path d="M145.184 151.491L144.528 151.81L144.603 151.676L144.546 151.693L144.628 151.634L153.466 136L157.985 139.83L161.863 143.397L160.75 143.937L162 146.129L145.184 151.491Z" fill="url(#paint8_linear)"/>
<path d="M157.539 140.238L161.081 143.504L145.021 151.439L153.568 140.552L157.539 140.238Z" fill="#6C63FF"/>
<path opacity="0.2" d="M157.539 140.238L161.081 143.504L145.021 151.439L153.568 140.552L157.539 140.238Z" fill="black"/>
<path d="M153.404 136.735L145.021 151.439L157.539 140.238L153.404 136.735Z" fill="#6C63FF"/>
<path d="M161.185 146.031L145.038 151.331L158.535 141.318L161.185 146.031Z" fill="#6C63FF"/>
<path d="M26.8715 155.089L27.9272 155.251L27.7638 155.098H27.8543L27.713 155.049L8.52945 136.97L3.87381 144.273L0 150.934L1.79335 151.211L0.998269 154.819L26.8715 155.089Z" fill="url(#paint9_linear)"/>
<path d="M4.67776 144.652L1.13965 150.747L27.077 154.944L10.3714 143.384L4.67776 144.652Z" fill="#6C63FF"/>
<path opacity="0.2" d="M4.67776 144.652L1.13965 150.747L27.077 154.944L10.3714 143.384L4.67776 144.652Z" fill="black"/>
<path d="M8.93804 137.973L27.0769 154.944L4.67773 144.652L8.93804 137.973Z" fill="#6C63FF"/>
<path d="M2.0957 154.329L27.006 154.804L3.75212 146.595L2.0957 154.329Z" fill="#6C63FF"/>
<defs>
<filter id="filter0_d" x="73.9863" y="223.997" width="21.841" height="78.7146" filterUnits="userSpaceOnUse" color-interpolation-filters="sRGB">
<feFlood flood-opacity="0" result="BackgroundImageFix"/>
<feColorMatrix in="SourceAlpha" type="matrix" values="0 0 0 0 0 0 0 0 0 0 0 0 0 0 0 0 0 0 127 0"/>
<feOffset dy="4"/>
<feGaussianBlur stdDeviation="2"/>
<feColorMatrix type="matrix" values="0 0 0 0 0.129167 0 0 0 0 0.110192 0 0 0 0 0.108177 0 0 0 0.25 0"/>
<feBlend mode="normal" in2="BackgroundImageFix" result="effect1_dropShadow"/>
<feBlend mode="normal" in="SourceGraphic" in2="effect1_dropShadow" result="shape"/>
</filter>
<linearGradient id="paint0_linear" x1="84.6917" y1="296" x2="84.6917" y2="223.997" gradientUnits="userSpaceOnUse">
<stop stop-color="#808080" stop-opacity="0.25"/>
<stop offset="0.54" stop-color="#808080" stop-opacity="0.12"/>
<stop offset="1" stop-color="#808080" stop-opacity="0.1"/>
</linearGradient>
<linearGradient id="paint1_linear" x1="97.292" y1="190" x2="97.292" y2="334" gradientUnits="userSpaceOnUse">
<stop stop-color="#C4C4C4"/>
<stop offset="1" stop-color="#C4C4C4" stop-opacity="0"/>
</linearGradient>
<linearGradient id="paint2_linear" x1="31579.5" y1="21320.9" x2="111069" y2="21320.9" gradientUnits="userSpaceOnUse">
<stop stop-color="#808080" stop-opacity="0.25"/>
<stop offset="0.54" stop-color="#808080" stop-opacity="0.12"/>
<stop offset="1" stop-color="#808080" stop-opacity="0.1"/>
</linearGradient>
<linearGradient id="paint3_linear" x1="7749.44" y1="6910.14" x2="7749.44" y2="3568.96" gradientUnits="userSpaceOnUse">
<stop stop-color="#808080" stop-opacity="0.25"/>
<stop offset="0.54" stop-color="#808080" stop-opacity="0.12"/>
<stop offset="1" stop-color="#808080" stop-opacity="0.1"/>
</linearGradient>
<linearGradient id="paint4_linear" x1="-5689.08" y1="10030.7" x2="-5436.88" y2="7945.77" gradientUnits="userSpaceOnUse">
<stop stop-color="#808080" stop-opacity="0.25"/>
<stop offset="0.54" stop-color="#808080" stop-opacity="0.12"/>
<stop offset="1" stop-color="#808080" stop-opacity="0.1"/>
</linearGradient>
<linearGradient id="paint5_linear" x1="-4859.46" y1="10425.2" x2="-4607.25" y2="8340.32" gradientUnits="userSpaceOnUse">
<stop stop-color="#808080" stop-opacity="0.25"/>
<stop offset="0.54" stop-color="#808080" stop-opacity="0.12"/>
<stop offset="1" stop-color="#808080" stop-opacity="0.1"/>
</linearGradient>
<linearGradient id="paint6_linear" x1="-8684.57" y1="15585.3" x2="-8221.18" y2="11754.6" gradientUnits="userSpaceOnUse">
<stop stop-color="#808080" stop-opacity="0.25"/>
<stop offset="0.54" stop-color="#808080" stop-opacity="0.12"/>
<stop offset="1" stop-color="#808080" stop-opacity="0.1"/>
</linearGradient>
<linearGradient id="paint7_linear" x1="-7154.63" y1="16309" x2="-6691.24" y2="12478.3" gradientUnits="userSpaceOnUse">
<stop stop-color="#808080" stop-opacity="0.25"/>
<stop offset="0.54" stop-color="#808080" stop-opacity="0.12"/>
<stop offset="1" stop-color="#808080" stop-opacity="0.1"/>
</linearGradient>
<linearGradient id="paint8_linear" x1="-2531.92" y1="12208.5" x2="-3245.71" y2="11594.3" gradientUnits="userSpaceOnUse">
<stop stop-color="#808080" stop-opacity="0.25"/>
<stop offset="0.54" stop-color="#808080" stop-opacity="0.12"/>
<stop offset="1" stop-color="#808080" stop-opacity="0.1"/>
</linearGradient>
<linearGradient id="paint9_linear" x1="1085.66" y1="14060.5" x2="1934.27" y2="12712.9" gradientUnits="userSpaceOnUse">
<stop stop-color="#808080" stop-opacity="0.25"/>
<stop offset="0.54" stop-color="#808080" stop-opacity="0.12"/>
<stop offset="1" stop-color="#808080" stop-opacity="0.1"/>
</linearGradient>
</defs>
</svg>
