<svg viewBox="0 0 468 363" fill="none" xmlns="http://www.w3.org/2000/svg">
<g filter="url(#filter0_d)">
<g clip-path="url(#clip0)">
<path d="M335.606 334.668H55.3965V335.901H335.606V334.668Z" fill="#3F3D56"/>
<path d="M203.996 165.111C203.996 165.111 198.05 192.828 209.943 187.901C221.837 182.973 214.701 163.879 214.701 163.879L203.996 165.111Z" fill="#FFB9B9"/>
<path d="M315.201 174.35C315.201 174.35 329.473 192.212 320.553 195.907C311.633 199.603 306.876 179.277 308.065 177.43C309.254 175.582 315.201 174.35 315.201 174.35Z" fill="#FFB9B9"/>
<path d="M281.305 48.085C291.158 48.085 299.145 39.8122 299.145 29.6072C299.145 19.4022 291.158 11.1294 281.305 11.1294C271.452 11.1294 263.465 19.4022 263.465 29.6072C263.465 39.8122 271.452 48.085 281.305 48.085Z" fill="#FFB9B9"/>
<path d="M267.926 36.6904L265.547 55.7841L285.171 63.175L289.334 41.6175L267.926 36.6904Z" fill="#FFB9B9"/>
<path d="M278.927 55.4761C278.927 55.4761 268.846 50.3214 266.751 46.1235L262.276 50.5487C262.276 50.5487 230.164 47.469 225.406 64.0991C220.649 80.7291 224.812 141.09 224.812 141.09C224.812 141.09 218.27 168.191 220.054 168.807C221.838 169.423 243.841 180.509 274.765 174.35C274.765 174.35 288.442 171.886 290.821 173.734C293.2 175.582 289.631 144.17 289.631 144.17C289.631 144.17 313.419 88.7362 309.256 81.961C305.093 75.1857 286.658 61.0194 286.658 61.0194L287.847 54.2442C287.847 54.2442 279.522 57.9398 278.927 55.4761Z" fill="#F19000"/>
<path d="M230.163 59.7876C230.163 59.7876 219.459 65.3309 217.675 73.9539C215.891 82.5769 199.24 154.025 201.024 158.336C202.808 162.647 202.214 168.191 202.214 168.191L217.675 166.343C217.675 166.343 214.702 162.032 216.486 160.184C218.27 158.336 220.054 152.177 218.864 149.713C217.675 147.249 216.486 151.561 223.027 143.554C229.569 135.547 244.435 62.2513 230.163 59.7876Z" fill="#CFCCE0"/>
<path d="M305.689 80.729C305.689 80.729 310.743 81.037 311.933 89.66C313.122 98.2829 315.203 151.561 315.203 151.561C315.203 151.561 322.934 168.807 319.961 171.27C316.987 173.734 318.771 177.43 318.771 177.43L308.067 180.509L284.875 142.938L305.689 80.729Z" fill="#CFCCE0"/>
<path d="M221.839 166.343C221.839 166.343 218.27 166.959 218.27 180.51C218.27 194.06 211.729 235.943 215.892 242.718C220.055 249.493 220.649 310.47 220.649 310.47C220.649 310.47 231.948 315.398 241.463 299.384L242.652 290.761L245.031 248.878L254.546 196.524L267.629 254.421C267.629 254.421 265.845 324.021 272.386 324.021C278.927 324.021 291.416 318.477 291.416 318.477C291.416 318.477 294.389 312.318 293.2 309.238C292.01 306.159 290.821 306.775 292.01 304.311C293.2 301.847 294.984 237.791 294.984 237.791C294.984 237.791 292.605 171.887 289.632 170.039C286.658 168.191 221.839 166.343 221.839 166.343Z" fill="#2F2E41"/>
<path d="M221.838 308.006L212.324 318.477C212.324 318.477 195.078 335.107 209.945 335.723C224.812 336.339 233.137 325.868 233.137 324.636C233.137 323.404 233.732 319.093 237.895 319.093C242.057 319.093 252.167 308.622 249.788 304.311C247.409 299.999 240.273 298.151 240.273 298.151L221.838 308.006Z" fill="#2F2E41"/>
<path d="M272.98 321.557C272.98 321.557 265.844 336.339 270.007 339.419C274.17 342.498 275.359 343.73 275.359 343.73C275.359 343.73 278.927 343.114 278.332 348.658C277.738 354.201 299.741 357.281 300.93 352.969C302.12 348.658 301.525 340.035 299.146 337.571C296.767 335.107 289.631 317.861 289.631 317.861C289.631 317.861 281.901 308.623 272.98 321.557Z" fill="#2F2E41"/>
<path d="M299.311 14.77L302.672 14.2755C302.672 14.2755 297.993 5.35664 288.938 3.73714L292.116 1.51511C292.116 1.51511 286.593 -2.57329 279.455 2.68183C275.702 5.44432 271.345 8.70516 268.14 12.8095L264.862 11.9797L265.494 15.4464L259.969 17.3547L265.016 18.0384C264.32 19.6731 263.864 21.4062 263.662 23.1805C263.466 24.9569 263.944 26.7426 264.996 28.1607C264.996 28.1607 270.713 20.9825 271.012 19.7132L270.263 22.8865C270.263 22.8865 273.999 20.8054 274.448 18.9014L275.593 21.5454L277.252 18.2661L286.725 24.3631L285.729 21.0845L291.905 23.6567L290.224 19.532C290.224 19.532 296.487 25.4888 295.941 29.05C295.396 32.611 296.733 36.4547 296.733 36.4547C296.733 36.4547 306.258 21.5728 299.311 14.77Z" fill="#2F2E41"/>
<path d="M464 224.123H368.768V225.303H464V224.123Z" fill="#3F3D56"/>
<path d="M108.028 315.065H85.0723V338.841H108.028V315.065Z" fill="#CFCCE0"/>
<path d="M105.008 335.713H80.8438V310.686H105.008V335.713ZM82.052 334.462H103.799V311.937H82.0519L82.052 334.462Z" fill="#3F3D56"/>
<path d="M133.143 107.318L118.615 113.137L124.039 127.663L138.567 121.844L133.143 107.318Z" fill="#F2F2F2"/>
<path d="M135.943 120.698L120.651 126.824L114.941 111.533L130.233 105.408L135.943 120.698ZM121.13 125.753L134.893 120.24L129.754 106.478L115.991 111.992L121.13 125.753Z" fill="#F19000"/>
<path d="M400.088 284.396L395.023 269.14L380.804 274.203L385.868 289.459L400.088 284.396Z" fill="#F2F2F2"/>
<path d="M387.073 286.786L381.742 270.727L396.711 265.397L402.041 281.456L387.073 286.786ZM382.757 271.263L387.555 285.717L401.026 280.92L396.229 266.466L382.757 271.263Z" fill="#3F3D56"/>
<path d="M76.227 208.557C84.7444 208.746 91.5199 215.139 91.5199 215.139C91.5199 215.139 84.486 221.225 75.9686 221.036C67.4513 220.846 60.6758 214.453 60.6758 214.453C60.6758 214.453 67.7097 208.367 76.227 208.557Z" fill="#6C63FF"/>
<path d="M33.406 178.443C41.1011 182.229 49.9249 179.662 49.9249 179.662C49.9249 179.662 46.2725 170.955 38.5774 167.169C30.8824 163.382 22.0586 165.95 22.0586 165.95C22.0586 165.95 25.711 174.656 33.406 178.443Z" fill="#6C63FF"/>
<path d="M34.1882 174.68C42.6721 173.877 50.0981 179.441 50.0981 179.441C50.0981 179.441 43.7689 186.307 35.2849 187.11C26.801 187.913 19.375 182.349 19.375 182.349C19.375 182.349 25.7042 175.483 34.1882 174.68Z" fill="#3F3D56"/>
<path d="M65.2874 176.202C64.4742 184.985 69.8131 192.701 69.8131 192.701C69.8131 192.701 76.4704 186.177 77.2836 177.393C78.0968 168.61 72.7579 160.894 72.7579 160.894C72.7579 160.894 66.1006 167.418 65.2874 176.202Z" fill="#3F3D56"/>
<path d="M105.242 230.07C100.792 237.595 102.323 246.954 102.323 246.954C102.323 246.954 111.068 244.114 115.518 236.59C119.968 229.066 118.437 219.706 118.437 219.706C118.437 219.706 109.692 222.546 105.242 230.07Z" fill="#3F3D56"/>
<path d="M92.3325 311.88L92.981 311.426C90.6952 307.991 89.4471 303.929 89.3953 299.757C89.4135 293.654 92.3077 288.009 95.1067 282.55C95.6262 281.537 96.1441 280.527 96.6422 279.517C98.7331 275.402 100.399 271.069 101.614 266.591C105.955 249.881 101.681 230.165 90.1795 213.853C81.0558 200.912 67.455 189.596 48.6005 179.258L48.2344 179.974C66.9815 190.253 80.4952 201.491 89.5474 214.331C100.91 230.447 105.138 249.905 100.858 266.381C99.6577 270.803 98.0112 275.083 95.9455 279.148C95.4489 280.154 94.933 281.16 94.4154 282.17C91.5719 287.716 88.6314 293.451 88.6127 299.754C88.6644 304.089 89.9592 308.31 92.3325 311.88Z" fill="#3F3D56"/>
<path d="M11.435 180.323C15.5413 180.323 18.8701 176.875 18.8701 172.622C18.8701 168.369 15.5413 164.921 11.435 164.921C7.32878 164.921 4 168.369 4 172.622C4 176.875 7.32878 180.323 11.435 180.323Z" fill="#3F3D56"/>
<path d="M416.194 218.109L320.49 182.507L337.576 133.235L397.166 118.099L433.281 168.837L416.194 218.109Z" fill="#2F2E41"/>
<path d="M404.6 208.338L333.08 180.101C351.647 154.343 359.949 136.173 359.956 107.581L431.475 135.818C414.86 160.263 407.912 178.64 404.6 208.338Z" fill="#F2F2F2"/>
<path d="M410.23 139.682L373.178 125.053L372.521 126.838L409.573 141.467L410.23 139.682Z" fill="#3F3D56"/>
<path d="M407.601 146.822L370.549 132.193L369.892 133.978L406.944 148.607L407.601 146.822Z" fill="#3F3D56"/>
<path d="M404.974 153.962L367.922 139.333L367.265 141.117L404.317 155.746L404.974 153.962Z" fill="#3F3D56"/>
<path d="M402.345 161.101L365.293 146.472L364.636 148.257L401.688 162.886L402.345 161.101Z" fill="#3F3D56"/>
<path d="M399.716 168.241L362.664 153.612L362.007 155.397L399.06 170.026L399.716 168.241Z" fill="#3F3D56"/>
<path d="M397.09 175.381L360.037 160.752L359.38 162.537L396.433 177.166L397.09 175.381Z" fill="#3F3D56"/>
<path d="M394.463 182.52L357.41 167.892L356.753 169.677L393.806 184.305L394.463 182.52Z" fill="#3F3D56"/>
<path d="M391.836 189.661L354.783 175.032L354.126 176.817L391.179 191.446L391.836 189.661Z" fill="#3F3D56"/>
<path d="M413.983 224.485L318.279 188.884L337.576 133.235L377.991 172.484L433.281 168.837L413.983 224.485Z" fill="#3F3D56"/>
<path d="M365.355 206.951L317.635 189.199L329.262 155.666L330.211 156.019L318.924 188.569L365.695 205.968L365.355 206.951Z" fill="#6C63FF"/>
<path d="M348.392 171.289L334.4 166.084L332.39 171.881L346.382 177.086L348.392 171.289Z" fill="#6C63FF"/>
<path d="M190.193 335.107L115.289 335.066L115.877 291.512L153.103 308.841L190.781 292.597L190.193 335.107Z" fill="#3F3D56"/>
<path d="M132.203 315.345L121.252 315.187L121.191 319.724L132.142 319.882L132.203 315.345Z" fill="#6C63FF"/>
<path d="M191.031 292.538L153.17 312.529L115.68 292.538V291.384H191.031V292.538Z" fill="#6C63FF"/>
<path d="M408.687 127.686C409.582 125.254 405.038 121.202 398.537 118.635C392.037 116.069 386.041 115.96 385.146 118.392C384.251 120.823 388.795 124.876 395.296 127.442C401.797 130.009 407.792 130.118 408.687 127.686Z" fill="#6C63FF"/>
<path d="M418.976 53.5208C416.575 52.7476 414.05 52.4717 411.546 52.7089C409.042 52.9462 406.608 53.692 404.382 54.9037C402.156 56.1154 400.183 57.7692 398.574 59.7709C396.966 61.7725 395.753 64.0828 395.007 66.5696C391.867 77.0284 400.424 115.316 400.424 115.316C400.424 115.316 428.435 88.8052 431.575 78.3465C433.082 73.324 432.602 67.8869 430.239 63.2312C427.877 58.5755 423.825 55.0825 418.976 53.5208ZM410.598 81.4283C408.885 80.8767 407.368 79.8113 406.24 78.3669C405.112 76.9226 404.422 75.1641 404.259 73.3139C404.095 71.4637 404.465 69.6048 405.322 67.9724C406.178 66.3399 407.483 65.0072 409.071 64.1428C410.659 63.2784 412.458 62.9211 414.242 63.116C416.026 63.3109 417.714 64.0494 419.093 65.238C420.472 66.4266 421.479 68.012 421.988 69.7936C422.497 71.5753 422.484 73.4732 421.952 75.2473C421.598 76.4253 421.024 77.5196 420.262 78.4677C419.5 79.4159 418.565 80.1993 417.511 80.7733C416.456 81.3472 415.303 81.7005 414.117 81.8129C412.931 81.9253 411.735 81.7946 410.598 81.4283Z" fill="#6C63FF"/>
</g>
</g>
<defs>
<filter id="filter0_d" x="0" y="0" width="468" height="363" filterUnits="userSpaceOnUse" color-interpolation-filters="sRGB">
<feFlood flood-opacity="0" result="BackgroundImageFix"/>
<feColorMatrix in="SourceAlpha" type="matrix" values="0 0 0 0 0 0 0 0 0 0 0 0 0 0 0 0 0 0 127 0"/>
<feOffset dy="4"/>
<feGaussianBlur stdDeviation="2"/>
<feColorMatrix type="matrix" values="0 0 0 0 0 0 0 0 0 0 0 0 0 0 0 0 0 0 0.25 0"/>
<feBlend mode="normal" in2="BackgroundImageFix" result="effect1_dropShadow"/>
<feBlend mode="normal" in="SourceGraphic" in2="effect1_dropShadow" result="shape"/>
</filter>
<clipPath id="clip0">
<rect x="4" width="460" height="355" fill="white"/>
</clipPath>
</defs>
</svg>
