<svg width="49" height="49" viewBox="0 0 49 49" fill="none" xmlns="http://www.w3.org/2000/svg">
<g filter="url(#filter0_d)">
<g clip-path="url(#clip0)">
<path fill-rule="evenodd" clip-rule="evenodd" d="M24.8133 5.8125C22.3691 5.8125 22.0623 5.82319 21.1023 5.86688C20.1442 5.91075 19.4902 6.06244 18.9179 6.285C18.326 6.51488 17.8238 6.82239 17.3236 7.32283C16.8229 7.82308 16.5154 8.32521 16.2848 8.91697C16.0617 9.48941 15.9098 10.1436 15.8667 11.1014C15.8238 12.0614 15.8125 12.3683 15.8125 14.8126C15.8125 17.2569 15.8234 17.5627 15.8669 18.5227C15.9109 19.4808 16.0626 20.1348 16.285 20.7071C16.5151 21.299 16.8226 21.8012 17.323 22.3014C17.8231 22.8021 18.3252 23.1103 18.9168 23.3402C19.4894 23.5627 20.1436 23.7144 21.1016 23.7583C22.0616 23.802 22.3681 23.8127 24.8122 23.8127C27.2567 23.8127 27.5625 23.802 28.5225 23.7583C29.4806 23.7144 30.1354 23.5627 30.708 23.3402C31.2998 23.1103 31.8012 22.8021 32.3012 22.3014C32.8019 21.8012 33.1094 21.299 33.34 20.7073C33.5612 20.1348 33.7131 19.4806 33.7581 18.5229C33.8013 17.5629 33.8125 17.2569 33.8125 14.8126C33.8125 12.3683 33.8013 12.0616 33.7581 11.1016C33.7131 10.1434 33.5612 9.48941 33.34 8.91716C33.1094 8.32521 32.8019 7.82308 32.3012 7.32283C31.8006 6.8222 31.3 6.51469 30.7075 6.285C30.1337 6.06244 29.4793 5.91075 28.5212 5.86688C27.5612 5.82319 27.2556 5.8125 24.8105 5.8125L24.8133 5.8125Z" fill="#262622"/>
<path fill-rule="evenodd" clip-rule="evenodd" d="M24.0059 7.43438C24.2455 7.434 24.5129 7.43438 24.8133 7.43438C27.2163 7.43438 27.5011 7.443 28.45 7.48613C29.3276 7.52625 29.8038 7.67288 30.1211 7.79607C30.5411 7.9592 30.8405 8.1542 31.1553 8.4692C31.4703 8.78421 31.6653 9.08421 31.8288 9.50421C31.952 9.82109 32.0988 10.2973 32.1388 11.1749C32.1819 12.1236 32.1913 12.4086 32.1913 14.8105C32.1913 17.2124 32.1819 17.4974 32.1388 18.4462C32.0986 19.3237 31.952 19.7999 31.8288 20.1168C31.6657 20.5368 31.4703 20.8359 31.1553 21.1507C30.8403 21.4657 30.5413 21.6607 30.1211 21.8238C29.8042 21.9476 29.3276 22.0938 28.45 22.134C27.5013 22.1771 27.2163 22.1865 24.8133 22.1865C22.41 22.1865 22.1252 22.1771 21.1765 22.134C20.299 22.0935 19.8227 21.9468 19.5053 21.8237C19.0853 21.6605 18.7853 21.4655 18.4703 21.1505C18.1553 20.8355 17.9603 20.5363 17.7967 20.1161C17.6736 19.7992 17.5267 19.3229 17.4868 18.4454C17.4437 17.4967 17.4351 17.2117 17.4351 14.8083C17.4351 12.4049 17.4437 12.1214 17.4868 11.1726C17.5269 10.2951 17.6736 9.81884 17.7967 9.50159C17.9599 9.08158 18.1553 8.78158 18.4703 8.46658C18.7853 8.15157 19.0853 7.95657 19.5053 7.79307C19.8225 7.66932 20.299 7.52307 21.1765 7.48275C22.0067 7.44525 22.3285 7.434 24.0059 7.43213V7.43438Z" fill="white"/>
<path fill-rule="evenodd" clip-rule="evenodd" d="M29.6175 8.92884C29.0212 8.92884 28.5375 9.41203 28.5375 10.0085C28.5375 10.6047 29.0212 11.0885 29.6175 11.0885C30.2138 11.0885 30.6975 10.6047 30.6975 10.0085C30.6975 9.41222 30.2138 8.92847 29.6175 8.92847V8.92884ZM24.8133 10.1907C22.2609 10.1907 20.1914 12.2602 20.1914 14.8127C20.1914 17.3651 22.2609 19.4336 24.8133 19.4336C27.3658 19.4336 29.4345 17.3651 29.4345 14.8127C29.4345 12.2602 27.3656 10.1907 24.8131 10.1907H24.8133ZM24.8133 11.8126C26.4701 11.8126 27.8134 13.1557 27.8134 14.8127C27.8134 16.4694 26.4701 17.8127 24.8133 17.8127C23.1564 17.8127 21.8133 16.4694 21.8133 14.8127C21.8133 13.1557 23.1564 11.8126 24.8133 11.8126Z" fill="#262622"/>
</g>
</g>
<defs>
<filter id="filter0_d" x="0.8125" y="0.8125" width="48" height="48" filterUnits="userSpaceOnUse" color-interpolation-filters="sRGB">
<feFlood flood-opacity="0" result="BackgroundImageFix"/>
<feColorMatrix in="SourceAlpha" type="matrix" values="0 0 0 0 0 0 0 0 0 0 0 0 0 0 0 0 0 0 127 0"/>
<feOffset dy="10"/>
<feGaussianBlur stdDeviation="7.5"/>
<feColorMatrix type="matrix" values="0 0 0 0 0.129167 0 0 0 0 0.110192 0 0 0 0 0.108177 0 0 0 0.25 0"/>
<feBlend mode="normal" in2="BackgroundImageFix" result="effect1_dropShadow"/>
<feBlend mode="normal" in="SourceGraphic" in2="effect1_dropShadow" result="shape"/>
</filter>
<clipPath id="clip0">
<rect x="15.8125" y="5.8125" width="18" height="18" fill="white"/>
</clipPath>
</defs>
</svg>
