<svg width="49" height="49" viewBox="0 0 49 49" fill="none" xmlns="http://www.w3.org/2000/svg">
<g filter="url(#filter0_d)">
<g clip-path="url(#clip0)">
<path fill-rule="evenodd" clip-rule="evenodd" d="M32.9825 16.7233C33.3137 17.3806 33.5 18.1203 33.5 18.9038C33.5 21.6143 31.2712 23.8125 28.5216 23.8125C27.6697 23.8125 26.8696 23.6007 26.1679 23.2293C25.6578 23.3221 25.1329 23.3712 24.5952 23.3712C19.854 23.3712 16.0101 19.5819 16.0101 14.9059C16.0101 14.3237 16.0704 13.7541 16.1837 13.2053C15.7498 12.475 15.5 11.6278 15.5 10.7223C15.5 8.00968 17.7288 5.8125 20.4794 5.8125C21.452 5.8125 22.3601 6.08897 23.1274 6.56576C23.6057 6.48438 24.0957 6.44161 24.5952 6.44161C29.3376 6.44161 33.1804 10.2319 33.1804 14.9059C33.1804 15.5298 33.1127 16.137 32.9825 16.7233ZM28.9989 18.9518C29.3969 18.3957 29.6001 17.7603 29.6001 17.0634C29.6001 16.4802 29.4826 15.9794 29.2508 15.5715C29.019 15.1667 28.6941 14.8287 28.2835 14.5647C27.8792 14.3049 27.3861 14.0838 26.8135 13.9043C26.2494 13.7259 25.6112 13.56 24.9159 13.414C24.3667 13.2888 23.9666 13.1917 23.7285 13.126C23.4956 13.0634 23.2628 12.9737 23.0374 12.8621C22.8194 12.7536 22.6469 12.6263 22.5262 12.4781C22.4098 12.3404 22.3537 12.1787 22.3537 11.9867C22.3537 11.6717 22.5283 11.4056 22.8861 11.175C23.2575 10.934 23.7592 10.813 24.373 10.813C25.0366 10.813 25.5181 10.9215 25.807 11.1385C26.1044 11.3618 26.3637 11.6779 26.5775 12.0785C26.7627 12.3915 26.9299 12.6106 27.0908 12.7515C27.2622 12.9017 27.512 12.9789 27.8295 12.9789C28.1787 12.9789 28.4761 12.8568 28.7111 12.6148C28.945 12.3759 29.0635 12.1005 29.0635 11.7979C29.0635 11.4839 28.9725 11.1594 28.7947 10.8328C28.619 10.5094 28.3375 10.1996 27.9597 9.90744C27.585 9.61845 27.1088 9.38475 26.5426 9.21156C25.9795 9.03837 25.3054 8.95074 24.5392 8.95074C23.5793 8.95074 22.7326 9.08219 22.0203 9.34197C21.2975 9.60384 20.7366 9.98986 20.3535 10.4833C19.9661 10.9799 19.7703 11.5569 19.7703 12.1954C19.7703 12.8662 19.9577 13.4369 20.326 13.8928C20.689 14.3404 21.1853 14.6983 21.8013 14.956C22.4024 15.2095 23.1591 15.4317 24.0513 15.6195C24.7064 15.7551 25.2355 15.8855 25.6261 16.0045C25.9996 16.1213 26.3076 16.2882 26.5426 16.5032C26.7648 16.7097 26.8738 16.9726 26.8738 17.3055C26.8738 17.729 26.6664 18.0754 26.2378 18.3623C25.8007 18.6565 25.2186 18.8068 24.5085 18.8068C23.9931 18.8068 23.5729 18.7316 23.2618 18.5877C22.9527 18.4427 22.7104 18.258 22.541 18.0368C22.3664 17.8104 22.2013 17.5204 22.0489 17.1761C21.9124 16.8621 21.7431 16.6169 21.5452 16.451C21.3388 16.2789 21.0837 16.1923 20.7895 16.1923C20.4297 16.1923 20.1281 16.3018 19.8931 16.5209C19.656 16.741 19.5354 17.0102 19.5354 17.319C19.5354 17.8167 19.7195 18.331 20.0847 18.8485C20.4456 19.3639 20.9207 19.7791 21.4975 20.0858C22.305 20.5084 23.339 20.7223 24.572 20.7223C25.5996 20.7223 26.5013 20.5647 27.2538 20.2559C28.0158 19.945 28.6021 19.5068 28.9989 18.9518Z" fill="#00AEF3"/>
</g>
</g>
<defs>
<filter id="filter0_d" x="0.5" y="0.8125" width="48" height="48" filterUnits="userSpaceOnUse" color-interpolation-filters="sRGB">
<feFlood flood-opacity="0" result="BackgroundImageFix"/>
<feColorMatrix in="SourceAlpha" type="matrix" values="0 0 0 0 0 0 0 0 0 0 0 0 0 0 0 0 0 0 127 0"/>
<feOffset dy="10"/>
<feGaussianBlur stdDeviation="7.5"/>
<feColorMatrix type="matrix" values="0 0 0 0 0.129167 0 0 0 0 0.110192 0 0 0 0 0.108177 0 0 0 0.25 0"/>
<feBlend mode="normal" in2="BackgroundImageFix" result="effect1_dropShadow"/>
<feBlend mode="normal" in="SourceGraphic" in2="effect1_dropShadow" result="shape"/>
</filter>
<clipPath id="clip0">
<rect x="15.5" y="5.8125" width="18" height="18" fill="white"/>
</clipPath>
</defs>
</svg>
