<svg width="50" height="46" viewBox="0 0 50 46" fill="none" xmlns="http://www.w3.org/2000/svg">
<g filter="url(#filter0_d)">
<g clip-path="url(#clip0)">
<path fill-rule="evenodd" clip-rule="evenodd" d="M24.7256 9.09033L24.7668 9.73912L24.0803 9.65968C21.5817 9.35515 19.3989 8.32237 17.5456 6.58785L16.6395 5.72721L16.4061 6.36276C15.9119 7.77951 16.2276 9.2757 17.2573 10.282C17.8064 10.8381 17.6828 10.9175 16.7356 10.5865C16.4061 10.4806 16.1178 10.4012 16.0903 10.4409C15.9942 10.5336 16.3237 11.7385 16.5846 12.2151C16.9415 12.8772 17.6691 13.526 18.4654 13.9099L19.1381 14.2145L18.3418 14.2277C17.573 14.2277 17.5456 14.2409 17.6279 14.519C17.9025 15.3796 18.9871 16.2933 20.1952 16.6905L21.0463 16.9685L20.305 17.3922C19.2067 18.0013 17.9162 18.3456 16.6257 18.372C16.008 18.3853 15.5 18.4382 15.5 18.478C15.5 18.6104 17.1749 19.3518 18.1496 19.6431C21.0738 20.5038 24.5471 20.133 27.1555 18.6633C29.0089 17.6173 30.8622 15.5385 31.7271 13.526C32.1939 12.4535 32.6607 10.4938 32.6607 9.55376C32.6607 8.94469 32.7019 8.86524 33.4707 8.137C33.9237 7.7133 34.3493 7.24988 34.4317 7.11747C34.569 6.8659 34.5552 6.8659 33.8551 7.09099C32.6881 7.48821 32.5234 7.43525 33.1 6.83942C33.5256 6.41572 34.0335 5.64776 34.0335 5.42267C34.0335 5.38295 33.8276 5.44915 33.5942 5.56832C33.3471 5.70072 32.798 5.89933 32.3861 6.0185L31.6448 6.24359L30.9721 5.80665C30.6014 5.56832 30.0797 5.3035 29.8051 5.22406C29.105 5.03869 28.0342 5.06517 27.4026 5.27702C25.6866 5.87285 24.602 7.40877 24.7256 9.09033Z" fill="#55ACEE"/>
</g>
</g>
<defs>
<filter id="filter0_d" x="0.5" y="0.100098" width="49" height="45" filterUnits="userSpaceOnUse" color-interpolation-filters="sRGB">
<feFlood flood-opacity="0" result="BackgroundImageFix"/>
<feColorMatrix in="SourceAlpha" type="matrix" values="0 0 0 0 0 0 0 0 0 0 0 0 0 0 0 0 0 0 127 0"/>
<feOffset dy="10"/>
<feGaussianBlur stdDeviation="7.5"/>
<feColorMatrix type="matrix" values="0 0 0 0 0.129167 0 0 0 0 0.110192 0 0 0 0 0.108177 0 0 0 0.25 0"/>
<feBlend mode="normal" in2="BackgroundImageFix" result="effect1_dropShadow"/>
<feBlend mode="normal" in="SourceGraphic" in2="effect1_dropShadow" result="shape"/>
</filter>
<clipPath id="clip0">
<rect x="15.5" y="5.1001" width="19" height="15" fill="white"/>
</clipPath>
</defs>
</svg>
