<svg width="49" height="49" viewBox="0 0 49 49" fill="none" xmlns="http://www.w3.org/2000/svg">
<g filter="url(#filter0_d)">
<g clip-path="url(#clip0)">
<path fill-rule="evenodd" clip-rule="evenodd" d="M24.8502 23.3453H24.8465C23.3465 23.3448 21.8726 22.9703 20.5636 22.2597L15.8125 23.5L17.084 18.878C16.2997 17.5253 15.887 15.9909 15.8876 14.4189C15.8896 9.50106 19.9101 5.5 24.8501 5.5C27.2476 5.50103 29.4979 6.42992 31.19 8.11588C32.8821 9.80176 33.8134 12.0427 33.8125 14.4259C33.8105 19.3427 29.7916 23.3433 24.8502 23.3453ZM20.7837 20.6449L21.0557 20.8056C22.1994 21.481 23.5105 21.8384 24.8472 21.839H24.8502C28.9559 21.839 32.2976 18.5132 32.2992 14.4254C32.3 12.4445 31.5259 10.5819 30.1195 9.18062C28.7131 7.77931 26.8428 7.00721 24.8531 7.00652C20.7442 7.00652 17.4025 10.3319 17.4008 14.4194C17.4003 15.8202 17.7941 17.1845 18.5398 18.3648L18.7169 18.6453L17.9644 21.381L20.7837 20.6449ZM29.3654 16.547C29.3094 16.454 29.1601 16.3982 28.9362 16.2866C28.7123 16.1751 27.6113 15.636 27.406 15.5615C27.2007 15.4872 27.0514 15.45 26.9021 15.6731C26.7528 15.8962 26.3237 16.3982 26.193 16.547C26.0624 16.6957 25.9318 16.7143 25.7079 16.6027C25.484 16.4912 24.7624 16.2559 23.907 15.4966C23.2413 14.9056 22.7919 14.1758 22.6612 13.9527C22.5306 13.7295 22.6473 13.609 22.7594 13.4978C22.8602 13.3979 22.9834 13.2375 23.0953 13.1074C23.2073 12.9773 23.2446 12.8842 23.3193 12.7356C23.3939 12.5868 23.3566 12.4567 23.3006 12.3451C23.2446 12.2336 22.7968 11.1366 22.6102 10.6903C22.4284 10.2557 22.2438 10.3146 22.1063 10.3077C21.9758 10.3012 21.8264 10.2998 21.6771 10.2998C21.5278 10.2998 21.2852 10.3556 21.0799 10.5788C20.8747 10.8019 20.2962 11.3411 20.2962 12.438C20.2962 13.535 21.0986 14.5947 21.2106 14.7435C21.3225 14.8923 22.7896 17.1433 25.0361 18.1087C25.5704 18.3383 25.9875 18.4754 26.3127 18.5781C26.8492 18.7478 27.3374 18.7239 27.7232 18.6665C28.1535 18.6025 29.0481 18.1274 29.2348 17.6068C29.4213 17.0861 29.4213 16.6399 29.3654 16.547Z" fill="#25D366"/>
</g>
</g>
<defs>
<filter id="filter0_d" x="0.8125" y="0.5" width="48" height="48" filterUnits="userSpaceOnUse" color-interpolation-filters="sRGB">
<feFlood flood-opacity="0" result="BackgroundImageFix"/>
<feColorMatrix in="SourceAlpha" type="matrix" values="0 0 0 0 0 0 0 0 0 0 0 0 0 0 0 0 0 0 127 0"/>
<feOffset dy="10"/>
<feGaussianBlur stdDeviation="7.5"/>
<feColorMatrix type="matrix" values="0 0 0 0 0.129167 0 0 0 0 0.110192 0 0 0 0 0.108177 0 0 0 0.25 0"/>
<feBlend mode="normal" in2="BackgroundImageFix" result="effect1_dropShadow"/>
<feBlend mode="normal" in="SourceGraphic" in2="effect1_dropShadow" result="shape"/>
</filter>
<clipPath id="clip0">
<rect x="15.8125" y="5.5" width="18" height="18" fill="white"/>
</clipPath>
</defs>
</svg>
