<?xml version="1.0" standalone="no"?>
<!DOCTYPE svg PUBLIC "-//W3C//DTD SVG 1.1//EN" "http://www.w3.org/Graphics/SVG/1.1/DTD/svg11.dtd" >
<svg xmlns="http://www.w3.org/2000/svg" xmlns:xlink="http://www.w3.org/1999/xlink" version="1.1">
<metadata>
Created by FontForge 20170731 at Wed Oct 14 16:00:17 2015
 By Aleksey,,,
</metadata>
<defs>
<font id="PateticaDeco" horiz-adv-x="551" >
  <font-face 
    font-family="Patetica Deco"
    font-weight="400"
    font-stretch="normal"
    units-per-em="1000"
    panose-1="2 1 5 3 2 3 1 2 1 4"
    ascent="815"
    descent="-185"
    x-height="781"
    cap-height="783"
    bbox="-18 -186 1201 942"
    underline-thickness="20"
    underline-position="-163"
    unicode-range="U+0020-2122"
  />
<missing-glyph horiz-adv-x="286" 
 />
    <glyph glyph-name=".notdef" horiz-adv-x="286" 
 />
    <glyph glyph-name=".null" horiz-adv-x="0" 
 />
    <glyph glyph-name="nonmarkingreturn" horiz-adv-x="333" 
 />
    <glyph glyph-name="space" unicode=" " horiz-adv-x="315" 
 />
    <glyph glyph-name="exclam" unicode="!" horiz-adv-x="317" 
d="M285 116q0 -26 -10 -49t-27.5 -40.5t-40.5 -27.5t-49 -10t-49 10t-40 27.5t-27 40.5t-10 49q0 42 23.5 74t61.5 45v547h82v-547q38 -13 62 -45t24 -74zM202 116q0 17 -13 30t-31 13t-31 -13t-13 -30q0 -18 13 -31t31 -13t31 13t13 31z" />
    <glyph glyph-name="quotedbl" unicode="&#x22;" horiz-adv-x="300" 
d="M132 622l60 162l76 -28l-60 -162zM32 662l60 162l76 -28l-60 -162z" />
    <glyph glyph-name="numbersign" unicode="#" horiz-adv-x="473" 
d="M441 561v-65l-91 22l-15 -62l106 -25v-65l-121 29l-94 -395h-64l97 410l-62 15l-101 -425h-64l104 439l-91 24v64l106 -27l15 62l-121 31v64l135 -34l41 171h65l-45 -185l62 -15l48 200h65l-52 -215zM274 471l15 62l-62 15l-15 -62z" />
    <glyph glyph-name="dollar" unicode="$" horiz-adv-x="361" 
d="M329 192q0 -49 -27.5 -90t-73.5 -60v-43h-83v31h-53v83h53v208q-33 31 -55 57t-34.5 50t-18 48.5t-5.5 53.5q0 60 31 113.5t82 84.5v54h83v-24q18 3 36 3h10t10 -1v-82h-15q-26 0 -41 -4v-316q35 -32 55 -53t30.5 -38t13 -34t2.5 -41zM145 619q-30 -39 -30 -87
q0 -51 30 -94v181v0zM247 194q0 28 -19 50v-103q19 22 19 53z" />
    <glyph glyph-name="percent" unicode="%" horiz-adv-x="970" 
d="M465 577q0 -45 -17 -84t-46.5 -68t-69 -46t-84.5 -17q-44 0 -83.5 17t-69 46t-46.5 68.5t-17 83.5q0 45 17.5 84t47 68.5t68.5 46.5t83 17t83.5 -17t69 -46.5t47 -68.5t17.5 -84zM395 577q0 30 -11.5 56.5t-32 47t-47 32t-56.5 11.5t-56.5 -11.5t-46 -32t-31 -47
t-11.5 -56.5t11.5 -56.5t31 -46.5t46 -31.5t56.5 -11.5t57 11.5t47 31.5t31.5 46.5t11.5 56.5zM290 -65l290 859h84l-291 -859h-83zM938 203q0 -45 -17 -84t-46.5 -68t-69 -46t-84.5 -17q-44 0 -83.5 17t-69 46t-46.5 68.5t-17 83.5q0 45 17.5 84t47 68.5t68.5 46.5t83 17
t83.5 -17t69 -46.5t47 -68.5t17.5 -84zM868 203q0 30 -11.5 56.5t-32 47t-47 32t-56.5 11.5t-56.5 -11.5t-46 -32t-31 -47t-11.5 -56.5t11.5 -56.5t31 -46.5t46 -31.5t56.5 -11.5t57 11.5t47 31.5t31.5 46.5t11.5 56.5z" />
    <glyph glyph-name="ampersand" unicode="&#x26;" horiz-adv-x="1060" 
d="M646 393q19 -45 19 -103q0 -61 -23.5 -114.5t-63.5 -93.5t-93.5 -63t-113.5 -23t-114 23t-94 63t-63.5 93.5t-23.5 114.5q0 102 61 178q-48 18 -76.5 59.5t-28.5 92.5q0 33 13 62.5t35.5 51.5t52 35t62.5 13q88 0 135 -74l-69 -45q-23 36 -66 36q-33 0 -56.5 -23
t-23.5 -56t23.5 -56.5t56.5 -23.5q18 0 36 9l39 -73q-51 -28 -81 -78t-30 -108q0 -44 16.5 -82.5t45.5 -67.5t67.5 -45.5t82.5 -16.5q43 0 81.5 16.5t67 45.5t45.5 67.5t17 82.5q0 30 -9 59l-143 -83l-42 71l598 350l42 -71l-382 -223v0z" />
    <glyph glyph-name="quotesingle" unicode="'" horiz-adv-x="200" 
d="M32 662l60 162l76 -28l-60 -162z" />
    <glyph glyph-name="parenleft" unicode="(" horiz-adv-x="325" 
d="M235 -176q-100 97 -151.5 221t-51.5 263t51.5 263t151.5 221l58 -58q-178 -178 -178 -426q0 -121 46.5 -230.5t131.5 -194.5l-58 -59v0z" />
    <glyph glyph-name="parenright" unicode=")" horiz-adv-x="325" 
d="M32 -117q85 85 131.5 194.5t46.5 230.5q0 248 -178 426l58 58q100 -97 151.5 -221t51.5 -263t-51.5 -263t-151.5 -221l-58 59v0z" />
    <glyph glyph-name="asterisk" unicode="*" horiz-adv-x="433" 
d="M356 500l-67 -49l-73 101l-73 -100l-67 48l73 100l-117 39l26 78l117 -38v124h83v-125l118 38l25 -78l-118 -39z" />
    <glyph glyph-name="plus" unicode="+" horiz-adv-x="377" 
d="M230 149h-83v115h-115v83h115v115h83v-115h115v-83h-115v-115z" />
    <glyph glyph-name="comma" unicode="," horiz-adv-x="172" 
d="M32 -91l59 90h-46v84h95v-106l-45 -68h-63z" />
    <glyph glyph-name="hyphen" unicode="-" horiz-adv-x="237" 
d="M32 347h173v-83h-173v83z" />
    <glyph glyph-name="period" unicode="." horiz-adv-x="157" 
d="M32 84h93v-83h-93v83z" />
    <glyph glyph-name="slash" unicode="/" horiz-adv-x="438" 
d="M32 -65l290 859h84l-291 -859h-83z" />
    <glyph glyph-name="zero" unicode="0" horiz-adv-x="653" 
d="M621 290q0 -61 -23.5 -114.5t-63.5 -93.5t-93.5 -63t-113.5 -23t-114 23t-94 63t-63.5 93.5t-23.5 114.5t23.5 114.5t64 93.5t94 63t113.5 23t113.5 -23.5t93.5 -63.5t63.5 -93.5t23.5 -113.5zM539 290q0 43 -17 81t-46 67t-67.5 46t-81.5 17q-44 0 -82.5 -17
t-67.5 -45.5t-45.5 -67t-16.5 -81.5q0 -44 16.5 -82.5t45.5 -67.5t67.5 -45.5t82.5 -16.5q43 0 82 17t67.5 45.5t45.5 67t17 82.5z" />
    <glyph glyph-name="one" unicode="1" horiz-adv-x="293" 
d="M178 502h-146v83h229v-585h-83v502z" />
    <glyph glyph-name="two" unicode="2" horiz-adv-x="529" 
d="M317 292q32 38 32 78q0 27 -12 51t-32.5 42t-46 28.5t-52.5 10.5q-68 0 -108 -54l-66 50q66 87 174 87q43 0 84 -17t72.5 -46.5t50.5 -68.5t19 -83q0 -74 -52 -132l-134 -154h251v-84h-431z" />
    <glyph glyph-name="three" unicode="3" horiz-adv-x="610" 
d="M578 98q0 -58 -22.5 -109.5t-61 -90.5t-90 -61.5t-109.5 -22.5q-42 0 -82 12.5t-75 35.5t-62.5 55.5t-43.5 72.5l76 32q23 -57 74 -91t113 -34q41 0 77.5 16t64 43.5t43.5 64t16 77.5t-16 77.5t-44 64.5t-64.5 44t-77.5 16h-75l130 202h-196v82h347l-135 -210
q46 -12 85 -38.5t67.5 -63t44.5 -81.5t16 -93z" />
    <glyph glyph-name="four" unicode="4" horiz-adv-x="710" 
d="M522 -186h-82v186h-408l415 586h75v-503h156v-83h-156v-186zM192 83h248v350z" />
    <glyph glyph-name="five" unicode="5" horiz-adv-x="611" 
d="M579 98q0 -58 -22.5 -109.5t-61.5 -90.5t-90.5 -61.5t-109.5 -22.5q-42 0 -82.5 12.5t-75 36t-62 56t-43.5 71.5l76 32q23 -57 74 -91t113 -34q41 0 77.5 16t64 43.5t43.5 64t16 77.5t-16 78t-43.5 64.5t-64 43.5t-77.5 16h-164l184 284h239v-82h-194l-77 -120h12
q58 0 109.5 -22.5t90.5 -61.5t61.5 -90.5t22.5 -109.5z" />
    <glyph glyph-name="six" unicode="6" horiz-adv-x="653" 
d="M621 294q0 -60 -23.5 -113.5t-63.5 -94t-93.5 -64t-113.5 -23.5t-114 23t-94 62.5t-63.5 93.5t-23.5 116q0 85 48 160l212 328h97l-129 -202q17 4 33.5 6t33.5 2q60 0 113.5 -23.5t93.5 -63.5t63.5 -93.5t23.5 -113.5zM539 294q0 43 -16.5 81.5t-45.5 67t-67.5 45.5
t-82.5 17t-82.5 -17t-67.5 -45.5t-45.5 -67t-16.5 -81.5t16.5 -81.5t45 -67.5t66.5 -46t81 -17q44 0 83 16.5t68.5 45t46.5 67t17 83.5z" />
    <glyph glyph-name="seven" unicode="7" horiz-adv-x="657" 
d="M32 -186l441 688h-360v82h512l-495 -770h-98z" />
    <glyph glyph-name="eight" unicode="8" horiz-adv-x="697" 
d="M665 620q0 -51 -28.5 -92.5t-76.5 -59.5q61 -79 61 -178q0 -60 -23.5 -113.5t-63.5 -93.5t-94 -63.5t-114 -23.5q-61 0 -114.5 23t-93.5 63t-63 93.5t-23 114.5t23.5 114.5t63.5 93.5t93.5 63t113.5 23q15 0 18 -1q-4 13 -4 37q0 34 13 63.5t35.5 51.5t51.5 34.5t62 12.5
t62.5 -13t52 -35t35.5 -51.5t13 -62.5zM582 620q0 33 -23.5 56t-56.5 23t-56 -23t-23 -56t23 -56.5t56 -23.5t56.5 23.5t23.5 56.5zM538 290q0 43 -16.5 81.5t-45.5 67t-67.5 45.5t-82.5 17q-43 0 -81.5 -16.5t-67.5 -45.5t-46 -67.5t-17 -81.5q0 -44 17 -83t46 -67.5
t67.5 -45t81.5 -16.5q44 0 82.5 16.5t67.5 45.5t45.5 67.5t16.5 82.5z" />
    <glyph glyph-name="nine" unicode="9" horiz-adv-x="653" 
d="M621 303q0 -85 -48 -160l-212 -328h-97l129 202q-17 -4 -33.5 -6t-33.5 -2q-60 0 -113.5 23.5t-93.5 63.5t-63.5 93.5t-23.5 113.5t23.5 114t63.5 94t93.5 63.5t113.5 23.5t113.5 -23.5t93.5 -64t63.5 -94t24.5 -113.5zM538 303q0 42 -17 80.5t-45.5 68t-66.5 46.5
t-80 17q-44 0 -83 -16.5t-68.5 -45.5t-46.5 -67.5t-17 -82.5q0 -43 16.5 -81.5t45.5 -67t67.5 -45.5t82.5 -17t82.5 17t67.5 45.5t45.5 67t16.5 81.5z" />
    <glyph glyph-name="colon" unicode=":" horiz-adv-x="157" 
d="M32 384h93v-83h-93v83zM32 84h93v-83h-93v83z" />
    <glyph glyph-name="semicolon" unicode=";" horiz-adv-x="172" 
d="M47 384h93v-83h-93v83zM32 -91l59 90h-46v84h95v-106l-45 -68h-63z" />
    <glyph glyph-name="less" unicode="&#x3c;" horiz-adv-x="611" 
d="M140 441l439 -190v-90l-547 237v86l547 236v-90z" />
    <glyph glyph-name="equal" unicode="=" horiz-adv-x="377" 
d="M32 427h313v-83h-313v83zM32 267h313v-83h-313v83z" />
    <glyph glyph-name="greater" unicode="&#x3e;" horiz-adv-x="611" 
d="M579 484v-86l-547 -237v90l439 190l-439 189v90z" />
    <glyph glyph-name="question" unicode="?" horiz-adv-x="447" 
d="M415 591q0 -58 -30 -104l-160 -251q62 -38 62 -109q0 -26 -10.5 -49t-28 -40.5t-41 -28t-48.5 -10.5q-27 0 -50 10t-40 27.5t-27 40.5t-10 50q0 46 29.5 81.5t74.5 44.5l179 279q17 26 17 59q0 22 -8.5 42t-23 34.5t-34.5 23t-42 8.5q-23 0 -42.5 -8.5t-34.5 -23
t-23.5 -34.5t-8.5 -42q0 -60 50 -92l-45 -69q-88 57 -88 162q0 39 15.5 73.5t42 60.5t61 41t73.5 15t74 -15t61 -41t41 -61t15 -74zM204 127q0 19 -13 31.5t-32 12.5q-18 0 -31 -13t-13 -31q0 -19 13 -31.5t31 -12.5q19 0 32 13t13 31z" />
    <glyph glyph-name="at" unicode="@" horiz-adv-x="851" 
d="M819 389q0 -93 -43 -178l-11 -22h-433q-31 0 -58.5 12t-48 32.5t-32.5 48t-12 59.5q0 31 12.5 59t33 48.5t48 32.5t57.5 12h198q-47 54 -120 54v83q49 0 93 -19t77 -52t52.5 -77t19.5 -93v-118h61q23 55 23 118t-24.5 119.5t-67 99t-99 67t-120.5 24.5
q-63 0 -119.5 -24.5t-99 -67t-67 -99t-24.5 -119.5q0 -64 24.5 -120.5t66.5 -99t98.5 -67t120.5 -24.5q81 0 149 38l39 -73q-86 -47 -188 -47q-81 0 -152.5 31t-125 84.5t-84.5 125t-31 152.5t31 152.5t84.5 125t125 84.5t152.5 31t152.5 -31t125 -84.5t85 -125t31.5 -152.5
zM332 410q-28 0 -48.5 -20t-20.5 -49t20.5 -49.5t48.5 -20.5h236v139h-236z" />
    <glyph glyph-name="A" unicode="A" horiz-adv-x="475" 
d="M361 585q0 25 -10 47t-27 39t-39 27t-47 10t-47.5 -10t-39.5 -26.5t-27 -39t-10 -47.5v-585h-82v585q0 43 16.5 80.5t45 65.5t65.5 44t79 16t79.5 -16.5t65 -44.5t44 -65.5t16.5 -79.5v-585h-82v585zM332 186q0 -40 -27.5 -68t-67.5 -28q-20 0 -37 7.5t-29.5 20.5
t-20 30.5t-7.5 37.5q0 19 7.5 36.5t20 30.5t29.5 20.5t37 7.5t37.5 -7.5t30 -20.5t20 -30.5t7.5 -36.5z" />
    <glyph glyph-name="B" unicode="B" horiz-adv-x="457" 
d="M425 262q0 -54 -20.5 -101.5t-56.5 -83t-83.5 -56.5t-101.5 -21h-131v783h41q46 0 88 -18.5t73.5 -50.5t50 -74t18.5 -89q0 -33 -9 -63q61 -35 96 -95.5t35 -130.5zM342 262q0 27 -10 54.5t-30 52t-49.5 44.5t-67.5 32q14 24 25 47t11 59q0 50 -30.5 89t-76.5 53v-610h49
q37 0 69.5 14t57 38.5t38.5 57t14 69.5z" />
    <glyph glyph-name="C" unicode="C" horiz-adv-x="454" 
d="M422 0q-81 0 -152 31t-124 84t-83.5 124.5t-30.5 151.5t30.5 151.5t83.5 125t124 84.5t152 31v-84q-63 0 -119 -24.5t-98 -66.5t-66.5 -98t-24.5 -119t24.5 -119t66.5 -98t98 -66.5t119 -24.5v-83v0z" />
    <glyph glyph-name="D" unicode="D" horiz-adv-x="495" 
d="M463 391q0 -80 -31 -151t-84 -124.5t-124 -84.5t-151 -31h-41v783h41q80 0 151 -31.5t124 -85t84 -125t31 -150.5zM381 391q0 57 -20.5 109t-56.5 93t-85 68t-105 35v-610q57 8 106 35t84.5 68t56 93t20.5 109z" />
    <glyph glyph-name="E" unicode="E" 
d="M131 366h-99v83h99v334h384v-83h-302v-251h269v-83h-269v-283h302v-83h-384v366z" />
    <glyph glyph-name="F" unicode="F" 
d="M213 251h269v-83h-269v-168h-82v168h-99v83h99v532h388v-83h-306v-449z" />
    <glyph glyph-name="G" unicode="G" horiz-adv-x="615" 
d="M583 20q-105 -32 -161 -32q-80 0 -151 31t-124 84t-84 124t-31 152q0 57 16 110.5t46 99.5t71.5 82.5t92.5 60.5q-7 16 -14.5 33.5t-17.5 37.5l75 35l69 -152q-256 -84 -256 -307q0 -63 24.5 -119t66.5 -98t98 -66.5t119 -24.5q13 0 26.5 1.5t28.5 3.5l-98 302l78 26
l126 -384v0z" />
    <glyph glyph-name="H" unicode="H" horiz-adv-x="657" 
d="M519 165h-313l-22 -165h-84l23 165h-91v83h102l71 535h84l-72 -535h291l-71 535h83l105 -783h-83z" />
    <glyph glyph-name="I" unicode="I" horiz-adv-x="181" 
d="M134 779v-779h-82v779h82z" />
    <glyph glyph-name="J" unicode="J" horiz-adv-x="316" 
d="M284 664q0 -43 -24 -75.5t-63 -45.5v-477q0 -38 -14.5 -71.5t-39.5 -58.5t-58.5 -39.5t-71.5 -14.5v82q21 0 39.5 8t32.5 22t22 32.5t8 39.5v478q-37 14 -60.5 46t-23.5 74q0 26 10 49t27.5 40t40.5 27t49 10t49 -10t40 -27t27 -40t10 -49zM202 664q0 17 -13 30.5
t-31 13.5t-31 -13.5t-13 -30.5q0 -18 13 -31t31 -13t31 13t13 31z" />
    <glyph glyph-name="K" unicode="K" horiz-adv-x="678" 
d="M646 -15q-118 0 -266 123q-63 54 -147 65v-173h-82v171q-43 -10 -74 -31l-45 69q54 36 119 45v527h82v-521q50 16 96.5 67t82.5 123.5t58 159t23 173.5h83q-1 -84 -19 -167t-49.5 -156t-74 -133.5t-92.5 -99.5q53 -23 92 -56q125 -104 213 -104v-82v0z" />
    <glyph glyph-name="L" unicode="L" horiz-adv-x="386" 
d="M32 783h83v-700h239v-83h-322v783z" />
    <glyph glyph-name="M" unicode="M" horiz-adv-x="715" 
d="M600 611q0 21 -7.5 39.5t-21 32t-31.5 21.5t-39 8t-39.5 -8t-32 -21.5t-21.5 -32t-8 -39.5v-611h-84v611q0 21 -8 39.5t-21.5 32t-32 21.5t-39.5 8t-39 -8t-31.5 -21.5t-21.5 -32t-8 -39.5v-611h-83v611q0 38 14.5 71.5t39 58.5t58 39.5t71.5 14.5q87 0 143 -69
q54 69 143 69q37 0 70.5 -15t58 -40t39 -58.5t14.5 -70.5v-611h-83v611z" />
    <glyph glyph-name="N" unicode="N" horiz-adv-x="477" 
d="M362 587q0 25 -9.5 48t-26 40t-39 27t-47.5 10q-26 0 -48.5 -10t-40 -27t-27.5 -40t-10 -48v-587h-82v783h82v-31q55 43 126 43q42 0 79.5 -16.5t65.5 -45t44 -66.5t16 -80v-587h-83v587z" />
    <glyph glyph-name="O" unicode="O" horiz-adv-x="844" 
d="M812 391q0 -80 -31 -150.5t-84 -123.5t-124 -84t-151 -31t-150.5 30.5t-124 83.5t-84.5 124t-31 151t31.5 151t84.5 124t124 84t150 31t150 -31t124.5 -84.5t84.5 -124.5t31 -150zM729 391q0 63 -24.5 119t-66.5 98t-97.5 66.5t-118.5 24.5t-119 -24.5t-98 -66.5t-66 -98
t-24 -119t24.5 -119t66 -97.5t97.5 -66t119 -24.5t119 24.5t97.5 66t66 97.5t24.5 119z" />
    <glyph glyph-name="P" unicode="P" horiz-adv-x="542" 
d="M510 478q0 -57 -21.5 -109t-59 -92.5t-88 -67t-108.5 -33.5v-176h-83v167q-36 -8 -73 -30l-45 69q52 34 118 45v530h41q66 0 124 -24t101.5 -65.5t68.5 -96.5t25 -117zM427 478q0 40 -15.5 76t-41.5 64.5t-61.5 48.5t-75.5 27v-435q40 7 75.5 27t62 49t41.5 65.5t15 77.5
z" />
    <glyph glyph-name="Q" unicode="Q" horiz-adv-x="843" 
d="M811 -55q-105 0 -227 92q-78 -35 -162 -35q-80 0 -150.5 30.5t-124 83.5t-84.5 124t-31 151t31.5 151t84.5 124t124 84t150 31t150 -31t124 -84t84 -124t31 -151q0 -94 -40.5 -173.5t-110.5 -133.5q83 -56 151 -56v-83v0zM728 391q0 63 -24.5 119t-66.5 98t-97.5 66.5
t-117.5 24.5q-63 0 -119 -24.5t-98 -66.5t-66 -98t-24 -119q0 -127 90 -217q73 45 164 45q117 0 224 -83q63 43 99 110t36 145zM507 96q-36 21 -69 29.5t-69 8.5q-53 0 -90 -15q68 -35 143 -35q44 0 85 12z" />
    <glyph glyph-name="R" unicode="R" horiz-adv-x="678" 
d="M646 -12q-118 0 -266 123q-68 55 -147 66v-177h-83v174q-41 -9 -73 -30l-45 69q54 35 118 45v525h41q66 0 124 -24t101.5 -65.5t68.5 -96.5t25 -117q0 -81 -39.5 -148.5t-108.5 -109.5q21 -11 39 -22.5t32 -24.5q125 -104 213 -104v-83v0zM427 480q0 40 -15.5 76
t-41.5 64.5t-61.5 48.5t-75.5 27v-435q40 7 75.5 27t62 49t41.5 65.5t15 77.5z" />
    <glyph glyph-name="S" unicode="S" horiz-adv-x="414" 
d="M344 699q-18 9 -38 9q-34 0 -57 -23.5t-23 -56.5q0 -19 7 -33l120 -273q21 -48 21 -103q0 -47 -18.5 -89t-50 -73.5t-73.5 -50t-88 -18.5q-29 0 -56.5 6.5t-55.5 21.5l39 73q36 -17 71 -17q31 0 58 11.5t47.5 32t32.5 47.5t12 58q0 33 -15 68l-120 273q-14 34 -14 64
q0 34 13 64t35 52.5t51.5 35.5t62.5 13q43 0 77 -19l-38 -73v0z" />
    <glyph glyph-name="T" unicode="T" horiz-adv-x="487" 
d="M285 0h-83v700h-170v83h423v-83h-170v-700z" />
    <glyph glyph-name="U" unicode="U" horiz-adv-x="424" 
d="M392 182q0 -37 -14 -70t-39 -58t-58 -39.5t-71 -14.5t-71.5 14.5t-58 39.5t-38.5 58t-14 70v601h83v-601q0 -20 8 -38t21.5 -31.5t31.5 -21.5t38 -8t38 8t31.5 21.5t21.5 31.5t8 38v601h83v-601z" />
    <glyph glyph-name="V" unicode="V" horiz-adv-x="794" 
d="M32 783h91q26 -63 94 -221t180 -416l275 637h90l-365 -845z" />
    <glyph glyph-name="W" unicode="W" horiz-adv-x="1233" 
d="M617 305l-175 -357l-410 835h92l318 -647l129 263l-189 384h92l143 -291l142 291h92l-188 -384l129 -263q4 7 82.5 168t234.5 479h92l-409 -835z" />
    <glyph glyph-name="X" unicode="X" horiz-adv-x="812" 
d="M405 381l-271 -381h-102l323 451l-237 332h102l185 -260l187 260h101l-236 -332l323 -451h-102z" />
    <glyph glyph-name="Y" unicode="Y" horiz-adv-x="749" 
d="M416 0h-83v448l-301 335h112q57 -64 113.5 -128t116.5 -128q22 23 80 87t152 169h111l-301 -334v-449z" />
    <glyph glyph-name="Z" unicode="Z" horiz-adv-x="576" 
d="M391 700h-272v83h408l-360 -700h377v-83h-512z" />
    <glyph glyph-name="bracketleft" unicode="[" horiz-adv-x="236" 
d="M32 793h172v-83h-89v-806h89v-83h-172v972z" />
    <glyph glyph-name="backslash" unicode="\" horiz-adv-x="438" 
d="M116 794l290 -859h-83l-291 859h84z" />
    <glyph glyph-name="bracketright" unicode="]" horiz-adv-x="236" 
d="M32 -96h89v806h-89v83h172v-972h-172v83z" />
    <glyph glyph-name="asciicircum" unicode="^" horiz-adv-x="48" 
 />
    <glyph glyph-name="underscore" unicode="_" horiz-adv-x="500" 
d="M0 0h500v-80h-500v80z" />
    <glyph glyph-name="grave" unicode="`" horiz-adv-x="328" 
d="M32 816l47 68l217 -150l-48 -68z" />
    <glyph glyph-name="a" unicode="a" horiz-adv-x="613" 
d="M314 820l288 -820h-96l-197 583l-211 -583h-92zM401 186q0 -40 -27.5 -68t-67.5 -28q-20 0 -37 7.5t-29.5 20.5t-20 30.5t-7.5 37.5q0 19 7.5 36.5t20 30.5t29.5 20.5t37 7.5t37.5 -7.5t30 -20.5t20 -30.5t7.5 -36.5z" />
    <glyph glyph-name="b" unicode="b" horiz-adv-x="457" 
d="M425 262q0 -54 -20.5 -101.5t-56.5 -83t-83.5 -56.5t-101.5 -21h-131v783h41q46 0 88 -18.5t73.5 -50.5t50 -74t18.5 -89q0 -33 -9 -63q61 -35 96 -95.5t35 -130.5zM342 262q0 27 -10 54.5t-30 52t-49.5 44.5t-67.5 32q14 24 25 47t11 59q0 50 -30.5 89t-76.5 53v-610h49
q37 0 69.5 14t57 38.5t38.5 57t14 69.5z" />
    <glyph glyph-name="c" unicode="c" horiz-adv-x="454" 
d="M422 0q-81 0 -152 31t-124 84t-83.5 124.5t-30.5 151.5t30.5 151.5t83.5 125t124 84.5t152 31v-84q-63 0 -119 -24.5t-98 -66.5t-66.5 -98t-24.5 -119t24.5 -119t66.5 -98t98 -66.5t119 -24.5v-83z" />
    <glyph glyph-name="d" unicode="d" horiz-adv-x="495" 
d="M463 391q0 -80 -31 -151t-84 -124.5t-124 -84.5t-151 -31h-41v783h41q80 0 151 -31.5t124 -85t84 -125t31 -150.5zM381 391q0 57 -20.5 109t-56.5 93t-85 68t-105 35v-610q57 8 106 35t84.5 68t56 93t20.5 109z" />
    <glyph glyph-name="e" unicode="e" 
d="M131 366h-99v83h99v334h384v-83h-302v-251h269v-83h-269v-283h302v-83h-384v366z" />
    <glyph glyph-name="f" unicode="f" 
d="M213 251h269v-83h-269v-168h-82v168h-99v83h99v532h388v-83h-306v-449z" />
    <glyph glyph-name="g" unicode="g" horiz-adv-x="615" 
d="M583 20q-105 -32 -161 -32q-80 0 -151 31t-124 84t-84 124t-31 152q0 57 16 110.5t46 99.5t71.5 82.5t92.5 60.5q-7 16 -14.5 33.5t-17.5 37.5l75 35l69 -152q-256 -84 -256 -307q0 -63 24.5 -119t66.5 -98t98 -66.5t119 -24.5q13 0 26.5 1.5t28.5 3.5l-98 302l78 26z
" />
    <glyph glyph-name="h" unicode="h" horiz-adv-x="657" 
d="M519 165h-313l-22 -165h-84l23 165h-91v83h102l71 535h84l-72 -535h291l-71 535h83l105 -783h-83z" />
    <glyph glyph-name="i" unicode="i" horiz-adv-x="181" 
d="M134 779v-779h-82v779h82z" />
    <glyph glyph-name="j" unicode="j" horiz-adv-x="316" 
d="M284 664q0 -43 -24 -75.5t-63 -45.5v-477q0 -38 -14.5 -71.5t-39.5 -58.5t-58.5 -39.5t-71.5 -14.5v82q21 0 39.5 8t32.5 22t22 32.5t8 39.5v478q-37 14 -60.5 46t-23.5 74q0 26 10 49t27.5 40t40.5 27t49 10t49 -10t40 -27t27 -40t10 -49zM202 664q0 17 -13 30.5
t-31 13.5t-31 -13.5t-13 -30.5q0 -18 13 -31t31 -13t31 13t13 31z" />
    <glyph glyph-name="k" unicode="k" horiz-adv-x="678" 
d="M646 -15q-118 0 -266 123q-63 54 -147 65v-173h-82v171q-43 -10 -74 -31l-45 69q54 36 119 45v527h82v-521q50 16 96.5 67t82.5 123.5t58 159t23 173.5h83q-1 -84 -19 -167t-49.5 -156t-74 -133.5t-92.5 -99.5q53 -23 92 -56q125 -104 213 -104v-82z" />
    <glyph glyph-name="l" unicode="l" horiz-adv-x="386" 
d="M32 783h83v-700h239v-83h-322v783z" />
    <glyph glyph-name="m" unicode="m" horiz-adv-x="492" 
d="M245 448l-125 122v-570h-82l-1 791l210 -216l208 216l-1 -791h-82v581l-125 -133h-2z" />
    <glyph glyph-name="n" unicode="n" horiz-adv-x="494" 
d="M372 315v469l82 -1v-783h-82v178l-248 357v-535h-83v796z" />
    <glyph glyph-name="o" unicode="o" horiz-adv-x="844" 
d="M812 391q0 -80 -31 -150.5t-84 -123.5t-124 -84t-151 -31t-150.5 30.5t-124 83.5t-84.5 124t-31 151t31.5 151t84.5 124t124 84t150 31t150 -31t124.5 -84.5t84.5 -124.5t31 -150zM729 391q0 63 -24.5 119t-66.5 98t-97.5 66.5t-118.5 24.5t-119 -24.5t-98 -66.5t-66 -98
t-24 -119t24.5 -119t66 -97.5t97.5 -66t119 -24.5t119 24.5t97.5 66t66 97.5t24.5 119z" />
    <glyph glyph-name="p" unicode="p" horiz-adv-x="542" 
d="M510 478q0 -57 -21.5 -109t-59 -92.5t-88 -67t-108.5 -33.5v-176h-83v167q-36 -8 -73 -30l-45 69q52 34 118 45v530h41q66 0 124 -24t101.5 -65.5t68.5 -96.5t25 -117zM427 478q0 40 -15.5 76t-41.5 64.5t-61.5 48.5t-75.5 27v-435q40 7 75.5 27t62 49t41.5 65.5t15 77.5
z" />
    <glyph glyph-name="q" unicode="q" horiz-adv-x="843" 
d="M811 -55q-105 0 -227 92q-78 -35 -162 -35q-80 0 -150.5 30.5t-124 83.5t-84.5 124t-31 151t31.5 151t84.5 124t124 84t150 31t150 -31t124 -84t84 -124t31 -151q0 -94 -40.5 -173.5t-110.5 -133.5q83 -56 151 -56v-83zM728 391q0 63 -24.5 119t-66.5 98t-97.5 66.5
t-117.5 24.5q-63 0 -119 -24.5t-98 -66.5t-66 -98t-24 -119q0 -127 90 -217q73 45 164 45q117 0 224 -83q63 43 99 110t36 145zM507 96q-36 21 -69 29.5t-69 8.5q-53 0 -90 -15q68 -35 143 -35q44 0 85 12z" />
    <glyph glyph-name="r" unicode="r" horiz-adv-x="678" 
d="M646 -12q-118 0 -266 123q-68 55 -147 66v-177h-83v174q-41 -9 -73 -30l-45 69q54 35 118 45v525h41q66 0 124 -24t101.5 -65.5t68.5 -96.5t25 -117q0 -81 -39.5 -148.5t-108.5 -109.5q21 -11 39 -22.5t32 -24.5q125 -104 213 -104v-83zM427 480q0 40 -15.5 76
t-41.5 64.5t-61.5 48.5t-75.5 27v-435q40 7 75.5 27t62 49t41.5 65.5t15 77.5z" />
    <glyph glyph-name="s" unicode="s" horiz-adv-x="414" 
d="M344 699q-18 9 -38 9q-34 0 -57 -23.5t-23 -56.5q0 -19 7 -33l120 -273q21 -48 21 -103q0 -47 -18.5 -89t-50 -73.5t-73.5 -50t-88 -18.5q-29 0 -56.5 6.5t-55.5 21.5l39 73q36 -17 71 -17q31 0 58 11.5t47.5 32t32.5 47.5t12 58q0 33 -15 68l-120 273q-14 34 -14 64
q0 34 13 64t35 52.5t51.5 35.5t62.5 13q43 0 77 -19z" />
    <glyph glyph-name="t" unicode="t" horiz-adv-x="487" 
d="M285 0h-83v700h-170v83h423v-83h-170v-700z" />
    <glyph glyph-name="u" unicode="u" horiz-adv-x="424" 
d="M392 182q0 -37 -14 -70t-39 -58t-58 -39.5t-71 -14.5t-71.5 14.5t-58 39.5t-38.5 58t-14 70v601h83v-601q0 -20 8 -38t21.5 -31.5t31.5 -21.5t38 -8t38 8t31.5 21.5t21.5 31.5t8 38v601h83v-601z" />
    <glyph glyph-name="v" unicode="v" horiz-adv-x="794" 
d="M32 783h91q26 -63 94 -221t180 -416l275 637h90l-365 -845z" />
    <glyph glyph-name="w" unicode="w" horiz-adv-x="1233" 
d="M617 305l-175 -357l-410 835h92l318 -647l129 263l-189 384h92l143 -291l142 291h92l-188 -384l129 -263q4 7 82.5 168t234.5 479h92l-409 -835z" />
    <glyph glyph-name="x" unicode="x" horiz-adv-x="812" 
d="M405 381l-271 -381h-102l323 451l-237 332h102l185 -260l187 260h101l-236 -332l323 -451h-102z" />
    <glyph glyph-name="y" unicode="y" horiz-adv-x="749" 
d="M416 0h-83v448l-301 335h112q57 -64 113.5 -128t116.5 -128q22 23 80 87t152 169h111l-301 -334v-449z" />
    <glyph glyph-name="z" unicode="z" horiz-adv-x="576" 
d="M391 700h-272v83h408l-360 -700h377v-83h-512z" />
    <glyph glyph-name="braceleft" unicode="{" horiz-adv-x="447" 
d="M32 591q0 39 15 74t41 61t61 41t74 15t73.5 -15t61 -41t42 -60.5t15.5 -73.5q0 -105 -88 -162l-45 69q50 32 50 92q0 22 -8.5 42t-23.5 34.5t-35 23t-42 8.5q-23 0 -42.5 -8.5t-34 -23t-23 -34.5t-8.5 -42q0 -33 17 -59l150 -233l-150 -233q-17 -26 -17 -59
q0 -23 8.5 -42.5t23 -34t34 -23t42.5 -8.5q22 0 42 8.5t35 23t23.5 34t8.5 42.5q0 60 -50 92l45 69q88 -57 88 -162q0 -39 -15.5 -73.5t-42 -60.5t-61 -41t-73.5 -15t-74 15t-61 41t-41 61t-15 74q0 57 30 104l120 188l-120 188q-30 46 -30 104z" />
    <glyph glyph-name="bar" unicode="|" horiz-adv-x="24" 
 />
    <glyph glyph-name="braceright" unicode="}" horiz-adv-x="447" 
d="M415 591q0 -58 -30 -104l-120 -188l120 -188q30 -47 30 -104q0 -39 -15 -74t-41 -61t-61 -41t-74 -15t-73.5 15t-61 41t-42 60.5t-15.5 73.5q0 105 88 162l45 -69q-50 -32 -50 -92q0 -23 8.5 -42.5t23.5 -34t34.5 -23t42.5 -8.5q22 0 42 8.5t34.5 23t23 34t8.5 42.5
q0 33 -17 59l-150 233l150 233q17 26 17 59q0 22 -8.5 42t-23 34.5t-34.5 23t-42 8.5q-23 0 -42.5 -8.5t-34.5 -23t-23.5 -34.5t-8.5 -42q0 -60 50 -92l-45 -69q-88 57 -88 162q0 39 15.5 73.5t42 60.5t61 41t73.5 15t74 -15t61 -41t41 -61t15 -74z" />
    <glyph glyph-name="asciitilde" unicode="~" horiz-adv-x="24" 
 />
    <glyph glyph-name="currency" unicode="&#xa4;" horiz-adv-x="593" 
d="M226 401v-25h248l-66 -82h-168q16 -48 45 -87.5t68 -68t86 -44.5t98 -16v-82q-68 0 -130.5 22.5t-113 62.5t-86.5 94.5t-52 118.5h-123l67 82h44v25h-108l67 83h53q16 64 52.5 118.5t87 94.5t112.5 62.5t130 22.5v-83q-51 0 -97.5 -16t-85.5 -44.5t-68.5 -68t-45.5 -86.5
h321l-67 -83h-268z" />
    <glyph glyph-name="brokenbar" unicode="&#xa6;" horiz-adv-x="48" 
 />
    <glyph glyph-name="copyright" unicode="&#xa9;" horiz-adv-x="855" 
d="M823 397q0 -81 -31.5 -153t-85 -125.5t-125.5 -85t-153 -31.5t-153 31t-126 85t-85.5 126t-31.5 153q0 82 31.5 154t85.5 126t126 85t153 31t152.5 -31.5t125.5 -85.5t85.5 -126t31.5 -153zM758 397q0 67 -26.5 127.5t-71.5 105.5t-105 71.5t-127 26.5q-69 0 -129 -26.5
t-105 -71.5t-71 -105.5t-26 -127.5q0 -68 26.5 -128t71.5 -105t105 -71t128 -26q67 0 127 26t105 71t71.5 105t26.5 128zM485 108q-60 0 -112.5 23t-91.5 62.5t-61.5 92t-22.5 111.5t23 111.5t62.5 92t93 62.5t113.5 23v-69q-47 0 -88 -17.5t-71.5 -47.5t-48 -70t-17.5 -85
q0 -46 17.5 -86t48 -70t71.5 -47.5t88 -17.5v-64l-4 -4v0z" />
    <glyph glyph-name="guillemotleft" unicode="&#xab;" horiz-adv-x="379" 
d="M162 384l118 168l67 -47l-84 -121l84 -121l-67 -47zM32 384l118 168l67 -47l-84 -121l84 -121l-67 -47z" />
    <glyph glyph-name="logicalnot" unicode="&#xac;" horiz-adv-x="377" 
d="M262 169v95h-230v83h313v-178h-83z" />
    <glyph glyph-name="registered" unicode="&#xae;" horiz-adv-x="404" 
d="M282 529q-18 0 -36.5 8.5t-36.5 23.5q-6 5 -13.5 8.5t-13.5 5.5v-43h-32v41l-13 -7l-17 26q21 12 30 14v129h16q34 0 58.5 -23.5t24.5 -56.5q0 -18 -8.5 -34.5t-22.5 -27.5l10 -8q14 -11 28.5 -18t25.5 -7v-31v0zM218 655q0 36 -36 47v-93q17 4 26.5 16.5t9.5 29.5z
M372 626q0 -35 -13.5 -65.5t-37 -53.5t-54.5 -36.5t-65 -13.5q-35 0 -66 13.5t-54 36.5t-36.5 53.5t-13.5 65.5t13.5 66t37 54t54 36.5t65.5 13.5q34 0 65 -13.5t54.5 -36.5t37 -54t13.5 -66zM335 626q0 27 -10.5 51.5t-29 43t-42.5 29t-51 10.5q-28 0 -52.5 -10.5
t-42.5 -28.5t-28.5 -42.5t-10.5 -52.5q0 -27 10.5 -51.5t28.5 -43t42.5 -29t52.5 -10.5q27 0 51.5 10.5t42.5 29t28.5 43t10.5 51.5z" />
    <glyph glyph-name="degree" unicode="&#xb0;" horiz-adv-x="343" 
d="M311 655q0 -29 -11 -54.5t-30 -44t-44.5 -29t-53.5 -10.5q-29 0 -54.5 11t-44.5 30t-30 44t-11 53t11.5 53.5t30.5 45t44.5 30.5t53.5 11t53 -11t44 -30.5t30.5 -45t11.5 -53.5zM248 655q0 32 -22.5 54.5t-53.5 22.5t-53.5 -22.5t-22.5 -54.5q0 -31 22.5 -53.5
t53.5 -22.5t53.5 22.5t22.5 53.5z" />
    <glyph glyph-name="plusminus" unicode="&#xb1;" horiz-adv-x="377" 
d="M230 149h-83v115h-115v83h115v115h83v-115h115v-83h-115v-115zM32 84h313v-83h-313v83z" />
    <glyph glyph-name="paragraph" unicode="&#xb6;" horiz-adv-x="625" 
d="M593 783v-915h-82v830h-48v-830h-82v134q-73 8 -136.5 41.5t-111 86t-74.5 119.5t-27 142q0 79 31 150.5t84 125t124 85t151 31.5h171z" />
    <glyph glyph-name="periodcentered" unicode="&#xb7;" horiz-adv-x="157" 
d="M32 384h93v-83h-93v83z" />
    <glyph glyph-name="guillemotright" unicode="&#xbb;" horiz-adv-x="379" 
d="M116 384l-84 121l67 47l118 -168l-118 -168l-67 47zM246 384l-84 121l67 47l118 -168l-118 -168l-67 47z" />
    <glyph glyph-name="afii10023" unicode="&#x401;" 
d="M131 0h384v83h-302v283h269v83h-269v251h302v83h-384v-334h-99v-83h99v-366zM353 911h83v-83h-83v83zM211 911h84v-83h-84v83z" />
    <glyph glyph-name="afii10053" unicode="&#x404;" horiz-adv-x="533" 
d="M48 289q-14 51 -16 100.5t5.5 94.5t23.5 85t37 71q42 63 106 106.5t142 57.5l16 -82q-62 -11 -113 -44.5t-84 -82.5q-23 -35 -34 -79.5t-12 -92.5h280v-84h-272q6 -34 17 -65.5t27 -57.5q27 -39 64 -68t80.5 -46t91 -20.5t95.5 9.5l22 -81q-77 -20 -153.5 -8t-141.5 50
t-113 99t-68 138z" />
    <glyph glyph-name="uni0406" unicode="&#x406;" horiz-adv-x="181" 
d="M134 779v-779h-82v779h82z" />
    <glyph glyph-name="afii10056" unicode="&#x407;" horiz-adv-x="181" 
d="M134 779v-779h-82v779h82zM124 911h83v-83h-83v83zM-18 911h84v-83h-84v83z" />
    <glyph glyph-name="afii10062" unicode="&#x40e;" horiz-adv-x="536" 
d="M436 782h90l-288 -782h-89l76 207l-216 574l96 1l166 -450zM265 815q-47 0 -83 21t-50 59l65 33q7 -22 25.5 -36.5t42.5 -14.5q25 0 43.5 14.5t25.5 36.5l65 -33q-14 -38 -50 -59t-84 -21z" />
    <glyph glyph-name="afii10017" unicode="&#x410;" horiz-adv-x="522" 
d="M383 585q0 25 -10 47t-27 39t-39 27t-47 10t-47.5 -10t-39.5 -26.5t-27 -39t-10 -47.5v-585h-82v585q0 43 16.5 80.5t45 65.5t65.5 44t79 16t79.5 -16.5t65 -44.5t44 -65.5t16.5 -79.5v-585h-82v585zM354 186q0 -40 -27.5 -68t-67.5 -28q-20 0 -37 7.5t-29.5 20.5
t-20 30.5t-7.5 37.5q0 19 7.5 36.5t20 30.5t29.5 20.5t37 7.5t37.5 -7.5t30 -20.5t20 -30.5t7.5 -36.5z" />
    <glyph glyph-name="afii10018" unicode="&#x411;" horiz-adv-x="445" 
d="M136 697v-93q58 -7 108.5 -33.5t88 -67t59 -92.5t21.5 -109q0 -62 -25 -117t-68.5 -96.5t-101.5 -65.5t-124 -24h-41v781h294v-83h-211zM330 302q0 41 -15 77.5t-41.5 65.5t-62 49t-75.5 27v-435q40 7 75.5 27t61.5 48.5t41.5 64.5t15.5 76z" />
    <glyph glyph-name="afii10019" unicode="&#x412;" horiz-adv-x="457" 
d="M425 262q0 -54 -20.5 -101.5t-56.5 -83t-83.5 -56.5t-101.5 -21h-131v783h41q46 0 88 -18.5t73.5 -50.5t50 -74t18.5 -89q0 -33 -9 -63q61 -35 96 -95.5t35 -130.5zM342 262q0 27 -10 54.5t-30 52t-49.5 44.5t-67.5 32q14 24 25 47t11 59q0 50 -30.5 89t-76.5 53v-610h49
q37 0 69.5 14t57 38.5t38.5 57t14 69.5z" />
    <glyph glyph-name="afii10020" unicode="&#x413;" horiz-adv-x="476" 
d="M138 0h-82v783h388v-83h-306v-700z" />
    <glyph glyph-name="afii10021" unicode="&#x414;" horiz-adv-x="605" 
d="M104 0v-121h-82v204h73v502q0 43 16.5 80.5t45 65.5t65.5 44t79 16t79.5 -16.5t65 -44.5t44 -65.5t16.5 -79.5v-502h71v-204h-82v121h-391zM177 83h247v502q0 25 -10 47t-27 39t-39 27t-47 10t-47.5 -10t-39.5 -26.5t-27 -39t-10 -47.5v-502z" />
    <glyph glyph-name="afii10022" unicode="&#x415;" 
d="M131 366h-99v83h99v334h384v-83h-302v-251h269v-83h-269v-283h302v-83h-384v366z" />
    <glyph glyph-name="afii10024" unicode="&#x416;" horiz-adv-x="964" 
d="M437 173q-84 -11 -147 -65q-148 -123 -266 -123v82q88 0 213 104q39 33 92 56q-50 39 -92.5 99.5t-74 133.5t-49.5 156t-19 167h83q1 -87 23 -173.5t58 -159t82.5 -123.5t96.5 -67v521h82v-521q50 16 96.5 67t82.5 123.5t58 159t23 173.5h83q-1 -84 -19 -167t-49.5 -156
t-74 -133.5t-92.5 -99.5q53 -23 92 -56q125 -104 213 -104v-82q-118 0 -266 123q-63 54 -147 65v-173h-82v173z" />
    <glyph glyph-name="afii10025" unicode="&#x417;" horiz-adv-x="559" 
d="M102 227q-3 -39 8.5 -68.5t33 -50t51 -31t63.5 -10.5q57 0 97 27t61.5 68.5t24.5 90.5t-14 92t-55.5 74t-98.5 37q-11 1 -30 1.5t-32 -1.5v82q24 -1 46.5 -1t37.5 7q16 7 29 20.5t20.5 30.5t8.5 36.5t-7 38.5q-12 29 -37 41.5t-51 9t-46.5 -22t-22.5 -51.5l-82 14
q14 89 95 122q46 18 87.5 14t73.5 -24t53 -52t25 -69t-10.5 -75t-52.5 -70q67 -32 103 -81.5t45.5 -106t-5 -114t-50.5 -104t-90.5 -77.5t-123.5 -34q-51 -2 -98.5 14t-82.5 47t-53 75.5t-10 100.5h89z" />
    <glyph glyph-name="afii10026" unicode="&#x418;" horiz-adv-x="494" 
d="M372 784l83 -1v-783h-83v533l-248 -456v-77h-82v783l82 1v-546l248 455v91z" />
    <glyph glyph-name="afii10027" unicode="&#x419;" horiz-adv-x="494" 
d="M372 784l83 -1v-783h-83v533l-248 -456v-77h-82v783l82 1v-546l248 455v91zM247 829q-47 0 -83 21t-50 59l65 33q7 -22 25.5 -36.5t42.5 -14.5q25 0 43.5 14.5t25.5 36.5l65 -33q-14 -38 -50 -59t-84 -21z" />
    <glyph glyph-name="afii10028" unicode="&#x41a;" horiz-adv-x="678" 
d="M646 -15q-118 0 -266 123q-63 54 -147 65v-173h-82v171q-43 -10 -74 -31l-45 69q54 36 119 45v527h82v-521q50 16 96.5 67t82.5 123.5t58 159t23 173.5h83q-1 -84 -19 -167t-49.5 -156t-74 -133.5t-92.5 -99.5q53 -23 92 -56q125 -104 213 -104v-82z" />
    <glyph glyph-name="afii10029" unicode="&#x41b;" horiz-adv-x="475" 
d="M361 585q0 25 -10 47t-27 39t-39 27t-47 10t-47.5 -10t-39.5 -26.5t-27 -39t-10 -47.5v-585h-82v585q0 43 16.5 80.5t45 65.5t65.5 44t79 16t79.5 -16.5t65 -44.5t44 -65.5t16.5 -79.5v-585h-82v585z" />
    <glyph glyph-name="afii10030" unicode="&#x41c;" horiz-adv-x="715" 
d="M600 611q0 21 -7.5 39.5t-21 32t-31.5 21.5t-39 8t-39.5 -8t-32 -21.5t-21.5 -32t-8 -39.5v-611h-84v611q0 21 -8 39.5t-21.5 32t-32 21.5t-39.5 8t-39 -8t-31.5 -21.5t-21.5 -32t-8 -39.5v-611h-83v611q0 38 14.5 71.5t39 58.5t58 39.5t71.5 14.5q87 0 143 -69
q54 69 143 69q37 0 70.5 -15t58 -40t39 -58.5t14.5 -70.5v-611h-83v611z" />
    <glyph glyph-name="afii10031" unicode="&#x41d;" horiz-adv-x="657" 
d="M519 165h-313l-22 -165h-84l23 165h-91v83h102l71 535h84l-72 -535h291l-71 535h83l105 -783h-83z" />
    <glyph glyph-name="afii10032" unicode="&#x41e;" horiz-adv-x="844" 
d="M812 391q0 -80 -31 -150.5t-84 -123.5t-124 -84t-151 -31t-150.5 30.5t-124 83.5t-84.5 124t-31 151t31.5 151t84.5 124t124 84t150 31t150 -31t124.5 -84.5t84.5 -124.5t31 -150zM729 391q0 63 -24.5 119t-66.5 98t-97.5 66.5t-118.5 24.5t-119 -24.5t-98 -66.5t-66 -98
t-24 -119t24.5 -119t66 -97.5t97.5 -66t119 -24.5t119 24.5t97.5 66t66 97.5t24.5 119zM517 405q0 -40 -27.5 -68t-67.5 -28q-20 0 -37 7.5t-29.5 20.5t-20 30.5t-7.5 37.5q0 19 7.5 36.5t20 30.5t29.5 20.5t37 7.5t37.5 -7.5t30 -20.5t20 -30.5t7.5 -36.5z" />
    <glyph glyph-name="afii10033" unicode="&#x41f;" horiz-adv-x="534" 
d="M394 704h-248v-704h-82v783h413v-783h-83v704z" />
    <glyph glyph-name="afii10034" unicode="&#x420;" horiz-adv-x="542" 
d="M510 478q0 -57 -21.5 -109t-59 -92.5t-88 -67t-108.5 -33.5v-176h-83v167q-36 -8 -73 -30l-45 69q52 34 118 45v530h41q66 0 124 -24t101.5 -65.5t68.5 -96.5t25 -117zM427 478q0 40 -15.5 76t-41.5 64.5t-61.5 48.5t-75.5 27v-435q40 7 75.5 27t62 49t41.5 65.5t15 77.5
z" />
    <glyph glyph-name="afii10035" unicode="&#x421;" horiz-adv-x="454" 
d="M422 0q-81 0 -152 31t-124 84t-83.5 124.5t-30.5 151.5t30.5 151.5t83.5 125t124 84.5t152 31v-84q-63 0 -119 -24.5t-98 -66.5t-66.5 -98t-24.5 -119t24.5 -119t66.5 -98t98 -66.5t119 -24.5v-83z" />
    <glyph glyph-name="afii10036" unicode="&#x422;" horiz-adv-x="487" 
d="M285 0h-83v700h-170v83h423v-83h-170v-700z" />
    <glyph glyph-name="afii10037" unicode="&#x423;" horiz-adv-x="536" 
d="M436 782h90l-288 -782h-89l76 207l-216 574l96 1l166 -450z" />
    <glyph glyph-name="afii10038" unicode="&#x424;" horiz-adv-x="775" 
d="M427 779v-70q63 -3 119 -26.5t98 -64t67 -96t25 -122.5q0 -66 -23 -122.5t-64.5 -98t-98 -66t-123.5 -26.5v-87h-82v86q-67 3 -122.5 27.5t-95.5 66t-62.5 97.5t-22.5 122q0 67 24 122t65 95t96 64.5t118 29.5v69h82zM648 401q0 52 -18 94t-49 72t-71 46.5t-83 18.5v-472
q46 4 86.5 22.5t70.5 49.5t47 74t17 95zM127 400q0 -52 16.5 -94.5t45.5 -73t69 -49.5t87 -25v475q-43 -5 -82.5 -22.5t-69.5 -46.5t-48 -70.5t-18 -93.5z" />
    <glyph glyph-name="afii10039" unicode="&#x425;" horiz-adv-x="812" 
d="M405 381l-271 -381h-102l323 451l-237 332h102l185 -260l187 260h101l-236 -332l323 -451h-102z" />
    <glyph glyph-name="afii10040" unicode="&#x426;" horiz-adv-x="547" 
d="M32 0v782h82v-703h248v703h83l-1 -699h71v-204h-82v121h-401z" />
    <glyph glyph-name="afii10041" unicode="&#x427;" horiz-adv-x="430" 
d="M309 783h83v-783h-83v402q-39 -26 -99 -26q-38 0 -71.5 12t-58 34.5t-38.5 56t-14 76.5v228h83v-223q-1 -27 10.5 -48t30 -34t41.5 -18.5t45.5 -1t41.5 18.5t29 39v267z" />
    <glyph glyph-name="afii10042" unicode="&#x428;" horiz-adv-x="841" 
d="M51 782h82v-703h248v703h82v-703h248v703h83l-1 -782h-742v782z" />
    <glyph glyph-name="afii10043" unicode="&#x429;" horiz-adv-x="896" 
d="M51 782h82v-703h248v703h82v-703h248v703h83l-1 -699h71v-204h-82v121h-731v782z" />
    <glyph glyph-name="afii10044" unicode="&#x42a;" horiz-adv-x="578" 
d="M36 699v83h233v-178q58 -7 108.5 -33.5t88 -67t59 -92.5t21.5 -109q0 -62 -25 -117t-68.5 -96.5t-101.5 -65.5t-124 -24h-41v700h-150zM463 302q0 41 -15 77.5t-41.5 65.5t-62 49t-75.5 27v-435q40 7 75.5 27t61.5 48.5t41.5 64.5t15.5 76z" />
    <glyph glyph-name="afii10045" unicode="&#x42b;" horiz-adv-x="605" 
d="M136 780v-176q58 -7 108.5 -33.5t88 -67t59 -92.5t21.5 -109q0 -62 -25 -117t-68.5 -96.5t-101.5 -65.5t-124 -24h-41v781h83zM330 302q0 41 -15 77.5t-41.5 65.5t-62 49t-75.5 27v-435q40 7 75.5 27t61.5 48.5t41.5 64.5t15.5 76zM556 779v-779h-82v779h82z" />
    <glyph glyph-name="afii10046" unicode="&#x42c;" horiz-adv-x="445" 
d="M136 780v-176q58 -7 108.5 -33.5t88 -67t59 -92.5t21.5 -109q0 -62 -25 -117t-68.5 -96.5t-101.5 -65.5t-124 -24h-41v781h83zM330 302q0 41 -15 77.5t-41.5 65.5t-62 49t-75.5 27v-435q40 7 75.5 27t61.5 48.5t41.5 64.5t15.5 76z" />
    <glyph glyph-name="afii10047" unicode="&#x42d;" horiz-adv-x="522" 
d="M478 289q-20 -77 -68 -138t-113 -99t-141.5 -50t-153.5 8l22 81q48 -13 95.5 -9.5t91 20.5t80.5 46t64 68q24 39 37 89.5t14.5 102.5t-9.5 101t-36 86q-33 49 -84 82.5t-113 44.5l16 82q78 -14 142 -57.5t106 -106.5q21 -31 37 -71t23.5 -85t5.5 -94.5t-16 -100.5z
M127 339v84h318l-18 -84h-300z" />
    <glyph glyph-name="afii10048" unicode="&#x42e;" horiz-adv-x="1112" 
d="M1066 389q0 -80 -31 -150.5t-84 -123.5t-124 -84t-151 -31t-150.5 30.5t-124 83.5t-84.5 124q-27 60 -31 127h-71l-47 -365h-84l48 365h-91v83h102l46 335h84l-47 -335h64q8 48 27 92q32 71 85 124t124 84t150 31t150 -31t124.5 -84.5t84.5 -124.5t31 -150zM983 389
q0 63 -24.5 119t-66.5 98t-97.5 66.5t-118.5 24.5t-119 -24.5t-98 -66.5t-66 -98t-24 -119t24.5 -119t66 -97.5t97.5 -66t119 -24.5t119 24.5t97.5 66t66 97.5t24.5 119zM771 403q0 -40 -27.5 -68t-67.5 -28q-20 0 -37 7.5t-29.5 20.5t-20 30.5t-7.5 37.5q0 19 7.5 36.5
t20 30.5t29.5 20.5t37 7.5t37.5 -7.5t30 -20.5t20 -30.5t7.5 -36.5z" />
    <glyph glyph-name="afii10049" unicode="&#x42f;" horiz-adv-x="563" 
d="M22 71q88 0 213 104q14 13 32 24.5t39 22.5q-69 42 -108.5 109.5t-39.5 148.5q0 62 25 117t68.5 96.5t101.5 65.5t124 24h41v-783h-83v177q-79 -11 -147 -66q-148 -123 -266 -123v83zM241 480q0 -41 15 -77.5t41.5 -65.5t62 -49t75.5 -27v435q-40 -7 -75.5 -27
t-61.5 -48.5t-41.5 -64.5t-15.5 -76z" />
    <glyph glyph-name="afii10065" unicode="&#x430;" horiz-adv-x="613" 
d="M314 820l288 -820h-96l-197 583l-211 -583h-92zM401 186q0 -40 -27.5 -68t-67.5 -28q-20 0 -37 7.5t-29.5 20.5t-20 30.5t-7.5 37.5q0 19 7.5 36.5t20 30.5t29.5 20.5t37 7.5t37.5 -7.5t30 -20.5t20 -30.5t7.5 -36.5z" />
    <glyph glyph-name="afii10066" unicode="&#x431;" horiz-adv-x="445" 
d="M136 697v-93q58 -7 108.5 -33.5t88 -67t59 -92.5t21.5 -109q0 -62 -25 -117t-68.5 -96.5t-101.5 -65.5t-124 -24h-41v781h294v-83h-211zM330 302q0 41 -15 77.5t-41.5 65.5t-62 49t-75.5 27v-435q40 7 75.5 27t61.5 48.5t41.5 64.5t15.5 76z" />
    <glyph glyph-name="afii10067" unicode="&#x432;" horiz-adv-x="457" 
d="M425 262q0 -54 -20.5 -101.5t-56.5 -83t-83.5 -56.5t-101.5 -21h-131v783h41q46 0 88 -18.5t73.5 -50.5t50 -74t18.5 -89q0 -33 -9 -63q61 -35 96 -95.5t35 -130.5zM342 262q0 27 -10 54.5t-30 52t-49.5 44.5t-67.5 32q14 24 25 47t11 59q0 50 -30.5 89t-76.5 53v-610h49
q37 0 69.5 14t57 38.5t38.5 57t14 69.5z" />
    <glyph glyph-name="afii10068" unicode="&#x433;" horiz-adv-x="476" 
d="M138 0h-82v783h388v-83h-306v-700z" />
    <glyph glyph-name="afii10069" unicode="&#x434;" horiz-adv-x="650" 
d="M103 0v-121h-82v204h61l249 737l228 -737h67v-204h-82v121h-441zM174 83h290l-138 463z" />
    <glyph glyph-name="afii10070" unicode="&#x435;" 
d="M131 366h-99v83h99v334h384v-83h-302v-251h269v-83h-269v-283h302v-83h-384v366z" />
    <glyph glyph-name="afii10072" unicode="&#x436;" horiz-adv-x="964" 
d="M437 173q-84 -11 -147 -65q-148 -123 -266 -123v82q88 0 213 104q39 33 92 56q-50 39 -92.5 99.5t-74 133.5t-49.5 156t-19 167h83q1 -87 23 -173.5t58 -159t82.5 -123.5t96.5 -67v521h82v-521q50 16 96.5 67t82.5 123.5t58 159t23 173.5h83q-1 -84 -19 -167t-49.5 -156
t-74 -133.5t-92.5 -99.5q53 -23 92 -56q125 -104 213 -104v-82q-118 0 -266 123q-63 54 -147 65v-173h-82v173z" />
    <glyph glyph-name="afii10073" unicode="&#x437;" horiz-adv-x="559" 
d="M102 227q-3 -39 8.5 -68.5t33 -50t51 -31t63.5 -10.5q57 0 97 27t61.5 68.5t24.5 90.5t-14 92t-55.5 74t-98.5 37q-11 1 -30 1.5t-32 -1.5v82q24 -1 46.5 -1t37.5 7q16 7 29 20.5t20.5 30.5t8.5 36.5t-7 38.5q-12 29 -37 41.5t-51 9t-46.5 -22t-22.5 -51.5l-82 14
q14 89 95 122q46 18 87.5 14t73.5 -24t53 -52t25 -69t-10.5 -75t-52.5 -70q67 -32 103 -81.5t45.5 -106t-5 -114t-50.5 -104t-90.5 -77.5t-123.5 -34q-51 -2 -98.5 14t-82.5 47t-53 75.5t-10 100.5h89z" />
    <glyph glyph-name="afii10074" unicode="&#x438;" horiz-adv-x="494" 
d="M455 796v-796h-83v535l-248 -357v-178h-82v783l82 1v-469z" />
    <glyph glyph-name="afii10075" unicode="&#x439;" horiz-adv-x="494" 
d="M455 796v-796h-83v535l-248 -357v-178h-82v783l82 1v-469zM267 829q-47 0 -83 21t-50 59l65 33q7 -22 25.5 -36.5t42.5 -14.5q25 0 43.5 14.5t25.5 36.5l65 -33q-14 -38 -50 -59t-84 -21z" />
    <glyph glyph-name="afii10076" unicode="&#x43a;" horiz-adv-x="678" 
d="M646 -15q-118 0 -266 123q-63 54 -147 65v-173h-82v171q-43 -10 -74 -31l-45 69q54 36 119 45v527h82v-521q50 16 96.5 67t82.5 123.5t58 159t23 173.5h83q-1 -84 -19 -167t-49.5 -156t-74 -133.5t-92.5 -99.5q53 -23 92 -56q125 -104 213 -104v-82z" />
    <glyph glyph-name="afii10077" unicode="&#x43b;" horiz-adv-x="561" 
d="M288 797l272 -797h-96l-181 555l-188 -555h-92z" />
    <glyph glyph-name="afii10078" unicode="&#x43c;" horiz-adv-x="492" 
d="M245 448l-125 122v-570h-82l-1 791l210 -216l208 216l-1 -791h-82v581l-125 -133h-2z" />
    <glyph glyph-name="afii10079" unicode="&#x43d;" horiz-adv-x="657" 
d="M519 165h-313l-22 -165h-84l23 165h-91v83h102l71 535h84l-72 -535h291l-71 535h83l105 -783h-83z" />
    <glyph glyph-name="afii10080" unicode="&#x43e;" horiz-adv-x="844" 
d="M812 391q0 -80 -31 -150.5t-84 -123.5t-124 -84t-151 -31t-150.5 30.5t-124 83.5t-84.5 124t-31 151t31.5 151t84.5 124t124 84t150 31t150 -31t124.5 -84.5t84.5 -124.5t31 -150zM729 391q0 63 -24.5 119t-66.5 98t-97.5 66.5t-118.5 24.5t-119 -24.5t-98 -66.5t-66 -98
t-24 -119t24.5 -119t66 -97.5t97.5 -66t119 -24.5t119 24.5t97.5 66t66 97.5t24.5 119z" />
    <glyph glyph-name="afii10081" unicode="&#x43f;" horiz-adv-x="534" 
d="M394 704h-248v-704h-82v783h413v-783h-83v704z" />
    <glyph glyph-name="afii10082" unicode="&#x440;" horiz-adv-x="542" 
d="M510 478q0 -57 -21.5 -109t-59 -92.5t-88 -67t-108.5 -33.5v-176h-83v167q-36 -8 -73 -30l-45 69q52 34 118 45v530h41q66 0 124 -24t101.5 -65.5t68.5 -96.5t25 -117zM427 478q0 40 -15.5 76t-41.5 64.5t-61.5 48.5t-75.5 27v-435q40 7 75.5 27t62 49t41.5 65.5t15 77.5
z" />
    <glyph glyph-name="afii10083" unicode="&#x441;" horiz-adv-x="454" 
d="M422 0q-81 0 -152 31t-124 84t-83.5 124.5t-30.5 151.5t30.5 151.5t83.5 125t124 84.5t152 31v-84q-63 0 -119 -24.5t-98 -66.5t-66.5 -98t-24.5 -119t24.5 -119t66.5 -98t98 -66.5t119 -24.5v-83z" />
    <glyph glyph-name="afii10084" unicode="&#x442;" horiz-adv-x="487" 
d="M285 0h-83v700h-170v83h423v-83h-170v-700z" />
    <glyph glyph-name="afii10085" unicode="&#x443;" horiz-adv-x="536" 
d="M436 782h90l-288 -782h-89l76 207l-216 574l96 1l166 -450z" />
    <glyph glyph-name="afii10086" unicode="&#x444;" horiz-adv-x="775" 
d="M427 779v-70q63 -3 119 -26.5t98 -64t67 -96t25 -122.5q0 -66 -23 -122.5t-64.5 -98t-98 -66t-123.5 -26.5v-87h-82v86q-67 3 -122.5 27.5t-95.5 66t-62.5 97.5t-22.5 122q0 67 24 122t65 95t96 64.5t118 29.5v69h82zM648 401q0 52 -18 94t-49 72t-71 46.5t-83 18.5v-472
q46 4 86.5 22.5t70.5 49.5t47 74t17 95zM127 400q0 -52 16.5 -94.5t45.5 -73t69 -49.5t87 -25v475q-43 -5 -82.5 -22.5t-69.5 -46.5t-48 -70.5t-18 -93.5z" />
    <glyph glyph-name="afii10087" unicode="&#x445;" horiz-adv-x="812" 
d="M405 381l-271 -381h-102l323 451l-237 332h102l185 -260l187 260h101l-236 -332l323 -451h-102z" />
    <glyph glyph-name="afii10088" unicode="&#x446;" horiz-adv-x="547" 
d="M32 0v782h82v-703h248v703h83l-1 -699h71v-204h-82v121h-401z" />
    <glyph glyph-name="afii10089" unicode="&#x447;" horiz-adv-x="430" 
d="M309 783h83v-783h-83v402q-39 -26 -99 -26q-38 0 -71.5 12t-58 34.5t-38.5 56t-14 76.5v228h83v-223q-1 -27 10.5 -48t30 -34t41.5 -18.5t45.5 -1t41.5 18.5t29 39v267z" />
    <glyph glyph-name="afii10090" unicode="&#x448;" horiz-adv-x="841" 
d="M51 782h82v-703h248v703h82v-703h248v703h83l-1 -782h-742v782z" />
    <glyph glyph-name="afii10091" unicode="&#x449;" horiz-adv-x="896" 
d="M51 782h82v-703h248v703h82v-703h248v703h83l-1 -699h71v-204h-82v121h-731v782z" />
    <glyph glyph-name="afii10092" unicode="&#x44a;" horiz-adv-x="578" 
d="M36 699v83h233v-178q58 -7 108.5 -33.5t88 -67t59 -92.5t21.5 -109q0 -62 -25 -117t-68.5 -96.5t-101.5 -65.5t-124 -24h-41v700h-150zM463 302q0 41 -15 77.5t-41.5 65.5t-62 49t-75.5 27v-435q40 7 75.5 27t61.5 48.5t41.5 64.5t15.5 76z" />
    <glyph glyph-name="afii10093" unicode="&#x44b;" horiz-adv-x="593" 
d="M128 780v-176q58 -7 108.5 -33.5t88 -67t59 -92.5t21.5 -109q0 -62 -25 -117t-68.5 -96.5t-101.5 -65.5t-124 -24h-41v781h83zM322 302q0 41 -15 77.5t-41.5 65.5t-62 49t-75.5 27v-435q40 7 75.5 27t61.5 48.5t41.5 64.5t15.5 76zM548 779v-779h-82v779h82z" />
    <glyph glyph-name="afii10094" unicode="&#x44c;" horiz-adv-x="445" 
d="M136 780v-176q58 -7 108.5 -33.5t88 -67t59 -92.5t21.5 -109q0 -62 -25 -117t-68.5 -96.5t-101.5 -65.5t-124 -24h-41v781h83zM330 302q0 41 -15 77.5t-41.5 65.5t-62 49t-75.5 27v-435q40 7 75.5 27t61.5 48.5t41.5 64.5t15.5 76z" />
    <glyph glyph-name="afii10095" unicode="&#x44d;" horiz-adv-x="458" 
d="M32 83q63 0 119 24.5t98 66.5t66 98q20 45 24 95h-240v84h235q-6 30 -19 59q-24 56 -66 98t-98 66.5t-119 24.5v84q81 0 152 -31t124 -84.5t83.5 -125t30.5 -151.5t-30.5 -151.5t-83.5 -124.5t-124 -84t-152 -31v83z" />
    <glyph glyph-name="afii10096" unicode="&#x44e;" horiz-adv-x="1112" 
d="M1066 389q0 -80 -31 -150.5t-84 -123.5t-124 -84t-151 -31t-150.5 30.5t-124 83.5t-84.5 124q-27 60 -31 127h-71l-47 -365h-84l48 365h-91v83h102l46 335h84l-47 -335h64q8 48 27 92q32 71 85 124t124 84t150 31t150 -31t124.5 -84.5t84.5 -124.5t31 -150zM983 389
q0 63 -24.5 119t-66.5 98t-97.5 66.5t-118.5 24.5t-119 -24.5t-98 -66.5t-66 -98t-24 -119t24.5 -119t66 -97.5t97.5 -66t119 -24.5t119 24.5t97.5 66t66 97.5t24.5 119z" />
    <glyph glyph-name="afii10097" unicode="&#x44f;" horiz-adv-x="563" 
d="M22 71q88 0 213 104q14 13 32 24.5t39 22.5q-69 42 -108.5 109.5t-39.5 148.5q0 62 25 117t68.5 96.5t101.5 65.5t124 24h41v-783h-83v177q-79 -11 -147 -66q-148 -123 -266 -123v83zM241 480q0 -41 15 -77.5t41.5 -65.5t62 -49t75.5 -27v435q-40 -7 -75.5 -27
t-61.5 -48.5t-41.5 -64.5t-15.5 -76z" />
    <glyph glyph-name="afii10071" unicode="&#x451;" 
d="M131 0h384v83h-302v283h269v83h-269v251h302v83h-384v-334h-99v-83h99v-366zM353 911h83v-83h-83v83zM211 911h84v-83h-84v83z" />
    <glyph glyph-name="afii10101" unicode="&#x454;" horiz-adv-x="458" 
d="M422 0q-81 0 -152 31t-124 84t-83.5 124.5t-30.5 151.5t30.5 151.5t83.5 125t124 84.5t152 31v-84q-63 0 -119 -24.5t-98 -66.5t-66 -98q-13 -29 -19 -59h235v-84h-240q4 -50 24 -95q24 -56 66 -98t98 -66.5t119 -24.5v-83z" />
    <glyph glyph-name="afii10103" unicode="&#x456;" horiz-adv-x="315" 
d="M283 667q0 -42 -24 -74.5t-62 -45.5v-547h-82v547q-38 13 -61.5 45.5t-23.5 74.5q0 26 10 49t27 40t40 27t49 10q25 0 48.5 -10t40.5 -27.5t27.5 -40.5t10.5 -48zM200 667q0 17 -13 30.5t-31 13.5t-31 -13.5t-13 -30.5q0 -18 13 -31t31 -13t31 13t13 31z" />
    <glyph glyph-name="afii10104" unicode="&#x457;" horiz-adv-x="181" 
d="M134 779v-779h-82v779h82zM124 911h83v-83h-83v83zM-18 911h84v-83h-84v83z" />
    <glyph glyph-name="afii10110" unicode="&#x45e;" horiz-adv-x="536" 
d="M436 782h90l-288 -782h-89l76 207l-216 574l96 1l166 -450zM265 815q-47 0 -83 21t-50 59l65 33q7 -22 25.5 -36.5t42.5 -14.5q25 0 43.5 14.5t25.5 36.5l65 -33q-14 -38 -50 -59t-84 -21z" />
    <glyph glyph-name="afii10146" unicode="&#x462;" horiz-adv-x="772" 
d="M376 704h-248v-704h-82v783h413v-176q58 -7 108.5 -33.5t88 -67t59 -92.5t21.5 -109q0 -62 -25 -117t-68.5 -96.5t-101.5 -65.5t-124 -24h-41v702zM653 305q0 41 -15 77.5t-41.5 65.5t-62 49t-75.5 27v-435q40 7 75.5 27t61.5 48.5t41.5 64.5t15.5 76z" />
    <glyph glyph-name="afii10194" unicode="&#x463;" horiz-adv-x="536" 
d="M32 626v83h112v71h83v-71h111v-83h-111v-49q58 -7 108.5 -30.5t88 -60.5t59 -85.5t21.5 -105.5q0 -62 -25 -116t-68.5 -94t-101.5 -63t-124 -23h-41v627h-112zM421 295q0 41 -15 74.5t-41.5 59t-62 42t-75.5 23.5v-408q40 7 75.5 25.5t61.5 46t41.5 62.5t15.5 75z" />
    <glyph glyph-name="afii10050" unicode="&#x490;" horiz-adv-x="476" 
d="M362 783v121h82v-204h-306v-700h-82v783h306z" />
    <glyph glyph-name="afii10098" unicode="&#x491;" horiz-adv-x="476" 
d="M362 783v121h82v-204h-306v-700h-82v783h306z" />
    <glyph glyph-name="endash" unicode="&#x2013;" horiz-adv-x="377" 
d="M32 347h313v-83h-313v83z" />
    <glyph glyph-name="emdash" unicode="&#x2014;" horiz-adv-x="707" 
d="M32 347h643v-83h-643v83z" />
    <glyph glyph-name="quoteleft" unicode="&#x2018;" horiz-adv-x="200" 
d="M32 662l60 162l76 -28l-60 -162z" />
    <glyph glyph-name="quoteright" unicode="&#x2019;" horiz-adv-x="200" 
d="M32 662l60 162l76 -28l-60 -162z" />
    <glyph glyph-name="quotesinglbase" unicode="&#x201a;" horiz-adv-x="200" 
d="M32 -48l60 162l76 -28l-60 -162z" />
    <glyph glyph-name="quotedblleft" unicode="&#x201c;" horiz-adv-x="300" 
d="M132 622l60 162l76 -28l-60 -162zM32 662l60 162l76 -28l-60 -162z" />
    <glyph glyph-name="quotedblright" unicode="&#x201d;" horiz-adv-x="300" 
d="M132 622l60 162l76 -28l-60 -162zM32 662l60 162l76 -28l-60 -162z" />
    <glyph glyph-name="quotedblbase" unicode="&#x201e;" horiz-adv-x="300" 
d="M132 -68l60 162l76 -28l-60 -162zM32 -28l60 162l76 -28l-60 -162z" />
    <glyph glyph-name="dagger" unicode="&#x2020;" horiz-adv-x="377" 
d="M228 -137h-82v402h-114v83h114v77h-114v83h114v39q-38 13 -61.5 45.5t-23.5 74.5q0 26 10 49t27 40t40 27t49 10q25 0 48.5 -10t40.5 -27.5t27.5 -40.5t10.5 -48q0 -42 -24 -74.5t-62 -45.5v-39h117v-83h-117v-77h117v-83h-117v-402zM231 667q0 17 -13 30.5t-31 13.5
t-31 -13.5t-13 -30.5q0 -18 13 -31t31 -13t31 13t13 31z" />
    <glyph glyph-name="daggerdbl" unicode="&#x2021;" horiz-adv-x="377" 
d="M228 -137h-82v78h-114v83h114v77h-114v83h114v81h-114v83h114v77h-114v83h114v39q-38 13 -61.5 45.5t-23.5 74.5q0 26 10 49t27 40t40 27t49 10q25 0 48.5 -10t40.5 -27.5t27.5 -40.5t10.5 -48q0 -42 -24 -74.5t-62 -45.5v-39h117v-83h-117v-77h117v-83h-117v-81h117v-83
h-117v-77h117v-83h-117v-78zM231 667q0 17 -13 30.5t-31 13.5t-31 -13.5t-13 -30.5q0 -18 13 -31t31 -13t31 13t13 31z" />
    <glyph glyph-name="bullet" unicode="&#x2022;" horiz-adv-x="297" 
d="M32 304q0 24 9 45.5t24.5 37.5t37 25t45.5 9t45.5 -9t37.5 -25t25 -37.5t9 -45.5t-9 -45.5t-25 -37t-37.5 -24.5t-45.5 -9t-45.5 9t-37 24.5t-24.5 37t-9 45.5z" />
    <glyph glyph-name="ellipsis" unicode="&#x2026;" horiz-adv-x="417" 
d="M292 84h93v-83h-93v83zM162 84h93v-83h-93v83zM32 84h93v-83h-93v83z" />
    <glyph glyph-name="perthousand" unicode="&#x2030;" horiz-adv-x="1200" 
d="M1168 203q0 -45 -17 -84t-46.5 -68t-69 -46t-84.5 -17q-32 0 -60.5 8.5t-53.5 24.5q-53 -33 -116 -33q-44 0 -83.5 17t-69 46t-46.5 68.5t-17 83.5q0 45 17.5 84t47 68.5t68.5 46.5t83 17q32 0 60.5 -9t54.5 -25q50 34 115 34q44 0 83.5 -17t69 -46.5t47 -68.5t17.5 -84z
M465 577q0 -45 -17 -84t-46.5 -68t-69 -46t-84.5 -17q-44 0 -83.5 17t-69 46t-46.5 68.5t-17 83.5q0 45 17.5 84t47 68.5t68.5 46.5t83 17t83.5 -17t69 -46.5t47 -68.5t17.5 -84zM290 -65l290 859h84l-291 -859h-83zM395 577q0 30 -11.5 56.5t-32 47t-47 32t-56.5 11.5
t-56.5 -11.5t-46 -32t-31 -47t-11.5 -56.5t11.5 -56.5t31 -46.5t46 -31.5t56.5 -11.5t57 11.5t47 31.5t31.5 46.5t11.5 56.5zM1098 203q0 30 -11.5 56.5t-32 47t-47 32t-56.5 11.5t-60 -14q22 -28 34.5 -61.5t12.5 -71.5t-12.5 -72t-34.5 -61q25 -13 60 -13q30 0 57 11.5
t47 31.5t31.5 46.5t11.5 56.5zM721 57q35 0 61 13q-47 55 -47 133q0 77 47 133q-31 14 -61 14t-56.5 -11.5t-46 -32t-31 -47t-11.5 -56.5t11.5 -56.5t31 -46.5t46 -31.5t56.5 -11.5zM868 203q0 25 -8.5 48t-23.5 42q-30 -39 -30 -90t30 -90q15 19 23.5 41.5t8.5 48.5z" />
    <glyph glyph-name="guilsinglleft" unicode="&#x2039;" horiz-adv-x="249" 
d="M32 384l118 168l67 -47l-84 -121l84 -121l-67 -47z" />
    <glyph glyph-name="guilsinglright" unicode="&#x203a;" horiz-adv-x="249" 
d="M116 384l-84 121l67 47l118 -168l-118 -168l-67 47z" />
    <glyph glyph-name="Euro" unicode="&#x20ac;" horiz-adv-x="593" 
d="M226 401v-25h248l-66 -82h-168q16 -48 45 -87.5t68 -68t86 -44.5t98 -16v-82q-68 0 -130.5 22.5t-113 62.5t-86.5 94.5t-52 118.5h-123l67 82h44v25h-108l67 83h53q16 64 52.5 118.5t87 94.5t112.5 62.5t130 22.5v-83q-51 0 -97.5 -16t-85.5 -44.5t-68.5 -68t-45.5 -86.5
h321l-67 -83h-268z" />
    <glyph glyph-name="afii61352" unicode="&#x2116;" horiz-adv-x="980" 
d="M374 587q0 25 -9.5 48t-26 40t-39 27t-47.5 10q-26 0 -48.5 -10t-40 -27t-27.5 -40t-10 -48v-587h-82v783h82v-31q55 43 126 43q42 0 79.5 -16.5t65.5 -45t44 -66.5t16 -80v-587h-83v587zM634 287h173v-83h-173v83zM941 564q0 -45 -17 -84t-46.5 -68t-69 -46t-84.5 -17
q-44 0 -83.5 17t-69 46t-46.5 68.5t-17 83.5q0 45 17.5 84t47 68.5t68.5 46.5t83 17t83.5 -17t69 -46.5t47 -68.5t17.5 -84zM871 564q0 30 -11.5 56.5t-32 47t-47 32t-56.5 11.5t-56.5 -11.5t-46 -32t-31 -47t-11.5 -56.5t11.5 -56.5t31 -46.5t46 -31.5t56.5 -11.5t57 11.5
t47 31.5t31.5 46.5t11.5 56.5z" />
    <glyph glyph-name="trademark" unicode="&#x2122;" horiz-adv-x="511" 
d="M139 490h-44v259h-63v44h170v-44h-63v-259zM435 722q0 14 -8.5 22.5t-21.5 8.5q-12 0 -21 -8.5t-9 -22.5v-232h-45v232q0 31 -31 31q-11 0 -20.5 -8.5t-9.5 -22.5v-232h-44v232q0 32 21.5 53.5t52.5 21.5t54 -21q21 21 52 21t52.5 -22t21.5 -53v-232h-44v232z" />
    </font>
</defs>
</svg>
